<svg width="16" height="16" viewBox="0 0 16 16" fill="none" xmlns="http://www.w3.org/2000/svg">
<g id="ri:e-bike-2-fill">
<path id="Vector" d="M10.6663 0.666748C10.8432 0.666748 11.0127 0.736986 11.1377 0.86201C11.2628 0.987034 11.333 1.1566 11.333 1.33341V2.00008H14.6663V6.00008H13.3203L15.151 11.0301C15.2815 11.3685 15.3416 11.7299 15.3276 12.0923C15.3136 12.4547 15.2258 12.8105 15.0697 13.1378C14.9135 13.4651 14.6922 13.7572 14.4193 13.996C14.1464 14.2349 13.8276 14.4156 13.4825 14.5271C13.1374 14.6385 12.7732 14.6784 12.4121 14.6443C12.051 14.6102 11.7007 14.5028 11.3826 14.3287C11.0644 14.1545 10.7851 13.9173 10.5618 13.6316C10.3385 13.3458 10.1758 13.0175 10.0837 12.6667H7.24901C7.09749 13.2519 6.7518 13.7682 6.26853 14.1312C5.78527 14.4941 5.19308 14.6823 4.58893 14.6648C3.98478 14.6473 3.40448 14.4252 2.94305 14.0348C2.48161 13.6444 2.16639 13.109 2.04901 12.5161C1.83296 12.4032 1.65198 12.2333 1.52575 12.0248C1.39951 11.8163 1.33285 11.5772 1.33301 11.3334V4.66675C1.33301 4.48994 1.40325 4.32037 1.52827 4.19534C1.65329 4.07032 1.82286 4.00008 1.99967 4.00008H6.66634C6.84315 4.00008 7.01272 4.07032 7.13775 4.19534C7.26277 4.32037 7.33301 4.48994 7.33301 4.66675V8.00008C7.33301 8.17689 7.40325 8.34646 7.52827 8.47149C7.65329 8.59651 7.82286 8.66675 7.99967 8.66675H9.33301C9.50982 8.66675 9.67939 8.59651 9.80441 8.47149C9.92944 8.34646 9.99967 8.17689 9.99967 8.00008V2.00008H7.99967V0.666748H10.6663ZM12.6663 10.6667C12.3828 10.6668 12.1067 10.7573 11.878 10.925C11.6494 11.0927 11.4802 11.329 11.395 11.5994C11.3098 11.8699 11.3131 12.1604 11.4042 12.4289C11.4954 12.6974 11.6698 12.9298 11.9021 13.0924C12.1344 13.255 12.4125 13.3393 12.696 13.3331C12.9794 13.3269 13.2535 13.2305 13.4785 13.0578C13.7034 12.8852 13.8675 12.6454 13.9468 12.3732C14.0262 12.1009 14.0166 11.8105 13.9197 11.5441L13.909 11.5147C13.8113 11.2647 13.6404 11.05 13.4187 10.8987C13.197 10.7474 12.9348 10.6666 12.6663 10.6667V10.6667ZM4.66634 10.6667C4.31272 10.6667 3.97358 10.8072 3.72353 11.0573C3.47348 11.3073 3.33301 11.6465 3.33301 12.0001C3.33301 12.3537 3.47348 12.6928 3.72353 12.9429C3.97358 13.1929 4.31272 13.3334 4.66634 13.3334C5.01996 13.3334 5.3591 13.1929 5.60915 12.9429C5.8592 12.6928 5.99967 12.3537 5.99967 12.0001C5.99967 11.6465 5.8592 11.3073 5.60915 11.0573C5.3591 10.8072 5.01996 10.6667 4.66634 10.6667ZM5.99967 5.33341H2.66634V6.66675H5.99967V5.33341ZM13.333 3.33341H11.333V4.66675H13.333V3.33341Z" fill="white"/>
</g>
</svg>
