<svg width="20" height="21" viewBox="0 0 20 21" fill="none" xmlns="http://www.w3.org/2000/svg">
<g id="ChevronDown">
<path id="Vector" fill-rule="evenodd" clip-rule="evenodd" d="M5.29303 7.79308C5.48056 7.60561 5.73487 7.50029 6.00003 7.50029C6.26519 7.50029 6.5195 7.60561 6.70703 7.79308L10 11.0861L13.293 7.79308C13.3853 7.69757 13.4956 7.62139 13.6176 7.56898C13.7396 7.51657 13.8709 7.48898 14.0036 7.48783C14.1364 7.48668 14.2681 7.51198 14.391 7.56226C14.5139 7.61254 14.6255 7.68679 14.7194 7.78069C14.8133 7.87458 14.8876 7.98623 14.9379 8.10913C14.9881 8.23202 15.0134 8.3637 15.0123 8.49648C15.0111 8.62926 14.9835 8.76048 14.9311 8.88249C14.8787 9.00449 14.8025 9.11483 14.707 9.20708L10.707 13.2071C10.5195 13.3946 10.2652 13.4999 10 13.4999C9.73487 13.4999 9.48056 13.3946 9.29303 13.2071L5.29303 9.20708C5.10556 9.01955 5.00024 8.76525 5.00024 8.50008C5.00024 8.23492 5.10556 7.98061 5.29303 7.79308Z" fill="white"/>
</g>
</svg>
