<svg width="21" height="21" viewBox="0 0 21 21" fill="none" xmlns="http://www.w3.org/2000/svg">
<g id="ChevronDown">
<path id="Vector" fill-rule="evenodd" clip-rule="evenodd" d="M5.79303 7.79308C5.98056 7.60561 6.23487 7.50029 6.50003 7.50029C6.76519 7.50029 7.0195 7.60561 7.20703 7.79308L10.5 11.0861L13.793 7.79308C13.8853 7.69757 13.9956 7.62139 14.1176 7.56898C14.2396 7.51657 14.3709 7.48898 14.5036 7.48783C14.6364 7.48668 14.7681 7.51198 14.891 7.56226C15.0139 7.61254 15.1255 7.68679 15.2194 7.78069C15.3133 7.87458 15.3876 7.98623 15.4379 8.10913C15.4881 8.23202 15.5134 8.3637 15.5123 8.49648C15.5111 8.62926 15.4835 8.76048 15.4311 8.88249C15.3787 9.00449 15.3025 9.11483 15.207 9.20708L11.207 13.2071C11.0195 13.3946 10.7652 13.4999 10.5 13.4999C10.2349 13.4999 9.98056 13.3946 9.79303 13.2071L5.79303 9.20708C5.60556 9.01955 5.50024 8.76525 5.50024 8.50008C5.50024 8.23492 5.60556 7.98061 5.79303 7.79308Z" fill="black"/>
</g>
</svg>
