<svg width="59" height="59" viewBox="0 0 59 59" fill="none" xmlns="http://www.w3.org/2000/svg">
<g id="ant-design:dispatch-filled">
<rect x="0.611572" y="0.664917" width="57.7792" height="57.7792" rx="28.8896" fill="#E8D8FD"/>
<path id="Vector" d="M34.1235 17.9987C34.43 17.9987 34.7239 18.1204 34.9406 18.3371C35.1573 18.5538 35.2791 18.8478 35.2791 19.1542V20.3098H41.057V27.2433H38.7239L41.8971 35.9622C42.1233 36.5488 42.2274 37.1753 42.2032 37.8035C42.1789 38.4317 42.0268 39.0483 41.7561 39.6157C41.4854 40.1831 41.1018 40.6893 40.6287 41.1033C40.1557 41.5174 39.6032 41.8306 39.0049 42.0238C38.4067 42.217 37.7754 42.2862 37.1495 42.227C36.5236 42.1679 35.9164 41.9817 35.365 41.6799C34.8135 41.3781 34.3294 40.9669 33.9423 40.4716C33.5552 39.9763 33.2732 39.4072 33.1135 38.7992H28.2C27.9373 39.8134 27.3381 40.7083 26.5004 41.3375C25.6628 41.9667 24.6363 42.2929 23.5891 42.2625C22.5418 42.2322 21.536 41.8472 20.7361 41.1705C19.9363 40.4939 19.3899 39.5657 19.1864 38.538C18.8119 38.3424 18.4982 38.0478 18.2794 37.6864C18.0606 37.325 17.945 36.9105 17.9453 36.488V24.9322C17.9453 24.6257 18.0671 24.3318 18.2838 24.115C18.5005 23.8983 18.7944 23.7766 19.1009 23.7766H27.19C27.4965 23.7766 27.7904 23.8983 28.0071 24.115C28.2238 24.3318 28.3456 24.6257 28.3456 24.9322V30.7101C28.3456 31.0166 28.4673 31.3105 28.684 31.5272C28.9007 31.7439 29.1947 31.8657 29.5011 31.8657H31.8123C32.1188 31.8657 32.4127 31.7439 32.6294 31.5272C32.8461 31.3105 32.9679 31.0166 32.9679 30.7101V20.3098H29.5011V17.9987H34.1235ZM37.5902 35.3324C37.0987 35.3326 36.6201 35.4894 36.2238 35.7801C35.8275 36.0708 35.5343 36.4803 35.3866 36.9491C35.2389 37.4178 35.2445 37.9215 35.4025 38.3869C35.5606 38.8522 35.8629 39.2551 36.2656 39.537C36.6682 39.8188 37.1502 39.965 37.6416 39.9542C38.1329 39.9434 38.6081 39.7763 38.998 39.4771C39.3879 39.1778 39.6722 38.7621 39.8098 38.2903C39.9473 37.8184 39.9308 37.315 39.7627 36.8532L39.7442 36.8023C39.5749 36.369 39.2787 35.9968 38.8943 35.7345C38.51 35.4723 38.0555 35.3321 37.5902 35.3324ZM23.7232 35.3324C23.1103 35.3324 22.5224 35.5759 22.089 36.0093C21.6556 36.4428 21.4121 37.0306 21.4121 37.6436C21.4121 38.2565 21.6556 38.8444 22.089 39.2778C22.5224 39.7112 23.1103 39.9547 23.7232 39.9547C24.3362 39.9547 24.924 39.7112 25.3575 39.2778C25.7909 38.8444 26.0344 38.2565 26.0344 37.6436C26.0344 37.0306 25.7909 36.4428 25.3575 36.0093C24.924 35.5759 24.3362 35.3324 23.7232 35.3324ZM26.0344 26.0877H20.2565V28.3989H26.0344V26.0877ZM38.7458 22.621H35.2791V24.9322H38.7458V22.621Z" fill="#8D4AFA"/>
</g>
</svg>
