<svg width="16" height="14" viewBox="0 0 16 14" fill="none" xmlns="http://www.w3.org/2000/svg">
<path id="Vector" d="M10.9937 4.63243C11.0604 4.6997 11.1398 4.7531 11.2272 4.78953C11.3147 4.82597 11.4085 4.84473 11.5033 4.84473C11.598 4.84473 11.6918 4.82597 11.7793 4.78953C11.8667 4.7531 11.9461 4.6997 12.0128 4.63243L14.8838 1.76151C15.0189 1.62635 15.0948 1.44305 15.0948 1.25192C15.0948 1.06078 15.0189 0.87748 14.8838 0.742329C14.7486 0.607177 14.5653 0.53125 14.3742 0.53125C14.183 0.53125 13.9997 0.607177 13.8646 0.742329L11.5033 3.11084L10.5774 2.17779C10.5105 2.11087 10.431 2.05779 10.3436 2.02157C10.2562 1.98535 10.1624 1.96671 10.0678 1.96671C9.87667 1.96671 9.69336 2.04264 9.55821 2.17779C9.49129 2.24471 9.43821 2.32416 9.40199 2.41159C9.36577 2.49903 9.34713 2.59274 9.34713 2.68738C9.34713 2.87851 9.42306 3.06182 9.55821 3.19697L10.9937 4.63243ZM14.3742 4.12284C14.1838 4.12284 14.0013 4.19846 13.8667 4.33306C13.7321 4.46766 13.6565 4.65022 13.6565 4.84057V11.3001C13.6565 11.4905 13.5808 11.6731 13.4462 11.8077C13.3116 11.9423 13.1291 12.0179 12.9387 12.0179H2.8905C2.70014 12.0179 2.51758 11.9423 2.38298 11.8077C2.24838 11.6731 2.17277 11.4905 2.17277 11.3001V4.41711L6.39302 8.64454C6.79584 9.04408 7.34008 9.26847 7.90743 9.26897C8.48905 9.26598 9.04606 9.03389 9.45773 8.62301L10.6922 7.38851C10.8274 7.25336 10.9033 7.07006 10.9033 6.87892C10.9033 6.68779 10.8274 6.50449 10.6922 6.36934C10.5571 6.23419 10.3738 6.15826 10.1826 6.15826C9.9915 6.15826 9.8082 6.23419 9.67305 6.36934L8.41702 7.62537C8.28285 7.75687 8.10248 7.83053 7.91461 7.83053C7.72674 7.83053 7.54636 7.75687 7.4122 7.62537L3.18477 3.40511H7.19688C7.38723 3.40511 7.56979 3.32949 7.70439 3.19489C7.83899 3.06029 7.91461 2.87773 7.91461 2.68738C7.91461 2.49702 7.83899 2.31447 7.70439 2.17987C7.56979 2.04527 7.38723 1.96965 7.19688 1.96965H2.8905C2.31943 1.96965 1.77176 2.1965 1.36796 2.6003C0.964158 3.00411 0.737305 3.55178 0.737305 4.12284V11.3001C0.737305 11.8712 0.964158 12.4189 1.36796 12.8227C1.77176 13.2265 2.31943 13.4533 2.8905 13.4533H12.9387C13.5098 13.4533 14.0575 13.2265 14.4613 12.8227C14.8651 12.4189 15.0919 11.8712 15.0919 11.3001V4.84057C15.0919 4.65022 15.0163 4.46766 14.8817 4.33306C14.7471 4.19846 14.5645 4.12284 14.3742 4.12284Z" fill="white"/>
</svg>
