<svg width="24" height="25" viewBox="0 0 24 25" fill="none" xmlns="http://www.w3.org/2000/svg">
<g id="asset 44">
<g id="Clip path group">
<mask id="mask0_3040_728" style="mask-type:luminance" maskUnits="userSpaceOnUse" x="0" y="0" width="24" height="25">
<g id="clip0_656_1468">
<path id="Vector" d="M24 0.675781H0V24.6758H24V0.675781Z" fill="white"/>
</g>
</mask>
<g mask="url(#mask0_3040_728)">
<g id="Group">
<path id="Vector_2" d="M12 2.67578C14.717 2.67578 15.056 2.68578 16.122 2.73578C17.187 2.78578 17.912 2.95278 18.55 3.20078C19.21 3.45478 19.766 3.79878 20.322 4.35378C20.8305 4.85368 21.224 5.45837 21.475 6.12578C21.722 6.76278 21.89 7.48878 21.94 8.55378C21.987 9.61978 22 9.95878 22 12.6758C22 15.3928 21.99 15.7318 21.94 16.7978C21.89 17.8628 21.722 18.5878 21.475 19.2258C21.2247 19.8936 20.8311 20.4984 20.322 20.9978C19.822 21.5061 19.2173 21.8995 18.55 22.1508C17.913 22.3978 17.187 22.5658 16.122 22.6158C15.056 22.6628 14.717 22.6758 12 22.6758C9.283 22.6758 8.944 22.6658 7.878 22.6158C6.813 22.5658 6.088 22.3978 5.45 22.1508C4.78233 21.9003 4.17753 21.5067 3.678 20.9978C3.16941 20.498 2.77593 19.8932 2.525 19.2258C2.277 18.5888 2.11 17.8628 2.06 16.7978C2.013 15.7318 2 15.3928 2 12.6758C2 9.95878 2.01 9.61978 2.06 8.55378C2.11 7.48778 2.277 6.76378 2.525 6.12578C2.77524 5.45796 3.1688 4.8531 3.678 4.35378C4.17767 3.84501 4.78243 3.45151 5.45 3.20078C6.088 2.95278 6.812 2.78578 7.878 2.73578C8.944 2.68878 9.283 2.67578 12 2.67578ZM12 7.67578C10.6739 7.67578 9.40215 8.20257 8.46447 9.14025C7.52678 10.0779 7 11.3497 7 12.6758C7 14.0019 7.52678 15.2736 8.46447 16.2113C9.40215 17.149 10.6739 17.6758 12 17.6758C13.3261 17.6758 14.5979 17.149 15.5355 16.2113C16.4732 15.2736 17 14.0019 17 12.6758C17 11.3497 16.4732 10.0779 15.5355 9.14025C14.5979 8.20257 13.3261 7.67578 12 7.67578ZM18.5 7.42578C18.5 7.09426 18.3683 6.77632 18.1339 6.5419C17.8995 6.30748 17.5815 6.17578 17.25 6.17578C16.9185 6.17578 16.6005 6.30748 16.3661 6.5419C16.1317 6.77632 16 7.09426 16 7.42578C16 7.7573 16.1317 8.07524 16.3661 8.30966C16.6005 8.54409 16.9185 8.67578 17.25 8.67578C17.5815 8.67578 17.8995 8.54409 18.1339 8.30966C18.3683 8.07524 18.5 7.7573 18.5 7.42578ZM12 9.67578C12.7956 9.67578 13.5587 9.99185 14.1213 10.5545C14.6839 11.1171 15 11.8801 15 12.6758C15 13.4714 14.6839 14.2345 14.1213 14.7971C13.5587 15.3597 12.7956 15.6758 12 15.6758C11.2044 15.6758 10.4413 15.3597 9.87868 14.7971C9.31607 14.2345 9 13.4714 9 12.6758C9 11.8801 9.31607 11.1171 9.87868 10.5545C10.4413 9.99185 11.2044 9.67578 12 9.67578Z" fill="#9051F4"/>
</g>
</g>
</g>
</g>
</svg>
