<svg width="24" height="25" viewBox="0 0 24 25" fill="none" xmlns="http://www.w3.org/2000/svg">
<g id="asset 43">
<g id="Clip path group">
<mask id="mask0_3040_722" style="mask-type:luminance" maskUnits="userSpaceOnUse" x="0" y="0" width="24" height="25">
<g id="clip0_656_1465">
<path id="Vector" d="M24 0.675781H0V24.6758H24V0.675781Z" fill="white"/>
</g>
</mask>
<g mask="url(#mask0_3040_722)">
<g id="Group">
<path id="Vector_2" d="M6.94141 5.6758C6.94114 6.20624 6.73017 6.71484 6.35491 7.08973C5.97965 7.46461 5.47084 7.67508 4.94041 7.67482C4.40997 7.67455 3.90137 7.46357 3.52649 7.08831C3.1516 6.71305 2.94114 6.20425 2.94141 5.6738C2.94167 5.14337 3.15264 4.63478 3.5279 4.25989C3.90316 3.88501 4.41197 3.67454 4.94241 3.6748C5.47284 3.67507 5.98144 3.88605 6.35633 4.26131C6.73121 4.63657 6.94167 5.14537 6.94141 5.6758ZM7.00141 9.15581H3.00141V21.6758H7.00141V9.15581ZM13.3214 9.15581H9.34141V21.6758H13.2814V15.1058C13.2814 11.4458 18.0514 11.1058 18.0514 15.1058V21.6758H22.0014V13.7458C22.0014 7.5758 14.9414 7.80582 13.2814 10.8358L13.3214 9.15581Z" fill="#9051F4"/>
</g>
</g>
</g>
</g>
</svg>
