<svg width="51" height="51" viewBox="0 0 51 51" fill="none" xmlns="http://www.w3.org/2000/svg">
<rect x="0.5" y="0.5" width="50" height="50" rx="25" fill="#E8D8FD"/>
<path d="M22.5011 15.8438C22.5011 15.2221 22.8171 14.626 23.3796 14.1865C23.9421 13.7469 24.7051 13.5 25.5006 13.5C26.2961 13.5 27.0591 13.7469 27.6216 14.1865C28.1841 14.626 28.5001 15.2221 28.5001 15.8438C28.5001 16.4654 28.1841 17.0615 27.6216 17.501C27.0591 17.9406 26.2961 18.1875 25.5006 18.1875C24.7051 18.1875 23.9421 17.9406 23.3796 17.501C22.8171 17.0615 22.5011 16.4654 22.5011 15.8438ZM25.0007 30.6875V36.9375C25.0007 37.8018 24.1071 38.5 23.001 38.5C21.8949 38.5 21.0013 37.8018 21.0013 36.9375V26.0439L19.2141 28.3682C18.6455 29.1055 17.4144 29.3447 16.4708 28.9004C15.5272 28.4561 15.221 27.4941 15.7897 26.7568L19.4328 22.0205C20.5202 20.6094 22.4698 19.7451 24.5758 19.7451H26.4317C28.5376 19.7451 30.4873 20.6094 31.5746 22.0205L35.2178 26.7568C35.7864 27.4941 35.4802 28.4561 34.5366 28.9004C33.593 29.3447 32.362 29.1055 31.7933 28.3682L29.9999 26.0439V36.9375C29.9999 37.8018 29.1063 38.5 28.0002 38.5C26.8941 38.5 26.0005 37.8018 26.0005 36.9375V30.6875H25.0007Z" fill="#8D4AFA"/>
</svg>
