<svg width="16" height="16" viewBox="0 0 16 16" fill="none" xmlns="http://www.w3.org/2000/svg">
<g id="mdi:truck">
<path id="Vector" d="M12.0003 12.3334C11.7351 12.3334 11.4808 12.2281 11.2932 12.0405C11.1057 11.853 11.0003 11.5986 11.0003 11.3334C11.0003 11.0682 11.1057 10.8138 11.2932 10.6263C11.4808 10.4388 11.7351 10.3334 12.0003 10.3334C12.2655 10.3334 12.5199 10.4388 12.7074 10.6263C12.895 10.8138 13.0003 11.0682 13.0003 11.3334C13.0003 11.5986 12.895 11.853 12.7074 12.0405C12.5199 12.2281 12.2655 12.3334 12.0003 12.3334ZM13.0003 6.33341L14.307 8.00008H11.3337V6.33341M4.00033 12.3334C3.73511 12.3334 3.48075 12.2281 3.29322 12.0405C3.10568 11.853 3.00033 11.5986 3.00033 11.3334C3.00033 11.0682 3.10568 10.8138 3.29322 10.6263C3.48075 10.4388 3.73511 10.3334 4.00033 10.3334C4.26554 10.3334 4.5199 10.4388 4.70743 10.6263C4.89497 10.8138 5.00033 11.0682 5.00033 11.3334C5.00033 11.5986 4.89497 11.853 4.70743 12.0405C4.5199 12.2281 4.26554 12.3334 4.00033 12.3334ZM13.3337 5.33341H11.3337V2.66675H2.00033C1.26033 2.66675 0.666992 3.26008 0.666992 4.00008V11.3334H2.00033C2.00033 11.8638 2.21104 12.3726 2.58611 12.7476C2.96118 13.1227 3.46989 13.3334 4.00033 13.3334C4.53076 13.3334 5.03947 13.1227 5.41454 12.7476C5.78961 12.3726 6.00033 11.8638 6.00033 11.3334H10.0003C10.0003 11.8638 10.211 12.3726 10.5861 12.7476C10.9612 13.1227 11.4699 13.3334 12.0003 13.3334C12.5308 13.3334 13.0395 13.1227 13.4145 12.7476C13.7896 12.3726 14.0003 11.8638 14.0003 11.3334H15.3337V8.00008L13.3337 5.33341Z" fill="white"/>
</g>
</svg>
