<svg width="51" height="51" viewBox="0 0 51 51" fill="none" xmlns="http://www.w3.org/2000/svg">
<g id="ant-design:dispatch-filled">
<rect x="0.5" y="0.5" width="50" height="50" rx="25" fill="#E8D8FD"/>
<path id="Vector" d="M16.5 19.5C15.39 19.5 14.5 20.39 14.5 21.5V29.5H16.5C16.5 30.2956 16.8161 31.0587 17.3787 31.6213C17.9413 32.1839 18.7044 32.5 19.5 32.5C20.2956 32.5 21.0587 32.1839 21.6213 31.6213C22.1839 31.0587 22.5 30.2956 22.5 29.5H28.5C28.5 30.2956 28.8161 31.0587 29.3787 31.6213C29.9413 32.1839 30.7044 32.5 31.5 32.5C32.2956 32.5 33.0587 32.1839 33.6213 31.6213C34.1839 31.0587 34.5 30.2956 34.5 29.5H36.5V25.5C36.5 24.39 35.61 23.5 34.5 23.5L31.5 19.5H16.5ZM28.5 21H31L32.96 23.5H28.5V21ZM19.5 28C19.8978 28 20.2794 28.158 20.5607 28.4393C20.842 28.7206 21 29.1022 21 29.5C21 29.8978 20.842 30.2794 20.5607 30.5607C20.2794 30.842 19.8978 31 19.5 31C19.1022 31 18.7206 30.842 18.4393 30.5607C18.158 30.2794 18 29.8978 18 29.5C18 29.1022 18.158 28.7206 18.4393 28.4393C18.7206 28.158 19.1022 28 19.5 28ZM31.5 28C31.8978 28 32.2794 28.158 32.5607 28.4393C32.842 28.7206 33 29.1022 33 29.5C33 29.8978 32.842 30.2794 32.5607 30.5607C32.2794 30.842 31.8978 31 31.5 31C31.1022 31 30.7206 30.842 30.4393 30.5607C30.158 30.2794 30 29.8978 30 29.5C30 29.1022 30.158 28.7206 30.4393 28.4393C30.7206 28.158 31.1022 28 31.5 28Z" fill="#8D4AFA"/>
</g>
</svg>
