<svg width="24" height="25" viewBox="0 0 24 25" fill="none" xmlns="http://www.w3.org/2000/svg">
<g id="asset 41">
<g id="Clip path group">
<mask id="mask0_3040_710" style="mask-type:luminance" maskUnits="userSpaceOnUse" x="0" y="0" width="24" height="25">
<g id="clip0_656_1462">
<path id="Vector" d="M24 0.675781H0V24.6758H24V0.675781Z" fill="white"/>
</g>
</mask>
<g mask="url(#mask0_3040_710)">
<g id="Group">
<path id="Vector_2" d="M22.1623 6.33171C21.3989 6.6694 20.5893 6.89118 19.7603 6.98971C20.634 6.46714 21.288 5.64472 21.6003 4.67571C20.7803 5.16371 19.8813 5.50571 18.9443 5.69071C18.3149 5.01729 17.4807 4.57067 16.5713 4.42029C15.6618 4.26991 14.7282 4.4242 13.9156 4.85916C13.1029 5.29412 12.4567 5.98539 12.0774 6.8255C11.6981 7.66561 11.607 8.60749 11.8183 9.50471C10.1554 9.42136 8.52863 8.98923 7.04358 8.23637C5.55854 7.48351 4.24842 6.42676 3.1983 5.13471C2.82659 5.77316 2.63125 6.49893 2.6323 7.23771C2.6323 8.68771 3.3703 9.96871 4.4923 10.7187C3.82831 10.6978 3.17893 10.5185 2.5983 10.1957V10.2477C2.5985 11.2134 2.93267 12.1493 3.54414 12.8968C4.15562 13.6442 5.00678 14.1572 5.9533 14.3487C5.33691 14.5157 4.6906 14.5404 4.0633 14.4207C4.33016 15.2519 4.8503 15.9789 5.55089 16.4998C6.25147 17.0207 7.09742 17.3095 7.9703 17.3257C7.10278 18.007 6.10947 18.5107 5.04718 18.8079C3.98488 19.1051 2.87442 19.19 1.7793 19.0577C3.69099 20.2871 5.91639 20.9398 8.1893 20.9377C15.8823 20.9377 20.0893 14.5647 20.0893 9.03771C20.0893 8.85771 20.0843 8.67571 20.0763 8.49771C20.8952 7.90588 21.6019 7.17273 22.1633 6.33271L22.1623 6.33171Z" fill="#9051F4"/>
</g>
</g>
</g>
</g>
</svg>
