<svg width="18" height="18" viewBox="0 0 18 18" fill="none" xmlns="http://www.w3.org/2000/svg">
<g id="mdi:van-utility" clip-path="url(#clip0_3229_2722)">
<path id="Vector" d="M2.37155 5.53491C1.57132 5.53491 0.929688 6.17654 0.929688 6.97677V12.7442H2.37155C2.37155 13.3178 2.59941 13.8679 3.00501 14.2735C3.41062 14.6791 3.96073 14.907 4.53434 14.907C5.10795 14.907 5.65806 14.6791 6.06366 14.2735C6.46927 13.8679 6.69713 13.3178 6.69713 12.7442H11.0227C11.0227 13.3178 11.2506 13.8679 11.6562 14.2735C12.0618 14.6791 12.6119 14.907 13.1855 14.907C13.7591 14.907 14.3092 14.6791 14.7148 14.2735C15.1204 13.8679 15.3483 13.3178 15.3483 12.7442H16.7902V9.86049C16.7902 9.06026 16.1485 8.41863 15.3483 8.41863L13.1855 5.53491H2.37155ZM11.0227 6.61631H12.825L14.2381 8.41863H11.0227V6.61631ZM4.53434 11.6628C4.82114 11.6628 5.0962 11.7768 5.299 11.9796C5.5018 12.1824 5.61573 12.4574 5.61573 12.7442C5.61573 13.031 5.5018 13.3061 5.299 13.5089C5.0962 13.7117 4.82114 13.8256 4.53434 13.8256C4.24753 13.8256 3.97248 13.7117 3.76968 13.5089C3.56688 13.3061 3.45294 13.031 3.45294 12.7442C3.45294 12.4574 3.56688 12.1824 3.76968 11.9796C3.97248 11.7768 4.24753 11.6628 4.53434 11.6628M13.1855 11.6628C13.4723 11.6628 13.7474 11.7768 13.9502 11.9796C14.153 12.1824 14.2669 12.4574 14.2669 12.7442C14.2669 13.031 14.153 13.3061 13.9502 13.5089C13.7474 13.7117 13.4723 13.8256 13.1855 13.8256C12.8987 13.8256 12.6236 13.7117 12.4208 13.5089C12.218 13.3061 12.1041 13.031 12.1041 12.7442C12.1041 12.4574 12.218 12.1824 12.4208 11.9796C12.6236 11.7768 12.8987 11.6628 13.1855 11.6628Z" fill="white"/>
</g>
<defs>
<clipPath id="clip0_3229_2722">
<rect width="17.3023" height="17.3023" fill="white" transform="translate(0.208984 0.488281)"/>
</clipPath>
</defs>
</svg>
