<svg width="378" height="286" viewBox="0 0 378 286" fill="none" xmlns="http://www.w3.org/2000/svg">
<path d="M377.201 250.936H-6V251.128H377.201V250.936Z" fill="#EBEBEB"/>
<path d="M338.804 263.268H313.421V263.459H338.804V263.268Z" fill="#EBEBEB"/>
<path d="M247.848 265.353H241.188V265.544H247.848V265.353Z" fill="#EBEBEB"/>
<path d="M312.655 256.155H297.947V256.346H312.655V256.155Z" fill="#EBEBEB"/>
<path d="M67.3064 257.443H34.2056V257.634H67.3064V257.443Z" fill="#EBEBEB"/>
<path d="M78.9861 257.443H74.1348V257.634H78.9861V257.443Z" fill="#EBEBEB"/>
<path d="M166.555 260.677H94.7588V260.868H166.555V260.677Z" fill="#EBEBEB"/>
<path d="M175.637 216.752H27.6527C26.4934 216.75 25.3822 216.288 24.5632 215.468C23.7442 214.647 23.2842 213.535 23.2842 212.376V4.33811C23.2943 3.18539 23.7587 2.08319 24.5767 1.27094C25.3946 0.458688 26.5 0.00197467 27.6527 0H175.637C176.798 0 177.911 0.461087 178.731 1.28183C179.552 2.10257 180.013 3.21573 180.013 4.37643V212.376C180.013 213.536 179.552 214.65 178.731 215.47C177.911 216.291 176.798 216.752 175.637 216.752ZM27.6527 0.153291C26.5442 0.155321 25.4818 0.597114 24.6987 1.3817C23.9156 2.16629 23.4758 3.22955 23.4758 4.33811V212.376C23.4758 213.484 23.9156 214.547 24.6987 215.332C25.4818 216.117 26.5442 216.558 27.6527 216.56H175.637C176.746 216.558 177.809 216.117 178.594 215.332C179.378 214.548 179.82 213.485 179.822 212.376V4.33811C179.82 3.22885 179.378 2.1656 178.594 1.38123C177.809 0.596865 176.746 0.155317 175.637 0.153291H27.6527Z" fill="#EBEBEB"/>
<path d="M341.418 216.752H193.425C192.265 216.75 191.154 216.288 190.333 215.468C189.513 214.648 189.051 213.536 189.049 212.376V4.33811C189.061 3.18469 189.528 2.0825 190.347 1.27046C191.166 0.45842 192.272 0.00195314 193.425 0H341.418C342.569 0.00398899 343.672 0.461594 344.489 1.27363C345.305 2.08567 345.768 3.18671 345.778 4.33811V212.376C345.778 213.534 345.319 214.645 344.502 215.465C343.685 216.285 342.576 216.748 341.418 216.752ZM193.425 0.153291C192.316 0.155317 191.253 0.596865 190.469 1.38123C189.684 2.1656 189.243 3.22885 189.241 4.33811V212.376C189.243 213.485 189.684 214.548 190.469 215.332C191.253 216.117 192.316 216.558 193.425 216.56H341.418C342.527 216.558 343.59 216.117 344.374 215.332C345.159 214.548 345.6 213.485 345.602 212.376V4.33811C345.6 3.22885 345.159 2.1656 344.374 1.38123C343.59 0.596865 342.527 0.155317 341.418 0.153291H193.425Z" fill="#EBEBEB"/>
<path d="M317.49 55.5371H194.858V136.62H317.49V55.5371Z" fill="#E0E0E0"/>
<path d="M313.283 59.9287H199.058V132.236H313.283V59.9287Z" fill="#EBEBEB"/>
<path d="M228.182 64.8262H206.516V94.8863H228.182V64.8262Z" fill="#F5F5F5"/>
<path d="M256.17 67.6543H231.975V100.964H256.17V67.6543Z" fill="#F5F5F5"/>
<path d="M282.611 64.8262H262.578V93.6294H282.611V64.8262Z" fill="#F5F5F5"/>
<path d="M305.289 66.9644H287.654V99.3392H305.289V66.9644Z" fill="#F5F5F5"/>
<path d="M305.289 105.579H266.747V129.224H305.289V105.579Z" fill="#F5F5F5"/>
<path d="M222.395 108.675H207.964V123.107H222.395V108.675Z" fill="#F5F5F5"/>
<path d="M242.329 111.871H227.722V126.48H242.329V111.871Z" fill="#F5F5F5"/>
<path d="M182.788 54.3491H86.2979V250.392H182.788V54.3491Z" fill="#E0E0E0"/>
<path d="M122.158 72.5137H103.358V91.3147H122.158V72.5137Z" fill="#F0F0F0"/>
<path d="M143.939 72.5137H125.139V91.3147H143.939V72.5137Z" fill="#F0F0F0"/>
<path d="M165.72 72.5137H146.92V91.3147H165.72V72.5137Z" fill="#F0F0F0"/>
<path d="M122.158 94.3804H103.358V113.181H122.158V94.3804Z" fill="#F0F0F0"/>
<path d="M143.939 94.3804H125.139V113.181H143.939V94.3804Z" fill="#F0F0F0"/>
<path d="M165.72 94.3804H146.92V113.181H165.72V94.3804Z" fill="#F0F0F0"/>
<path d="M175.093 144.154C175.093 144.871 174.88 145.572 174.482 146.168C174.084 146.764 173.518 147.229 172.855 147.503C172.193 147.777 171.464 147.849 170.761 147.709C170.057 147.569 169.412 147.224 168.905 146.717C168.398 146.21 168.052 145.564 167.912 144.861C167.773 144.158 167.844 143.429 168.119 142.766C168.393 142.104 168.858 141.538 169.454 141.139C170.05 140.741 170.751 140.528 171.468 140.528C171.944 140.527 172.416 140.62 172.856 140.802C173.297 140.984 173.697 141.251 174.033 141.588C174.37 141.925 174.637 142.325 174.819 142.765C175.001 143.205 175.094 143.677 175.093 144.154Z" fill="#F0F0F0"/>
<path d="M82.2436 54.4717H45.8013V71.6478H82.2436V54.4717Z" fill="#E0E0E0"/>
<path d="M82.2433 76.4688H52.7905V86.5935H82.2433V76.4688Z" fill="#E0E0E0"/>
<path d="M82.2437 54.4717H49.2041V71.6478H82.2437V54.4717Z" fill="#EBEBEB"/>
<path d="M82.2433 76.4688H55.5342V86.5935H82.2433V76.4688Z" fill="#EBEBEB"/>
<path d="M139.416 45.1922C145.336 42.7397 148.148 35.9517 145.695 30.0308C143.243 24.1099 136.456 21.2982 130.535 23.7507C124.614 26.2032 121.803 32.9912 124.255 38.9122C126.708 44.8331 133.495 47.6447 139.416 45.1922Z" fill="#F0F0F0"/>
<path d="M138.439 42.8343C143.057 40.9212 145.251 35.6262 143.338 31.0076C141.425 26.389 136.13 24.1957 131.512 26.1088C126.893 28.0219 124.7 33.3169 126.613 37.9355C128.526 42.5541 133.821 44.7474 138.439 42.8343Z" fill="#FAFAFA"/>
<path d="M132.075 37.28L131.592 36.6822L134.596 34.2832V28.3662H135.362V34.6511L132.075 37.28Z" fill="#F0F0F0"/>
<path d="M254.638 226.187C254.638 225.926 255.527 199.959 259.75 195.851C263.857 191.858 268.571 195.705 268.77 195.851L269.192 195.345C269.146 195.299 263.827 190.961 259.29 195.345C254.875 199.637 254.017 225.053 253.979 226.133L254.638 226.187Z" fill="#E0E0E0"/>
<path d="M254.278 231.291C254.278 230.977 257.167 200.12 245.893 187.182L245.395 187.619C256.477 200.334 253.649 230.916 253.619 231.222L254.278 231.291Z" fill="#E0E0E0"/>
<path d="M254.691 228.027L255.35 227.981C255.35 227.628 253.151 192.893 261.412 185.29L260.968 184.807C252.469 192.624 254.576 226.586 254.691 228.027Z" fill="#E0E0E0"/>
<path d="M253.618 228.003H254.277C254.277 227.045 254.009 204.535 247.617 200.871C247.01 200.478 246.317 200.237 245.597 200.168C244.876 200.098 244.15 200.203 243.479 200.472C239.647 202.067 237.7 208.949 237.616 209.241L238.252 209.417C238.252 209.348 240.168 202.519 243.732 201.086C244.31 200.857 244.935 200.771 245.553 200.833C246.172 200.896 246.767 201.106 247.288 201.446C253.35 204.925 253.618 227.773 253.618 228.003Z" fill="#E0E0E0"/>
<path d="M256.109 228.019L256.768 227.98C256.768 227.804 255.802 210.199 260.554 203.998C261.704 202.465 262.953 201.775 264.279 201.867C267.39 202.09 269.996 206.642 270.027 206.688L270.602 206.366C270.487 206.159 267.789 201.453 264.325 201.208C262.792 201.101 261.328 201.906 260.033 203.592C255.128 210.007 256.063 227.291 256.109 228.019Z" fill="#E0E0E0"/>
<path d="M255.067 230.418C255.197 228.709 258.171 188.509 252.936 181.419L252.4 181.817C257.496 188.716 254.439 229.951 254.408 230.364L255.067 230.418Z" fill="#E0E0E0"/>
<path d="M242.053 204.542C242.053 204.542 245.196 205.707 244.261 208.436C243.326 211.165 233.393 215.671 233.393 215.671C233.393 215.671 229.232 211.839 233.056 205.654C236.88 199.469 241.969 202.588 242.053 204.542Z" fill="#EBEBEB"/>
<path d="M255.711 199.339C255.711 199.339 252.369 199.201 252.177 202.082C251.986 204.964 259.428 212.943 259.428 212.943C259.428 212.943 264.731 211.027 263.597 203.83C262.463 196.633 256.546 197.568 255.711 199.339Z" fill="#EBEBEB"/>
<path d="M258.546 185.535C258.546 185.535 256.316 185.297 256.492 183.94C256.669 182.584 265.168 179.081 270.18 184.707C270.18 184.707 266.969 190.218 262.332 190.286C257.696 190.355 258.546 185.535 258.546 185.535Z" fill="#EBEBEB"/>
<path d="M254.393 182.239C254.393 182.239 256.408 183.212 256.975 181.963C257.543 180.713 252.185 173.256 244.943 175.409C244.943 175.409 244.751 181.779 248.645 184.293C252.538 186.807 254.393 182.239 254.393 182.239Z" fill="#EBEBEB"/>
<path d="M264.953 203.447C264.953 203.447 263.42 202.205 265.076 201.599C266.731 200.994 274.886 201.163 274.97 209.264C274.97 209.264 265.474 210.843 264.302 207.731C263.129 204.619 264.953 203.447 264.953 203.447Z" fill="#EBEBEB"/>
<path d="M245.587 185.335C245.587 185.335 247.119 184.094 245.464 183.481C243.809 182.867 235.654 183.051 235.57 191.145C235.57 191.145 245.066 192.724 246.238 189.65C247.411 186.577 245.587 185.335 245.587 185.335Z" fill="#EBEBEB"/>
<path d="M250.607 191.842C250.607 191.842 250.745 190.309 249.526 190.923C248.307 191.536 244.054 196.096 248.461 200.45C248.461 200.45 254.393 196.058 253.32 193.766C252.247 191.474 250.607 191.842 250.607 191.842Z" fill="#EBEBEB"/>
<path d="M266.326 193.988C266.326 193.988 265.406 192.785 266.755 192.639C268.104 192.494 274.143 194.103 272.733 200.127C272.733 200.127 265.375 199.576 265.069 197.062C264.762 194.548 266.326 193.988 266.326 193.988Z" fill="#EBEBEB"/>
<path d="M241.463 250.391H266.716L269.437 222.746H238.743L241.463 250.391Z" fill="#F0F0F0"/>
<path d="M237.394 225.796H270.786V219.695H237.394V225.796Z" fill="#E6E6E6"/>
<path d="M185.6 285.549C267.669 285.549 334.198 281.664 334.198 276.872C334.198 272.081 267.669 268.196 185.6 268.196C103.532 268.196 37.0029 272.081 37.0029 276.872C37.0029 281.664 103.532 285.549 185.6 285.549Z" fill="#F5F5F5"/>
<path d="M185.079 33.5474H163.068C161.269 33.5474 159.544 34.2621 158.272 35.5342C157 36.8062 156.286 38.5315 156.286 40.3305V59.4918C156.286 61.2907 157 63.0161 158.272 64.2881C159.544 65.5602 161.269 66.2748 163.068 66.2748H171.805L175.637 72.3221L176.404 66.2748H185.118C186.008 66.2748 186.89 66.0993 187.712 65.7584C188.535 65.4174 189.282 64.9176 189.911 64.2877C190.54 63.6577 191.039 62.9099 191.379 62.087C191.719 61.264 191.894 60.3822 191.893 59.4918V40.3305C191.893 39.4372 191.716 38.5526 191.373 37.7276C191.031 36.9027 190.528 36.1536 189.895 35.5233C189.262 34.893 188.511 34.394 187.684 34.0549C186.858 33.7159 185.973 33.5434 185.079 33.5474Z" fill="#711DF9"/>
<path opacity="0.7" d="M185.079 33.5474H163.068C161.269 33.5474 159.544 34.2621 158.272 35.5342C157 36.8062 156.286 38.5315 156.286 40.3305V59.4918C156.286 61.2907 157 63.0161 158.272 64.2881C159.544 65.5602 161.269 66.2748 163.068 66.2748H171.805L175.637 72.3221L176.404 66.2748H185.118C186.008 66.2748 186.89 66.0993 187.712 65.7584C188.535 65.4174 189.282 64.9176 189.911 64.2877C190.54 63.6577 191.039 62.9099 191.379 62.087C191.719 61.264 191.894 60.3822 191.893 59.4918V40.3305C191.893 39.4372 191.716 38.5526 191.373 37.7276C191.031 36.9027 190.528 36.1536 189.895 35.5233C189.262 34.893 188.511 34.394 187.684 34.0549C186.858 33.7159 185.973 33.5434 185.079 33.5474Z" fill="white"/>
<path d="M181.803 57.5541C186.071 53.2858 186.071 46.3656 181.803 42.0973C177.535 37.829 170.615 37.829 166.347 42.0973C162.079 46.3656 162.079 53.2858 166.347 57.5541C170.615 61.8223 177.535 61.8223 181.803 57.5541Z" fill="#711DF9"/>
<path d="M172.924 54.7092C172.778 54.7106 172.634 54.6797 172.501 54.6187C172.369 54.5578 172.252 54.4683 172.158 54.3566L167.866 49.3057C167.693 49.1024 167.608 48.8388 167.63 48.5729C167.651 48.307 167.778 48.0606 167.981 47.8878C168.184 47.715 168.448 47.63 168.714 47.6516C168.98 47.6731 169.226 47.7995 169.399 48.0027L172.917 52.1569L178.733 45.3048C178.908 45.112 179.151 44.9946 179.411 44.9773C179.67 44.96 179.927 45.0443 180.125 45.2122C180.324 45.3802 180.45 45.6188 180.476 45.8777C180.503 46.1366 180.427 46.3956 180.266 46.6001L173.683 54.3566C173.589 54.4665 173.473 54.5548 173.342 54.6157C173.211 54.6765 173.069 54.7084 172.924 54.7092Z" fill="white"/>
<path d="M309.704 137.838L308.24 137.769C308.24 137.769 305.742 155.85 304.086 157.268C302.431 158.686 278.143 153.987 276.726 152.96C276.677 152.918 276.642 152.862 276.626 152.799C275.561 150.14 279.776 120.141 281.324 118.746C282.872 117.351 287.601 118.746 287.601 118.746C287.601 118.746 297.832 121.145 303.695 122.739C305.03 123.055 306.339 123.47 307.612 123.981C309.144 124.885 309.704 137.838 309.704 137.838Z" fill="#263238"/>
<path opacity="0.2" d="M304.262 136.474C304.262 136.474 301.756 154.554 300.109 155.972C298.821 157.076 283.907 154.493 276.626 152.799C275.561 150.14 279.776 120.141 281.324 118.746C282.872 117.351 287.601 118.746 287.601 118.746C287.601 118.746 297.832 121.145 303.695 122.739C305.159 123.958 304.262 136.474 304.262 136.474Z" fill="white"/>
<path d="M261.666 89.0765L260.417 83.9873L266.103 85.1676C266.103 85.1676 266.946 89.7663 264.57 90.1112L261.666 89.0765Z" fill="#EEC1BB"/>
<path d="M261.98 79.0439L266.525 81.7188L266.103 85.1679L260.417 83.9875L261.98 79.0439Z" fill="#EEC1BB"/>
<path d="M281.684 119.267C280.795 119.699 279.881 120.078 278.948 120.402C278.273 120.149 277.614 119.888 276.963 119.635C276.633 119.497 276.296 119.367 275.974 119.221C274.779 118.731 273.606 118.202 272.441 117.642L271.054 116.968C270.671 116.769 270.287 116.577 269.897 116.37C269.023 115.895 268.149 115.427 267.283 114.914C266.685 114.569 266.088 114.201 265.497 113.818C264.907 113.435 264.287 112.998 263.673 112.538L263.313 112.27C262.528 111.684 261.795 111.033 261.121 110.323C260.713 109.908 260.342 109.459 260.01 108.982C259.807 108.697 259.623 108.4 259.458 108.092C259.412 108 259.359 107.901 259.313 107.794C259.198 107.533 259.09 107.265 259.021 107.027C258.689 105.965 258.516 104.86 258.508 103.747C258.49 102.241 258.597 100.736 258.83 99.2476C258.83 98.987 258.906 98.7188 258.945 98.4812C259.263 96.6235 259.68 94.7839 260.194 92.9704C260.577 91.6112 261.014 90.2572 261.504 88.9082L265.275 89.736C265.214 90.9776 265.137 92.2193 265.091 93.4609C265.007 95.3311 264.946 97.1859 264.946 98.9947V99.7611C264.946 100.827 265.015 101.869 265.13 102.827C265.13 102.957 265.168 103.095 265.183 103.225C265.248 103.7 265.374 104.163 265.559 104.605C265.597 104.682 265.559 104.605 265.605 104.651C265.651 104.697 265.605 104.689 265.712 104.758C265.819 104.827 265.973 105.027 266.172 105.195C267.189 106.021 268.279 106.752 269.429 107.38H269.498C270.732 108.069 272.035 108.752 273.384 109.388L273.667 109.518C275.553 110.422 277.499 111.304 279.484 112.132C280.251 112.454 281.017 112.775 281.73 113.074C281.73 113.074 284.221 113.757 285.102 115.473C285.815 116.914 283.638 118.325 281.684 119.267Z" fill="#711DF9"/>
<path opacity="0.2" d="M281.684 119.267C280.795 119.699 279.882 120.078 278.948 120.401C278.274 120.149 277.615 119.888 276.963 119.635C276.634 119.497 276.296 119.367 275.975 119.221C274.779 118.731 273.606 118.202 272.441 117.642C276.641 115.657 279.929 117.665 281.684 119.267Z" fill="black"/>
<path d="M254.393 267.591L249.557 265.835L252.216 254.178L257.06 255.933L254.393 267.591Z" fill="#EEC1BB"/>
<path d="M292.559 274.021H287.424L285.96 262.125H291.095L292.559 274.021Z" fill="#EEC1BB"/>
<path d="M286.765 273.423H293.027C293.128 273.424 293.227 273.46 293.306 273.524C293.386 273.588 293.441 273.677 293.463 273.776L294.529 278.375C294.55 278.487 294.547 278.602 294.518 278.713C294.489 278.823 294.436 278.926 294.363 279.013C294.29 279.101 294.198 279.171 294.094 279.218C293.99 279.265 293.876 279.289 293.762 279.287C291.747 279.248 290.275 279.133 287.738 279.133C286.206 279.133 281.469 279.294 279.308 279.294C277.147 279.294 276.855 277.164 277.775 276.995C281.722 276.129 284.673 274.933 285.945 273.791C286.165 273.574 286.456 273.443 286.765 273.423Z" fill="#263238"/>
<path d="M249.38 264.854L254.875 266.027C254.975 266.05 255.064 266.106 255.129 266.185C255.194 266.264 255.231 266.362 255.235 266.464L255.312 271.139C255.314 271.253 255.291 271.365 255.244 271.468C255.197 271.572 255.128 271.663 255.041 271.736C254.955 271.81 254.853 271.863 254.744 271.892C254.634 271.922 254.519 271.926 254.408 271.906C252.43 271.446 249.587 270.71 247.096 270.181C244.184 269.553 242.375 268.963 238.957 268.234C236.888 267.79 236.742 265.582 237.647 265.575C241.762 265.575 244.253 266.341 248.085 265.008C248.493 264.833 248.943 264.779 249.38 264.854Z" fill="#263238"/>
<path opacity="0.2" d="M252.216 254.178L250.844 260.187L255.688 261.95L257.06 255.941L252.216 254.178Z" fill="black"/>
<path opacity="0.2" d="M291.103 262.125H285.96L286.719 268.257H291.854L291.103 262.125Z" fill="black"/>
<path d="M249.426 258.416L257.642 261.36C257.642 261.36 264.042 233.177 267.444 217.549C268.94 211.374 270.785 205.289 272.97 199.323C276.082 190.555 279.791 181.112 282.788 173.731C285.953 165.96 288.306 160.472 288.306 160.472L270.587 156.885C270.587 156.885 257.075 195.782 254.032 211.157C250.905 227.145 249.426 258.416 249.426 258.416Z" fill="#263238"/>
<g opacity="0.3">
<path d="M249.426 258.416L257.642 261.36C257.642 261.36 264.042 233.177 267.444 217.549C268.94 211.374 270.785 205.289 272.97 199.323C276.082 190.555 279.791 181.112 282.788 173.731C285.953 165.96 288.306 160.472 288.306 160.472L270.587 156.885C270.587 156.885 257.075 195.782 254.032 211.157C250.905 227.145 249.426 258.416 249.426 258.416Z" fill="white"/>
</g>
<path opacity="0.2" d="M272.97 199.323C276.082 190.555 279.791 181.112 282.788 173.731L281.416 169.493C276.381 174.183 273.215 190.348 272.97 199.323Z" fill="black"/>
<path d="M280.174 158.824C280.174 158.824 277.017 203.171 276.825 218.247C276.611 234.748 284.328 267.069 284.328 267.069H293.74C293.74 267.069 289.977 237.906 291.234 221.558C292.628 203.27 297.564 162.342 297.564 162.342L280.174 158.824Z" fill="#263238"/>
<g opacity="0.3">
<path d="M280.174 158.824C280.174 158.824 277.017 203.171 276.825 218.247C276.611 234.748 284.328 267.069 284.328 267.069H293.74C293.74 267.069 289.977 237.906 291.234 221.558C292.628 203.27 297.564 162.342 297.564 162.342L280.174 158.824Z" fill="white"/>
</g>
<path d="M283.209 267.276H294.284L294.253 263.965L282.688 263.298L283.209 267.276Z" fill="#263238"/>
<path d="M248.33 258.308L258.14 261.712L259.213 258.546L248.483 254.637L248.33 258.308Z" fill="#263238"/>
<path d="M285.056 274.32C284.707 274.349 284.358 274.257 284.068 274.059C283.977 273.98 283.905 273.881 283.86 273.769C283.815 273.657 283.797 273.536 283.807 273.416C283.805 273.344 283.824 273.274 283.86 273.213C283.897 273.152 283.95 273.103 284.014 273.071C284.573 272.779 286.244 273.837 286.436 273.914C286.455 273.927 286.47 273.946 286.48 273.968C286.489 273.989 286.492 274.013 286.489 274.036C286.487 274.061 286.476 274.083 286.46 274.101C286.443 274.119 286.421 274.131 286.397 274.136C285.959 274.247 285.509 274.308 285.056 274.32ZM284.29 273.262C284.24 273.249 284.187 273.249 284.137 273.262C284.098 273.262 284.06 273.308 284.06 273.4C284.049 273.482 284.059 273.566 284.089 273.644C284.118 273.721 284.166 273.79 284.229 273.845C284.802 274.108 285.455 274.14 286.053 273.937C285.512 273.599 284.911 273.369 284.282 273.262H284.29Z" fill="#711DF9"/>
<path d="M286.374 274.143H286.313C285.777 273.852 284.742 272.725 284.842 272.158C284.859 272.069 284.907 271.988 284.976 271.93C285.046 271.871 285.134 271.838 285.225 271.836C285.318 271.825 285.412 271.832 285.501 271.859C285.591 271.885 285.674 271.93 285.746 271.99C286.344 272.48 286.512 273.959 286.512 274.028C286.515 274.049 286.512 274.071 286.502 274.09C286.492 274.109 286.477 274.125 286.459 274.136C286.447 274.144 286.432 274.149 286.418 274.151C286.403 274.152 286.388 274.15 286.374 274.143ZM285.317 272.089H285.233C285.079 272.089 285.064 272.181 285.056 272.212C284.995 272.557 285.662 273.407 286.191 273.806C286.149 273.22 285.933 272.659 285.57 272.196C285.499 272.134 285.411 272.096 285.317 272.089Z" fill="#711DF9"/>
<path d="M248.736 265.437C247.893 265.437 246.437 265.314 245.962 264.709C245.894 264.621 245.848 264.518 245.829 264.408C245.811 264.298 245.819 264.186 245.855 264.08C245.87 264.016 245.903 263.958 245.948 263.911C245.994 263.863 246.052 263.829 246.115 263.812C246.797 263.597 248.614 265.054 248.813 265.222C248.834 265.238 248.849 265.26 248.856 265.285C248.863 265.31 248.862 265.336 248.851 265.36C248.844 265.385 248.829 265.406 248.808 265.42C248.787 265.434 248.762 265.44 248.736 265.437ZM246.223 264.034H246.146C246.121 264.04 246.097 264.054 246.08 264.073C246.062 264.092 246.05 264.116 246.046 264.142C246.021 264.21 246.014 264.284 246.024 264.356C246.035 264.429 246.064 264.497 246.108 264.556C246.361 264.9 247.181 265.123 248.33 265.176C247.679 264.632 246.629 263.981 246.223 264.034Z" fill="#711DF9"/>
<path d="M248.736 265.437C248.723 265.444 248.709 265.448 248.694 265.448C248.679 265.448 248.665 265.444 248.652 265.437C248.1 265.038 247.119 263.689 247.326 263.137C247.38 263.007 247.51 262.861 247.84 262.9C247.961 262.913 248.078 262.95 248.185 263.009C248.292 263.069 248.385 263.149 248.46 263.245C248.804 263.888 248.938 264.622 248.844 265.345C248.843 265.366 248.837 265.387 248.824 265.405C248.812 265.423 248.795 265.437 248.775 265.444L248.736 265.437ZM247.686 263.137C247.659 263.139 247.633 263.147 247.61 263.162C247.587 263.177 247.568 263.197 247.556 263.222C247.433 263.551 248.077 264.586 248.621 265.084C248.681 264.499 248.558 263.91 248.269 263.398C248.216 263.326 248.148 263.266 248.07 263.222C247.992 263.178 247.906 263.152 247.817 263.145L247.686 263.137Z" fill="#711DF9"/>
<path d="M307.565 118.838C306.778 120.744 306.055 122.662 305.396 124.594C305.22 125.107 305.051 125.613 304.883 126.127C304.362 127.728 303.879 129.33 303.434 130.917C303.281 131.476 303.128 132.036 302.982 132.588C302.745 133.462 302.522 134.328 302.308 135.186C302.193 135.669 302.078 136.144 301.971 136.612C301.702 137.746 301.457 138.857 301.204 139.953C300.951 141.049 300.775 142.038 300.583 143.019C300.392 144 300.169 145.158 299.993 146.185C299.817 147.212 299.648 148.2 299.495 149.166C299.342 150.132 299.165 151.266 299.028 152.232C298.851 153.466 298.69 154.623 298.552 155.681C298.108 158.862 297.786 161.199 297.548 162.311L270.609 156.854C270.609 154.738 270.609 152.707 270.701 150.722C270.755 149.411 270.816 148.131 270.908 146.89C270.954 146.07 271.016 145.265 271.085 144.475C271.192 143.272 271.307 142.107 271.437 140.973C271.583 139.7 271.744 138.474 271.928 137.294C272.249 135.109 272.625 133.086 273.024 131.208C273.514 128.909 274.035 126.878 274.556 125.038C275.223 122.739 275.905 120.761 276.534 119.144C277.277 117.122 278.195 115.168 279.277 113.304C281.476 113.183 283.68 113.199 285.876 113.35C286.336 113.35 286.811 113.434 287.286 113.48C291.159 114.025 294.998 114.793 298.782 115.78C299.495 115.963 300.223 116.17 300.928 116.377C304.477 117.527 307.565 118.838 307.565 118.838Z" fill="#711DF9"/>
<path d="M300.116 102.704C298.683 106.245 296.659 112.852 298.767 115.833C297.4 116.791 295.843 117.441 294.201 117.74C292.559 118.039 290.872 117.98 289.256 117.566C286.098 116.853 286.367 114.599 287.309 113.519C291.609 113.365 292.092 110.292 291.908 107.287L300.116 102.704Z" fill="#EEC1BB"/>
<path opacity="0.2" d="M296.775 104.605L291.931 107.303C291.976 108.005 291.963 108.71 291.893 109.411C293.502 109.503 295.993 108.215 296.491 106.605C296.708 105.962 296.804 105.284 296.775 104.605Z" fill="black"/>
<path d="M290.766 89.9122C289.363 91.4451 287.961 95.2773 291.019 95.239C294.077 95.2007 293.172 87.2832 290.766 89.9122Z" fill="#263238"/>
<path d="M302.546 98.3507C300.676 103.087 299.817 105.954 296.575 107.617C291.693 110.116 286.459 105.893 286.88 100.719C287.256 96.0207 290.26 89.069 295.61 88.7394C296.79 88.6693 297.968 88.8984 299.036 89.4053C300.104 89.9122 301.027 90.6806 301.718 91.6392C302.41 92.5978 302.849 93.7155 302.993 94.8888C303.138 96.062 302.984 97.2528 302.546 98.3507Z" fill="#EEC1BB"/>
<path d="M303.281 89.2378H299.794L301.465 92.3879C302.032 92.4722 300.905 94.396 301.396 94.4037C301.396 94.4037 299.097 98.5885 300.53 101.417C305.68 101.003 309.32 96.956 306.983 94.0358C308.477 91.4758 305.864 89.575 303.281 89.2378Z" fill="#263238"/>
<path d="M303.097 102.988C302.728 103.501 302.26 103.936 301.72 104.267C301.181 104.597 300.581 104.816 299.955 104.912C298.284 105.157 297.656 103.601 298.277 102.122C298.851 100.788 300.407 99.0558 302.009 99.4927C302.358 99.5933 302.676 99.7788 302.935 100.033C303.194 100.286 303.386 100.601 303.494 100.947C303.602 101.294 303.622 101.661 303.553 102.017C303.484 102.374 303.327 102.707 303.097 102.988Z" fill="#EEC1BB"/>
<path d="M291.693 96.4116C290.83 97.4141 289.832 98.2912 288.727 99.0176C288.938 99.2897 289.204 99.5143 289.508 99.6767C289.812 99.8391 290.146 99.9357 290.49 99.9603L291.693 96.4116Z" fill="#D4827D"/>
<path d="M296.629 96.2659C296.585 96.2573 296.544 96.2371 296.51 96.2075C296.476 96.1779 296.451 96.1398 296.437 96.0972C296.346 95.8052 296.188 95.5386 295.975 95.3189C295.762 95.0993 295.5 94.9327 295.211 94.8326C295.18 94.8245 295.15 94.8104 295.125 94.791C295.099 94.7717 295.077 94.7474 295.061 94.7197C295.044 94.6919 295.034 94.6612 295.029 94.6293C295.025 94.5974 295.027 94.5649 295.035 94.5337C295.043 94.5025 295.057 94.4732 295.076 94.4474C295.096 94.4217 295.12 94.4 295.148 94.3836C295.175 94.3673 295.206 94.3565 295.238 94.352C295.27 94.3475 295.302 94.3493 295.334 94.3574C295.695 94.4832 296.023 94.6924 296.289 94.9679C296.555 95.2435 296.753 95.5779 296.866 95.9439C296.889 96.0049 296.886 96.0723 296.858 96.1312C296.831 96.1901 296.782 96.2357 296.721 96.2582C296.691 96.2649 296.66 96.2674 296.629 96.2659Z" fill="#263238"/>
<path d="M288.934 93.568C288.886 93.5607 288.843 93.5362 288.812 93.4991C288.766 93.4532 288.741 93.3912 288.741 93.3266C288.741 93.262 288.766 93.2001 288.812 93.1542C289.071 92.869 289.395 92.6504 289.756 92.517C290.118 92.3836 290.506 92.3392 290.889 92.3877C290.953 92.4007 291.01 92.4384 291.047 92.4928C291.085 92.5472 291.099 92.614 291.088 92.679C291.075 92.7416 291.038 92.7966 290.985 92.8324C290.932 92.8682 290.867 92.8819 290.804 92.8706C290.501 92.8283 290.192 92.8614 289.905 92.967C289.617 93.0726 289.36 93.2475 289.156 93.4761C289.132 93.5104 289.098 93.5372 289.058 93.5534C289.019 93.5697 288.976 93.5747 288.934 93.568Z" fill="#263238"/>
<path d="M289.931 100.895C290.289 101.706 290.589 102.541 290.827 103.394L291.287 103.34C293.387 103.08 294.276 102.267 294.629 101.447C294.793 101.042 294.856 100.602 294.813 100.167C294.796 99.921 294.745 99.6783 294.659 99.4468C293.632 100.213 291.693 100.635 290.643 100.803C290.207 100.872 289.931 100.895 289.931 100.895Z" fill="#263238"/>
<path d="M290.643 100.803L290.927 101.532C292.904 101.286 294.26 100.842 294.812 100.167C294.796 99.921 294.744 99.6783 294.659 99.4468C293.663 100.244 291.693 100.635 290.643 100.803Z" fill="white"/>
<path d="M291.287 103.34C293.387 103.08 294.276 102.267 294.629 101.447C293.823 101.564 293.044 101.823 292.329 102.214C291.875 102.473 291.511 102.867 291.287 103.34Z" fill="#DE5753"/>
<path d="M306.04 90.2721C306.04 90.2721 303.036 85.6274 295.97 85.3362C288.903 85.0449 288.689 89.7509 291.08 91.3681L291.287 90.6783C291.859 91.3705 292.579 91.9257 293.394 92.3032V91.3681C294.393 92.2896 295.541 93.0336 296.79 93.5679V92.3875C296.79 92.3875 298.629 93.9204 302.453 94.3496C306.278 94.7789 307.788 93.223 306.04 90.2721Z" fill="#263238"/>
<path d="M294.82 97.5077C294.781 97.5083 294.744 97.4968 294.712 97.4748C294.68 97.4528 294.657 97.4214 294.644 97.3851C294.617 97.2762 294.567 97.1745 294.497 97.0871C294.427 96.9997 294.338 96.9287 294.237 96.8792C294.11 96.8264 293.967 96.8264 293.839 96.8792C293.795 96.9025 293.744 96.9083 293.695 96.8955C293.647 96.8827 293.605 96.8523 293.578 96.8103C293.561 96.7672 293.56 96.7193 293.576 96.6756C293.591 96.6319 293.622 96.5954 293.663 96.5727C293.769 96.51 293.888 96.4714 294.011 96.4595C294.135 96.4476 294.259 96.4627 294.375 96.5037C294.535 96.5732 294.675 96.6785 294.787 96.8115C294.899 96.9444 294.978 97.1014 295.019 97.2701C295.034 97.318 295.031 97.3698 295.01 97.4153C294.988 97.4608 294.951 97.4965 294.904 97.5154L294.82 97.5077Z" fill="#263238"/>
<path d="M290.467 96.3655C290.429 96.365 290.391 96.3531 290.36 96.3312C290.328 96.3094 290.304 96.2786 290.291 96.2429C290.264 96.134 290.214 96.0323 290.144 95.9449C290.073 95.8575 289.985 95.7865 289.884 95.737C289.754 95.6992 289.614 95.7129 289.493 95.7754C289.449 95.8009 289.395 95.808 289.345 95.7951C289.295 95.7822 289.252 95.7504 289.225 95.7064C289.204 95.6619 289.199 95.6111 289.211 95.5633C289.224 95.5155 289.253 95.4738 289.294 95.4458C289.402 95.385 289.521 95.3475 289.643 95.3356C289.766 95.3238 289.89 95.3378 290.007 95.3768C290.166 95.4463 290.307 95.5517 290.419 95.6846C290.53 95.8176 290.61 95.9745 290.651 96.1433C290.666 96.1911 290.663 96.243 290.641 96.2884C290.62 96.3339 290.582 96.3696 290.536 96.3885L290.467 96.3655Z" fill="#263238"/>
<path d="M303.051 116.814C303.051 116.814 297.993 132.366 301.779 146.706L300.806 147.61C300.806 147.61 294.529 132.358 299.81 116.147L303.051 116.814Z" fill="#263238"/>
<path d="M285.232 113.289C285.232 113.289 273.506 128.273 271.314 142.207L271.529 138.973C271.529 138.973 271.452 126.541 281.722 113.128L285.232 113.289Z" fill="#263238"/>
<path d="M301.426 145.25L303.411 148.676L302.093 153.144C301.149 150.826 300.502 148.397 300.169 145.916L301.426 145.25Z" fill="#263238"/>
<path d="M309.282 158.709L296.537 153.344L295.717 164.074C295.717 164.074 310.079 164.342 310.278 164.427C310.478 164.511 309.282 158.709 309.282 158.709Z" fill="#263238"/>
<path opacity="0.4" d="M309.282 158.709L296.537 153.344L295.717 164.074C295.717 164.074 310.079 164.342 310.278 164.427C310.478 164.511 309.282 158.709 309.282 158.709Z" fill="white"/>
<path d="M296.521 163.445L297.365 154.24L299.526 150.784L308.048 158.188L306.569 163.269L296.521 163.445Z" fill="#263238"/>
<path opacity="0.7" d="M296.521 163.445L297.365 154.24L299.526 150.784L308.048 158.188L306.569 163.269L296.521 163.445Z" fill="white"/>
<path d="M298.752 149.779L298.598 161.613L295.717 164.12L312.647 171.186L315.574 168.159L315.697 157.482L298.752 149.779Z" fill="#263238"/>
<path opacity="0.5" d="M298.752 149.779L298.598 161.613L295.717 164.12L312.647 171.186L315.574 168.159L315.697 157.482L298.752 149.779Z" fill="white"/>
<path d="M309.397 161.514L308.937 166.726L303.94 163.767C303.94 163.767 304.638 159.168 307.006 159.598L309.397 161.514Z" fill="#EEC1BB"/>
<path d="M305.856 170.903L302.423 166.894L303.94 163.767L308.937 166.726L305.856 170.903Z" fill="#EEC1BB"/>
<path opacity="0.2" d="M304.883 126.127C304.362 127.729 303.879 129.331 303.434 130.917C303.281 131.477 303.128 132.036 302.982 132.588C301.909 130.365 302.423 126.617 302.423 126.617L304.883 126.127Z" fill="black"/>
<path d="M310.754 121.168C312.288 122.709 313.688 124.378 314.938 126.157C316.82 128.786 318.495 131.556 319.951 134.443C320.953 136.379 321.784 138.4 322.434 140.482C322.683 141.27 322.833 142.087 322.878 142.912C322.932 144.644 321.345 147.595 319.238 150.676C318.05 152.431 316.701 154.232 315.406 155.88C312.563 159.49 310.041 162.357 310.041 162.357L306.209 159.674C306.209 159.674 308.102 156.225 310.041 152.5C311.076 150.53 312.118 148.476 312.884 146.821C313.425 145.816 313.837 144.748 314.111 143.64C314.121 143.301 314.096 142.962 314.034 142.628C313.743 141.011 308.999 130.94 302.484 126.617L304.784 118.186C306.385 117.734 308.531 118.983 310.754 121.168Z" fill="#711DF9"/>
<path d="M232.941 140.621C236.06 142.659 229.952 151.351 222.878 150.132C215.804 148.914 216.647 143.273 217.927 141.188C219.207 139.103 225.721 135.899 232.941 140.621Z" fill="#711DF9"/>
<path opacity="0.3" d="M232.941 140.621C236.06 142.659 229.952 151.351 222.878 150.132C215.804 148.914 216.647 143.273 217.927 141.188C219.207 139.103 225.721 135.899 232.941 140.621Z" fill="black"/>
<path d="M223.591 138.582C223.591 138.582 231.975 144.76 232.887 150.132C233.799 155.505 223.338 159.721 215.758 158.824C208.178 157.927 201.503 144.545 201.503 144.545C201.503 144.545 216.256 144.859 223.591 138.582Z" fill="#711DF9"/>
<path opacity="0.2" d="M223.591 138.582C223.591 138.582 231.975 144.76 232.887 150.132C233.799 155.505 223.338 159.721 215.758 158.824C208.178 157.927 201.503 144.545 201.503 144.545C201.503 144.545 216.256 144.859 223.591 138.582Z" fill="black"/>
<path d="M222.387 142.154C222.387 142.154 221.897 134.688 232.956 140.621C232.956 140.621 227.882 137.172 223.115 137.815C218.348 138.459 213.382 143.541 208.14 143.043C202.898 142.544 205.641 148.76 205.641 148.76C205.641 148.76 217.321 147.864 222.387 142.154Z" fill="#711DF9"/>
<path d="M199.955 106.705C202.431 101.198 204.52 95.5256 206.209 89.7285C206.707 87.6591 206.424 85.4747 206.209 83.2597C205.879 80.4775 205.374 77.5573 204.852 74.7138L208.424 73.4185C210.696 77.609 212.25 82.1504 213.022 86.8543C213.281 88.6743 213.205 90.5261 212.8 92.3191C211.595 98.4422 209.615 104.387 206.906 110.009L200.009 106.705H199.955Z" fill="#FFB573"/>
<path d="M197.096 107.166C200.507 104.782 203.396 98.4434 203.396 98.4434L210.409 102.743C210.409 102.743 207.167 110.047 206.462 114.784C206.063 117.658 197.096 107.166 197.096 107.166Z" fill="#263238"/>
<path opacity="0.2" d="M202.998 113.328C204.783 114.937 206.324 115.934 206.5 114.776C206.637 113.884 206.826 113.001 207.067 112.132C206.037 111.005 204.811 110.072 203.45 109.38C203.094 110.664 202.942 111.996 202.998 113.328Z" fill="black"/>
<path d="M193.724 252.093L198.767 252.377L201.472 240.819L196.437 240.535L193.724 252.093Z" fill="#FFB573"/>
<path d="M198.828 251.227L194.659 247.395C194.586 247.332 194.492 247.297 194.395 247.297C194.298 247.297 194.204 247.332 194.13 247.395L190.613 250.262C190.528 250.337 190.46 250.43 190.413 250.534C190.366 250.637 190.342 250.75 190.342 250.863C190.342 250.977 190.366 251.089 190.413 251.193C190.46 251.297 190.528 251.39 190.613 251.465C192.084 252.783 192.866 253.343 194.697 255.037C195.832 256.071 198.959 259.176 200.522 260.616C202.086 262.057 203.588 260.616 203.059 259.85C200.76 256.539 199.472 253.787 199.227 252.063C199.199 251.746 199.057 251.449 198.828 251.227Z" fill="#263238"/>
<g opacity="0.2">
<path d="M201.472 240.818L200.078 246.781L195.035 246.498L196.43 240.542L201.472 240.818Z" fill="black"/>
</g>
<path d="M201.695 107.648C201.695 107.648 208.769 116.47 209.121 138.26C201.227 140.237 193.027 140.743 189.195 141.709C187.501 133.531 186.313 128.518 178.281 112.875C180.894 111.608 183.596 110.534 186.367 109.664C189.318 108.683 192.335 107.915 195.395 107.364C197.488 106.964 199.646 107.062 201.695 107.648Z" fill="#FFB573"/>
<path d="M184.734 99.2783C186.03 102.038 187.938 107.219 186.39 109.664C186.39 109.664 187.923 112.415 193.287 111.059C199.227 109.572 195.387 107.403 195.387 107.403C191.954 107.441 191.433 105.019 191.433 102.62L184.734 99.2783Z" fill="#FFB573"/>
<path d="M186.366 109.671C189.316 108.687 192.334 107.919 195.395 107.372L196 107.288C197.065 108.468 197.771 110.522 196.82 114.04C196.82 114.04 188.099 112.837 185.194 110.016C185.6 109.917 185.999 109.786 186.366 109.671Z" fill="#FFB573"/>
<path opacity="0.2" d="M187.478 100.643L191.463 102.613C191.449 103.175 191.49 103.737 191.586 104.291C190.298 104.422 188.26 103.525 187.8 102.222C187.6 101.719 187.491 101.184 187.478 100.643Z" fill="black"/>
<path d="M209.159 138.789C209.159 138.789 212.6 177.725 212.056 193.115C211.489 209.118 201.028 245.502 201.028 245.502L194.199 245.402C194.199 245.402 199.863 209.893 199.48 194.165C199.058 177.012 194.115 138.582 194.115 138.582L209.159 138.789Z" fill="#711DF9"/>
<path opacity="0.2" d="M209.159 138.789C209.159 138.789 212.6 177.725 212.056 193.115C211.489 209.118 201.028 245.502 201.028 245.502L194.199 245.402C194.199 245.402 199.863 209.893 199.48 194.165C199.058 177.012 194.115 138.582 194.115 138.582L209.159 138.789Z" fill="white"/>
<path d="M193.602 245.64L201.61 245.755L202.239 243.203L193.272 242.773L193.602 245.64Z" fill="#711DF9"/>
<path opacity="0.2" d="M200.162 148.339C205.052 158.54 200.775 176.958 198.897 183.81C198.131 173.471 196.767 160.816 195.694 151.542C196.552 146.315 197.924 143.633 200.162 148.339Z" fill="black"/>
<path d="M150.422 206.474L152.062 211.249L163.719 209.21L162.087 204.435L150.422 206.474Z" fill="#FFB573"/>
<path d="M153.411 211.418L153.089 205.754C153.083 205.652 153.044 205.555 152.978 205.477C152.911 205.4 152.821 205.346 152.722 205.325L148.169 204.351C148.06 204.326 147.946 204.327 147.837 204.355C147.728 204.383 147.627 204.437 147.544 204.512C147.46 204.588 147.396 204.682 147.357 204.787C147.318 204.893 147.304 205.006 147.318 205.118C147.456 207.095 147.633 208.053 147.771 210.544C147.855 212.077 147.939 216.469 148.062 218.584C148.185 220.7 150.292 220.96 150.438 220.117C151.066 216.231 152.093 213.533 153.143 212.284C153.243 212.165 153.319 212.027 153.365 211.878C153.411 211.729 153.427 211.573 153.411 211.418Z" fill="#263238"/>
<g opacity="0.2">
<path d="M163.719 209.21L157.711 210.26L156.071 205.485L162.079 204.435L163.719 209.21Z" fill="black"/>
</g>
<path d="M203.488 138.727C203.488 138.727 197.357 178.782 193.325 193.828C189.164 209.471 159.703 210.406 159.703 210.406L156.791 204.228C156.791 204.228 174.043 199.898 181.607 189.666C185.048 172.804 188.505 138.521 188.505 138.521L203.488 138.727Z" fill="#711DF9"/>
<path opacity="0.2" d="M203.488 138.727C203.488 138.727 197.357 178.782 193.325 193.828C189.164 209.471 159.703 210.406 159.703 210.406L156.791 204.228C156.791 204.228 174.043 199.898 181.607 189.666C185.048 172.804 188.505 138.521 188.505 138.521L203.488 138.727Z" fill="white"/>
<path d="M156.454 203.63L158.976 211.234L161.696 211.303L159.175 202.726L156.454 203.63Z" fill="#711DF9"/>
<path d="M152.645 213.242C152.632 213.688 152.764 214.126 153.021 214.491C153.095 214.576 153.187 214.643 153.291 214.688C153.394 214.733 153.506 214.755 153.619 214.752C153.683 214.753 153.746 214.736 153.801 214.704C153.857 214.671 153.902 214.624 153.933 214.568C154.239 213.978 153.09 211.893 152.959 211.655C152.946 211.633 152.927 211.614 152.904 211.602C152.881 211.59 152.855 211.584 152.829 211.586C152.806 211.588 152.785 211.597 152.768 211.612C152.752 211.628 152.741 211.648 152.737 211.671C152.657 212.19 152.626 212.716 152.645 213.242ZM153.741 214.223C153.763 214.293 153.763 214.368 153.741 214.438C153.731 214.461 153.714 214.48 153.692 214.493C153.669 214.505 153.644 214.51 153.619 214.507C153.545 214.513 153.472 214.502 153.404 214.474C153.335 214.446 153.275 214.402 153.228 214.346C152.929 214.016 152.837 213.188 152.959 212.046C153.342 212.723 153.608 213.459 153.749 214.223H153.741Z" fill="#711DF9"/>
<path d="M152.745 211.694C152.741 211.711 152.741 211.73 152.745 211.747C153.051 212.368 154.216 213.633 154.783 213.587C154.921 213.587 155.082 213.487 155.097 213.158C155.103 213.035 155.084 212.912 155.042 212.796C155 212.68 154.936 212.574 154.852 212.483C154.289 211.997 153.597 211.686 152.86 211.586C152.84 211.582 152.819 211.583 152.8 211.59C152.781 211.597 152.765 211.609 152.752 211.625C152.746 211.635 152.742 211.646 152.74 211.658C152.739 211.67 152.74 211.683 152.745 211.694ZM154.868 213.073V213.142C154.868 213.357 154.768 213.365 154.745 213.365C154.4 213.365 153.496 212.529 153.082 211.893C153.678 211.99 154.234 212.256 154.684 212.66C154.788 212.774 154.853 212.919 154.868 213.073Z" fill="#711DF9"/>
<path d="M199.625 253.166C199.918 253.484 200.31 253.695 200.737 253.764C200.845 253.766 200.952 253.741 201.048 253.691C201.144 253.642 201.227 253.57 201.288 253.481C201.333 253.432 201.362 253.371 201.374 253.306C201.387 253.241 201.381 253.174 201.357 253.113C201.135 252.446 198.959 251.833 198.706 251.771C198.682 251.764 198.656 251.764 198.633 251.773C198.609 251.781 198.589 251.797 198.575 251.817C198.562 251.838 198.556 251.862 198.556 251.886C198.556 251.911 198.562 251.935 198.575 251.955C198.888 252.39 199.239 252.795 199.625 253.166ZM200.997 253.005C201.058 253.053 201.103 253.117 201.128 253.189C201.142 253.211 201.15 253.236 201.15 253.262C201.15 253.288 201.142 253.313 201.128 253.335C201.087 253.393 201.033 253.441 200.971 253.475C200.908 253.508 200.838 253.526 200.767 253.527C200.353 253.527 199.71 252.99 199.012 252.101C199.72 252.288 200.391 252.594 200.997 253.005Z" fill="#711DF9"/>
<path d="M198.629 251.971C198.635 251.974 198.642 251.976 198.648 251.976C198.655 251.976 198.662 251.974 198.667 251.971C199.296 252.185 200.913 252.185 201.227 251.702C201.304 251.587 201.35 251.403 201.128 251.15C201.049 251.061 200.952 250.988 200.844 250.936C200.736 250.885 200.619 250.856 200.499 250.852C199.794 250.954 199.14 251.275 198.629 251.771C198.62 251.789 198.616 251.809 198.616 251.829C198.616 251.849 198.62 251.868 198.629 251.886C198.623 251.9 198.62 251.914 198.62 251.928C198.62 251.943 198.623 251.957 198.629 251.971ZM200.928 251.281C200.948 251.297 200.966 251.315 200.982 251.334C201.128 251.495 201.074 251.572 201.059 251.595C200.867 251.886 199.694 251.971 198.989 251.825C199.413 251.435 199.95 251.188 200.522 251.12C200.651 251.136 200.772 251.192 200.867 251.281H200.928Z" fill="#711DF9"/>
<path d="M188.267 139.188L188.083 140.966C188.037 141.111 188.237 141.234 188.474 141.219L209.512 139.686C209.696 139.686 209.834 139.571 209.826 139.463L209.673 137.708C209.673 137.586 209.481 137.494 209.282 137.509L188.589 139.042C188.527 139.033 188.464 139.042 188.407 139.068C188.35 139.094 188.302 139.135 188.267 139.188Z" fill="#711DF9"/>
<path opacity="0.7" d="M188.267 139.188L188.083 140.966C188.037 141.111 188.237 141.234 188.474 141.219L209.512 139.686C209.696 139.686 209.834 139.571 209.826 139.463L209.673 137.708C209.673 137.586 209.481 137.494 209.282 137.509L188.589 139.042C188.527 139.033 188.464 139.042 188.407 139.068C188.35 139.094 188.302 139.135 188.267 139.188Z" fill="white"/>
<path d="M190.061 141.249L189.509 141.288C189.394 141.288 189.302 141.249 189.294 141.18L189.118 138.881C189.118 138.812 189.195 138.751 189.31 138.743H189.862C189.969 138.743 190.069 138.743 190.069 138.85L190.252 141.15C190.26 141.18 190.199 141.242 190.061 141.249Z" fill="#711DF9"/>
<g opacity="0.2">
<path d="M190.061 141.249L189.509 141.288C189.394 141.288 189.302 141.249 189.294 141.18L189.118 138.881C189.118 138.812 189.195 138.751 189.31 138.743H189.862C189.969 138.743 190.069 138.743 190.069 138.85L190.252 141.15C190.26 141.18 190.199 141.242 190.061 141.249Z" fill="#711DF9"/>
</g>
<path d="M206.577 140.031L206.017 140.077C205.91 140.077 205.818 140.031 205.81 139.969L205.626 137.67C205.626 137.601 205.711 137.54 205.818 137.532L206.378 137.494C206.485 137.494 206.584 137.532 206.584 137.593L206.768 139.893C206.768 139.962 206.684 140.023 206.577 140.031Z" fill="#711DF9"/>
<path opacity="0.2" d="M206.577 140.031L206.017 140.077C205.91 140.077 205.818 140.031 205.81 139.969L205.626 137.67C205.626 137.601 205.711 137.54 205.818 137.532L206.378 137.494C206.485 137.494 206.584 137.532 206.584 137.593L206.768 139.893C206.768 139.962 206.684 140.023 206.577 140.031Z" fill="#711DF9"/>
<path d="M198.315 140.644L197.763 140.682C197.656 140.682 197.556 140.644 197.556 140.575L197.372 138.275C197.372 138.206 197.456 138.145 197.564 138.137L198.115 138.099C198.23 138.099 198.322 138.137 198.33 138.206L198.506 140.506C198.514 140.575 198.43 140.636 198.315 140.644Z" fill="#711DF9"/>
<path opacity="0.2" d="M198.315 140.644L197.763 140.682C197.656 140.682 197.556 140.644 197.556 140.575L197.372 138.275C197.372 138.206 197.456 138.145 197.564 138.137L198.115 138.099C198.23 138.099 198.322 138.137 198.33 138.206L198.506 140.506C198.514 140.575 198.43 140.636 198.315 140.644Z" fill="#711DF9"/>
<g opacity="0.2">
<path d="M190.061 141.249L189.509 141.288C189.394 141.288 189.302 141.249 189.294 141.18L189.118 138.881C189.118 138.812 189.195 138.751 189.31 138.743H189.862C189.969 138.743 190.069 138.743 190.069 138.85L190.252 141.15C190.26 141.18 190.199 141.242 190.061 141.249Z" fill="white"/>
<g opacity="0.2">
<path d="M190.061 141.249L189.509 141.288C189.394 141.288 189.302 141.249 189.294 141.18L189.118 138.881C189.118 138.812 189.195 138.751 189.31 138.743H189.862C189.969 138.743 190.069 138.743 190.069 138.85L190.252 141.15C190.26 141.18 190.199 141.242 190.061 141.249Z" fill="white"/>
</g>
<path d="M206.577 140.031L206.017 140.077C205.91 140.077 205.818 140.031 205.81 139.969L205.626 137.67C205.626 137.601 205.711 137.54 205.818 137.532L206.378 137.494C206.485 137.494 206.584 137.532 206.584 137.593L206.768 139.893C206.768 139.962 206.684 140.023 206.577 140.031Z" fill="white"/>
<path opacity="0.2" d="M206.577 140.031L206.017 140.077C205.91 140.077 205.818 140.031 205.81 139.969L205.626 137.67C205.626 137.601 205.711 137.54 205.818 137.532L206.378 137.494C206.485 137.494 206.584 137.532 206.584 137.593L206.768 139.893C206.768 139.962 206.684 140.023 206.577 140.031Z" fill="white"/>
<path d="M198.315 140.644L197.763 140.682C197.656 140.682 197.556 140.644 197.556 140.575L197.372 138.275C197.372 138.206 197.456 138.145 197.564 138.137L198.115 138.099C198.23 138.099 198.322 138.137 198.33 138.206L198.506 140.506C198.514 140.575 198.43 140.636 198.315 140.644Z" fill="white"/>
<path opacity="0.2" d="M198.315 140.644L197.763 140.682C197.656 140.682 197.556 140.644 197.556 140.575L197.372 138.275C197.372 138.206 197.456 138.145 197.564 138.137L198.115 138.099C198.23 138.099 198.322 138.137 198.33 138.206L198.506 140.506C198.514 140.575 198.43 140.636 198.315 140.644Z" fill="white"/>
</g>
<path d="M182.343 84.9916C179.163 86.8388 174.02 92.0966 179.553 98.0979C185.087 104.099 196.315 97.776 194.383 90.3798C192.452 82.9835 186.888 82.355 182.343 84.9916Z" fill="#263238"/>
<path d="M180.335 95.0401C182.634 99.4932 183.508 101.432 186.849 102.766C191.885 104.766 196.851 100.972 195.931 95.9215C195.111 91.3765 191.494 84.8617 186.213 85.0073C185.049 85.0352 183.911 85.3602 182.907 85.9515C181.904 86.5428 181.068 87.3807 180.479 88.3857C179.89 89.3908 179.568 90.5296 179.543 91.6942C179.517 92.8588 179.79 94.0105 180.335 95.0401Z" fill="#FFB573"/>
<path d="M181.224 90.2649C183.27 91.1463 183.715 96.1053 181.99 98.098C178.426 98.1057 175.123 87.6283 181.224 90.2649Z" fill="#263238"/>
<path d="M191.379 92.4189C192.085 93.1222 192.885 93.7256 193.755 94.2124C193.626 94.4329 193.45 94.6222 193.239 94.7666C193.028 94.911 192.788 95.0071 192.536 95.0479L191.379 92.4189Z" fill="#ED893E"/>
<path d="M180.94 99.7691C181.62 100.462 182.545 100.859 183.516 100.873C184.795 100.873 185.102 99.6465 184.458 98.5734C183.814 97.5004 182.527 96.5194 181.393 97.0405C181.141 97.1503 180.92 97.3214 180.751 97.5382C180.582 97.755 180.47 98.0107 180.425 98.2819C180.38 98.5531 180.404 98.8313 180.494 99.091C180.584 99.3508 180.737 99.5839 180.94 99.7691Z" fill="#FFB573"/>
<path d="M186.106 92.9168C186.155 92.9026 186.198 92.8736 186.23 92.8338C186.261 92.794 186.28 92.7453 186.283 92.6946C186.352 92.3101 186.501 91.9444 186.72 91.6209C186.939 91.2975 187.223 91.0236 187.555 90.8168C187.608 90.7822 187.645 90.7281 187.657 90.6663C187.67 90.6045 187.658 90.54 187.624 90.4872C187.589 90.4343 187.535 90.3974 187.473 90.3844C187.411 90.3715 187.347 90.3837 187.294 90.4182C186.891 90.6612 186.546 90.9884 186.281 91.3773C186.017 91.7662 185.839 92.2077 185.761 92.6716C185.759 92.7354 185.782 92.7975 185.825 92.8447C185.868 92.8919 185.928 92.9205 185.991 92.9245L186.106 92.9168Z" fill="#263238"/>
<path d="M192.797 88.6785C192.836 88.6658 192.872 88.6439 192.901 88.6146C192.931 88.5853 192.953 88.5493 192.965 88.5099C192.982 88.4479 192.973 88.3819 192.942 88.326C192.91 88.2701 192.858 88.2288 192.797 88.2109C192.434 88.1006 192.05 88.0785 191.676 88.1465C191.303 88.2145 190.951 88.3706 190.651 88.6018C190.627 88.6225 190.608 88.6475 190.594 88.6757C190.58 88.7038 190.572 88.7344 190.569 88.7657C190.567 88.797 190.571 88.8284 190.581 88.8582C190.591 88.8879 190.607 88.9154 190.628 88.9391C190.648 88.9627 190.673 88.9821 190.702 88.996C190.73 89.01 190.76 89.0183 190.792 89.0204C190.823 89.0225 190.854 89.0185 190.884 89.0085C190.914 88.9985 190.941 88.9827 190.965 88.9621C191.205 88.7815 191.484 88.6609 191.78 88.6103C192.076 88.5596 192.38 88.5804 192.666 88.6708C192.708 88.6847 192.753 88.6874 192.797 88.6785Z" fill="#263238"/>
<path d="M193.172 96.2507C193.01 96.9652 192.898 97.6899 192.835 98.4198H192.452C190.704 98.5424 189.854 98.0212 189.44 97.4081C189.245 97.1035 189.127 96.7564 189.095 96.3964C189.064 96.1931 189.064 95.9864 189.095 95.7832C190.205 96.186 191.389 96.3479 192.567 96.2584C192.942 96.2737 193.172 96.2507 193.172 96.2507Z" fill="#263238"/>
<path d="M192.574 96.2892L192.459 96.9253C190.819 97.0326 189.639 96.887 189.095 96.4271C189.064 96.2239 189.064 96.0172 189.095 95.814C190.208 96.2178 191.394 96.3798 192.574 96.2892Z" fill="white"/>
<path d="M192.452 98.4508C190.705 98.5734 189.854 98.0522 189.44 97.439C190.106 97.4064 190.772 97.4894 191.41 97.6843C191.829 97.8247 192.193 98.0927 192.452 98.4508Z" fill="#DE5753"/>
<path d="M188.995 92.4186L189.501 91.9971C189.501 91.9971 189.379 92.7099 188.911 92.6869C188.659 92.6273 188.394 92.6663 188.171 92.796C187.947 92.9258 187.781 93.1363 187.708 93.3843C187.685 92.1427 188.666 92.319 188.995 92.4186Z" fill="#263238"/>
<path d="M192.965 90.7018L193.471 90.2803C193.471 90.2803 193.348 90.9931 192.881 90.9701C192.629 90.9124 192.365 90.9523 192.142 91.0817C191.919 91.2112 191.753 91.4205 191.678 91.6676C191.655 90.4412 192.628 90.6022 192.965 90.7018Z" fill="#263238"/>
<path d="M182.795 93.8746C182.795 93.8746 184.405 90.7015 182.979 87.9193C183.797 88.7934 184.299 89.9157 184.405 91.1077C185.042 90.2912 185.785 89.562 186.612 88.9387C186.432 87.8886 186.055 86.8822 185.501 85.9725C185.95 86.2982 186.328 86.7136 186.609 87.1925C186.89 87.6714 187.068 88.2033 187.133 88.7547C187.2 87.7635 186.959 86.7759 186.443 85.9265C187.285 86.4851 187.91 87.3157 188.214 88.2795L189.923 87.6434C189.923 87.6434 189.54 86.0645 188.743 85.6353C189.506 86.0591 190.197 86.6025 190.789 87.2448C190.789 87.2448 192.391 87.1299 192.759 87.6051C192.425 86.8646 191.925 86.211 191.298 85.6952C190.67 85.1794 189.932 84.8153 189.141 84.6312C190.535 84.746 191.876 85.2186 193.034 86.0032C193.034 86.0032 190.881 82.4392 185.01 83.9568C179.14 85.4743 177.936 89.6745 177.867 91.4373C177.798 93.2002 182.795 93.8746 182.795 93.8746Z" fill="#263238"/>
<path d="M179.553 88.1418C178.229 87.2075 176.685 86.6342 175.073 86.4783C173.46 86.3224 171.835 86.5893 170.356 87.2527C164.9 89.4754 167.728 101.156 173.997 105.931C180.266 110.706 183.669 107.771 183.669 107.771C183.669 107.771 180.281 109.166 177.139 105.387C178.078 106.042 179.148 106.486 180.276 106.688C181.403 106.89 182.56 106.847 183.669 106.56L181.868 106.107L183.669 105.441C182.879 105.571 182.071 105.539 181.294 105.348C180.517 105.157 179.786 104.811 179.147 104.329C179.147 104.329 181.255 104.935 182.626 104.329C182.626 104.329 175.614 104.023 173.69 97.5615C171.767 91.1003 178.695 92.0584 178.695 92.0584L179.553 88.1418Z" fill="#263238"/>
<path d="M204.492 73.9244L202.254 70.3911L207.366 70.8663C207.366 70.8663 208.669 73.8325 207.366 75.465L206.875 75.4037C206.393 75.3487 205.93 75.1875 205.517 74.9317C205.105 74.6759 204.755 74.3319 204.492 73.9244Z" fill="#FFB573"/>
<path d="M202.009 66.6507L206.308 66.3901L207.366 70.8662L202.254 70.391L202.009 66.6507Z" fill="#FFB573"/>
<path d="M210.7 134.267L187.945 140.621C186.65 135.823 185.042 131.115 183.132 126.526C182.067 123.897 181.04 121.567 180.197 119.628C180.197 119.551 180.136 119.475 180.097 119.398C178.564 115.773 177.645 113.458 178.289 112.899C179.821 111.573 185.232 109.588 185.232 109.588C185.232 109.588 191.9 113.481 195.808 111.833C198.422 110.73 196.575 107.235 196.575 107.235C199.533 104.851 200.821 105.004 202.269 106.683C203.082 107.718 203.752 108.857 204.262 110.07C207.373 116.968 209.857 129.653 210.531 133.294C210.577 133.531 210.615 133.738 210.638 133.892C210.638 133.976 210.638 134.045 210.638 134.099C210.638 134.152 210.7 134.267 210.7 134.267Z" fill="#263238"/>
<path opacity="0.7" d="M210.7 134.267L187.945 140.621C186.65 135.823 185.042 131.114 183.132 126.526C182.067 123.897 181.04 121.567 180.197 119.628C180.19 119.54 180.167 119.454 180.128 119.375L183.301 119.566L184.113 119.612C184.113 119.612 184.473 112.837 185.776 111.059C185.776 111.059 192.199 114.186 195.923 112.592C199.648 110.998 197.916 107.786 197.916 107.786C200.171 108.041 202.333 108.829 204.224 110.085H204.262C207.726 117.574 210.171 131.354 210.6 133.845C210.6 133.93 210.6 133.999 210.6 134.052C210.6 134.106 210.7 134.267 210.7 134.267Z" fill="white"/>
<path opacity="0.2" d="M183.133 126.526C182.067 123.897 181.04 121.567 180.197 119.628C180.197 119.551 180.136 119.475 180.098 119.398C181.006 118.877 182.05 118.639 183.094 118.716C183.094 118.716 183.186 119.038 183.294 119.597C183.766 121.889 183.711 124.258 183.133 126.526Z" fill="black"/>
<path d="M184.067 118.432C180.557 123.989 176.112 129.071 170.073 131.975C169.537 132.234 168.955 132.381 168.361 132.408C167.767 132.434 167.173 132.34 166.617 132.129C166.061 131.919 165.553 131.598 165.125 131.186C164.696 130.773 164.356 130.278 164.125 129.73C162.93 127.239 162.685 124.909 162.332 122.41C161.997 119.436 161.871 116.442 161.957 113.45L165.727 113.029C166.494 115.788 167.26 118.586 168.026 121.26C168.571 122.993 169.099 125.016 169.981 126.396C170.027 126.449 170.042 126.449 170.019 126.396C169.629 125.976 169.114 125.693 168.551 125.59C167.988 125.486 167.406 125.567 166.892 125.821C171.138 123.23 174.663 118.601 177.53 114.424L184.075 118.417L184.067 118.432Z" fill="#FFB573"/>
<path d="M178.741 112.668C176.718 113.389 173.177 118.915 173.177 118.915L179.599 126.311C179.599 126.311 184.366 121.912 184.144 119.122C183.922 116.332 181.04 111.825 178.741 112.668Z" fill="#263238"/>
<path d="M183.048 110.185C183.048 110.185 213.175 120.256 224.495 140.077L223.483 143.043C223.483 143.043 217.459 124.648 181.868 110.929L183.048 110.185Z" fill="#711DF9"/>
<path opacity="0.3" d="M183.048 110.185C183.048 110.185 213.175 120.256 224.495 140.077L223.483 143.043C223.483 143.043 217.459 124.648 181.868 110.929L183.048 110.185Z" fill="black"/>
<path d="M160.815 103.448L174.748 108.882L174.081 121.72L158.063 115.45L159.267 103.77L160.815 103.448Z" fill="#711DF9"/>
<path opacity="0.2" d="M160.815 103.448L174.748 108.882L174.081 121.72L158.063 115.45L159.267 103.77L160.815 103.448Z" fill="black"/>
<path d="M174.112 109.411L173.154 120.532L169.843 121.498L169.475 109.166L174.112 109.411Z" fill="#711DF9"/>
<path opacity="0.7" d="M174.112 109.411L173.154 120.532L169.843 121.498L169.475 109.166L174.112 109.411Z" fill="white"/>
<path d="M174.748 108.882L172.549 109.947L171.468 121.95L156.937 116.102L159.267 103.77L160.815 103.448L174.748 108.882Z" fill="#711DF9"/>
<path d="M169.008 124.326C168.655 123.361 168.318 122.318 168.011 121.26C167.245 118.586 166.478 115.788 165.712 113.029L161.941 113.45C161.856 116.442 161.982 119.436 162.317 122.41C162.493 123.959 162.767 125.495 163.137 127.009C163.359 127.94 163.685 128.842 164.11 129.699C164.269 130.012 164.456 130.31 164.67 130.588C165.013 131.055 165.439 131.455 165.927 131.769L166.187 131.922L166.517 132.083L166.862 132.213C166.998 132.258 167.136 132.297 167.276 132.328C167.854 132.454 168.452 132.454 169.031 132.328C169.293 132.269 169.549 132.187 169.797 132.083L170.073 131.952L170.372 131.814C170.655 131.677 170.924 131.531 171.192 131.393C171.184 131.416 169.751 123.728 169.008 124.326Z" fill="#FFB573"/>
<path d="M161.926 114.071L161.42 108.016L166.218 110.974C166.218 110.974 166.049 114.53 163.965 115.519L161.926 114.071Z" fill="#FFB573"/>
<path d="M163.712 103.962L167.598 106.66L166.218 110.975L161.42 108.024L163.712 103.962Z" fill="#FFB573"/>
<path d="M121.844 154.056C121.844 154.056 109.512 159.084 103.343 158.172C97.173 157.26 95.464 172.735 103.343 176.168C111.221 179.602 120.372 178.744 123.66 176.597C126.948 174.451 121.844 154.056 121.844 154.056Z" fill="#711DF9"/>
<path opacity="0.2" d="M121.844 154.056C121.844 154.056 109.512 159.084 103.343 158.172C97.173 157.26 95.464 172.735 103.343 176.168C111.221 179.602 120.372 178.744 123.66 176.597C126.948 174.451 121.844 154.056 121.844 154.056Z" fill="black"/>
<path d="M121.843 154.056C121.843 154.056 132.044 163.024 132.657 165.752C133.27 168.481 125.882 177.172 122.349 176.567C118.816 175.961 120.05 154.976 120.05 154.976L121.843 154.056Z" fill="#711DF9"/>
<path opacity="0.2" d="M121.843 154.056C121.843 154.056 132.044 163.024 132.657 165.752C133.27 168.481 125.882 177.172 122.349 176.567C118.816 175.961 120.05 154.976 120.05 154.976L121.843 154.056Z" fill="white"/>
<path d="M97.0044 121.988C102.53 117.842 108.5 113.879 113.95 109.725C115.482 107.748 116.019 105.241 116.678 102.758C117.444 99.5926 118.034 96.2279 118.525 92.9321L122.112 92.9934C122.441 96.5447 122.441 100.119 122.112 103.67C121.637 107.464 121 111.963 118.065 114.837C112.712 119.493 107.101 123.843 101.258 127.867L97.0427 121.965L97.0044 121.988Z" fill="#DC897C"/>
<path d="M100.53 132.067C105.266 132.259 115.275 120.425 115.275 120.425L108.623 113.902C104.871 115.874 101.388 118.321 98.2613 121.184C93.6322 125.698 95.2647 131.83 100.53 132.067Z" fill="#263238"/>
<path opacity="0.2" d="M100.53 132.067C105.266 132.259 115.275 120.425 115.275 120.425L108.623 113.902C104.871 115.874 101.388 118.321 98.2613 121.184C93.6322 125.698 95.2647 131.83 100.53 132.067Z" fill="white"/>
<path opacity="0.1" d="M101.12 132.044C99.6638 130.45 99.7634 128.143 102.653 124.97C105.524 122.027 108.843 119.556 112.486 117.65L115.321 120.424C115.321 120.424 106.04 131.446 101.12 132.044Z" fill="black"/>
<path d="M118.403 96.5727L117.176 89.598L123.361 89.5137C123.361 89.5137 124.894 94.2657 121.713 96.8716L118.403 96.5727Z" fill="#E4897B"/>
<path d="M118.732 84.8306L123.361 85.8653V89.5366L117.176 89.6209L118.732 84.8306Z" fill="#E4897B"/>
<path d="M88.3517 269.292L81.9063 269.399C81.8013 269.401 81.7 269.438 81.6192 269.505C81.5383 269.572 81.4828 269.664 81.4618 269.767L80.4885 274.504C80.4663 274.605 80.4649 274.71 80.4844 274.812C80.5039 274.914 80.5438 275.011 80.6019 275.097C80.6599 275.183 80.7348 275.256 80.822 275.312C80.9092 275.368 81.007 275.406 81.1092 275.423C81.1678 275.431 81.227 275.431 81.2855 275.423C83.3701 275.354 84.8799 275.209 87.501 275.163C89.1105 275.163 93.9771 275.232 96.2074 275.163C98.4376 275.094 98.6828 272.925 97.7402 272.741C93.6399 271.913 90.5436 270.725 89.2178 269.575C88.9733 269.378 88.6653 269.278 88.3517 269.292Z" fill="#263238"/>
<path d="M142.682 269.292L136.244 269.399C136.138 269.399 136.035 269.435 135.952 269.502C135.87 269.569 135.813 269.663 135.792 269.767L134.826 274.504C134.804 274.605 134.802 274.709 134.821 274.81C134.84 274.912 134.88 275.008 134.937 275.094C134.994 275.18 135.068 275.254 135.154 275.31C135.241 275.367 135.338 275.405 135.439 275.423C135.498 275.431 135.557 275.431 135.616 275.423C137.7 275.354 139.218 275.209 141.831 275.163C143.44 275.163 148.307 275.232 150.537 275.163C152.768 275.094 153.021 272.925 152.07 272.741C147.97 271.913 144.874 270.725 143.548 269.575C143.303 269.378 142.995 269.278 142.682 269.292Z" fill="#263238"/>
<path d="M80.4731 269.622H89.2484C89.2484 269.622 100.423 232.786 101.381 223.39C102.339 213.993 102.691 190.432 102.691 190.432V190.478C103.074 190.984 106.385 195.644 110.202 201.063C115.191 208.153 121.046 216.538 122.28 218.592C125.898 224.647 134.757 269.591 134.757 269.591H143.525C143.525 269.591 141.318 229.36 136.811 216.101C132.305 202.841 112.823 173.885 111.98 172.329C110.899 170.344 108.248 164.043 108.248 164.043L81.9523 167.699C81.9523 167.699 81.5231 172.153 81.5538 176.046C81.6764 190.655 84.4354 210.398 84.88 215.71C85.746 225.835 80.4731 269.622 80.4731 269.622Z" fill="#711DF9"/>
<path d="M102.063 121.628C102.063 121.628 109.934 135.662 108.263 164.074L81.9752 167.73C81.2088 163.721 81.0325 143.679 74.4951 125.2C77.3245 124.249 80.2121 123.48 83.1401 122.9C86.8319 122.173 90.5629 121.661 94.3143 121.367C96.8999 121.253 99.4904 121.34 102.063 121.628Z" fill="#263238"/>
<path opacity="0.2" d="M108.286 164.074L81.9908 167.73C81.5233 165.223 81.2704 156.425 79.546 145.656C79.0862 142.782 78.519 139.762 77.8063 136.696C76.9231 132.805 75.8229 128.967 74.5107 125.199C77.3389 124.244 80.2268 123.476 83.1557 122.9C86.85 122.172 90.5836 121.66 94.3375 121.367C96.9245 121.276 99.5147 121.381 102.086 121.681C102.086 121.681 109.949 135.661 108.286 164.074Z" fill="white"/>
<path d="M81.5996 110.108C83.0788 113.504 85.2094 119.842 83.2474 122.755C86.9644 123.452 89.6315 123.882 93.0803 125.821C93.6244 123.414 94.2682 120.31 94.2682 120.31C90.1067 120.241 89.5549 117.244 89.6698 114.378L81.5996 110.108Z" fill="#E4897B"/>
<path opacity="0.2" d="M84.8799 111.856L89.6316 114.385C89.6078 115.064 89.6385 115.743 89.7236 116.416C88.1908 116.531 85.7306 115.336 85.2171 113.787C84.9851 113.17 84.8708 112.515 84.8799 111.856Z" fill="black"/>
<path opacity="0.5" d="M80.4731 269.622H89.2484C89.2484 269.622 100.423 232.786 101.381 223.39C102.339 213.993 102.691 190.432 102.691 190.432V190.478C103.074 190.984 106.385 195.644 110.202 201.063C115.191 208.153 121.046 216.538 122.28 218.592C125.898 224.647 134.757 269.591 134.757 269.591H143.525C143.525 269.591 141.318 229.36 136.811 216.101C132.305 202.841 112.823 173.885 111.98 172.329C110.899 170.344 108.248 164.043 108.248 164.043L81.9523 167.699C81.9523 167.699 81.5231 172.153 81.5538 176.046C81.6764 190.655 84.4354 210.398 84.88 215.71C85.746 225.835 80.4731 269.622 80.4731 269.622Z" fill="white"/>
<path d="M79.8677 123.605L82.0519 120.876L89.1258 122.241L92.7202 126.357L93.1724 121.605L94.4983 120.018L97.4029 121.267V124.241L95.3337 123.567L93.5479 127.721L87.8996 125.399L86.6427 127L79.8677 123.605Z" fill="#263238"/>
<path opacity="0.3" d="M79.8677 123.605L82.0519 120.876L89.1258 122.241L92.7202 126.357L93.1724 121.605L94.4983 120.018L97.4029 121.267V124.241L95.3337 123.567L93.5479 127.721L87.8996 125.399L86.6427 127L79.8677 123.605Z" fill="white"/>
<path opacity="0.1" d="M93.5479 127.721L94.2299 122.755L97.4028 124.242L95.3336 123.567L93.5479 127.721Z" fill="black"/>
<path opacity="0.1" d="M93.5479 127.721L88.3133 123.866L86.6426 127.001L87.8995 125.399L93.5479 127.721Z" fill="black"/>
<path opacity="0.1" d="M79.5459 145.625C79.086 142.751 78.5189 139.731 77.8062 136.665C78.6546 135.613 79.8602 134.909 81.1936 134.688C81.1936 134.688 81.9141 141.678 79.5459 145.625Z" fill="black"/>
<path opacity="0.2" d="M102.691 190.447V190.493C103.075 190.999 106.385 195.659 110.202 201.078C110.58 198.145 110.081 195.166 108.769 192.516C107.457 189.866 105.39 187.664 102.829 186.186L102.691 190.447Z" fill="black"/>
<path d="M89.3867 95.8446C92.0231 96.5191 94.5905 103.141 91.7472 105.172C88.9038 107.203 84.4357 94.58 89.3867 95.8446Z" fill="#263238"/>
<path d="M79.5764 105.241C81.4771 109.84 82.3508 112.661 85.5773 114.355C86.6207 114.915 87.7974 115.179 88.9802 115.119C90.1629 115.059 91.3068 114.677 92.2883 114.015C93.2698 113.352 94.0515 112.433 94.5491 111.359C95.0466 110.284 95.241 109.094 95.1114 107.916C94.6898 103.371 91.6626 96.5729 86.3591 96.1131C85.2144 95.9811 84.0552 96.1525 82.9978 96.6102C81.9404 97.0679 81.0219 97.7957 80.3347 98.7206C79.6475 99.6455 79.2156 100.735 79.0825 101.88C78.9494 103.024 79.1198 104.184 79.5764 105.241Z" fill="#E4897B"/>
<path d="M83.0867 98.5425L82.0291 94.396C81.0622 95.0898 79.9006 95.46 78.7106 95.4537C73.5297 95.2161 70.3262 99.1097 73.1542 101.455C71.0006 102.911 72.8936 105.877 74.8479 107.633C77.5533 110.07 80.1208 110.974 81.485 109.388C82.7802 108.422 82.0904 103.425 81.2704 101.67C80.0441 99.0407 83.0867 98.5425 83.0867 98.5425Z" fill="#263238"/>
<path d="M79.3619 110.453C80.3045 111.256 81.4959 111.708 82.734 111.733C84.2668 111.733 84.3895 110.254 83.3778 109.035C82.4658 107.939 80.5574 106.621 79.2699 107.219C77.9823 107.816 78.1663 109.449 79.3619 110.453Z" fill="#E4897B"/>
<path d="M87.2482 104.375C87.3785 104.758 87.6927 105.011 87.9456 104.934C88.1985 104.858 88.2981 104.482 88.1679 104.099C88.0376 103.716 87.7233 103.471 87.4704 103.547C87.2175 103.624 87.1179 103.992 87.2482 104.375Z" fill="#263238"/>
<path d="M91.632 103.057C91.7622 103.44 92.0765 103.685 92.3294 103.609C92.5823 103.532 92.6819 103.157 92.5516 102.773C92.4214 102.39 92.1071 102.145 91.8542 102.222C91.6013 102.298 91.5017 102.704 91.632 103.057Z" fill="#263238"/>
<path d="M90.3062 103.663C91.169 104.698 92.1665 105.613 93.2721 106.383C93.0675 106.652 92.8063 106.873 92.5069 107.029C92.2076 107.185 91.8775 107.274 91.5401 107.288L90.3062 103.663Z" fill="#DE5753"/>
<path d="M85.4168 103.386C85.3793 103.398 85.3393 103.398 85.3018 103.386C85.2719 103.376 85.2444 103.36 85.2208 103.339C85.1973 103.318 85.1781 103.292 85.1646 103.264C85.151 103.235 85.1433 103.204 85.1418 103.172C85.1404 103.141 85.1453 103.109 85.1562 103.08C85.2713 102.725 85.471 102.403 85.738 102.143C86.0051 101.883 86.3314 101.691 86.689 101.585C86.7197 101.578 86.7514 101.578 86.7824 101.583C86.8133 101.589 86.8428 101.601 86.8692 101.618C86.8956 101.635 86.9183 101.657 86.936 101.683C86.9538 101.709 86.9662 101.738 86.9725 101.769C86.9844 101.83 86.9728 101.893 86.9401 101.945C86.9074 101.998 86.856 102.036 86.7963 102.053C86.5144 102.138 86.2576 102.291 86.048 102.498C85.8384 102.705 85.6822 102.96 85.593 103.241C85.5783 103.278 85.5544 103.311 85.5236 103.336C85.4927 103.362 85.456 103.379 85.4168 103.386Z" fill="#263238"/>
<path d="M93.0115 100.995C92.9728 101 92.9336 100.996 92.8966 100.984C92.8595 100.972 92.8255 100.952 92.7969 100.926C92.5897 100.702 92.3343 100.529 92.0502 100.419C91.766 100.308 91.4605 100.264 91.1568 100.29C91.0948 100.301 91.0309 100.287 90.9792 100.251C90.9274 100.215 90.8921 100.16 90.8809 100.098C90.8719 100.035 90.8877 99.9714 90.9248 99.9199C90.962 99.8685 91.0177 99.8334 91.0801 99.8222C91.4586 99.7806 91.8415 99.8283 92.1981 99.9614C92.5548 100.094 92.8754 100.309 93.1341 100.589C93.1563 100.611 93.174 100.637 93.186 100.666C93.1981 100.695 93.2043 100.726 93.2043 100.757C93.2043 100.789 93.1981 100.82 93.186 100.849C93.174 100.878 93.1563 100.904 93.1341 100.926C93.1018 100.962 93.0587 100.986 93.0115 100.995Z" fill="#263238"/>
<path d="M78.5112 96.044C78.5112 96.044 81.1706 88.847 87.869 89.4065C87.2496 89.6231 86.6773 89.9561 86.1829 90.3876C86.1829 90.3876 91.816 89.1766 94.0922 92.9552L92.9196 92.457C92.9196 92.457 94.7819 95.5841 93.3564 97.9831L92.9043 96.9254C92.9043 96.9254 90.9346 100.106 87.3478 99.7229L88.4744 98.9565C88.4744 98.9565 82.4582 99.5236 80.8104 98.19C79.9658 97.5634 79.1945 96.8435 78.5112 96.044Z" fill="#263238"/>
<path d="M92.6898 108.506C90.647 108.353 88.5942 108.391 86.5586 108.621C87.1947 109.94 88.2677 110.967 90.5745 110.76C90.865 110.763 91.1529 110.705 91.42 110.591C91.6871 110.477 91.9277 110.309 92.1265 110.097C92.3253 109.885 92.478 109.635 92.5749 109.361C92.6719 109.087 92.711 108.796 92.6898 108.506Z" fill="#263238"/>
<path d="M89.4093 109.779C90.2923 109.656 91.1913 109.817 91.9768 110.239C91.5714 110.553 91.079 110.735 90.5666 110.76C89.6861 110.886 88.7883 110.725 88.0068 110.3C88.4094 109.986 88.8993 109.804 89.4093 109.779Z" fill="#A02724"/>
<path d="M92.4825 108.483C92.4583 108.66 92.3841 108.826 92.2687 108.962C92.1532 109.098 92.0014 109.198 91.8311 109.25C90.4946 109.358 89.1516 109.358 87.8152 109.25C87.6014 109.248 87.3913 109.194 87.204 109.091C87.0167 108.988 86.858 108.839 86.7422 108.66C88.6486 108.458 90.5674 108.399 92.4825 108.483Z" fill="white"/>
<path d="M87.6008 146.392L81.2933 139.095L76.8481 153.934C76.8481 153.934 79.2853 159.375 79.3773 159.107C79.4692 158.839 87.6008 146.392 87.6008 146.392Z" fill="#711DF9"/>
<path d="M86.7731 146.538L81.2933 140.414L78.174 139.686L77.2773 152.462L80.8871 154.976L86.7731 146.538Z" fill="#711DF9"/>
<path opacity="0.7" d="M86.7731 146.538L81.2933 140.414L78.174 139.686L77.2773 152.462L80.8871 154.976L86.7731 146.538Z" fill="white"/>
<path d="M78.0744 138.283L83.7074 145.495L87.6007 146.353L81.6688 166.051L76.0434 166.649L72.4873 158.463L78.0744 138.283Z" fill="#711DF9"/>
<path opacity="0.2" d="M78.0744 138.283L83.7074 145.495L87.6007 146.353L81.6688 166.051L76.0434 166.649L72.4873 158.463L78.0744 138.283Z" fill="white"/>
<path d="M83.493 146.675L76.5954 139.9L73.3306 155.045C73.3306 155.045 76.1969 160.272 76.2659 159.996C76.3349 159.72 83.493 146.675 83.493 146.675Z" fill="#711DF9"/>
<path opacity="0.4" d="M83.493 146.675L76.5954 139.9L73.3306 155.045C73.3306 155.045 76.1969 160.272 76.2659 159.996C76.3349 159.72 83.493 146.675 83.493 146.675Z" fill="black"/>
<path d="M82.6882 146.929L76.7409 141.249L73.5757 140.774L73.683 153.581L77.4843 155.804L82.6882 146.929Z" fill="#711DF9"/>
<path opacity="0.7" d="M82.6882 146.929L76.7409 141.249L73.5757 140.774L73.683 153.581L77.4843 155.804L82.6882 146.929Z" fill="white"/>
<path d="M73.3686 139.379L79.5534 146.131L83.4927 146.676L79.1396 166.787L73.5755 167.814L69.3833 159.943L73.3686 139.379Z" fill="#711DF9"/>
<path opacity="0.2" d="M73.3686 139.379L79.5534 146.131L83.4927 146.676L79.1396 166.787L73.5755 167.814L69.3833 159.943L73.3686 139.379Z" fill="black"/>
<path d="M78.2353 131.829C73.8975 136.374 69.0844 140.889 65.5437 146.07C65.3981 146.307 65.2448 146.591 65.1835 146.706C65.2094 146.561 65.2094 146.413 65.1835 146.269C65.1835 146.123 65.0762 146.1 65.0992 146.169C65.3827 146.875 66.632 147.756 67.3984 148.285C69.9383 149.845 72.5955 151.206 75.3459 152.355L74.4723 155.796C71.1149 155.406 67.8315 154.534 64.7236 153.205C60.4931 151.427 56.983 147.641 59.7497 142.851C61.6485 139.529 63.9105 136.429 66.494 133.607C68.6476 131.162 70.8395 128.855 73.2077 126.594L78.2583 131.791L78.2353 131.829Z" fill="#DC897C"/>
<path d="M78.1662 124.686C70.6631 123.153 61.5659 137.348 61.5659 137.348L69.1073 143.326C72.9762 140.881 76.6459 138.133 80.0822 135.11C84.8262 130.726 83.1554 125.698 78.1662 124.686Z" fill="#263238"/>
<path opacity="0.2" d="M78.1662 124.686C70.6631 123.153 61.5659 137.348 61.5659 137.348L69.1073 143.326C72.9762 140.881 76.6459 138.133 80.0822 135.11C84.8262 130.726 83.1554 125.698 78.1662 124.686Z" fill="white"/>
<path d="M73.4224 151.619L80.4656 150.853L80.1207 157.038C80.1207 157.038 75.2771 158.249 72.8936 154.876L73.4224 151.619Z" fill="#E4897B"/>
<path d="M85.1405 152.769L83.7763 157.314L80.1206 157.061L80.4655 150.875L85.1405 152.769Z" fill="#E4897B"/>
<path d="M96.4756 120.777C96.4756 120.777 112.018 135.432 120.234 155.444L121.813 154.056C121.813 154.056 112.026 133.209 99.1656 120.455L96.4756 120.777Z" fill="#711DF9"/>
</svg>
