<svg width="654" height="485" viewBox="0 0 654 485" fill="none" xmlns="http://www.w3.org/2000/svg">
<path d="M149.069 367.36L147.46 457.207L6.45873 457.543L6.25464 366.484L149.069 367.36Z" fill="#EBEBEB"/>
<path d="M66.0047 457.291C65.8126 457.291 66.0047 437.23 66.4729 412.487C66.9411 387.745 67.4213 367.696 67.6014 367.708C67.7815 367.72 67.6014 387.757 67.1332 412.5C66.665 437.242 66.1848 457.291 66.0047 457.291Z" fill="#E0E0E0"/>
<path d="M6.45874 457.543C6.62972 457.214 6.82222 456.897 7.03499 456.594L8.77574 453.965L15.3186 444.361L37.0841 412.727C45.5838 400.398 53.2311 389.209 58.6935 381.045C61.4307 376.976 63.5916 373.638 65.0803 371.345C65.7886 370.229 66.3528 369.328 66.773 368.68C66.9567 368.357 67.1697 368.052 67.4093 367.768C67.2552 368.101 67.0829 368.426 66.893 368.74L65.2963 371.477C63.8797 373.878 61.7668 377.192 59.0896 381.309C53.7353 389.533 46.148 400.77 37.6363 413.111C29.1246 425.453 21.3692 436.546 15.7148 444.565L9.00384 454.061L7.15504 456.618C6.95049 456.946 6.7175 457.256 6.45874 457.543Z" fill="#E0E0E0"/>
<path d="M66.0046 457.291C65.761 457.016 65.544 456.718 65.3563 456.402L63.6035 453.797L57.2288 444.193L36.0756 412.595C27.78 400.266 20.3367 389.065 15.0544 380.889C12.4253 376.796 10.2523 373.47 8.87172 371.165L7.22701 368.488C7.0202 368.188 6.83945 367.871 6.68677 367.54C6.92786 367.812 7.14477 368.106 7.33505 368.416L9.08781 371.021C10.6245 373.338 12.7854 376.616 15.4506 380.625L36.6158 412.223C44.9114 424.552 52.3426 435.753 57.6249 443.941C60.2661 448.023 62.427 451.348 63.8196 453.665L65.4643 456.33C65.6672 456.637 65.8478 456.958 66.0046 457.291Z" fill="#E0E0E0"/>
<path d="M80.561 447.093L103.199 447.5L103.283 442.867L80.6443 442.46L80.561 447.093Z" fill="#E0E0E0"/>
<path d="M81.7075 438.719C85.3856 438.362 89.0821 438.229 92.7763 438.323C96.4719 438.193 100.172 438.281 103.857 438.587C100.179 438.937 96.4825 439.07 92.7884 438.983C89.0928 439.114 85.3927 439.025 81.7075 438.719Z" fill="#E0E0E0"/>
<path d="M111.804 366.844L111.18 401.527L106.294 397.65L99.9553 401.323L100.58 366.64L111.804 366.844Z" fill="#E0E0E0"/>
<path d="M132.153 299.302L130.929 367.876L23.326 368.128L23.158 298.63L132.153 299.302Z" fill="#F5F5F5"/>
<path d="M68.7659 367.936C68.6218 367.936 68.7659 352.629 69.1261 333.745C69.4862 314.861 69.8464 299.566 69.9904 299.566C70.1345 299.566 69.9904 314.873 69.6303 333.757C69.2701 352.642 68.898 367.936 68.7659 367.936Z" fill="#E0E0E0"/>
<path d="M23.3259 368.128C23.4511 367.877 23.5956 367.636 23.7581 367.408C24.0943 366.912 24.5385 366.239 25.0907 365.391C26.2912 363.626 27.996 361.129 30.0849 358.068C34.3587 351.861 40.2173 343.361 46.7001 333.973C53.1829 324.585 59.0175 315.966 63.1833 309.795C65.2602 306.673 66.9169 304.14 68.0574 302.388L69.3419 300.347C69.4902 300.107 69.6505 299.874 69.8222 299.65C69.7092 299.912 69.5768 300.165 69.426 300.407L68.2255 302.484C67.145 304.272 65.5363 306.854 63.4954 309.987C59.4016 316.266 53.6151 324.849 47.1203 334.261C40.6255 343.674 34.6949 352.137 30.385 358.272L25.2708 365.475C24.6705 366.291 24.2023 366.952 23.8542 367.432C23.6985 367.679 23.5218 367.912 23.3259 368.128Z" fill="#E0E0E0"/>
<path d="M68.7657 367.936C68.5756 367.729 68.4067 367.504 68.2615 367.264L66.9289 365.271C65.7284 363.506 64.1077 361.009 62.0668 357.948L45.8838 333.829C39.557 324.429 33.8785 315.821 29.8448 309.627C27.8399 306.505 26.2432 303.972 25.1267 302.207L23.9262 300.167C23.6501 299.698 23.506 299.446 23.518 299.446C23.7051 299.653 23.8701 299.878 24.0102 300.119L25.3548 302.099C26.5553 303.876 28.1761 306.361 30.1569 309.435L46.3159 333.553C52.6427 342.953 58.3212 351.501 62.3429 357.744C64.3598 360.865 65.9445 363.41 67.073 365.175L68.3335 367.204C68.4945 367.437 68.6389 367.682 68.7657 367.936Z" fill="#E0E0E0"/>
<path d="M80.6725 359.659L97.948 360.005L98.0188 356.463L80.7433 356.118L80.6725 359.659Z" fill="#E0E0E0"/>
<path d="M80.699 353.758C83.492 353.495 86.298 353.395 89.1026 353.458C91.9055 353.366 94.7113 353.434 97.5063 353.662C94.7137 353.932 91.9073 354.032 89.1026 353.962C86.2999 354.068 83.4933 354 80.699 353.758Z" fill="#EBEBEB"/>
<path d="M110.4 298.918L109.92 325.39L106.198 322.424L101.36 325.234L101.828 298.762L110.4 298.918Z" fill="#E0E0E0"/>
<path d="M143.822 451.06C142.561 447.322 140.201 444.052 137.05 441.678C133.898 439.305 130.104 437.938 126.163 437.758L122.861 256.059H138.756V258.772H141.745V252.266H117.051C117.051 252.266 119.992 386.316 122.129 437.938C121.067 438.111 120.019 438.364 118.996 438.695C115.047 440.024 111.625 442.577 109.226 445.984C106.828 449.391 105.578 453.473 105.658 457.639L49.3533 456.895L50.962 464.29L106.462 462.765C106.534 463.017 106.594 463.269 106.678 463.534C107.454 466.03 108.721 468.346 110.405 470.345C112.088 472.344 114.155 473.986 116.483 475.175C118.811 476.364 121.353 477.076 123.96 477.268C126.566 477.46 129.185 477.128 131.662 476.293C134.139 475.458 136.424 474.137 138.383 472.406C140.341 470.675 141.934 468.569 143.067 466.214C144.2 463.858 144.85 461.3 144.98 458.689C145.11 456.079 144.716 453.468 143.822 451.012V451.06Z" fill="#E0E0E0"/>
<path d="M60.146 475.107H63.1233L68.8618 463.846L64.1197 463.978L60.146 475.107Z" fill="#E0E0E0"/>
<path d="M521.867 0H465.49V15.5828H521.867V0Z" fill="#EBEBEB"/>
<path d="M570.068 329.855H513.691V345.438H570.068V329.855Z" fill="#EBEBEB"/>
<path d="M507.557 15.5713H451.18V31.1541H507.557V15.5713Z" fill="#F5F5F5"/>
<path d="M534.184 345.93H493.679V361.513H534.184V345.93Z" fill="#F5F5F5"/>
<path d="M296.337 51.8506H174.892V300.203H296.337V51.8506Z" fill="#EBEBEB"/>
<path d="M235.566 51.8506C235.566 51.8506 210.668 164.508 174.844 172.203C174.844 172.203 189.25 251.233 190.631 300.203H174.892V51.8506H235.566Z" fill="#E0E0E0"/>
<path d="M236.023 51.8506C236.023 51.8506 260.922 164.508 296.793 172.203C296.793 172.203 282.387 251.233 281.018 300.203H296.793V51.8506H236.023Z" fill="#E0E0E0"/>
<path d="M237.835 51.3706H233.406V300.203H237.835V51.3706Z" fill="#FAFAFA"/>
<path d="M204.077 51.3706H202.984V300.203H204.077V51.3706Z" fill="#FAFAFA"/>
<path d="M269.637 51.3706H268.545V300.203H269.637V51.3706Z" fill="#FAFAFA"/>
<path d="M296.337 113.077V114.074L174.892 114.566V113.569L296.337 113.077Z" fill="#FAFAFA"/>
<path d="M296.337 236.635V237.607L174.892 238.099V237.127L296.337 236.635Z" fill="#FAFAFA"/>
<path d="M296.337 173.536H174.892V177.677H296.337V173.536Z" fill="#FAFAFA"/>
<path d="M298.138 302.003H173.139V50.0498H298.138V302.003ZM176.693 298.402H294.536V53.6514H176.741L176.693 298.402Z" fill="#F5F5F5"/>
<path d="M651.728 51.8506H530.283V300.203H651.728V51.8506Z" fill="#EBEBEB"/>
<path d="M591.005 51.8506C591.005 51.8506 566.106 164.508 530.283 172.203C530.283 172.203 544.689 251.233 546.058 300.203H530.283V51.8506H591.005Z" fill="#E0E0E0"/>
<path d="M591.413 51.8506C591.413 51.8506 616.312 164.508 652.148 172.203C652.148 172.203 637.741 251.233 636.361 300.203H652.148V51.8506H591.413Z" fill="#E0E0E0"/>
<path d="M593.214 51.3706H588.784V300.203H593.214V51.3706Z" fill="#FAFAFA"/>
<path d="M559.455 51.3706H558.363V300.203H559.455V51.3706Z" fill="#FAFAFA"/>
<path d="M625.016 51.3706H623.923V300.203H625.016V51.3706Z" fill="#FAFAFA"/>
<path d="M651.728 113.077V114.074L530.283 114.566V113.569L651.728 113.077Z" fill="#FAFAFA"/>
<path d="M651.728 236.635V237.607L530.283 238.099V237.127L651.728 236.635Z" fill="#FAFAFA"/>
<path d="M651.728 173.536H530.283V177.677H651.728V173.536Z" fill="#FAFAFA"/>
<path d="M653.528 302.003H528.494V50.0498H653.528V302.003ZM532.083 298.402H649.927V53.6514H532.095L532.083 298.402Z" fill="#F5F5F5"/>
<path d="M274.091 439.523C269.745 437.484 264.861 436.891 260.153 437.831C257.62 438.251 254.979 439.031 253.262 440.904C251.545 442.777 251.209 446.15 253.19 447.783C254.464 448.65 256.002 449.042 257.536 448.887C261.221 448.887 265.303 448.191 268.257 450.412C269.937 451.685 271.054 453.785 273.059 454.41C274.066 454.635 275.118 454.531 276.061 454.111C277.004 453.692 277.786 452.98 278.293 452.081C279.245 450.227 279.455 448.081 278.881 446.078C278.639 444.691 278.082 443.379 277.251 442.242C276.42 441.105 275.339 440.175 274.091 439.523Z" fill="#EBEBEB"/>
<path d="M283.815 420.759C281.222 424.469 276.18 423.244 273.839 420.975C271.498 418.706 270.514 415.441 269.613 412.319C267.56 405.116 265.483 397.685 267.02 390.41C267.375 388.187 268.344 386.108 269.817 384.407C270.557 383.579 271.499 382.959 272.552 382.607C273.605 382.256 274.731 382.185 275.82 382.402C278.353 383.074 279.938 385.56 281.078 387.937C284.447 394.926 286.211 402.58 286.24 410.338C286.24 413.94 285.832 417.734 283.839 420.711" fill="#EBEBEB"/>
<path d="M290.934 426.077C289.604 424.336 288.718 422.296 288.354 420.135C287.99 417.974 288.159 415.757 288.846 413.676C290.264 409.512 292.807 405.822 296.193 403.015C300.046 399.59 304.532 396.951 309.399 395.248C311.277 394.495 313.296 394.155 315.317 394.251C316.326 394.309 317.305 394.613 318.169 395.136C319.033 395.659 319.756 396.386 320.275 397.253C321.668 399.894 320.335 403.099 318.895 405.656C316.372 410.283 313.481 414.699 310.251 418.862C307.67 422.199 304.704 425.489 300.755 427.001C296.805 428.514 292.699 428.334 290.61 425.597" fill="#EBEBEB"/>
<path d="M283.996 476.655C283.849 476.106 283.768 475.542 283.756 474.974C283.635 473.774 283.491 472.201 283.311 470.376C283.131 468.551 282.807 466.138 282.279 463.629C281.685 460.922 280.883 458.265 279.878 455.682C278.87 453.1 277.5 450.674 275.808 448.479C274.438 446.694 272.686 445.238 270.682 444.217C269.319 443.537 267.856 443.083 266.348 442.872C265.784 442.852 265.224 442.768 264.679 442.62C265.246 442.563 265.817 442.563 266.384 442.62C267.945 442.744 269.471 443.151 270.886 443.821C273.005 444.816 274.863 446.291 276.312 448.13C278.069 450.353 279.486 452.825 280.514 455.466C281.544 458.089 282.347 460.796 282.915 463.557C283.348 465.811 283.648 468.088 283.816 470.376C283.96 472.333 284.008 473.906 284.032 474.998C284.073 475.55 284.061 476.105 283.996 476.655Z" fill="#E0E0E0"/>
<path d="M283.671 473.114C283.643 472.855 283.643 472.593 283.671 472.334C283.671 471.745 283.671 471.013 283.671 470.101C283.671 468.168 283.671 465.299 283.575 461.889C283.395 454.962 282.807 445.406 281.654 434.889C280.502 424.373 278.953 414.913 277.549 408.13C277.212 406.425 276.888 404.888 276.564 403.556C276.24 402.223 276.012 401.047 275.772 400.11C275.532 399.174 275.388 398.514 275.244 397.937C275.169 397.687 275.124 397.429 275.112 397.169C275.223 397.404 275.311 397.649 275.376 397.901C275.556 398.465 275.76 399.174 276.024 400.05C276.288 400.927 276.612 402.127 276.948 403.46C277.285 404.792 277.669 406.329 278.029 408.022C279.939 416.867 281.377 425.807 282.339 434.805C283.539 445.346 284.019 454.938 284.067 461.889C284.067 465.359 284.067 468.168 283.935 470.113C283.935 471.013 283.839 471.757 283.803 472.346C283.793 472.606 283.748 472.865 283.671 473.114Z" fill="#E0E0E0"/>
<path d="M283.587 454.614C283.527 453.839 283.527 453.06 283.587 452.285C283.671 450.784 283.875 448.611 284.296 445.958C284.81 442.853 285.495 439.779 286.348 436.75C287.374 433.03 288.662 429.387 290.202 425.849C292.898 419.335 296.759 413.367 301.595 408.238C302.426 407.358 303.312 406.532 304.248 405.765C304.656 405.416 305.017 405.068 305.389 404.804L306.421 404.084C307.041 403.626 307.7 403.225 308.39 402.883C306.12 404.656 303.967 406.573 301.943 408.622C297.295 413.803 293.564 419.738 290.91 426.173C289.389 429.687 288.098 433.297 287.045 436.978C286.165 439.977 285.436 443.018 284.86 446.09C284.368 448.719 284.091 450.892 283.923 452.357C283.874 453.117 283.762 453.872 283.587 454.614Z" fill="#E0E0E0"/>
<path d="M634.752 477.556C634.752 477.724 499.021 477.868 331.62 477.868C164.219 477.868 28.4644 477.724 28.4644 477.556C28.4644 477.388 164.123 477.244 331.62 477.244C499.117 477.244 634.752 477.388 634.752 477.556Z" fill="#263238"/>
<path d="M549.863 438.359C532.408 426.93 527.978 405.056 528.17 385.295C528.17 381.994 527.762 378.537 529.274 375.607C530.787 372.678 534.448 370.613 537.474 371.922C539.983 373.014 541.075 375.835 542.576 378.164C544.516 381.274 547.296 383.772 550.596 385.368C552.744 386.412 555.398 387.012 557.463 385.824C560.308 384.179 560.548 380.241 560.452 376.964C560.26 370.857 560.072 364.751 559.888 358.644C559.601 355.371 559.857 352.073 560.644 348.884C561.604 345.75 563.813 342.797 566.959 341.849C570.104 340.9 574.042 342.605 574.786 345.798C574.944 347.153 575.013 348.516 574.99 349.88C574.987 350.562 575.186 351.229 575.562 351.797C575.938 352.366 576.475 352.81 577.103 353.073C578.448 353.434 579.744 352.473 580.705 351.489C584.054 348.091 586.275 343.769 588.352 339.484C590.429 335.198 592.422 330.792 595.447 327.118C598.472 323.445 602.65 320.467 607.452 320.083C612.254 319.699 617.345 322.484 618.653 327.058C619.962 331.632 617.357 336.41 614.475 340.264C610.191 345.907 605.117 350.905 599.409 355.102C598.29 355.74 597.406 356.721 596.888 357.9C596.227 360.109 598.376 362.233 600.573 362.894C603.07 363.65 605.748 363.326 608.353 363.566C610.958 363.806 613.779 364.863 614.823 367.264C616.264 370.577 613.515 374.155 610.778 376.532C605.275 381.272 599.007 385.043 592.242 387.685C589.841 388.621 587.259 389.461 585.339 391.202C583.418 392.943 582.289 395.92 583.538 398.201C584.786 400.482 587.86 401.142 590.405 400.602C592.95 400.062 595.207 398.645 597.608 397.685C602.122 395.872 608.029 396.04 611.042 399.87C611.969 401.182 612.573 402.694 612.807 404.283C613.04 405.873 612.896 407.495 612.386 409.018C611.357 412.055 609.723 414.852 607.584 417.241C600.524 426.005 591.277 432.751 580.777 436.798C570.272 440.676 560.488 441.9 549.863 438.347" fill="#7158CD"/>
<path d="M613.731 322.688C613.731 322.688 613.635 322.808 613.419 323.012L612.458 323.901C611.606 324.681 610.345 325.833 608.773 327.358C604.311 331.644 600.181 336.264 596.419 341.176C594.018 344.273 591.533 347.779 588.94 351.585C586.347 355.39 583.598 359.484 580.885 363.89C578.005 368.478 575.384 373.224 573.033 378.104C571.833 380.637 570.74 383.29 569.636 385.992C568.531 388.693 567.427 391.43 566.31 394.203C562.023 404.594 558.328 415.22 555.242 426.029C552.765 434.866 551.133 443.919 550.367 453.065C549.875 459.232 549.923 465.43 550.511 471.589C550.74 473.762 550.956 475.454 551.136 476.595C551.208 477.139 551.268 477.571 551.316 477.892C551.335 478.039 551.335 478.188 551.316 478.336C551.265 478.196 551.229 478.051 551.208 477.904C551.148 477.579 551.064 477.159 550.968 476.607C550.74 475.478 550.487 473.786 550.223 471.613C549.541 465.442 549.428 459.221 549.887 453.029C550.612 443.848 552.22 434.758 554.689 425.885C557.751 415.044 561.439 404.389 565.734 393.975C566.851 391.202 567.967 388.465 569.059 385.751C570.152 383.038 571.244 380.385 572.481 377.84C574.854 372.948 577.495 368.19 580.392 363.59C583.13 359.184 585.891 355.102 588.508 351.296C591.125 347.491 593.634 343.997 596.059 340.912C599.867 336.013 604.058 331.425 608.593 327.19C610.201 325.689 611.486 324.561 612.362 323.816L613.371 322.964L613.731 322.688Z" fill="#263238"/>
<path d="M572.685 377.792C572.519 377.341 572.398 376.875 572.325 376.399C572.133 375.499 571.893 374.179 571.617 372.558C571.064 369.304 570.416 364.79 569.816 359.808C569.216 354.826 568.507 350.324 567.907 347.083C567.607 345.462 567.355 344.165 567.175 343.253C567.033 342.813 566.944 342.358 566.911 341.896C567.103 342.337 567.252 342.795 567.355 343.265C567.619 344.153 567.931 345.45 568.279 347.059C568.988 350.288 569.732 354.79 570.38 359.784L572.001 372.558C572.205 374.083 572.373 375.379 572.517 376.424C572.628 376.871 572.684 377.331 572.685 377.792Z" fill="#263238"/>
<path d="M615.196 368.896C614.639 369.022 614.073 369.102 613.503 369.136C612.41 369.256 610.826 369.424 608.881 369.7C604.979 370.204 599.613 371.093 593.742 372.341C587.872 373.59 582.601 374.934 578.82 376.027C576.923 376.555 575.398 377.023 574.342 377.347C573.804 377.545 573.25 377.694 572.685 377.791C573.19 377.516 573.721 377.291 574.27 377.119C575.302 376.735 576.803 376.195 578.688 375.606C582.445 374.406 587.716 372.989 593.61 371.741C598.634 370.655 603.711 369.83 608.821 369.268C610.79 369.052 612.422 368.944 613.479 368.896C614.049 368.833 614.625 368.833 615.196 368.896Z" fill="#263238"/>
<path d="M555.23 425.069C555.111 424.912 555.01 424.743 554.929 424.564L554.161 423.052C553.501 421.743 552.588 419.822 551.508 417.433C549.323 412.631 546.526 405.956 543.536 398.525C540.547 391.094 537.822 384.383 535.745 379.569L533.296 373.866L532.636 372.318C532.544 372.139 532.476 371.949 532.432 371.753C532.432 371.753 532.564 371.922 532.744 372.258C532.924 372.594 533.2 373.17 533.512 373.77C534.172 375.079 535.073 377 536.165 379.389C538.338 384.191 541.147 390.866 544.137 398.297C547.126 405.728 549.851 412.439 551.928 417.253L554.401 422.956C554.665 423.58 554.881 424.156 555.061 424.504C555.146 424.683 555.202 424.873 555.23 425.069Z" fill="#263238"/>
<path d="M611.546 405.668C611.365 405.762 611.176 405.843 610.982 405.908L609.349 406.496L603.347 408.573C598.256 410.338 591.245 412.859 583.514 415.656C575.783 418.454 568.748 420.903 563.621 422.559C561.052 423.4 558.975 424.048 557.523 424.468L555.854 424.948C555.661 425.017 555.458 425.057 555.254 425.068C555.429 424.962 555.619 424.881 555.818 424.828L557.451 424.24L563.453 422.151C568.543 420.386 575.555 417.877 583.286 415.08C591.017 412.283 598.052 409.834 603.179 408.165C605.748 407.337 607.825 406.688 609.277 406.268L610.946 405.788C611.139 405.72 611.341 405.679 611.546 405.668Z" fill="#263238"/>
<path d="M68.7059 152.31C106.081 152.31 136.379 122.012 136.379 84.6368C136.379 47.2618 106.081 16.9634 68.7059 16.9634C31.3309 16.9634 1.03247 47.2618 1.03247 84.6368C1.03247 122.012 31.3309 152.31 68.7059 152.31Z" fill="#FAFAFA"/>
<path d="M68.6939 153.331C55.1076 153.331 41.8263 149.302 30.5296 141.754C19.233 134.206 10.4283 123.477 5.22904 110.925C0.0297664 98.3726 -1.33061 84.5606 1.31996 71.2353C3.97053 57.91 10.513 45.6699 20.12 36.0629C29.727 26.4559 41.9671 19.9134 55.2924 17.2628C68.6177 14.6123 82.4298 15.9726 94.9819 21.1719C107.534 26.3712 118.263 35.1759 125.811 46.4725C133.359 57.7692 137.388 71.0504 137.388 84.6368C137.366 102.849 130.121 120.308 117.243 133.186C104.366 146.064 86.9059 153.308 68.6939 153.331ZM68.6939 17.9838C55.5083 17.9838 42.6189 21.8939 31.6556 29.2197C20.6923 36.5455 12.1477 46.9578 7.10234 59.14C2.05698 71.3221 0.73749 84.7268 3.31075 97.6589C5.88401 110.591 12.2344 122.47 21.5589 131.792C30.8834 141.115 42.7631 147.463 55.6956 150.034C68.6281 152.605 82.0326 151.283 94.2139 146.236C106.395 141.188 116.806 132.642 124.13 121.677C131.454 110.713 135.361 97.8224 135.359 84.6368C135.34 66.9631 128.31 50.0189 115.811 37.5228C103.313 25.0268 86.3676 17.9997 68.6939 17.9838Z" fill="#263238"/>
<path d="M69.4263 37.6483C69.1642 35.4979 69.0758 33.33 69.1622 31.1654C69.0753 29.0009 69.1636 26.8329 69.4263 24.6826C69.689 26.8329 69.7774 29.0009 69.6905 31.1654C69.7768 33.33 69.6885 35.4979 69.4263 37.6483Z" fill="#263238"/>
<path d="M34.4311 50.434C32.8784 49.2144 31.4399 47.8562 30.1332 46.3762C28.7013 45.0171 27.3917 43.5348 26.2195 41.9463C27.7721 43.1659 29.2106 44.524 30.5173 46.0041C31.9492 47.3632 33.2588 48.8455 34.4311 50.434Z" fill="#263238"/>
<path d="M25.4751 86.0536C22.7704 86.3159 20.0516 86.4042 17.3356 86.3177C14.6195 86.4042 11.9008 86.3159 9.19604 86.0536C11.9008 85.7912 14.6195 85.703 17.3356 85.7894C20.0516 85.703 22.7704 85.7912 25.4751 86.0536Z" fill="#263238"/>
<path d="M34.275 119.272C33.2374 120.708 32.0851 122.057 30.8295 123.306C29.7006 124.68 28.4108 125.913 26.9878 126.979C28.0363 125.549 29.1922 124.201 30.4453 122.946C31.5679 121.57 32.8539 120.336 34.275 119.272Z" fill="#263238"/>
<path d="M111.12 126.295C120.995 116.356 127.08 103.275 128.324 89.3193C130.437 64.1084 119.44 50.9026 111.301 42.0308L104.229 48.8017C111.433 56.5211 122.597 71.8638 119.572 90.0637C117.686 101.387 112.614 111.939 104.95 120.485L111.12 126.295Z" fill="#7158CD"/>
<path d="M67.0493 93.3047C65.5114 93.0016 64.0978 92.249 62.9877 91.1423C61.8775 90.0356 61.1205 88.6244 60.8126 87.0874C60.5047 85.5504 60.6595 83.9565 61.2577 82.5076C61.8558 81.0586 62.8703 79.8196 64.1728 78.9473C65.4753 78.0751 67.0073 77.6088 68.5748 77.6074C70.1424 77.6061 71.6752 78.0697 72.9792 78.9397C74.2831 79.8097 75.2998 81.047 75.9004 82.4949C76.501 83.9429 76.6587 85.5365 76.3534 87.074C76.1524 88.0944 75.7521 89.0652 75.1756 89.9308C74.599 90.7964 73.8574 91.5398 72.9933 92.1185C72.1291 92.6973 71.1593 93.0999 70.1394 93.3034C69.1195 93.507 68.0694 93.5074 67.0493 93.3047Z" fill="#263238"/>
<path d="M96.7741 104.242L50.8421 69.0542L46.4722 75.7171L96.7741 104.242Z" fill="#263238"/>
<path d="M128.552 84.0728C128.552 84.0728 128.552 83.7487 128.552 83.1004C128.552 82.4521 128.552 81.5037 128.42 80.2551C127.844 71.7221 125.446 63.4117 121.387 55.8839C117.328 48.356 111.703 41.7859 104.89 36.6162C97.494 30.9996 88.8906 27.185 79.7627 25.4753C74.6983 24.533 69.5331 24.2505 64.396 24.6349C61.7091 24.8358 59.0382 25.2128 56.4006 25.7634C53.6964 26.3436 51.0335 27.1016 48.4291 28.0324C36.9307 32.2205 26.9989 39.8442 19.981 49.8692C12.9631 59.8943 9.19884 71.8355 9.19884 84.0728C9.19884 96.3102 12.9631 108.251 19.981 118.276C26.9989 128.301 36.9307 135.925 48.4291 140.113C51.035 141.042 53.6976 141.804 56.4006 142.394C64.1008 143.996 72.0388 144.09 79.7747 142.67C88.898 140.958 97.4969 137.143 104.89 131.529C111.7 126.358 117.324 119.787 121.383 112.26C125.442 104.732 127.841 96.4228 128.42 87.8905C128.528 86.6899 128.504 85.6815 128.552 85.0452C128.6 84.409 128.552 84.0728 128.552 84.0728C128.552 84.0728 128.552 85.3934 128.468 87.8905C128.267 91.5348 127.725 95.1523 126.847 98.6952C125.467 104.332 123.267 109.736 120.316 114.734C116.367 121.343 111.192 127.138 105.07 131.806C97.6376 137.478 88.9846 141.338 79.7988 143.078C74.6963 144.041 69.4899 144.331 64.312 143.943C61.6037 143.763 58.9116 143.39 56.2565 142.826C53.5306 142.249 50.8472 141.487 48.225 140.545C36.6201 136.336 26.5929 128.655 19.5067 118.547C12.4204 108.439 8.6189 96.3935 8.6189 84.0488C8.6189 71.7041 12.4204 59.6588 19.5067 49.5506C26.5929 39.4423 36.6201 31.7615 48.225 27.5522C50.8472 26.6103 53.5306 25.8482 56.2565 25.2712C58.9135 24.7185 61.6048 24.3455 64.312 24.1547C69.4904 23.7701 74.6968 24.0647 79.7988 25.0311C84.5658 25.9092 89.2039 27.3813 93.6048 29.413C97.6754 31.2629 101.522 33.5708 105.07 36.292C111.197 40.9741 116.372 46.785 120.316 53.4115C123.255 58.3892 125.455 63.7678 126.847 69.3784C127.724 72.9214 128.266 76.5388 128.468 80.1831C128.6 82.7522 128.552 84.0728 128.552 84.0728Z" fill="#263238"/>
<path d="M128.576 83.6884C126.459 83.9579 124.322 84.0463 122.189 83.9525C120.053 84.046 117.912 83.9576 115.791 83.6884C117.913 83.4263 120.053 83.3379 122.189 83.4242C124.322 83.3377 126.458 83.426 128.576 83.6884Z" fill="#263238"/>
<path d="M111.132 126.295C109.333 124.942 107.646 123.445 106.09 121.817C104.409 120.317 102.844 118.692 101.408 116.955C103.208 118.308 104.894 119.806 106.45 121.433C108.135 122.93 109.7 124.555 111.132 126.295Z" fill="#263238"/>
<path d="M111.301 42.0308C111.469 42.1868 109.5 44.2037 106.967 46.5207C105.485 47.9867 103.878 49.3203 102.165 50.5064C103.523 48.9272 105.009 47.4617 106.606 46.1245C107.879 44.924 109.008 43.9276 109.896 43.1953C110.343 42.7822 110.812 42.3935 111.301 42.0308Z" fill="#263238"/>
<path d="M100.604 106.595C99.5962 107.655 98.3252 108.43 96.9206 108.839C95.516 109.248 94.028 109.277 92.6084 108.924C94.0105 108.84 95.4036 108.643 96.7742 108.335C98.0945 107.857 99.375 107.275 100.604 106.595Z" fill="#263238"/>
<path d="M102.681 108.444C102.284 108.968 101.781 109.401 101.204 109.716C99.8746 110.568 98.3893 111.148 96.8342 111.421C95.2774 111.69 93.683 111.653 92.1402 111.313C91.4932 111.213 90.8752 110.975 90.3274 110.617C92.4207 111.174 94.6103 111.268 96.7437 110.893C98.8771 110.517 100.903 109.682 102.681 108.444Z" fill="#263238"/>
<path d="M53.8675 64.2162C52.491 63.9521 51.091 63.8314 49.6896 63.856C48.3001 64.0601 46.936 64.4102 45.6199 64.9005C46.7386 63.9337 48.1632 63.3937 49.6416 63.3758C51.1051 63.1549 52.5998 63.4522 53.8675 64.2162Z" fill="#263238"/>
<path d="M54.7799 62.4391C52.8 62.0848 50.7863 61.9559 48.7773 62.0549C46.7896 62.3382 44.8403 62.8456 42.9668 63.5676C44.6546 62.3534 46.6535 61.6454 48.7293 61.5267C50.7919 61.2414 52.8931 61.5583 54.7799 62.4391Z" fill="#263238"/>
<path d="M151.806 473.402L153.763 461.181L131.878 457.579L128.78 475.827L130.113 476.139C136.115 477.496 160.678 482.214 164.928 481.602C169.67 480.881 151.806 473.402 151.806 473.402Z" fill="#7158CD"/>
<path d="M165.624 480.521C165.624 480.725 157.377 479.584 147.268 477.964C137.16 476.343 128.996 474.866 129.032 474.662C129.068 474.458 137.28 475.599 147.388 477.219C157.497 478.84 165.66 480.317 165.624 480.521Z" fill="#263238"/>
<path d="M151.794 475.959C151.626 475.839 151.878 475.215 152.454 474.65C153.031 474.086 153.655 473.846 153.775 474.014C153.895 474.182 153.511 474.674 152.983 475.215C152.454 475.755 151.962 476.091 151.794 475.959Z" fill="#263238"/>
<path d="M153.055 476.992C152.875 476.884 153.055 476.175 153.643 475.491C154.231 474.807 154.843 474.422 154.975 474.579C155.107 474.735 154.747 475.311 154.231 475.959C153.715 476.607 153.247 477.1 153.055 476.992Z" fill="#263238"/>
<path d="M135.647 475.635C135.551 475.635 135.275 475.311 134.879 474.699C134.418 473.903 133.879 473.155 133.27 472.466C132.672 471.807 131.909 471.318 131.061 471.049C130.413 470.857 129.957 470.893 129.945 470.773C129.933 470.653 130.377 470.449 131.145 470.533C132.167 470.682 133.105 471.183 133.798 471.95C134.46 472.685 134.981 473.535 135.335 474.459C135.635 475.155 135.731 475.599 135.647 475.635Z" fill="#263238"/>
<path d="M152.226 473.678C152.298 473.858 151.866 474.231 151.194 474.351C150.522 474.471 149.993 474.351 149.993 474.111C149.993 473.87 150.474 473.738 151.05 473.618C151.626 473.498 152.142 473.474 152.226 473.678Z" fill="#263238"/>
<path d="M152.07 472.43C152.07 472.646 151.446 472.73 150.702 472.622C149.957 472.514 149.405 472.262 149.501 472.058C149.597 471.853 150.149 471.769 150.858 471.877C151.566 471.985 152.082 472.226 152.07 472.43Z" fill="#263238"/>
<path d="M229.228 470.76L228.772 458.395L206.598 459.067L207.09 477.567H208.471C214.605 477.735 239.684 477.567 243.682 476.163C248.196 474.626 229.228 470.76 229.228 470.76Z" fill="#7158CD"/>
<path d="M244.162 475.058C244.162 475.274 235.891 475.743 225.662 476.127C215.434 476.511 207.138 476.631 207.126 476.427C207.114 476.223 215.41 475.743 225.638 475.37C235.867 474.998 244.15 474.854 244.162 475.058Z" fill="#263238"/>
<path d="M229.708 473.27C229.516 473.186 229.648 472.525 230.104 471.865C230.561 471.205 231.125 470.833 231.305 470.977C231.485 471.121 231.185 471.673 230.765 472.285C230.344 472.897 229.9 473.366 229.708 473.27Z" fill="#263238"/>
<path d="M231.149 474.038C230.957 473.978 231.029 473.234 231.437 472.454C231.845 471.673 232.397 471.181 232.565 471.253C232.733 471.325 232.481 472.009 232.109 472.742C231.737 473.474 231.353 474.11 231.149 474.038Z" fill="#263238"/>
<path d="M213.801 476.103C213.717 476.103 213.381 475.851 212.877 475.323C212.263 474.638 211.588 474.012 210.86 473.45C210.156 472.929 209.329 472.598 208.459 472.49C207.787 472.49 207.342 472.55 207.258 472.49C207.174 472.43 207.619 472.081 208.459 472.009C209.493 471.953 210.513 472.263 211.34 472.886C212.132 473.478 212.807 474.21 213.333 475.047C213.693 475.611 213.885 476.043 213.801 476.103Z" fill="#263238"/>
<path d="M229.684 470.953C229.804 471.121 229.444 471.565 228.82 471.817C228.195 472.069 227.619 472.009 227.619 471.817C227.619 471.625 228.015 471.349 228.568 471.121C229.12 470.893 229.564 470.773 229.684 470.953Z" fill="#263238"/>
<path d="M229.3 469.764C229.3 469.969 228.736 470.173 227.991 470.209C227.247 470.245 226.647 470.113 226.647 469.896C226.647 469.68 227.235 469.488 227.955 469.452C228.676 469.416 229.264 469.56 229.3 469.764Z" fill="#263238"/>
<path d="M259.289 162.935L258.088 158.901C257.661 156.573 257.005 154.293 256.132 152.094C255.715 150.985 255.115 149.954 254.355 149.045C253.462 147.881 252.416 146.843 251.245 145.959C250.045 145.251 250.345 143.558 251.546 143.426C252.746 143.294 255.976 145.179 258.449 148.769C260.922 152.358 261.378 145.599 261.594 143.138C261.81 140.677 262.794 133.102 263.623 132.598C264.823 131.841 265.856 132.994 265.592 135.443C265.328 137.892 265.027 145.311 266.324 145.395C267.621 145.479 268.521 132.934 268.521 132.934C268.521 132.934 268.281 130.208 269.794 130.256C272.507 130.341 270.55 143.582 270.334 144.831C270.19 145.707 271.594 145.839 271.714 144.903C271.834 143.966 272.327 132.357 275.088 132.417C277.213 132.417 273.587 143.318 274.812 145.815C276.036 148.312 276.721 137.268 278.749 137.412C279.494 137.412 280.058 137.592 278.749 143.846C277.441 150.101 270.982 166.944 270.982 166.944L259.193 162.731" fill="#FFBE9D"/>
<path d="M178.182 159.622L198.134 161.098C198.398 158.793 198.795 149.825 198.795 149.825C198.795 149.825 207.126 149.045 207.727 140.797C208.327 132.55 208.087 113.522 208.087 113.522C203.52 111.216 198.42 110.172 193.315 110.497C188.21 110.822 183.284 112.504 179.046 115.37L177.761 116.235L178.182 159.622Z" fill="#FFBE9D"/>
<path d="M205.301 127.591C205.079 127.362 204.956 127.054 204.96 126.734C204.965 126.414 205.096 126.109 205.325 125.887C205.555 125.664 205.863 125.541 206.183 125.546C206.502 125.55 206.807 125.681 207.03 125.911C207.14 126.024 207.227 126.158 207.286 126.305C207.344 126.452 207.373 126.61 207.371 126.768C207.369 126.926 207.336 127.083 207.273 127.228C207.21 127.373 207.12 127.505 207.006 127.615C206.893 127.726 206.758 127.813 206.611 127.871C206.464 127.93 206.307 127.959 206.149 127.956C205.99 127.954 205.834 127.921 205.689 127.858C205.543 127.796 205.412 127.705 205.301 127.591Z" fill="#263238"/>
<path d="M207.426 125.803C207.282 125.935 206.514 125.263 205.373 125.191C204.233 125.119 203.381 125.647 203.261 125.491C203.141 125.335 203.357 125.179 203.729 124.927C204.235 124.603 204.834 124.455 205.433 124.507C206.031 124.546 206.599 124.778 207.054 125.167C207.378 125.503 207.486 125.803 207.426 125.803Z" fill="#263238"/>
<path d="M194.269 126.006C194.53 126.189 194.707 126.469 194.763 126.783C194.818 127.097 194.746 127.42 194.563 127.681C194.38 127.942 194.1 128.12 193.786 128.175C193.472 128.23 193.149 128.158 192.888 127.975C192.758 127.884 192.648 127.768 192.563 127.635C192.478 127.501 192.421 127.351 192.394 127.195C192.367 127.039 192.371 126.879 192.407 126.724C192.442 126.57 192.508 126.424 192.6 126.294C192.784 126.036 193.062 125.86 193.375 125.806C193.688 125.752 194.009 125.824 194.269 126.006Z" fill="#263238"/>
<path d="M195.013 126.067C194.881 126.199 194.113 125.526 192.972 125.454C191.832 125.382 190.979 125.911 190.859 125.755C190.739 125.598 190.943 125.442 191.327 125.19C191.829 124.864 192.425 124.716 193.02 124.77C193.618 124.807 194.187 125.039 194.641 125.43C194.977 125.803 195.085 126.007 195.013 126.067Z" fill="#263238"/>
<path d="M198.999 135.719C199.601 135.53 200.229 135.441 200.86 135.455C201.16 135.455 201.4 135.383 201.436 135.227C201.465 134.926 201.411 134.623 201.28 134.35C201.028 133.582 200.788 132.802 200.523 131.949C199.791 129.946 199.26 127.875 198.939 125.767C199.862 127.691 200.593 129.702 201.124 131.769C201.364 132.586 201.592 133.378 201.832 134.17C201.987 134.551 202.016 134.972 201.916 135.371C201.866 135.481 201.791 135.579 201.698 135.656C201.604 135.733 201.494 135.787 201.376 135.815C201.208 135.837 201.039 135.837 200.872 135.815C200.246 135.881 199.614 135.849 198.999 135.719Z" fill="#263238"/>
<path d="M195.229 136.751C194.089 135.971 198.386 138.684 200.703 138.708C200.281 139.281 199.678 139.694 198.991 139.879C198.304 140.064 197.575 140.011 196.922 139.729C194.509 138.672 195.229 136.751 195.229 136.751Z" fill="white"/>
<path d="M198.807 149.705C194.994 149.537 191.318 148.242 188.242 145.983C188.242 145.983 190.415 152.082 198.699 151.842L198.807 149.705Z" fill="#EB996E"/>
<path d="M177.941 124.602L178.938 130.521L182.611 130.449L182.371 118.119C182.371 118.119 196.946 119.248 198.614 113.413C198.614 113.413 202.9 119.86 208.219 119.836C208.219 119.836 212.877 119.356 208.447 112.861C201.604 102.873 177.233 110.904 177.233 110.904C176.619 112.729 176.322 114.645 176.357 116.57C176.261 122.957 177.941 124.602 177.941 124.602Z" fill="#263238"/>
<path d="M175.937 118.6L208.351 112.165C208.351 112.165 206.046 99.1752 188.53 102.957C171.531 106.666 175.937 118.6 175.937 118.6Z" fill="#7158CD"/>
<path d="M175.937 118.6C176.393 118.516 215.626 119.44 218.423 114.014C219.756 111.421 208.147 111.349 208.147 111.349L208.411 112.165L175.937 118.6Z" fill="#7158CD"/>
<path opacity="0.2" d="M175.937 118.6C176.393 118.516 215.626 119.44 218.423 114.014C219.756 111.421 208.147 111.349 208.147 111.349L208.411 112.165L175.937 118.6Z" fill="black"/>
<path d="M179.346 123.558C179.166 123.486 173.224 122.718 173.788 129.729C174.352 136.74 181.243 133.859 181.243 133.654C181.243 133.45 179.346 123.558 179.346 123.558Z" fill="#FFBE9D"/>
<path d="M178.902 131.361C178.902 131.361 178.782 131.457 178.578 131.577C178.297 131.725 177.969 131.755 177.666 131.661C177.191 131.412 176.791 131.039 176.509 130.584C176.226 130.128 176.07 129.605 176.057 129.068C175.987 128.468 176.057 127.86 176.261 127.292C176.305 127.065 176.406 126.853 176.552 126.675C176.699 126.497 176.888 126.358 177.101 126.271C177.238 126.224 177.387 126.225 177.523 126.276C177.659 126.326 177.773 126.422 177.846 126.547C177.954 126.739 177.93 126.883 177.966 126.895C178.002 126.907 178.11 126.763 177.966 126.475C177.911 126.304 177.801 126.156 177.653 126.055C177.449 125.929 177.204 125.886 176.969 125.935C176.684 126.017 176.424 126.17 176.214 126.38C176.004 126.59 175.851 126.85 175.769 127.135C175.525 127.77 175.434 128.452 175.505 129.128C175.52 129.757 175.721 130.366 176.082 130.881C176.443 131.396 176.948 131.793 177.533 132.022C177.727 132.059 177.926 132.054 178.116 132.006C178.307 131.958 178.485 131.869 178.638 131.745C178.902 131.541 178.926 131.373 178.902 131.361Z" fill="#EB996E"/>
<path d="M198.469 108.641L194.496 108.717L194.572 112.69L198.545 112.614L198.469 108.641Z" fill="#263238"/>
<path d="M198.429 106.486L196.437 106.524L196.475 108.517L198.468 108.478L198.429 106.486Z" fill="#263238"/>
<path d="M257.824 157.773C257.824 157.773 251.69 196.814 247.368 197.018C242.434 197.258 227.259 175.733 227.259 175.733C217.547 160.75 204.737 158.325 200.067 157.953V156.104L177.113 154.219C177.113 154.219 177.113 156.2 177.113 157.929H166.945C166.945 157.929 148.745 157.088 146.008 181.543L159.105 191.892L164.472 211.856C166.104 217.955 163.607 225.734 160.87 239.396L159.225 239.012L158.529 252.782C158.433 253.43 158.337 254.091 158.253 254.751H158.433L152.887 364.707L124.53 471.205L156.452 472.406L185.889 368.5C185.889 368.5 188.446 285.424 191.039 285.376C195.397 285.292 198.182 470.185 199.851 469.765C201.52 469.344 234.306 469.681 234.306 469.681C234.306 469.681 223.453 254.259 223.561 254.259L220.752 213.441L219.684 201.652C225.914 210.416 237.692 224.102 250.273 223.862C270.766 223.465 273.647 159.934 273.647 159.934L257.824 157.773Z" fill="#455A64"/>
<path d="M189.863 284.548C190.581 283.395 191.214 282.191 191.76 280.947C192.848 277.893 193.373 274.668 193.308 271.427C193.308 267.681 193.308 264.307 193.308 261.618C193.246 260.264 193.298 258.906 193.464 257.561C193.658 258.904 193.754 260.261 193.753 261.618C193.825 264.127 193.981 267.621 193.945 271.439C193.928 273.253 193.767 275.064 193.464 276.853C193.211 278.324 192.78 279.76 192.18 281.127C191.765 282.041 191.249 282.907 190.643 283.708C190.163 284.272 189.947 284.584 189.863 284.548Z" fill="#263238"/>
<path d="M171.026 267.104C171.144 267.469 171.2 267.85 171.195 268.232C171.255 268.965 171.327 270.009 171.363 271.33C171.547 274.787 170.858 278.234 169.358 281.354C168.472 283.075 167.157 284.539 165.54 285.604C164.206 286.447 162.675 286.926 161.098 286.997C160.039 287.051 158.982 286.87 158.001 286.468C157.634 286.341 157.298 286.136 157.016 285.868C158.3 286.401 159.686 286.639 161.074 286.564C162.557 286.427 163.983 285.928 165.228 285.112C166.746 284.079 167.984 282.684 168.829 281.054C170.273 278.019 170.996 274.691 170.942 271.33C170.898 269.921 170.926 268.51 171.026 267.104Z" fill="#263238"/>
<path d="M225.83 286.229C225.83 286.229 225.638 286.577 225.05 286.973C224.189 287.501 223.19 287.76 222.181 287.717C220.676 287.655 219.23 287.117 218.051 286.181C216.634 285.075 215.416 283.735 214.449 282.219C212.636 279.514 211.495 276.414 211.124 273.179C211.018 272.202 210.99 271.219 211.04 270.238C211.033 269.878 211.09 269.521 211.208 269.181C211.316 269.181 211.208 270.706 211.568 273.119C212.05 276.249 213.21 279.235 214.966 281.871C215.896 283.331 217.055 284.633 218.399 285.724C219.476 286.616 220.8 287.156 222.193 287.273C223.135 287.348 224.08 287.17 224.93 286.757C225.518 286.457 225.794 286.181 225.83 286.229Z" fill="#263238"/>
<path d="M157.917 465.335C157.917 465.515 150.834 465.395 142.118 465.083C133.402 464.771 126.319 464.35 126.319 464.194C126.319 464.038 133.402 464.134 142.13 464.458C150.858 464.783 157.929 465.167 157.917 465.335Z" fill="#263238"/>
<path d="M233.166 460.532C232.731 460.651 232.283 460.711 231.833 460.712L228.232 460.988C225.158 461.18 220.92 461.408 216.226 461.625C211.532 461.841 207.282 461.997 204.221 462.093L200.62 462.153C200.171 462.189 199.719 462.169 199.275 462.093C199.711 461.981 200.158 461.921 200.608 461.913L204.209 461.649C207.282 461.444 211.52 461.216 216.214 461C220.908 460.784 225.158 460.628 228.22 460.544L231.821 460.472C232.27 460.444 232.721 460.464 233.166 460.532Z" fill="#263238"/>
<path d="M174.268 287.093C174.286 287.249 174.286 287.406 174.268 287.561V288.942C174.268 290.143 174.208 291.967 174.172 294.248C174.064 298.846 173.86 305.509 173.524 313.745C173.187 321.98 172.731 331.753 172.083 342.641C171.759 348.08 171.399 353.782 170.882 359.689C170.63 362.642 170.402 365.691 169.886 368.693C169.37 371.694 168.685 374.755 168.061 377.841C162.587 402.391 156.44 424.313 151.638 440.076C149.237 447.963 147.076 454.266 145.563 458.624L143.727 463.594C143.51 464.134 143.354 464.566 143.222 464.879C143.182 465.03 143.122 465.176 143.042 465.311C143.063 465.158 143.104 465.009 143.162 464.867C143.27 464.542 143.414 464.11 143.606 463.558L145.335 458.54C146.776 454.17 148.937 447.843 151.218 439.956C155.9 424.169 162.022 402.223 167.449 377.697C168.109 374.635 168.769 371.598 169.274 368.597C169.778 365.595 170.018 362.594 170.27 359.641C170.762 353.734 171.134 348.032 171.471 342.605C172.143 331.801 172.671 321.944 173.043 313.721C173.415 305.497 173.692 298.87 173.896 294.236C173.98 291.955 174.052 290.179 174.1 288.93C174.1 288.354 174.124 287.898 174.172 287.561C174.196 287.404 174.228 287.248 174.268 287.093Z" fill="#263238"/>
<path d="M218.327 461.337C218.289 461.196 218.269 461.051 218.267 460.905C218.267 460.593 218.267 460.173 218.171 459.632C218.087 458.432 217.979 456.835 217.835 454.734C217.583 450.448 217.223 444.302 216.766 436.726C215.914 421.516 214.846 400.483 213.861 377.264C212.877 354.046 212.156 332.977 211.688 317.755C211.484 310.167 211.304 304.009 211.196 299.747C211.196 297.646 211.112 296.001 211.088 294.849V293.564C211.075 293.42 211.075 293.276 211.088 293.132C211.101 293.276 211.101 293.42 211.088 293.564C211.088 293.888 211.088 294.308 211.16 294.837C211.16 296.037 211.28 297.646 211.376 299.747C211.544 304.033 211.772 310.191 212.072 317.755C212.673 333.001 213.513 354.022 214.473 377.24C215.434 400.459 216.454 421.492 217.199 436.714C217.571 444.302 217.859 450.448 218.075 454.722C218.159 456.823 218.231 458.468 218.279 459.632C218.279 460.161 218.279 460.581 218.279 460.905C218.308 461.047 218.324 461.192 218.327 461.337Z" fill="#263238"/>
<path d="M191.964 155.431C192.054 156.506 192.054 157.586 191.964 158.661C191.931 161.356 191.666 164.043 191.171 166.692L191.099 167.088L190.739 166.896C189.971 166.5 189.179 166.08 188.398 165.612C185.061 163.667 182.227 161.638 180.127 160.245C178.026 158.853 176.741 158 176.777 157.928C178.042 158.449 179.249 159.101 180.379 159.873C182.54 161.182 185.421 163.151 188.722 165.071C189.503 165.528 190.283 165.96 191.027 166.356L190.583 166.56C191.088 163.944 191.417 161.297 191.568 158.637C191.613 157.559 191.746 156.487 191.964 155.431Z" fill="#263238"/>
<path d="M200.127 158.108C199.979 159.118 199.762 160.117 199.479 161.098C199.251 162.01 199.011 163.115 198.615 164.327C198.411 164.963 198.167 165.584 197.882 166.188C197.79 166.398 197.64 166.577 197.45 166.704C197.32 166.792 197.162 166.831 197.006 166.813C196.85 166.796 196.705 166.723 196.598 166.608C196.364 166.286 196.182 165.93 196.058 165.552C194.941 162.887 193.957 160.473 193.284 158.709C192.872 157.78 192.558 156.81 192.348 155.815C192.903 156.679 193.37 157.596 193.741 158.553C194.521 160.281 195.565 162.67 196.682 165.336C196.789 165.634 196.922 165.924 197.078 166.2C197.138 166.2 197.078 166.2 197.174 166.2C197.262 166.129 197.332 166.039 197.378 165.936C197.66 165.354 197.908 164.757 198.122 164.147C198.531 162.947 198.819 161.902 199.095 160.99C199.31 159.988 199.657 159.019 200.127 158.108Z" fill="#263238"/>
<path d="M195.817 240.141C195.753 239.857 195.721 239.567 195.721 239.276C195.721 238.652 195.625 237.836 195.553 236.815C195.445 234.606 195.277 231.521 195.085 227.739C194.737 220.02 194.269 209.467 193.741 197.81C193.212 186.153 192.888 175.601 192.54 167.869C192.42 164.088 192.336 161.014 192.264 158.793C192.264 157.773 192.264 156.956 192.264 156.392C192.246 156.104 192.246 155.816 192.264 155.528C192.331 155.807 192.367 156.093 192.372 156.38C192.372 157.004 192.468 157.821 192.528 158.841C192.648 161.062 192.804 164.136 193.008 167.917C193.356 175.637 193.825 186.189 194.341 197.846C194.857 209.503 195.205 220.068 195.541 227.787C195.661 231.569 195.757 234.654 195.829 236.863C195.829 237.884 195.829 238.712 195.829 239.336C195.855 239.604 195.851 239.874 195.817 240.141Z" fill="#263238"/>
<path d="M210.448 180.299L199.417 180.513L199.462 182.793L210.492 182.58L210.448 180.299Z" fill="white"/>
<path d="M220.932 217.571C220.752 217.571 220.056 209.239 219.372 198.927C218.687 188.614 218.267 180.271 218.435 180.259C218.603 180.247 219.3 188.59 219.996 198.891C220.692 209.191 221.16 217.559 220.932 217.571Z" fill="#263238"/>
<path d="M273.287 167.929C270.491 167.608 267.722 167.082 265.003 166.356C262.241 165.825 259.521 165.094 256.864 164.171C259.66 164.493 262.428 165.018 265.147 165.744C267.911 166.269 270.632 166.999 273.287 167.929Z" fill="#263238"/>
<path d="M260.213 160.546C260.437 160.541 260.657 160.603 260.845 160.724C261.034 160.844 261.182 161.018 261.272 161.223C261.361 161.428 261.388 161.655 261.348 161.875C261.308 162.095 261.204 162.299 261.048 162.459C260.892 162.62 260.693 162.731 260.474 162.778C260.255 162.825 260.027 162.806 259.82 162.723C259.612 162.64 259.433 162.497 259.307 162.313C259.18 162.128 259.111 161.91 259.109 161.687C259.106 161.539 259.132 161.392 259.186 161.255C259.24 161.117 259.32 160.992 259.423 160.886C259.526 160.78 259.649 160.695 259.784 160.637C259.92 160.579 260.066 160.548 260.213 160.546Z" fill="#263238"/>
<path d="M210.333 175.21L206.36 175.287L206.437 179.26L210.41 179.183L210.333 175.21Z" fill="#7158CD"/>
<path d="M210.281 173.04L208.288 173.079L208.327 175.071L210.319 175.033L210.281 173.04Z" fill="#7158CD"/>
<path d="M269.818 195.577L268.185 259.685L167.593 259.169L167.917 194.208L269.818 195.577Z" fill="#7158CD"/>
<path d="M210.067 259.313C209.899 259.313 210.067 244.991 210.572 227.343C211.076 209.695 211.556 195.433 211.688 195.433C211.82 195.433 211.688 209.743 211.196 227.403C210.704 245.063 210.235 259.313 210.067 259.313Z" fill="#263238"/>
<path d="M167.593 259.169C167.699 258.93 167.832 258.705 167.989 258.497L169.19 256.612L173.884 249.781L189.563 227.355C195.697 218.603 201.22 210.668 205.169 204.881C207.15 201.988 208.771 199.635 209.803 198.002L211.004 196.117C211.161 195.869 211.347 195.639 211.556 195.433C211.47 195.681 211.349 195.916 211.196 196.129L210.068 198.086C209.047 199.755 207.522 202.156 205.602 205.073C201.748 210.932 196.274 218.915 190.151 227.667C184.028 236.419 178.398 244.294 174.316 249.985L169.514 256.708C168.962 257.452 168.505 258.052 168.169 258.521C168.008 258.762 167.814 258.98 167.593 259.169Z" fill="#263238"/>
<path d="M209.071 259.816C208.927 259.913 199.659 245.47 188.386 227.558C177.113 209.647 168.073 195.048 168.229 194.964C168.385 194.88 177.629 209.31 188.914 227.222C200.199 245.134 209.215 259.732 209.071 259.816Z" fill="#263238"/>
<path d="M221.784 250.36L237.931 250.844L238.03 247.531L221.883 247.046L221.784 250.36Z" fill="#263238"/>
<path d="M221.376 246.144C223.997 245.829 226.639 245.728 229.276 245.844C231.914 245.735 234.556 245.844 237.175 246.168C234.554 246.469 231.913 246.569 229.276 246.468C226.638 246.561 223.997 246.453 221.376 246.144Z" fill="#263238"/>
<path d="M249.469 195.061L248.844 219.816L245.387 217.018L240.837 219.611L241.473 194.869L249.469 195.061Z" fill="#263238"/>
<path d="M165.936 188.53C165.936 188.53 161.062 222.553 163.367 224.546C176.141 235.291 193.897 240.921 200.247 242.698C201.172 242.47 202.264 242.182 203.501 241.785C204.58 241.443 205.592 240.915 206.49 240.225C207.645 239.419 208.683 238.458 209.575 237.368C209.714 237.142 209.917 236.964 210.159 236.857C210.4 236.75 210.668 236.718 210.928 236.766C211.188 236.814 211.427 236.94 211.614 237.126C211.802 237.313 211.928 237.552 211.976 237.812C212.036 239.012 210.152 242.014 206.61 244.211C206.61 244.211 214.75 257.308 217.343 258.485C219.936 259.661 227.367 263.011 226.107 263.659C224.846 264.307 215.818 261.666 215.818 261.666L197.498 256.768C197.498 256.768 136.884 247.272 140.929 219.468C143.403 202.432 146.104 187.054 147.076 183.188L165.936 188.53Z" fill="#FFBE9D"/>
<path d="M146.032 181.555L140.593 218.675C139.393 230.116 146.992 239.18 157.293 244.294C172.971 252.061 196.25 257.596 196.057 257.56C195.865 257.524 197.63 241.053 197.63 241.053C197.63 241.053 165 226.922 164.016 220.848C163.031 214.773 168.157 189.382 168.157 189.382L146.032 181.555Z" fill="#455A64"/>
<path d="M196.057 257.56C196.041 257.465 196.041 257.368 196.057 257.272C196.057 257.044 196.057 256.756 196.057 256.408C196.117 255.604 196.201 254.499 196.309 253.107C196.562 250.189 196.922 246.059 197.366 240.981L197.498 241.197L181.075 233.25L176.273 230.933C174.676 230.081 173.079 229.156 171.471 228.136C169.856 227.101 168.309 225.967 166.837 224.738C166.092 224.114 165.36 223.466 164.652 222.769C164.265 222.431 163.943 222.024 163.703 221.569C163.584 221.333 163.495 221.083 163.439 220.824C163.365 220.573 163.309 220.316 163.271 220.056C162.743 216.01 163.835 212.169 164.388 208.519C164.94 204.87 165.588 201.316 166.224 197.931C167.425 191.196 168.457 185.133 169.358 180.019C169.841 177.751 170.118 175.445 170.186 173.128C170.203 171.383 169.843 169.654 169.13 168.062C168.668 167.061 168.015 166.159 167.209 165.408C166.645 164.892 166.296 164.7 166.308 164.664C166.664 164.835 166.995 165.053 167.293 165.312C168.155 166.039 168.855 166.939 169.346 167.954C170.125 169.563 170.536 171.327 170.546 173.116C170.518 175.459 170.269 177.794 169.802 180.091C168.95 185.217 167.929 191.292 166.801 198.039L165 208.639C164.844 209.552 164.688 210.488 164.52 211.424C164.352 212.361 164.183 213.273 164.051 214.222C163.74 216.119 163.691 218.05 163.907 219.96C163.937 220.196 163.985 220.429 164.051 220.656C164.102 220.881 164.179 221.098 164.279 221.305C164.478 221.715 164.76 222.079 165.108 222.373C165.792 223.057 166.512 223.694 167.245 224.318C168.698 225.524 170.221 226.642 171.807 227.667C173.367 228.688 174.952 229.612 176.525 230.453L181.255 232.782L197.594 240.849L197.738 240.921V241.053C197.21 246.132 196.778 250.261 196.538 253.167C196.381 254.559 196.261 255.652 196.177 256.456C196.177 256.804 196.093 257.08 196.057 257.308C196.021 257.536 196.069 257.572 196.057 257.56Z" fill="#263238"/>
<path d="M193.032 238.724C193.076 239.573 193.012 240.424 192.84 241.257C192.636 242.817 192.312 244.954 191.88 247.259C191.447 249.564 190.955 251.725 190.547 253.262C190.379 254.093 190.109 254.899 189.743 255.663C189.575 255.663 190.391 251.845 191.267 247.163C191.685 244.317 192.274 241.499 193.032 238.724Z" fill="#263238"/>
<path d="M196.057 257.56C195.866 257.559 195.676 257.531 195.493 257.476L193.873 257.079L187.966 255.543C183.008 254.198 176.093 252.445 168.758 249.72C165.273 248.45 161.879 246.942 158.601 245.206C155.933 243.77 153.38 242.129 150.966 240.296C149.347 239.049 147.819 237.689 146.392 236.226C145.9 235.71 145.515 235.29 145.275 235.026C145.137 234.888 145.02 234.73 144.927 234.558C144.927 234.558 145.515 235.098 146.572 236.082C148.048 237.469 149.607 238.764 151.242 239.96C153.659 241.755 156.212 243.361 158.877 244.762C162.141 246.463 165.514 247.947 168.974 249.204C176.321 251.905 183.212 253.73 188.182 255.207L194.029 256.947L195.613 257.44C195.764 257.469 195.913 257.509 196.057 257.56Z" fill="#263238"/>
<path d="M196.466 242.697C196.469 242.836 196.445 242.974 196.395 243.104C196.344 243.233 196.269 243.351 196.173 243.452C196.077 243.552 195.963 243.632 195.836 243.688C195.709 243.744 195.572 243.775 195.433 243.778C195.156 243.778 194.89 243.671 194.69 243.478C194.491 243.285 194.374 243.023 194.365 242.746C194.362 242.607 194.386 242.469 194.436 242.339C194.486 242.21 194.561 242.092 194.657 241.991C194.753 241.891 194.868 241.811 194.995 241.755C195.122 241.699 195.259 241.668 195.397 241.665C195.674 241.665 195.941 241.772 196.14 241.965C196.34 242.158 196.456 242.42 196.466 242.697Z" fill="#263238"/>
<path d="M479.369 68.3096H346.879V477.556H479.369V68.3096Z" fill="#E0E0E0"/>
<path d="M433.809 71.4434V459.26L497.196 477.568L497.4 71.4434H433.809Z" fill="#455A64"/>
<path d="M441.624 259.457C441.744 262.494 440.58 265.003 439.019 265.076C437.458 265.148 436.09 262.674 435.97 259.685C435.85 256.696 437.014 254.139 438.575 254.079C440.136 254.019 441.504 256.42 441.624 259.457Z" fill="white"/>
<path d="M438.695 257.2L451.18 258.869C451.504 258.911 451.803 259.067 452.023 259.309C452.242 259.551 452.369 259.863 452.381 260.189C452.389 260.396 452.351 260.602 452.27 260.791C452.188 260.981 452.065 261.15 451.91 261.286C451.754 261.422 451.57 261.521 451.371 261.577C451.172 261.632 450.963 261.642 450.76 261.606L438.755 259.577L438.695 257.2Z" fill="white"/>
<path d="M331.404 53.8433V67.2291V71.4429V477.568H352.209V71.4429H474.302V477.568H497.196V71.4429V67.2291V53.8433H331.404Z" fill="#263238"/>
<path d="M352.209 71.4434H341.813V477.556H352.209V71.4434Z" fill="#263238"/>
<path opacity="0.5" d="M352.209 71.4434H341.813V477.556H352.209V71.4434Z" fill="black"/>
<path d="M497.4 53.8433H487.004V477.568H497.4V53.8433Z" fill="#263238"/>
<path opacity="0.5" d="M497.4 53.8433H487.004V477.568H497.4V53.8433Z" fill="black"/>
<path d="M428.562 29.1128H394.396V36.7361H428.562V29.1128Z" fill="#455A64"/>
<path d="M415.417 135.167C415.613 138.861 416.991 142.395 419.347 145.248C421.702 148.101 424.912 150.122 428.502 151.014C432.212 151.914 436.486 151.494 439.427 153.979C444.469 158.265 441.516 167.185 444.925 172.863C447.014 176.393 451.168 178.122 453.521 181.471C457.435 187.03 454.806 195.445 449.475 199.587C444.145 203.729 437.026 204.521 430.351 204.389C415.645 204.005 400.578 199.335 389.954 188.914C384.959 184.016 368.764 165.396 376.124 138.564" fill="#263238"/>
<path d="M362.306 174.64C362.306 174.64 336.578 197.006 335.894 194.281C332.293 179.478 333.301 160.57 333.889 153.331C334.285 152.719 334.754 152.034 335.306 151.278C335.934 150.402 336.71 149.642 337.599 149.033C338.674 148.222 339.853 147.56 341.104 147.064C341.366 147.033 341.61 146.916 341.799 146.732C341.988 146.548 342.111 146.307 342.15 146.046C342.188 145.785 342.139 145.519 342.011 145.289C341.883 145.058 341.682 144.876 341.441 144.771C340.408 144.387 337.119 145.239 334.069 147.784C331.02 150.33 332.269 144.279 332.677 142.07C333.085 139.861 334.045 132.946 333.457 132.298C332.605 131.337 331.404 132.106 331.056 134.327C330.708 136.548 329.135 143.138 327.971 142.898C326.806 142.658 329.087 131.397 329.087 131.397C329.087 131.397 329.952 129.056 328.619 128.732C326.218 128.144 324.705 140.269 324.585 141.422C324.501 142.226 323.229 142.01 323.385 141.146C323.541 140.281 325.894 129.969 323.457 129.344C321.584 128.864 322.112 139.297 320.431 141.194C318.751 143.09 320.84 133.222 319.027 132.79C318.354 132.646 317.826 132.634 317.454 138.456C317.365 143.144 317.533 147.833 317.958 152.502C316.362 168.469 313.228 217.391 335.33 215.71C361.405 213.717 367.408 193.164 367.408 193.164L362.306 174.64Z" fill="#B78876"/>
<path d="M382.859 167.365C383.231 165.3 382.57 156.632 382.57 156.632C382.57 156.632 374.875 155.66 374.551 147.82C374.227 139.981 374.995 121.901 374.995 121.901L389.149 115.106L404.372 127.375L401.731 167.233L382.859 167.365Z" fill="#B78876"/>
<path d="M376.304 135.107C376.304 135.301 376.361 135.491 376.469 135.652C376.576 135.814 376.73 135.94 376.909 136.015C377.088 136.09 377.285 136.11 377.476 136.073C377.666 136.036 377.842 135.943 377.98 135.807C378.118 135.67 378.213 135.496 378.252 135.306C378.291 135.116 378.274 134.918 378.201 134.738C378.128 134.558 378.004 134.403 377.844 134.294C377.683 134.184 377.494 134.124 377.3 134.122C377.038 134.122 376.786 134.225 376.6 134.41C376.413 134.594 376.307 134.844 376.304 135.107Z" fill="#263238"/>
<path d="M375.379 133.99C375.499 134.122 376.232 133.51 377.288 133.474C378.345 133.438 379.125 133.966 379.233 133.822C379.341 133.678 379.161 133.51 378.813 133.27C378.359 132.947 377.809 132.786 377.252 132.814C376.698 132.842 376.167 133.048 375.74 133.402C375.415 133.678 375.319 133.93 375.379 133.99Z" fill="#263238"/>
<path d="M387.625 135.299C387.625 135.493 387.682 135.683 387.79 135.845C387.897 136.006 388.05 136.132 388.229 136.207C388.409 136.282 388.606 136.302 388.797 136.265C388.987 136.228 389.163 136.136 389.301 135.999C389.439 135.863 389.534 135.688 389.573 135.498C389.612 135.308 389.595 135.11 389.522 134.93C389.449 134.75 389.325 134.596 389.165 134.486C389.004 134.377 388.815 134.317 388.621 134.314C388.359 134.314 388.107 134.418 387.921 134.602C387.734 134.786 387.628 135.037 387.625 135.299Z" fill="#263238"/>
<path d="M387.036 134.207C387.168 134.339 387.901 133.727 388.957 133.679C390.014 133.631 390.782 134.183 390.902 134.039C391.022 133.895 390.83 133.727 390.482 133.475C390.024 133.16 389.476 133.004 388.921 133.03C388.366 133.056 387.835 133.263 387.408 133.619C387.084 133.883 386.976 134.135 387.036 134.207Z" fill="#263238"/>
<path d="M383.087 143.259C382.531 143.084 381.952 142.995 381.37 142.994C381.106 142.994 380.842 142.922 380.794 142.73C380.773 142.433 380.831 142.135 380.962 141.866L381.718 139.645C382.43 137.753 383 135.811 383.423 133.834C382.576 135.664 381.866 137.554 381.298 139.489C381.046 140.281 380.794 141.014 380.565 141.734C380.402 142.087 380.36 142.483 380.445 142.862C380.481 142.961 380.54 143.05 380.617 143.121C380.695 143.192 380.788 143.244 380.89 143.271C381.041 143.292 381.194 143.292 381.346 143.271C381.924 143.343 382.509 143.339 383.087 143.259Z" fill="#263238"/>
<path d="M386.544 144.339C387.625 143.63 383.567 146.079 381.43 146.043C381.795 146.596 382.339 147.006 382.972 147.203C383.604 147.4 384.285 147.372 384.899 147.124C385.191 147.05 385.464 146.919 385.705 146.738C385.946 146.558 386.148 146.332 386.301 146.073C386.454 145.814 386.554 145.528 386.596 145.23C386.637 144.932 386.62 144.63 386.544 144.339Z" fill="white"/>
<path d="M382.57 156.632C386.216 156.534 389.754 155.374 392.751 153.295C392.751 153.295 390.35 159.021 382.702 158.553L382.57 156.632Z" fill="#A36957"/>
<path d="M415.417 135.286C415.345 134.734 415.261 133.894 415.177 133.017C415.056 131.817 414.924 130.52 414.768 129.824C410.879 113.413 396.929 110.124 394.167 110.075C391.19 110.015 386.028 108.251 378.308 116.198C376.113 118.306 374.589 121.016 373.929 123.987C373.269 126.958 373.502 130.058 374.599 132.897L375.895 131.697L387.12 128.936C386.28 125.826 387.649 122.009 388.417 120.232L388.489 120.16C390.518 131.937 403.087 133.366 403.087 133.366L401.887 164.579C414.264 162.082 415.249 142.009 415.225 135.214L415.417 135.286Z" fill="#263238"/>
<path d="M420.279 275.388C420.279 275.232 420.279 275.076 420.279 274.979C420.279 274.883 420.303 275.172 420.279 275.388Z" fill="#B78876"/>
<path d="M434.853 465.706C434.853 465.706 405.873 368.02 405.32 364.862C404.816 362.041 418.238 293.503 420.183 275.724L379.437 276.108C379.437 276.108 379.437 276.216 379.437 276.408L359.749 276.948L369.605 472.153L391.214 472.717L390.89 408.549C401.575 439.883 415.093 475.286 415.093 475.286L434.853 465.706Z" fill="#B78876"/>
<path d="M377.936 360.493C377.996 360.493 377.936 361.261 377.804 362.63C377.71 364.559 377.746 366.492 377.912 368.417C378.162 371.272 378.644 374.103 379.353 376.88C380.292 380.272 381.447 383.6 382.811 386.845C385.488 393.856 387.889 400.206 389.593 404.852L391.634 410.327C391.902 410.99 392.119 411.672 392.283 412.368C391.946 411.736 391.653 411.083 391.406 410.411L389.233 405.009C387.421 400.435 384.959 394.096 382.27 387.085C381.61 385.332 380.962 383.615 380.325 381.959C379.741 380.351 379.248 378.712 378.849 377.048C378.154 374.236 377.708 371.367 377.516 368.477C377.392 366.528 377.424 364.573 377.612 362.63C377.684 361.946 377.768 361.43 377.84 361.057C377.841 360.865 377.873 360.675 377.936 360.493Z" fill="#A36957"/>
<path d="M390.998 431.864C390.998 431.275 391.382 410.11 391.382 410.11C391.382 410.11 384.275 390.494 384.095 391.082C383.915 391.67 390.998 431.864 390.998 431.864Z" fill="#A36957"/>
<path d="M415.837 474.95L434.901 465.706L437.098 469.8L430.363 473.605C425.765 476.115 410.134 484.302 406.437 484.962C402.319 485.707 415.837 474.95 415.837 474.95Z" fill="#7158CD"/>
<path d="M405.584 484.411C405.488 484.267 412.451 480.809 421.131 476.715C429.811 472.622 436.906 469.416 436.99 469.512C437.074 469.608 430.123 473.114 421.443 477.196C412.764 481.278 405.669 484.555 405.584 484.411Z" fill="#263238"/>
<path d="M432.14 471.998C432.044 471.998 432.008 471.637 432.044 471.061C432.093 470.294 432.301 469.546 432.656 468.864C433.054 468.118 433.693 467.53 434.469 467.195C435.105 466.943 435.549 467.003 435.549 467.063C435.549 467.123 435.189 467.255 434.709 467.556C434.104 467.949 433.605 468.485 433.257 469.116C432.945 469.763 432.695 470.439 432.512 471.133C432.356 471.673 432.224 472.01 432.14 471.998Z" fill="#263238"/>
<path d="M414.804 475.827C414.804 475.995 415.393 476.223 416.149 476.476C416.905 476.728 417.542 476.896 417.65 476.752C417.758 476.608 417.218 476.151 416.389 475.875C415.561 475.599 414.828 475.647 414.804 475.827Z" fill="#263238"/>
<path d="M413.496 476.847C413.496 477.028 414 477.352 414.696 477.58C415.393 477.808 416.089 477.88 416.173 477.712C416.257 477.544 415.693 477.232 414.973 476.992C414.252 476.751 413.544 476.679 413.496 476.847Z" fill="#263238"/>
<path d="M412.415 477.796C412.343 477.952 412.752 478.252 413.28 478.528C413.808 478.804 414.324 478.96 414.48 478.828C414.636 478.696 414.252 478.288 413.676 477.988C413.1 477.688 412.5 477.628 412.415 477.796Z" fill="#263238"/>
<path d="M414.889 475.984C414.993 475.309 414.923 474.619 414.685 473.979C414.495 473.24 414.161 472.546 413.7 471.938C413.404 471.559 413.057 471.223 412.668 470.941C412.442 470.778 412.195 470.645 411.935 470.545C411.6 470.413 411.227 470.413 410.891 470.545C410.75 470.618 410.627 470.72 410.53 470.846C410.433 470.971 410.366 471.117 410.331 471.271C410.297 471.426 410.297 471.586 410.331 471.741C410.366 471.895 410.434 472.04 410.531 472.166C410.793 472.552 411.09 472.914 411.419 473.246C411.966 473.802 412.56 474.308 413.196 474.759C413.757 475.232 414.4 475.598 415.093 475.839C415.165 475.767 414.504 475.275 413.532 474.435C412.966 473.947 412.429 473.425 411.923 472.874C411.639 472.569 411.382 472.239 411.155 471.89C410.939 471.578 410.999 471.193 411.215 471.109C411.431 471.025 411.875 471.109 412.235 471.41C412.581 471.645 412.893 471.928 413.16 472.25C413.609 472.799 413.962 473.42 414.204 474.087C414.373 474.739 414.602 475.374 414.889 475.984Z" fill="#263238"/>
<path d="M414.889 475.611C414.354 475.08 413.711 474.671 413.004 474.41C412.235 474.071 411.429 473.826 410.603 473.678C410.107 473.59 409.605 473.545 409.102 473.546C408.815 473.549 408.529 473.585 408.25 473.654C408.075 473.693 407.91 473.771 407.769 473.882C407.685 473.948 407.617 474.035 407.573 474.133C407.529 474.231 407.51 474.339 407.517 474.446C407.605 474.737 407.759 475.003 407.967 475.224C408.176 475.445 408.433 475.614 408.718 475.719C409.181 475.945 409.674 476.103 410.183 476.187C411.014 476.304 411.855 476.328 412.692 476.259C414.144 476.175 414.937 475.671 414.865 475.611C414.136 475.718 413.403 475.786 412.668 475.815C411.863 475.82 411.059 475.752 410.267 475.611C409.849 475.526 409.445 475.385 409.066 475.191C408.706 474.999 408.298 474.638 408.274 474.41C408.25 474.182 408.718 474.146 409.174 474.17C409.631 474.151 410.09 474.175 410.543 474.242C411.319 474.366 412.082 474.558 412.824 474.818C413.491 475.135 414.181 475.4 414.889 475.611Z" fill="#263238"/>
<path d="M416.209 474.746C416.317 474.926 420.747 473.234 425.897 470.701C431.048 468.168 435.021 465.899 434.889 465.706C434.757 465.514 430.555 467.543 425.417 470.064C420.279 472.585 416.089 474.566 416.209 474.746Z" fill="#263238"/>
<path d="M372.078 471.937L391.202 472.081L390.878 477.615H389.678C384.131 477.615 361.453 477.207 357.816 476.043C353.71 474.77 372.078 471.937 372.078 471.937Z" fill="#7158CD"/>
<path d="M357.347 475.155C357.347 474.999 364.875 475.287 374.155 475.803C383.435 476.32 390.902 476.884 390.89 477.004C390.878 477.124 383.375 476.884 374.083 476.368C364.791 475.851 357.335 475.347 357.347 475.155Z" fill="#263238"/>
<path d="M384.815 476.667C384.743 476.607 384.923 476.295 385.308 475.827C385.829 475.188 386.464 474.65 387.18 474.242C387.975 473.802 388.881 473.606 389.786 473.678C390.482 473.762 390.842 474.014 390.806 474.074C390.77 474.134 390.374 474.074 389.762 474.074C388.986 474.123 388.231 474.344 387.553 474.723C386.885 475.112 386.258 475.566 385.68 476.079C385.212 476.487 384.887 476.715 384.815 476.667Z" fill="#263238"/>
<path d="M370.637 472.202C370.505 472.334 370.913 472.826 371.429 473.402C371.946 473.979 372.39 474.423 372.57 474.339C372.75 474.255 372.57 473.63 371.994 473.018C371.417 472.406 370.769 472.07 370.637 472.202Z" fill="#263238"/>
<path d="M368.824 472.465C368.68 472.586 368.969 473.126 369.473 473.666C369.977 474.206 370.517 474.566 370.673 474.47C370.829 474.374 370.553 473.834 370.025 473.27C369.497 472.706 369.017 472.345 368.824 472.465Z" fill="#263238"/>
<path d="M367.36 472.754C367.192 472.85 367.36 473.294 367.672 473.774C367.984 474.254 368.308 474.626 368.5 474.566C368.692 474.506 368.632 474.002 368.308 473.486C367.984 472.97 367.516 472.658 367.36 472.754Z" fill="#263238"/>
<path d="M370.625 472.381C371.104 471.874 371.457 471.261 371.658 470.593C371.936 469.895 372.063 469.146 372.03 468.396C372.01 467.937 371.908 467.486 371.73 467.063C371.632 466.821 371.498 466.594 371.334 466.391C371.098 466.119 370.767 465.947 370.409 465.911C370.243 465.896 370.075 465.915 369.917 465.969C369.758 466.023 369.613 466.109 369.49 466.222C369.366 466.335 369.268 466.472 369.201 466.625C369.134 466.779 369.1 466.944 369.101 467.111C369.099 467.555 369.143 467.997 369.233 468.432C369.368 469.155 369.577 469.863 369.857 470.545C370.06 471.213 370.408 471.828 370.877 472.345C370.78 471.686 370.603 471.041 370.349 470.425C370.147 469.744 369.995 469.05 369.893 468.348C369.833 467.951 369.809 467.549 369.821 467.147C369.821 466.787 370.097 466.499 370.349 466.523C370.601 466.547 370.901 466.859 371.057 467.255C371.226 467.635 371.328 468.041 371.358 468.456C371.415 469.142 371.35 469.833 371.166 470.497C370.92 471.104 370.739 471.736 370.625 472.381Z" fill="#263238"/>
<path d="M370.853 472.069C370.691 471.378 370.366 470.736 369.905 470.197C369.44 469.55 368.891 468.969 368.272 468.468C367.899 468.158 367.497 467.884 367.072 467.652C366.817 467.515 366.547 467.41 366.267 467.339C366.081 467.302 365.889 467.302 365.703 467.339C365.588 467.355 365.478 467.395 365.381 467.457C365.284 467.519 365.201 467.602 365.139 467.7C365.035 467.965 365.002 468.254 365.044 468.536C365.086 468.818 365.202 469.085 365.379 469.308C365.64 469.728 365.978 470.095 366.375 470.389C367.047 470.87 367.772 471.273 368.536 471.589C369.232 471.995 370.044 472.155 370.841 472.045C370.138 471.808 369.453 471.523 368.788 471.193C368.097 470.832 367.442 470.406 366.832 469.921C366.509 469.653 366.23 469.337 366.003 468.984C365.897 468.836 365.824 468.668 365.786 468.491C365.749 468.313 365.749 468.129 365.787 467.952C365.787 467.844 366.327 467.952 366.711 468.168C367.138 468.356 367.541 468.594 367.912 468.876C368.518 469.331 369.074 469.85 369.569 470.425C370.313 471.433 370.745 472.105 370.853 472.069Z" fill="#263238"/>
<path d="M372.522 471.937C375.558 472.425 378.632 472.63 381.706 472.55C384.775 472.687 387.85 472.579 390.902 472.226C387.849 471.946 384.783 471.841 381.718 471.913C376.652 471.865 372.534 471.769 372.522 471.937Z" fill="#263238"/>
<path d="M430.567 208.338C430.567 208.338 431.348 205.409 429.127 187.461C428.166 179.646 422.848 174.796 417.121 171.855V171.759L416.629 171.614C411.932 169.345 406.888 167.876 401.707 167.269L381.55 166.944C381.55 166.944 366.795 165.108 357.395 175.348C347.995 185.589 341.584 191.603 341.584 191.603L356.603 209.611L360.625 205.637C360.625 205.637 360.205 213.933 362.942 218.771L369.437 230.2L365.223 250.333C362.558 258.004 353.77 286.06 357.215 313.852C361.477 348.271 362.161 358.332 362.161 358.332L410.831 364.983C410.831 364.983 430.279 292.111 423.616 263.166C419.042 243.274 415.549 244.198 414.42 239.888L415.645 208.927L430.567 208.338Z" fill="#7158CD"/>
<path d="M364.479 198.939C364.089 200.225 363.497 201.44 362.726 202.541C362.143 203.739 361.369 204.834 360.433 205.782C360.829 204.499 361.42 203.284 362.186 202.18C362.773 200.985 363.547 199.891 364.479 198.939Z" fill="#263238"/>
<path d="M408.105 236.575C407.599 236.722 407.081 236.823 406.557 236.875C405.548 237.043 404.084 237.235 402.283 237.415C397.565 237.893 392.822 238.09 388.081 238.004C383.337 237.914 378.603 237.55 373.903 236.911C372.102 236.659 370.649 236.419 369.653 236.227C369.125 236.156 368.606 236.031 368.104 235.855C368.635 235.852 369.165 235.896 369.689 235.987L373.951 236.479C377.552 236.863 382.558 237.271 388.093 237.379C393.627 237.487 398.621 237.235 402.235 236.971L406.521 236.635C407.045 236.554 407.577 236.534 408.105 236.575Z" fill="#263238"/>
<path d="M424.505 291.115C424.478 291.436 424.417 291.754 424.325 292.063C424.157 292.747 423.94 293.66 423.664 294.8C423.508 295.389 423.352 296.001 423.172 296.757C422.992 297.514 422.692 298.234 422.428 299.062C421.876 300.695 421.335 302.604 420.459 304.597L419.162 307.766C418.706 308.858 418.118 309.951 417.566 311.115C416.497 313.444 415.081 315.797 413.652 318.319C407.155 329.051 398.585 338.381 388.441 345.763C386.04 347.395 383.843 349.004 381.598 350.252C380.494 350.901 379.449 351.573 378.393 352.125L375.343 353.674C373.434 354.718 371.574 355.403 369.989 356.075C369.197 356.411 368.452 356.735 367.768 356.999L365.847 357.648L363.182 358.536C362.878 358.651 362.565 358.739 362.246 358.8C362.531 358.641 362.833 358.512 363.146 358.416L365.763 357.42L367.66 356.723C368.344 356.447 369.065 356.099 369.857 355.751C371.418 355.031 373.254 354.322 375.151 353.254L378.165 351.669C379.209 351.117 380.241 350.469 381.334 349.784C383.555 348.524 385.752 346.903 388.105 345.27C398.164 337.895 406.691 328.63 413.208 317.994C414.648 315.521 416.077 313.192 417.146 310.875C417.71 309.675 418.346 308.654 418.766 307.562C419.186 306.469 419.679 305.425 420.099 304.429C420.999 302.448 421.563 300.575 422.152 298.954C422.428 298.138 422.716 297.381 422.932 296.673C423.148 295.965 423.316 295.317 423.472 294.728L424.253 292.039C424.316 291.726 424.4 291.417 424.505 291.115Z" fill="#263238"/>
<path d="M429.799 197.834C429.562 198.013 429.304 198.163 429.031 198.278C428.526 198.543 427.83 198.939 426.786 199.407C424.017 200.816 421.049 201.796 417.986 202.312C415.843 202.621 413.66 202.502 411.563 201.964C410.387 201.652 409.265 201.162 408.237 200.511C407.165 199.799 406.206 198.929 405.392 197.93C403.79 195.741 402.35 193.438 401.082 191.039C399.678 188.638 397.853 186.237 395.08 185.325C392.307 184.412 389.389 185.097 386.736 185.853C384.161 186.755 381.483 187.331 378.765 187.57C377.144 187.628 375.528 187.347 374.022 186.743C372.517 186.139 371.155 185.226 370.024 184.063C368.892 182.9 368.017 181.513 367.455 179.992C366.893 178.47 366.656 176.847 366.759 175.228C366.841 173.887 367.146 172.569 367.66 171.327C368.065 170.258 368.682 169.283 369.473 168.458C368.844 169.389 368.313 170.383 367.888 171.423C367.42 172.648 367.157 173.942 367.108 175.252C367.058 176.803 367.326 178.347 367.894 179.79C368.463 181.233 369.321 182.544 370.415 183.644C371.508 184.743 372.816 185.607 374.256 186.184C375.696 186.76 377.238 187.035 378.789 186.994C381.456 186.741 384.082 186.156 386.604 185.253C387.985 184.83 389.398 184.52 390.83 184.328C392.338 184.129 393.872 184.269 395.32 184.737C396.758 185.25 398.051 186.102 399.09 187.222C400.068 188.293 400.925 189.469 401.647 190.727C402.898 193.102 404.31 195.388 405.872 197.57C407.361 199.463 409.42 200.827 411.743 201.46C413.772 202.009 415.889 202.152 417.974 201.88C421.005 201.404 423.953 200.495 426.726 199.179L429.019 198.158C429.271 198.032 429.531 197.924 429.799 197.834Z" fill="white"/>
<path d="M401.239 240.368C401.651 239.753 401.94 239.064 402.091 238.34C402.21 237.347 402.104 236.34 401.78 235.394C401.455 234.448 400.922 233.588 400.218 232.877C399.251 231.887 398.062 231.142 396.749 230.704C395.23 230.193 393.66 229.851 392.067 229.684C390.374 229.456 388.561 229.324 386.712 228.927C384.763 228.574 382.92 227.782 381.322 226.61C380.528 225.977 379.857 225.204 379.341 224.329C378.857 223.485 378.455 222.597 378.141 221.676C377.646 219.973 376.991 218.321 376.184 216.742C375.426 215.468 374.361 214.405 373.086 213.649C371.81 212.894 370.366 212.472 368.885 212.42C366.857 212.383 364.875 213.026 363.254 214.245C362.675 214.711 362.126 215.212 361.609 215.746C361.609 215.746 361.693 215.566 361.922 215.254C362.28 214.813 362.682 214.411 363.122 214.053C364.75 212.707 366.797 211.972 368.909 211.976C370.477 212.002 372.013 212.426 373.374 213.207C374.734 213.988 375.874 215.101 376.688 216.442C377.528 218.049 378.211 219.734 378.729 221.472C379.249 223.28 380.288 224.896 381.718 226.118C383.238 227.225 384.985 227.98 386.832 228.327C388.633 228.723 390.434 228.867 392.127 229.12C395.512 229.54 398.73 230.512 400.53 232.577C401.261 233.339 401.803 234.261 402.114 235.27C402.424 236.279 402.495 237.347 402.319 238.388C402.196 238.946 401.959 239.473 401.623 239.936C401.512 240.095 401.383 240.24 401.239 240.368Z" fill="white"/>
<path d="M420.075 325.629C418.473 325.47 416.856 325.539 415.273 325.833C413.421 326.214 411.589 326.691 409.786 327.262C407.386 328.063 404.884 328.516 402.355 328.606C399.27 328.666 396.208 328.064 393.375 326.842C390.085 325.466 387.26 323.174 385.236 320.239C383.072 316.912 382.15 312.929 382.631 308.99C382.866 306.916 383.498 304.907 384.491 303.071C385.524 301.172 386.973 299.53 388.729 298.269C390.434 296.997 392.331 295.868 393.183 294.103C393.615 293.235 393.758 292.25 393.591 291.294C393.4 290.326 393.077 289.389 392.631 288.509C391.618 286.777 390.934 284.872 390.614 282.891C390.429 280.954 390.717 279.001 391.454 277.2C392.869 273.888 395.517 271.258 398.838 269.865C401.679 268.655 404.757 268.101 407.842 268.244C410.336 268.374 412.838 268.302 415.321 268.028C417.183 267.767 418.958 267.076 420.507 266.011C421.498 265.34 422.32 264.449 422.908 263.406C423.292 262.686 423.376 262.266 423.424 262.278C423.35 262.696 423.212 263.101 423.016 263.478C422.471 264.564 421.672 265.503 420.687 266.215C419.124 267.341 417.319 268.085 415.417 268.388C412.917 268.702 410.395 268.807 407.878 268.7C404.858 268.585 401.851 269.147 399.078 270.345C395.901 271.714 393.379 274.262 392.043 277.452C391.343 279.166 391.075 281.025 391.262 282.867C391.58 284.781 392.247 286.621 393.231 288.293C393.707 289.22 394.047 290.21 394.24 291.234C394.437 292.316 394.277 293.433 393.783 294.416C392.763 296.408 390.818 297.549 389.149 298.798C387.504 299.996 386.131 301.529 385.121 303.296C384.112 305.063 383.488 307.024 383.291 309.05C382.833 312.83 383.708 316.65 385.764 319.855C387.722 322.708 390.448 324.947 393.627 326.313C396.395 327.518 399.385 328.128 402.403 328.102C404.897 328.055 407.371 327.65 409.75 326.902C411.568 326.351 413.416 325.906 415.285 325.569C416.473 325.358 417.684 325.301 418.886 325.401C419.289 325.44 419.687 325.516 420.075 325.629Z" fill="white"/>
<path d="M403.087 363.914C403.027 363.914 403.087 363.074 403.171 361.573C403.288 359.468 402.914 357.363 402.079 355.427C401.489 354.127 400.454 353.08 399.162 352.473C397.634 351.882 395.994 351.632 394.359 351.741C392.455 351.894 390.539 351.657 388.729 351.045C387.794 350.61 386.972 349.965 386.328 349.16C385.688 348.342 385.133 347.461 384.671 346.531C383.882 344.714 382.848 343.014 381.598 341.477C380.39 340.092 378.942 338.937 377.324 338.067C374.568 336.581 371.408 336.017 368.308 336.459C366.217 336.757 364.205 337.467 362.39 338.547C361.117 339.328 360.493 339.892 360.457 339.856C360.421 339.82 360.589 339.688 360.877 339.412C362.953 337.591 365.514 336.414 368.248 336.026C371.446 335.5 374.728 336.04 377.588 337.563C379.281 338.445 380.795 339.634 382.054 341.069C382.717 341.811 383.308 342.615 383.819 343.47C384.323 344.358 384.755 345.282 385.224 346.195C385.954 348.003 387.291 349.502 389.005 350.433C390.739 351.016 392.571 351.248 394.395 351.117C396.128 351.018 397.862 351.301 399.474 351.945C400.857 352.626 401.954 353.774 402.571 355.187C403.388 357.198 403.709 359.376 403.507 361.537C403.447 362.294 403.375 362.882 403.303 363.266C403.252 363.489 403.18 363.706 403.087 363.914Z" fill="white"/>
<path d="M374.287 264.631C374 265.339 373.672 266.028 373.302 266.696C372.334 268.507 371.727 270.489 371.513 272.531C371.434 273.926 371.737 275.317 372.39 276.553C373.201 277.967 374.116 279.319 375.127 280.598C376.276 282.141 377.107 283.898 377.571 285.765C378.035 287.633 378.122 289.573 377.828 291.475C377.519 293.39 376.76 295.204 375.611 296.767C374.463 298.331 372.96 299.599 371.225 300.467C369.719 301.236 368.055 301.647 366.363 301.667C364.566 301.648 362.804 301.17 361.243 300.279C359.682 299.388 358.374 298.114 357.443 296.577C357.162 296.084 356.929 295.566 356.747 295.029C356.673 294.84 356.629 294.642 356.615 294.44C356.928 295.13 357.277 295.803 357.659 296.457C358.782 298.174 360.391 299.516 362.281 300.311C363.563 300.875 364.951 301.158 366.351 301.139C367.964 301.1 369.546 300.69 370.973 299.939C372.613 299.099 374.032 297.886 375.116 296.397C376.201 294.908 376.92 293.185 377.216 291.367C377.778 287.675 376.854 283.911 374.647 280.898C373.634 279.59 372.723 278.205 371.922 276.757C371.251 275.433 370.956 273.95 371.069 272.471C371.323 270.383 372.01 268.371 373.086 266.564C373.446 265.916 373.734 265.424 373.951 265.1C374.047 264.933 374.16 264.776 374.287 264.631Z" fill="white"/>
<path d="M410.459 224.353C410.36 223.884 410.311 223.405 410.314 222.925C410.314 221.868 410.194 220.524 410.122 219.011C409.954 215.578 409.738 211.1 409.498 206.141C409.258 201.183 409.09 196.537 409.054 193.248C409.054 191.591 409.054 190.259 409.054 189.334C409.031 188.852 409.063 188.368 409.15 187.894C409.257 188.366 409.305 188.85 409.294 189.334C409.354 190.379 409.414 191.735 409.498 193.236C409.654 196.669 409.87 201.147 410.122 206.105C410.375 211.064 410.519 215.71 410.555 218.999C410.555 220.656 410.555 221.988 410.555 222.913C410.578 223.395 410.546 223.878 410.459 224.353Z" fill="#263238"/>
<path d="M410.038 209.143C410.038 209.143 412.043 233.37 409.738 235.05C396.905 244.018 379.845 247.62 373.723 248.688C372.87 248.376 371.886 248.004 370.745 247.488C369.758 247.048 368.852 246.443 368.068 245.699C367.058 244.812 366.17 243.795 365.427 242.674C365.338 242.428 365.171 242.218 364.951 242.075C364.732 241.933 364.472 241.866 364.211 241.885C363.95 241.904 363.702 242.008 363.506 242.181C363.309 242.353 363.174 242.585 363.122 242.842C362.966 243.958 364.479 247.032 367.612 249.481C370.745 251.93 364.587 252.074 362.342 252.158C360.097 252.242 353.182 252.854 352.677 253.586C351.933 254.643 352.917 255.675 355.162 255.531C357.407 255.387 364.13 255.447 364.142 256.66C364.154 257.872 352.725 258.148 352.725 258.148C352.725 258.148 350.324 257.812 350.24 259.205C350.168 261.726 362.246 260.501 363.446 260.405C364.25 260.309 364.298 261.606 363.446 261.69C362.594 261.774 352.053 261.69 351.957 264.271C351.885 266.24 361.921 263.359 364.118 264.607C366.315 265.856 356.279 266 356.291 267.885C356.291 268.593 356.387 269.085 362.126 268.185C366.232 267.329 370.288 266.247 374.275 264.943V265.003C374.275 265.003 433.953 259.889 432.452 232.986C431.444 214.774 431.78 218.135 430.663 208.567" fill="#B78876"/>
</svg>
