<svg width="215" height="114" viewBox="0 0 215 114" fill="none" xmlns="http://www.w3.org/2000/svg">
<path d="M149.96 15V6.36H150.842V15H149.96ZM157.381 15V11.694C157.381 11.334 157.347 11.004 157.279 10.704C157.211 10.4 157.101 10.136 156.949 9.912C156.801 9.684 156.607 9.508 156.367 9.384C156.131 9.26 155.843 9.198 155.503 9.198C155.191 9.198 154.915 9.252 154.675 9.36C154.439 9.468 154.239 9.624 154.075 9.828C153.915 10.028 153.793 10.272 153.709 10.56C153.625 10.848 153.583 11.176 153.583 11.544L152.959 11.406C152.959 10.742 153.075 10.184 153.307 9.732C153.539 9.28 153.859 8.938 154.267 8.706C154.675 8.474 155.143 8.358 155.671 8.358C156.059 8.358 156.397 8.418 156.685 8.538C156.977 8.658 157.223 8.82 157.423 9.024C157.627 9.228 157.791 9.462 157.915 9.726C158.039 9.986 158.129 10.264 158.185 10.56C158.241 10.852 158.269 11.144 158.269 11.436V15H157.381ZM152.695 15V8.52H153.493V10.116H153.583V15H152.695ZM163.414 15C163.05 15.076 162.69 15.106 162.334 15.09C161.982 15.074 161.666 14.998 161.386 14.862C161.11 14.726 160.9 14.514 160.756 14.226C160.64 13.986 160.576 13.744 160.564 13.5C160.556 13.252 160.552 12.97 160.552 12.654V6.72H161.428V12.618C161.428 12.89 161.43 13.118 161.434 13.302C161.442 13.482 161.484 13.642 161.56 13.782C161.704 14.05 161.932 14.21 162.244 14.262C162.56 14.314 162.95 14.302 163.414 14.226V15ZM159.166 9.276V8.52H163.414V9.276H159.166ZM167.258 15.18C166.626 15.18 166.078 15.04 165.614 14.76C165.154 14.48 164.796 14.086 164.54 13.578C164.284 13.07 164.156 12.474 164.156 11.79C164.156 11.082 164.282 10.47 164.534 9.954C164.786 9.438 165.14 9.04 165.596 8.76C166.056 8.48 166.598 8.34 167.222 8.34C167.862 8.34 168.408 8.488 168.86 8.784C169.312 9.076 169.654 9.496 169.886 10.044C170.118 10.592 170.224 11.246 170.204 12.006H169.304V11.694C169.288 10.854 169.106 10.22 168.758 9.792C168.414 9.364 167.91 9.15 167.246 9.15C166.55 9.15 166.016 9.376 165.644 9.828C165.276 10.28 165.092 10.924 165.092 11.76C165.092 12.576 165.276 13.21 165.644 13.662C166.016 14.11 166.542 14.334 167.222 14.334C167.686 14.334 168.09 14.228 168.434 14.016C168.782 13.8 169.056 13.49 169.256 13.086L170.078 13.404C169.822 13.968 169.444 14.406 168.944 14.718C168.448 15.026 167.886 15.18 167.258 15.18ZM164.78 12.006V11.268H169.73V12.006H164.78ZM171.596 15V8.52H172.388V10.08L172.232 9.876C172.304 9.684 172.398 9.508 172.514 9.348C172.63 9.184 172.756 9.05 172.892 8.946C173.06 8.798 173.256 8.686 173.48 8.61C173.704 8.53 173.93 8.484 174.158 8.472C174.386 8.456 174.594 8.472 174.782 8.52V9.348C174.546 9.288 174.288 9.274 174.008 9.306C173.728 9.338 173.47 9.45 173.234 9.642C173.018 9.81 172.856 10.012 172.748 10.248C172.64 10.48 172.568 10.728 172.532 10.992C172.496 11.252 172.478 11.51 172.478 11.766V15H171.596ZM175.86 11.598V10.842H179.46V11.598H175.86ZM183.497 15.174C182.737 15.174 182.111 15.01 181.619 14.682C181.131 14.354 180.831 13.898 180.719 13.314L181.619 13.164C181.715 13.532 181.933 13.826 182.273 14.046C182.617 14.262 183.041 14.37 183.545 14.37C184.037 14.37 184.425 14.268 184.709 14.064C184.993 13.856 185.135 13.574 185.135 13.218C185.135 13.018 185.089 12.856 184.997 12.732C184.909 12.604 184.727 12.486 184.451 12.378C184.175 12.27 183.763 12.142 183.215 11.994C182.627 11.834 182.167 11.674 181.835 11.514C181.503 11.354 181.267 11.17 181.127 10.962C180.987 10.75 180.917 10.492 180.917 10.188C180.917 9.82 181.021 9.498 181.229 9.222C181.437 8.942 181.725 8.726 182.093 8.574C182.461 8.418 182.889 8.34 183.377 8.34C183.865 8.34 184.301 8.42 184.685 8.58C185.073 8.736 185.385 8.956 185.621 9.24C185.857 9.524 185.997 9.854 186.041 10.23L185.141 10.392C185.081 10.012 184.891 9.712 184.571 9.492C184.255 9.268 183.853 9.152 183.365 9.144C182.905 9.132 182.531 9.22 182.243 9.408C181.955 9.592 181.811 9.838 181.811 10.146C181.811 10.318 181.863 10.466 181.967 10.59C182.071 10.71 182.259 10.824 182.531 10.932C182.807 11.04 183.199 11.158 183.707 11.286C184.303 11.438 184.771 11.598 185.111 11.766C185.451 11.934 185.693 12.132 185.837 12.36C185.981 12.588 186.053 12.87 186.053 13.206C186.053 13.818 185.825 14.3 185.369 14.652C184.917 15 184.293 15.174 183.497 15.174ZM190.972 15C190.608 15.076 190.248 15.106 189.892 15.09C189.54 15.074 189.224 14.998 188.944 14.862C188.668 14.726 188.458 14.514 188.314 14.226C188.198 13.986 188.134 13.744 188.122 13.5C188.114 13.252 188.11 12.97 188.11 12.654V6.72H188.986V12.618C188.986 12.89 188.988 13.118 188.992 13.302C189 13.482 189.042 13.642 189.118 13.782C189.262 14.05 189.49 14.21 189.802 14.262C190.118 14.314 190.508 14.302 190.972 14.226V15ZM186.724 9.276V8.52H190.972V9.276H186.724ZM194.162 15.18C193.674 15.18 193.264 15.092 192.932 14.916C192.604 14.74 192.358 14.506 192.194 14.214C192.03 13.922 191.948 13.604 191.948 13.26C191.948 12.908 192.018 12.608 192.158 12.36C192.302 12.108 192.496 11.902 192.74 11.742C192.988 11.582 193.274 11.46 193.598 11.376C193.926 11.296 194.288 11.226 194.684 11.166C195.084 11.102 195.474 11.048 195.854 11.004C196.238 10.956 196.574 10.91 196.862 10.866L196.55 11.058C196.562 10.418 196.438 9.944 196.178 9.636C195.918 9.328 195.466 9.174 194.822 9.174C194.378 9.174 194.002 9.274 193.694 9.474C193.39 9.674 193.176 9.99 193.052 10.422L192.194 10.17C192.342 9.59 192.64 9.14 193.088 8.82C193.536 8.5 194.118 8.34 194.834 8.34C195.426 8.34 195.928 8.452 196.34 8.676C196.756 8.896 197.05 9.216 197.222 9.636C197.302 9.824 197.354 10.034 197.378 10.266C197.402 10.498 197.414 10.734 197.414 10.974V15H196.628V13.374L196.856 13.47C196.636 14.026 196.294 14.45 195.83 14.742C195.366 15.034 194.81 15.18 194.162 15.18ZM194.264 14.418C194.676 14.418 195.036 14.344 195.344 14.196C195.652 14.048 195.9 13.846 196.088 13.59C196.276 13.33 196.398 13.038 196.454 12.714C196.502 12.506 196.528 12.278 196.532 12.03C196.536 11.778 196.538 11.59 196.538 11.466L196.874 11.64C196.574 11.68 196.248 11.72 195.896 11.76C195.548 11.8 195.204 11.846 194.864 11.898C194.528 11.95 194.224 12.012 193.952 12.084C193.768 12.136 193.59 12.21 193.418 12.306C193.246 12.398 193.104 12.522 192.992 12.678C192.884 12.834 192.83 13.028 192.83 13.26C192.83 13.448 192.876 13.63 192.968 13.806C193.064 13.982 193.216 14.128 193.424 14.244C193.636 14.36 193.916 14.418 194.264 14.418ZM202.564 15C202.2 15.076 201.84 15.106 201.484 15.09C201.132 15.074 200.816 14.998 200.536 14.862C200.26 14.726 200.05 14.514 199.906 14.226C199.79 13.986 199.726 13.744 199.714 13.5C199.706 13.252 199.702 12.97 199.702 12.654V6.72H200.578V12.618C200.578 12.89 200.58 13.118 200.584 13.302C200.592 13.482 200.634 13.642 200.71 13.782C200.854 14.05 201.082 14.21 201.394 14.262C201.71 14.314 202.1 14.302 202.564 14.226V15ZM198.316 9.276V8.52H202.564V9.276H198.316ZM206.409 15.18C205.777 15.18 205.229 15.04 204.765 14.76C204.305 14.48 203.947 14.086 203.691 13.578C203.435 13.07 203.307 12.474 203.307 11.79C203.307 11.082 203.433 10.47 203.685 9.954C203.937 9.438 204.291 9.04 204.747 8.76C205.207 8.48 205.749 8.34 206.373 8.34C207.013 8.34 207.559 8.488 208.011 8.784C208.463 9.076 208.805 9.496 209.037 10.044C209.269 10.592 209.375 11.246 209.355 12.006H208.455V11.694C208.439 10.854 208.257 10.22 207.909 9.792C207.565 9.364 207.061 9.15 206.397 9.15C205.701 9.15 205.167 9.376 204.795 9.828C204.427 10.28 204.243 10.924 204.243 11.76C204.243 12.576 204.427 13.21 204.795 13.662C205.167 14.11 205.693 14.334 206.373 14.334C206.837 14.334 207.241 14.228 207.585 14.016C207.933 13.8 208.207 13.49 208.407 13.086L209.229 13.404C208.973 13.968 208.595 14.406 208.095 14.718C207.599 15.026 207.037 15.18 206.409 15.18ZM203.931 12.006V11.268H208.881V12.006H203.931Z" fill="black"/>
<rect x="147.25" y="0.25" width="64.5" height="19.5" rx="4.75" stroke="black" stroke-width="0.5"/>
<g filter="url(#filter0_d_2891_157)">
<path d="M3 25C3 22.2386 5.23858 20 8 20H207C209.761 20 212 22.2386 212 25V55H3V25Z" fill="#F1E7FF" fill-opacity="0.8"/>
<rect x="8" y="25.5" width="24" height="24" rx="12" fill="#E8D8FD"/>
<path d="M23.8838 36.1681H20.6775L23.5607 33.1564C23.6203 33.0926 23.5665 33 23.469 33H17.8875C17.8467 33 17.8074 33.018 17.787 33.0481L14.016 38.4326C13.9709 38.4964 14.0262 38.577 14.1165 38.577H16.6547L15.3536 42.8798C15.3259 42.9737 15.4627 43.0399 15.5471 42.9725L23.9638 36.333C24.0395 36.274 23.9886 36.1681 23.8838 36.1681Z" fill="#8D4AFA"/>
<path d="M47.859 44.27C46.941 44.27 46.113 44.114 45.375 43.802C44.643 43.49 44.037 43.046 43.557 42.47C43.083 41.888 42.774 41.201 42.63 40.409L44.286 40.148C44.496 40.964 44.931 41.603 45.591 42.065C46.257 42.521 47.04 42.749 47.94 42.749C48.522 42.749 49.047 42.659 49.515 42.479C49.989 42.293 50.364 42.029 50.64 41.687C50.916 41.345 51.054 40.94 51.054 40.472C51.054 40.184 51.003 39.938 50.901 39.734C50.805 39.524 50.67 39.347 50.496 39.203C50.328 39.053 50.136 38.927 49.92 38.825C49.704 38.723 49.479 38.639 49.245 38.573L45.942 37.592C45.582 37.484 45.234 37.349 44.898 37.187C44.562 37.019 44.262 36.812 43.998 36.566C43.734 36.314 43.524 36.014 43.368 35.666C43.212 35.312 43.134 34.895 43.134 34.415C43.134 33.647 43.332 32.993 43.728 32.453C44.13 31.907 44.673 31.49 45.357 31.202C46.041 30.914 46.812 30.773 47.67 30.779C48.54 30.785 49.317 30.941 50.001 31.247C50.691 31.547 51.261 31.979 51.711 32.543C52.167 33.107 52.473 33.782 52.629 34.568L50.928 34.865C50.838 34.337 50.637 33.884 50.325 33.506C50.019 33.122 49.635 32.828 49.173 32.624C48.711 32.414 48.204 32.306 47.652 32.3C47.124 32.294 46.647 32.378 46.221 32.552C45.795 32.726 45.456 32.969 45.204 33.281C44.952 33.587 44.826 33.941 44.826 34.343C44.826 34.739 44.94 35.06 45.168 35.306C45.396 35.546 45.675 35.738 46.005 35.882C46.341 36.02 46.668 36.134 46.986 36.224L49.452 36.935C49.734 37.013 50.058 37.121 50.424 37.259C50.796 37.397 51.156 37.592 51.504 37.844C51.852 38.09 52.14 38.42 52.368 38.834C52.596 39.242 52.71 39.758 52.71 40.382C52.71 41.006 52.584 41.561 52.332 42.047C52.086 42.533 51.741 42.941 51.297 43.271C50.853 43.595 50.337 43.841 49.749 44.009C49.161 44.183 48.531 44.27 47.859 44.27ZM58.8999 44.27C57.9459 44.27 57.1119 44.06 56.3979 43.64C55.6899 43.214 55.1379 42.623 54.7419 41.867C54.3459 41.105 54.1479 40.217 54.1479 39.203C54.1479 38.141 54.3429 37.223 54.7329 36.449C55.1229 35.669 55.6659 35.069 56.3619 34.649C57.0639 34.223 57.8859 34.01 58.8279 34.01C59.8059 34.01 60.6369 34.235 61.3209 34.685C62.0109 35.135 62.5269 35.777 62.8689 36.611C63.2169 37.445 63.3669 38.438 63.3189 39.59H61.6989V39.014C61.6809 37.82 61.4379 36.929 60.9699 36.341C60.5019 35.747 59.8059 35.45 58.8819 35.45C57.8919 35.45 57.1389 35.768 56.6229 36.404C56.1069 37.04 55.8489 37.952 55.8489 39.14C55.8489 40.286 56.1069 41.174 56.6229 41.804C57.1389 42.434 57.8739 42.749 58.8279 42.749C59.4699 42.749 60.0279 42.602 60.5019 42.308C60.9759 42.014 61.3479 41.591 61.6179 41.039L63.1569 41.57C62.7789 42.428 62.2089 43.094 61.4469 43.568C60.6909 44.036 59.8419 44.27 58.8999 44.27ZM55.3089 39.59V38.303H62.4909V39.59H55.3089ZM72.07 44V39.131C72.07 38.669 72.028 38.225 71.944 37.799C71.866 37.373 71.725 36.992 71.521 36.656C71.323 36.314 71.053 36.044 70.711 35.846C70.375 35.648 69.949 35.549 69.433 35.549C69.031 35.549 68.665 35.618 68.335 35.756C68.011 35.888 67.732 36.092 67.498 36.368C67.264 36.644 67.081 36.992 66.949 37.412C66.823 37.826 66.76 38.315 66.76 38.879L65.707 38.555C65.707 37.613 65.875 36.806 66.211 36.134C66.553 35.456 67.03 34.937 67.642 34.577C68.26 34.211 68.986 34.028 69.82 34.028C70.45 34.028 70.987 34.127 71.431 34.325C71.875 34.523 72.244 34.787 72.538 35.117C72.832 35.441 73.063 35.807 73.231 36.215C73.399 36.617 73.516 37.028 73.582 37.448C73.654 37.862 73.69 38.255 73.69 38.627V44H72.07ZM65.14 44V34.28H66.58V36.881H66.76V44H65.14ZM79.848 44.27C78.942 44.27 78.165 44.045 77.517 43.595C76.869 43.139 76.368 42.524 76.014 41.75C75.666 40.976 75.492 40.103 75.492 39.131C75.492 38.159 75.666 37.286 76.014 36.512C76.368 35.738 76.869 35.129 77.517 34.685C78.165 34.235 78.939 34.01 79.839 34.01C80.757 34.01 81.528 34.232 82.152 34.676C82.776 35.12 83.247 35.729 83.565 36.503C83.889 37.277 84.051 38.153 84.051 39.131C84.051 40.097 83.889 40.97 83.565 41.75C83.247 42.524 82.776 43.139 82.152 43.595C81.528 44.045 80.76 44.27 79.848 44.27ZM80.046 42.803C80.7 42.803 81.237 42.647 81.657 42.335C82.077 42.017 82.386 41.582 82.584 41.03C82.788 40.472 82.89 39.839 82.89 39.131C82.89 38.411 82.788 37.778 82.584 37.232C82.386 36.68 82.08 36.251 81.666 35.945C81.252 35.633 80.727 35.477 80.091 35.477C79.431 35.477 78.885 35.639 78.453 35.963C78.027 36.287 77.709 36.725 77.499 37.277C77.295 37.829 77.193 38.447 77.193 39.131C77.193 39.821 77.298 40.445 77.508 41.003C77.718 41.555 78.033 41.993 78.453 42.317C78.879 42.641 79.41 42.803 80.046 42.803ZM82.89 44V36.845H82.71V31.04H84.321V44H82.89ZM94.559 48.59C94.049 48.59 93.551 48.512 93.065 48.356C92.579 48.2 92.132 47.963 91.724 47.645C91.322 47.333 90.986 46.937 90.716 46.457L92.183 45.683C92.423 46.157 92.762 46.502 93.2 46.718C93.644 46.934 94.1 47.042 94.568 47.042C95.186 47.042 95.699 46.928 96.107 46.7C96.515 46.478 96.815 46.145 97.007 45.701C97.205 45.257 97.301 44.705 97.295 44.045V41.39H97.484V34.28H98.906V44.063C98.906 44.327 98.897 44.582 98.879 44.828C98.867 45.074 98.837 45.317 98.789 45.557C98.663 46.247 98.414 46.814 98.042 47.258C97.67 47.708 97.19 48.041 96.602 48.257C96.014 48.479 95.333 48.59 94.559 48.59ZM94.442 44.27C93.536 44.27 92.759 44.045 92.111 43.595C91.463 43.139 90.962 42.524 90.608 41.75C90.26 40.976 90.086 40.103 90.086 39.131C90.086 38.159 90.26 37.286 90.608 36.512C90.962 35.738 91.463 35.129 92.111 34.685C92.759 34.235 93.533 34.01 94.433 34.01C95.351 34.01 96.122 34.232 96.746 34.676C97.37 35.12 97.841 35.729 98.159 36.503C98.483 37.277 98.645 38.153 98.645 39.131C98.645 40.097 98.483 40.97 98.159 41.75C97.841 42.524 97.37 43.139 96.746 43.595C96.122 44.045 95.354 44.27 94.442 44.27ZM94.64 42.803C95.294 42.803 95.831 42.647 96.251 42.335C96.671 42.017 96.98 41.582 97.178 41.03C97.382 40.472 97.484 39.839 97.484 39.131C97.484 38.411 97.382 37.778 97.178 37.232C96.98 36.68 96.674 36.251 96.26 35.945C95.846 35.633 95.321 35.477 94.685 35.477C94.025 35.477 93.479 35.639 93.047 35.963C92.621 36.287 92.303 36.725 92.093 37.277C91.889 37.829 91.787 38.447 91.787 39.131C91.787 39.821 91.892 40.445 92.102 41.003C92.312 41.555 92.627 41.993 93.047 42.317C93.473 42.641 94.004 42.803 94.64 42.803ZM105.649 44.27C104.683 44.27 103.849 44.051 103.147 43.613C102.451 43.175 101.914 42.569 101.536 41.795C101.158 41.021 100.969 40.133 100.969 39.131C100.969 38.111 101.161 37.217 101.545 36.449C101.929 35.681 102.472 35.084 103.174 34.658C103.876 34.226 104.701 34.01 105.649 34.01C106.621 34.01 107.458 34.229 108.16 34.667C108.862 35.099 109.399 35.702 109.771 36.476C110.149 37.244 110.338 38.129 110.338 39.131C110.338 40.145 110.149 41.039 109.771 41.813C109.393 42.581 108.853 43.184 108.151 43.622C107.449 44.054 106.615 44.27 105.649 44.27ZM105.649 42.749C106.657 42.749 107.407 42.413 107.899 41.741C108.391 41.069 108.637 40.199 108.637 39.131C108.637 38.033 108.388 37.16 107.89 36.512C107.392 35.858 106.645 35.531 105.649 35.531C104.971 35.531 104.413 35.684 103.975 35.99C103.537 36.296 103.21 36.719 102.994 37.259C102.778 37.799 102.67 38.423 102.67 39.131C102.67 40.223 102.922 41.099 103.426 41.759C103.93 42.419 104.671 42.749 105.649 42.749ZM116.55 44.27C115.584 44.27 114.75 44.051 114.048 43.613C113.352 43.175 112.815 42.569 112.437 41.795C112.059 41.021 111.87 40.133 111.87 39.131C111.87 38.111 112.062 37.217 112.446 36.449C112.83 35.681 113.373 35.084 114.075 34.658C114.777 34.226 115.602 34.01 116.55 34.01C117.522 34.01 118.359 34.229 119.061 34.667C119.763 35.099 120.3 35.702 120.672 36.476C121.05 37.244 121.239 38.129 121.239 39.131C121.239 40.145 121.05 41.039 120.672 41.813C120.294 42.581 119.754 43.184 119.052 43.622C118.35 44.054 117.516 44.27 116.55 44.27ZM116.55 42.749C117.558 42.749 118.308 42.413 118.8 41.741C119.292 41.069 119.538 40.199 119.538 39.131C119.538 38.033 119.289 37.16 118.791 36.512C118.293 35.858 117.546 35.531 116.55 35.531C115.872 35.531 115.314 35.684 114.876 35.99C114.438 36.296 114.111 36.719 113.895 37.259C113.679 37.799 113.571 38.423 113.571 39.131C113.571 40.223 113.823 41.099 114.327 41.759C114.831 42.419 115.572 42.749 116.55 42.749ZM127.126 44.27C126.22 44.27 125.443 44.045 124.795 43.595C124.147 43.139 123.646 42.524 123.292 41.75C122.944 40.976 122.77 40.103 122.77 39.131C122.77 38.159 122.944 37.286 123.292 36.512C123.646 35.738 124.147 35.129 124.795 34.685C125.443 34.235 126.217 34.01 127.117 34.01C128.035 34.01 128.806 34.232 129.43 34.676C130.054 35.12 130.525 35.729 130.843 36.503C131.167 37.277 131.329 38.153 131.329 39.131C131.329 40.097 131.167 40.97 130.843 41.75C130.525 42.524 130.054 43.139 129.43 43.595C128.806 44.045 128.038 44.27 127.126 44.27ZM127.324 42.803C127.978 42.803 128.515 42.647 128.935 42.335C129.355 42.017 129.664 41.582 129.862 41.03C130.066 40.472 130.168 39.839 130.168 39.131C130.168 38.411 130.066 37.778 129.862 37.232C129.664 36.68 129.358 36.251 128.944 35.945C128.53 35.633 128.005 35.477 127.369 35.477C126.709 35.477 126.163 35.639 125.731 35.963C125.305 36.287 124.987 36.725 124.777 37.277C124.573 37.829 124.471 38.447 124.471 39.131C124.471 39.821 124.576 40.445 124.786 41.003C124.996 41.555 125.311 41.993 125.731 42.317C126.157 42.641 126.688 42.803 127.324 42.803ZM130.168 44V36.845H129.988V31.04H131.599V44H130.168ZM137.883 44.261C136.725 44.261 135.774 44.009 135.03 43.505C134.292 42.995 133.839 42.284 133.671 41.372L135.309 41.111C135.441 41.639 135.744 42.059 136.218 42.371C136.692 42.677 137.28 42.83 137.982 42.83C138.648 42.83 139.17 42.692 139.548 42.416C139.926 42.14 140.115 41.765 140.115 41.291C140.115 41.015 140.052 40.793 139.926 40.625C139.8 40.451 139.539 40.289 139.143 40.139C138.753 39.989 138.162 39.809 137.37 39.599C136.512 39.371 135.837 39.134 135.345 38.888C134.853 38.642 134.502 38.357 134.292 38.033C134.082 37.709 133.977 37.316 133.977 36.854C133.977 36.284 134.133 35.786 134.445 35.36C134.757 34.928 135.192 34.595 135.75 34.361C136.314 34.127 136.968 34.01 137.712 34.01C138.45 34.01 139.11 34.127 139.692 34.361C140.274 34.595 140.742 34.928 141.096 35.36C141.456 35.786 141.669 36.284 141.735 36.854L140.097 37.151C140.019 36.629 139.767 36.218 139.341 35.918C138.921 35.618 138.378 35.459 137.712 35.441C137.082 35.417 136.569 35.528 136.173 35.774C135.783 36.02 135.588 36.353 135.588 36.773C135.588 37.007 135.66 37.208 135.804 37.376C135.954 37.544 136.227 37.703 136.623 37.853C137.025 38.003 137.607 38.174 138.369 38.366C139.227 38.582 139.902 38.819 140.394 39.077C140.892 39.329 141.246 39.629 141.456 39.977C141.666 40.319 141.771 40.742 141.771 41.246C141.771 42.182 141.426 42.92 140.736 43.46C140.046 43.994 139.095 44.261 137.883 44.261Z" fill="black"/>
<path d="M3 55H212V105C212 107.761 209.761 110 207 110H8C5.23858 110 3 107.761 3 105V55Z" fill="white" fill-opacity="0.8"/>
<path d="M8.96 75V66.36H9.842V74.154H13.946V75H8.96ZM16.8829 75.18C16.3949 75.18 15.9849 75.092 15.6529 74.916C15.3249 74.74 15.0789 74.506 14.9149 74.214C14.7509 73.922 14.6689 73.604 14.6689 73.26C14.6689 72.908 14.7389 72.608 14.8789 72.36C15.0229 72.108 15.2169 71.902 15.4609 71.742C15.7089 71.582 15.9949 71.46 16.3189 71.376C16.6469 71.296 17.0089 71.226 17.4049 71.166C17.8049 71.102 18.1949 71.048 18.5749 71.004C18.9589 70.956 19.2949 70.91 19.5829 70.866L19.2709 71.058C19.2829 70.418 19.1589 69.944 18.8989 69.636C18.6389 69.328 18.1869 69.174 17.5429 69.174C17.0989 69.174 16.7229 69.274 16.4149 69.474C16.1109 69.674 15.8969 69.99 15.7729 70.422L14.9149 70.17C15.0629 69.59 15.3609 69.14 15.8089 68.82C16.2569 68.5 16.8389 68.34 17.5549 68.34C18.1469 68.34 18.6489 68.452 19.0609 68.676C19.4769 68.896 19.7709 69.216 19.9429 69.636C20.0229 69.824 20.0749 70.034 20.0989 70.266C20.1229 70.498 20.1349 70.734 20.1349 70.974V75H19.3489V73.374L19.5769 73.47C19.3569 74.026 19.0149 74.45 18.5509 74.742C18.0869 75.034 17.5309 75.18 16.8829 75.18ZM16.9849 74.418C17.3969 74.418 17.7569 74.344 18.0649 74.196C18.3729 74.048 18.6209 73.846 18.8089 73.59C18.9969 73.33 19.1189 73.038 19.1749 72.714C19.2229 72.506 19.2489 72.278 19.2529 72.03C19.2569 71.778 19.2589 71.59 19.2589 71.466L19.5949 71.64C19.2949 71.68 18.9689 71.72 18.6169 71.76C18.2689 71.8 17.9249 71.846 17.5849 71.898C17.2489 71.95 16.9449 72.012 16.6729 72.084C16.4889 72.136 16.3109 72.21 16.1389 72.306C15.9669 72.398 15.8249 72.522 15.7129 72.678C15.6049 72.834 15.5509 73.028 15.5509 73.26C15.5509 73.448 15.5969 73.63 15.6889 73.806C15.7849 73.982 15.9369 74.128 16.1449 74.244C16.3569 74.36 16.6369 74.418 16.9849 74.418ZM24.3309 78.06C23.9989 78.06 23.6709 78.01 23.3469 77.91C23.0269 77.814 22.7309 77.66 22.4589 77.448C22.1869 77.24 21.9589 76.968 21.7749 76.632L22.5729 76.188C22.7529 76.548 23.0049 76.806 23.3289 76.962C23.6569 77.122 23.9909 77.202 24.3309 77.202C24.7989 77.202 25.1769 77.114 25.4649 76.938C25.7569 76.766 25.9689 76.51 26.1009 76.17C26.2329 75.83 26.2969 75.406 26.2929 74.898V73.17H26.3949V68.52H27.1809V74.91C27.1809 75.094 27.1749 75.27 27.1629 75.438C27.1549 75.61 27.1369 75.778 27.1089 75.942C27.0329 76.426 26.8749 76.824 26.6349 77.136C26.3989 77.448 26.0869 77.68 25.6989 77.832C25.3149 77.984 24.8589 78.06 24.3309 78.06ZM24.2709 75.18C23.6669 75.18 23.1509 75.03 22.7229 74.73C22.2949 74.426 21.9669 74.016 21.7389 73.5C21.5109 72.984 21.3969 72.402 21.3969 71.754C21.3969 71.11 21.5089 70.53 21.7329 70.014C21.9609 69.498 22.2869 69.09 22.7109 68.79C23.1349 68.49 23.6429 68.34 24.2349 68.34C24.8429 68.34 25.3549 68.488 25.7709 68.784C26.1869 69.08 26.5009 69.486 26.7129 70.002C26.9289 70.514 27.0369 71.098 27.0369 71.754C27.0369 72.398 26.9309 72.98 26.7189 73.5C26.5069 74.016 26.1949 74.426 25.7829 74.73C25.3709 75.03 24.8669 75.18 24.2709 75.18ZM24.3609 74.358C24.8209 74.358 25.2009 74.246 25.5009 74.022C25.8009 73.798 26.0249 73.49 26.1729 73.098C26.3209 72.702 26.3949 72.254 26.3949 71.754C26.3949 71.246 26.3209 70.798 26.1729 70.41C26.0249 70.018 25.8009 69.712 25.5009 69.492C25.2049 69.272 24.8309 69.162 24.3789 69.162C23.9149 69.162 23.5309 69.276 23.2269 69.504C22.9229 69.732 22.6969 70.042 22.5489 70.434C22.4049 70.826 22.3329 71.266 22.3329 71.754C22.3329 72.246 22.4069 72.69 22.5549 73.086C22.7069 73.478 22.9329 73.788 23.2329 74.016C23.5329 74.244 23.9089 74.358 24.3609 74.358ZM31.6244 75.18C30.9804 75.18 30.4304 75.034 29.9744 74.742C29.5184 74.45 29.1684 74.046 28.9244 73.53C28.6804 73.014 28.5584 72.422 28.5584 71.754C28.5584 71.074 28.6824 70.478 28.9304 69.966C29.1784 69.454 29.5304 69.056 29.9864 68.772C30.4464 68.484 30.9924 68.34 31.6244 68.34C32.2724 68.34 32.8244 68.486 33.2804 68.778C33.7404 69.066 34.0904 69.468 34.3304 69.984C34.5744 70.496 34.6964 71.086 34.6964 71.754C34.6964 72.434 34.5744 73.032 34.3304 73.548C34.0864 74.06 33.7344 74.46 33.2744 74.748C32.8144 75.036 32.2644 75.18 31.6244 75.18ZM31.6244 74.334C32.3444 74.334 32.8804 74.096 33.2324 73.62C33.5844 73.14 33.7604 72.518 33.7604 71.754C33.7604 70.97 33.5824 70.346 33.2264 69.882C32.8744 69.418 32.3404 69.186 31.6244 69.186C31.1404 69.186 30.7404 69.296 30.4244 69.516C30.1124 69.732 29.8784 70.034 29.7224 70.422C29.5704 70.806 29.4944 71.25 29.4944 71.754C29.4944 72.534 29.6744 73.16 30.0344 73.632C30.3944 74.1 30.9244 74.334 31.6244 74.334ZM38.4394 75.174C37.6794 75.174 37.0534 75.01 36.5614 74.682C36.0734 74.354 35.7734 73.898 35.6614 73.314L36.5614 73.164C36.6574 73.532 36.8754 73.826 37.2154 74.046C37.5594 74.262 37.9834 74.37 38.4874 74.37C38.9794 74.37 39.3674 74.268 39.6514 74.064C39.9354 73.856 40.0774 73.574 40.0774 73.218C40.0774 73.018 40.0314 72.856 39.9394 72.732C39.8514 72.604 39.6694 72.486 39.3934 72.378C39.1174 72.27 38.7054 72.142 38.1574 71.994C37.5694 71.834 37.1094 71.674 36.7774 71.514C36.4454 71.354 36.2094 71.17 36.0694 70.962C35.9294 70.75 35.8594 70.492 35.8594 70.188C35.8594 69.82 35.9634 69.498 36.1714 69.222C36.3794 68.942 36.6674 68.726 37.0354 68.574C37.4034 68.418 37.8314 68.34 38.3194 68.34C38.8074 68.34 39.2434 68.42 39.6274 68.58C40.0154 68.736 40.3274 68.956 40.5634 69.24C40.7994 69.524 40.9394 69.854 40.9834 70.23L40.0834 70.392C40.0234 70.012 39.8334 69.712 39.5134 69.492C39.1974 69.268 38.7954 69.152 38.3074 69.144C37.8474 69.132 37.4734 69.22 37.1854 69.408C36.8974 69.592 36.7534 69.838 36.7534 70.146C36.7534 70.318 36.8054 70.466 36.9094 70.59C37.0134 70.71 37.2014 70.824 37.4734 70.932C37.7494 71.04 38.1414 71.158 38.6494 71.286C39.2454 71.438 39.7134 71.598 40.0534 71.766C40.3934 71.934 40.6354 72.132 40.7794 72.36C40.9234 72.588 40.9954 72.87 40.9954 73.206C40.9954 73.818 40.7674 74.3 40.3114 74.652C39.8594 75 39.2354 75.174 38.4394 75.174Z" fill="black"/>
<path d="M44.5 71.5L80.6726 68.5L110.714 71.5H147.5" stroke="#F2D2A3"/>
<path d="M150.84 75V66.36H154.176C154.66 66.36 155.082 66.46 155.442 66.66C155.802 66.86 156.082 67.13 156.282 67.47C156.482 67.806 156.582 68.178 156.582 68.586C156.582 69.05 156.458 69.464 156.21 69.828C155.962 70.188 155.63 70.438 155.214 70.578L155.202 70.284C155.762 70.444 156.202 70.724 156.522 71.124C156.842 71.524 157.002 72.008 157.002 72.576C157.002 73.076 156.896 73.508 156.684 73.872C156.472 74.232 156.174 74.51 155.79 74.706C155.406 74.902 154.96 75 154.452 75H150.84ZM151.728 74.154H154.236C154.588 74.154 154.904 74.092 155.184 73.968C155.464 73.84 155.684 73.66 155.844 73.428C156.008 73.196 156.09 72.916 156.09 72.588C156.09 72.268 156.016 71.98 155.868 71.724C155.72 71.468 155.518 71.264 155.262 71.112C155.01 70.956 154.722 70.878 154.398 70.878H151.728V74.154ZM151.728 70.044H154.17C154.446 70.044 154.698 69.982 154.926 69.858C155.154 69.73 155.334 69.556 155.466 69.336C155.602 69.116 155.67 68.862 155.67 68.574C155.67 68.166 155.528 67.834 155.244 67.578C154.964 67.322 154.606 67.194 154.17 67.194H151.728V70.044ZM161.001 75.18C160.369 75.18 159.821 75.04 159.357 74.76C158.897 74.48 158.539 74.086 158.283 73.578C158.027 73.07 157.899 72.474 157.899 71.79C157.899 71.082 158.025 70.47 158.277 69.954C158.529 69.438 158.883 69.04 159.339 68.76C159.799 68.48 160.341 68.34 160.965 68.34C161.605 68.34 162.151 68.488 162.603 68.784C163.055 69.076 163.397 69.496 163.629 70.044C163.861 70.592 163.967 71.246 163.947 72.006H163.047V71.694C163.031 70.854 162.849 70.22 162.501 69.792C162.157 69.364 161.653 69.15 160.989 69.15C160.293 69.15 159.759 69.376 159.387 69.828C159.019 70.28 158.835 70.924 158.835 71.76C158.835 72.576 159.019 73.21 159.387 73.662C159.759 74.11 160.285 74.334 160.965 74.334C161.429 74.334 161.833 74.228 162.177 74.016C162.525 73.8 162.799 73.49 162.999 73.086L163.821 73.404C163.565 73.968 163.187 74.406 162.687 74.718C162.191 75.026 161.629 75.18 161.001 75.18ZM158.523 72.006V71.268H163.473V72.006H158.523ZM169.843 75V71.694C169.843 71.334 169.809 71.004 169.741 70.704C169.673 70.4 169.563 70.136 169.411 69.912C169.263 69.684 169.069 69.508 168.829 69.384C168.593 69.26 168.305 69.198 167.965 69.198C167.653 69.198 167.377 69.252 167.137 69.36C166.901 69.468 166.701 69.624 166.537 69.828C166.377 70.028 166.255 70.272 166.171 70.56C166.087 70.848 166.045 71.176 166.045 71.544L165.421 71.406C165.421 70.742 165.537 70.184 165.769 69.732C166.001 69.28 166.321 68.938 166.729 68.706C167.137 68.474 167.605 68.358 168.133 68.358C168.521 68.358 168.859 68.418 169.147 68.538C169.439 68.658 169.685 68.82 169.885 69.024C170.089 69.228 170.253 69.462 170.377 69.726C170.501 69.986 170.591 70.264 170.647 70.56C170.703 70.852 170.731 71.144 170.731 71.436V75H169.843ZM165.157 75V68.52H165.955V70.116H166.045V75H165.157ZM172.468 67.29V66.3H173.35V67.29H172.468ZM172.468 75V68.52H173.35V75H172.468ZM179.889 75V71.694C179.889 71.334 179.855 71.004 179.787 70.704C179.719 70.4 179.609 70.136 179.457 69.912C179.309 69.684 179.115 69.508 178.875 69.384C178.639 69.26 178.351 69.198 178.011 69.198C177.699 69.198 177.423 69.252 177.183 69.36C176.947 69.468 176.747 69.624 176.583 69.828C176.423 70.028 176.301 70.272 176.217 70.56C176.133 70.848 176.091 71.176 176.091 71.544L175.467 71.406C175.467 70.742 175.583 70.184 175.815 69.732C176.047 69.28 176.367 68.938 176.775 68.706C177.183 68.474 177.651 68.358 178.179 68.358C178.567 68.358 178.905 68.418 179.193 68.538C179.485 68.658 179.731 68.82 179.931 69.024C180.135 69.228 180.299 69.462 180.423 69.726C180.547 69.986 180.637 70.264 180.693 70.56C180.749 70.852 180.777 71.144 180.777 71.436V75H179.889ZM175.203 75V68.52H176.001V70.116H176.091V75H175.203ZM188.354 75.18C187.494 75.18 186.768 74.99 186.176 74.61C185.584 74.226 185.136 73.696 184.832 73.02C184.528 72.344 184.376 71.564 184.376 70.68C184.376 69.796 184.528 69.016 184.832 68.34C185.136 67.664 185.584 67.136 186.176 66.756C186.768 66.372 187.494 66.18 188.354 66.18C189.358 66.18 190.178 66.438 190.814 66.954C191.45 67.466 191.886 68.154 192.122 69.018L191.222 69.252C191.038 68.568 190.708 68.026 190.232 67.626C189.756 67.226 189.13 67.026 188.354 67.026C187.678 67.026 187.116 67.18 186.668 67.488C186.22 67.796 185.882 68.226 185.654 68.778C185.43 69.326 185.314 69.96 185.306 70.68C185.302 71.4 185.412 72.034 185.636 72.582C185.864 73.13 186.204 73.56 186.656 73.872C187.112 74.18 187.678 74.334 188.354 74.334C189.13 74.334 189.756 74.134 190.232 73.734C190.708 73.33 191.038 72.788 191.222 72.108L192.122 72.342C191.886 73.206 191.45 73.896 190.814 74.412C190.178 74.924 189.358 75.18 188.354 75.18ZM193.626 67.29V66.3H194.508V67.29H193.626ZM193.626 75V68.52H194.508V75H193.626ZM199.895 75C199.531 75.076 199.171 75.106 198.815 75.09C198.463 75.074 198.147 74.998 197.867 74.862C197.591 74.726 197.381 74.514 197.237 74.226C197.121 73.986 197.057 73.744 197.045 73.5C197.037 73.252 197.033 72.97 197.033 72.654V66.72H197.909V72.618C197.909 72.89 197.911 73.118 197.915 73.302C197.923 73.482 197.965 73.642 198.041 73.782C198.185 74.05 198.413 74.21 198.725 74.262C199.041 74.314 199.431 74.302 199.895 74.226V75ZM195.647 69.276V68.52H199.895V69.276H195.647ZM201.98 77.88L203.234 74.478L203.252 75.486L200.414 68.52H201.35L203.678 74.346H203.294L205.442 68.52H206.342L202.862 77.88H201.98Z" fill="black"/>
<path d="M8.83301 91.25H17.1663V92.9167H8.83301V91.25ZM15.9163 93.3333H9.24967V97.9167C9.24967 98.1377 9.33747 98.3496 9.49375 98.5059C9.65003 98.6622 9.86199 98.75 10.083 98.75H15.9163C16.1374 98.75 16.3493 98.6622 16.5056 98.5059C16.6619 98.3496 16.7497 98.1377 16.7497 97.9167V93.3333H15.9163ZM14.6663 95.8333H11.333V95H14.6663V95.8333Z" fill="#CF5555"/>
<path d="M156.84 100V91.36H157.722V95.254H162.498V91.36H163.374V100H162.498V96.1H157.722V100H156.84ZM166.969 100.18C166.481 100.18 166.071 100.092 165.739 99.916C165.411 99.74 165.165 99.506 165.001 99.214C164.837 98.922 164.755 98.604 164.755 98.26C164.755 97.908 164.825 97.608 164.965 97.36C165.109 97.108 165.303 96.902 165.547 96.742C165.795 96.582 166.081 96.46 166.405 96.376C166.733 96.296 167.095 96.226 167.491 96.166C167.891 96.102 168.281 96.048 168.661 96.004C169.045 95.956 169.381 95.91 169.669 95.866L169.357 96.058C169.369 95.418 169.245 94.944 168.985 94.636C168.725 94.328 168.273 94.174 167.629 94.174C167.185 94.174 166.809 94.274 166.501 94.474C166.197 94.674 165.983 94.99 165.859 95.422L165.001 95.17C165.149 94.59 165.447 94.14 165.895 93.82C166.343 93.5 166.925 93.34 167.641 93.34C168.233 93.34 168.735 93.452 169.147 93.676C169.563 93.896 169.857 94.216 170.029 94.636C170.109 94.824 170.161 95.034 170.185 95.266C170.209 95.498 170.221 95.734 170.221 95.974V100H169.435V98.374L169.663 98.47C169.443 99.026 169.101 99.45 168.637 99.742C168.173 100.034 167.617 100.18 166.969 100.18ZM167.071 99.418C167.483 99.418 167.843 99.344 168.151 99.196C168.459 99.048 168.707 98.846 168.895 98.59C169.083 98.33 169.205 98.038 169.261 97.714C169.309 97.506 169.335 97.278 169.339 97.03C169.343 96.778 169.345 96.59 169.345 96.466L169.681 96.64C169.381 96.68 169.055 96.72 168.703 96.76C168.355 96.8 168.011 96.846 167.671 96.898C167.335 96.95 167.031 97.012 166.759 97.084C166.575 97.136 166.397 97.21 166.225 97.306C166.053 97.398 165.911 97.522 165.799 97.678C165.691 97.834 165.637 98.028 165.637 98.26C165.637 98.448 165.683 98.63 165.775 98.806C165.871 98.982 166.023 99.128 166.231 99.244C166.443 99.36 166.723 99.418 167.071 99.418ZM176.523 100V96.694C176.523 96.334 176.489 96.004 176.421 95.704C176.353 95.4 176.243 95.136 176.091 94.912C175.943 94.684 175.749 94.508 175.509 94.384C175.273 94.26 174.985 94.198 174.645 94.198C174.333 94.198 174.057 94.252 173.817 94.36C173.581 94.468 173.381 94.624 173.217 94.828C173.057 95.028 172.935 95.272 172.851 95.56C172.767 95.848 172.725 96.176 172.725 96.544L172.101 96.406C172.101 95.742 172.217 95.184 172.449 94.732C172.681 94.28 173.001 93.938 173.409 93.706C173.817 93.474 174.285 93.358 174.813 93.358C175.201 93.358 175.539 93.418 175.827 93.538C176.119 93.658 176.365 93.82 176.565 94.024C176.769 94.228 176.933 94.462 177.057 94.726C177.181 94.986 177.271 95.264 177.327 95.56C177.383 95.852 177.411 96.144 177.411 96.436V100H176.523ZM171.837 100V93.52H172.635V95.116H172.725V100H171.837ZM181.507 100.18C180.903 100.18 180.387 100.03 179.959 99.73C179.531 99.426 179.203 99.016 178.975 98.5C178.747 97.984 178.633 97.402 178.633 96.754C178.633 96.11 178.745 95.53 178.969 95.014C179.197 94.498 179.523 94.09 179.947 93.79C180.371 93.49 180.879 93.34 181.471 93.34C182.079 93.34 182.591 93.488 183.007 93.784C183.423 94.08 183.737 94.486 183.949 95.002C184.165 95.514 184.273 96.098 184.273 96.754C184.273 97.398 184.167 97.98 183.955 98.5C183.743 99.016 183.431 99.426 183.019 99.73C182.607 100.03 182.103 100.18 181.507 100.18ZM181.597 99.358C182.057 99.358 182.437 99.246 182.737 99.022C183.037 98.798 183.261 98.49 183.409 98.098C183.557 97.702 183.631 97.254 183.631 96.754C183.631 96.246 183.557 95.798 183.409 95.41C183.261 95.018 183.037 94.712 182.737 94.492C182.441 94.272 182.067 94.162 181.615 94.162C181.151 94.162 180.767 94.276 180.463 94.504C180.159 94.732 179.933 95.042 179.785 95.434C179.641 95.826 179.569 96.266 179.569 96.754C179.569 97.246 179.643 97.69 179.791 98.086C179.943 98.478 180.169 98.788 180.469 99.016C180.769 99.244 181.145 99.358 181.597 99.358ZM183.631 100V95.122H183.535V91.36H184.423V100H183.631ZM189.076 100.18C188.48 100.18 187.976 100.03 187.564 99.73C187.152 99.426 186.84 99.016 186.628 98.5C186.416 97.98 186.31 97.398 186.31 96.754C186.31 96.098 186.416 95.514 186.628 95.002C186.844 94.486 187.16 94.08 187.576 93.784C187.992 93.488 188.504 93.34 189.112 93.34C189.704 93.34 190.212 93.49 190.636 93.79C191.06 94.09 191.384 94.498 191.608 95.014C191.836 95.53 191.95 96.11 191.95 96.754C191.95 97.402 191.836 97.984 191.608 98.5C191.38 99.016 191.052 99.426 190.624 99.73C190.196 100.03 189.68 100.18 189.076 100.18ZM186.16 100V91.36H187.048V95.122H186.952V100H186.16ZM188.986 99.358C189.438 99.358 189.814 99.244 190.114 99.016C190.414 98.788 190.638 98.478 190.786 98.086C190.938 97.69 191.014 97.246 191.014 96.754C191.014 96.266 190.94 95.826 190.792 95.434C190.644 95.042 190.418 94.732 190.114 94.504C189.814 94.276 189.432 94.162 188.968 94.162C188.516 94.162 188.14 94.272 187.84 94.492C187.544 94.712 187.322 95.018 187.174 95.41C187.026 95.798 186.952 96.246 186.952 96.754C186.952 97.254 187.026 97.702 187.174 98.098C187.322 98.49 187.546 98.798 187.846 99.022C188.146 99.246 188.526 99.358 188.986 99.358ZM195.181 100.18C194.693 100.18 194.283 100.092 193.951 99.916C193.623 99.74 193.377 99.506 193.213 99.214C193.049 98.922 192.967 98.604 192.967 98.26C192.967 97.908 193.037 97.608 193.177 97.36C193.321 97.108 193.515 96.902 193.759 96.742C194.007 96.582 194.293 96.46 194.617 96.376C194.945 96.296 195.307 96.226 195.703 96.166C196.103 96.102 196.493 96.048 196.873 96.004C197.257 95.956 197.593 95.91 197.881 95.866L197.569 96.058C197.581 95.418 197.457 94.944 197.197 94.636C196.937 94.328 196.485 94.174 195.841 94.174C195.397 94.174 195.021 94.274 194.713 94.474C194.409 94.674 194.195 94.99 194.071 95.422L193.213 95.17C193.361 94.59 193.659 94.14 194.107 93.82C194.555 93.5 195.137 93.34 195.853 93.34C196.445 93.34 196.947 93.452 197.359 93.676C197.775 93.896 198.069 94.216 198.241 94.636C198.321 94.824 198.373 95.034 198.397 95.266C198.421 95.498 198.433 95.734 198.433 95.974V100H197.647V98.374L197.875 98.47C197.655 99.026 197.313 99.45 196.849 99.742C196.385 100.034 195.829 100.18 195.181 100.18ZM195.283 99.418C195.695 99.418 196.055 99.344 196.363 99.196C196.671 99.048 196.919 98.846 197.107 98.59C197.295 98.33 197.417 98.038 197.473 97.714C197.521 97.506 197.547 97.278 197.551 97.03C197.555 96.778 197.557 96.59 197.557 96.466L197.893 96.64C197.593 96.68 197.267 96.72 196.915 96.76C196.567 96.8 196.223 96.846 195.883 96.898C195.547 96.95 195.243 97.012 194.971 97.084C194.787 97.136 194.609 97.21 194.437 97.306C194.265 97.398 194.123 97.522 194.011 97.678C193.903 97.834 193.849 98.028 193.849 98.26C193.849 98.448 193.895 98.63 193.987 98.806C194.083 98.982 194.235 99.128 194.443 99.244C194.655 99.36 194.935 99.418 195.283 99.418ZM202.629 103.06C202.297 103.06 201.969 103.01 201.645 102.91C201.325 102.814 201.029 102.66 200.757 102.448C200.485 102.24 200.257 101.968 200.073 101.632L200.871 101.188C201.051 101.548 201.303 101.806 201.627 101.962C201.955 102.122 202.289 102.202 202.629 102.202C203.097 102.202 203.475 102.114 203.763 101.938C204.055 101.766 204.267 101.51 204.399 101.17C204.531 100.83 204.595 100.406 204.591 99.898V98.17H204.693V93.52H205.479V99.91C205.479 100.094 205.473 100.27 205.461 100.438C205.453 100.61 205.435 100.778 205.407 100.942C205.331 101.426 205.173 101.824 204.933 102.136C204.697 102.448 204.385 102.68 203.997 102.832C203.613 102.984 203.157 103.06 202.629 103.06ZM202.569 100.18C201.965 100.18 201.449 100.03 201.021 99.73C200.593 99.426 200.265 99.016 200.037 98.5C199.809 97.984 199.695 97.402 199.695 96.754C199.695 96.11 199.807 95.53 200.031 95.014C200.259 94.498 200.585 94.09 201.009 93.79C201.433 93.49 201.941 93.34 202.533 93.34C203.141 93.34 203.653 93.488 204.069 93.784C204.485 94.08 204.799 94.486 205.011 95.002C205.227 95.514 205.335 96.098 205.335 96.754C205.335 97.398 205.229 97.98 205.017 98.5C204.805 99.016 204.493 99.426 204.081 99.73C203.669 100.03 203.165 100.18 202.569 100.18ZM202.659 99.358C203.119 99.358 203.499 99.246 203.799 99.022C204.099 98.798 204.323 98.49 204.471 98.098C204.619 97.702 204.693 97.254 204.693 96.754C204.693 96.246 204.619 95.798 204.471 95.41C204.323 95.018 204.099 94.712 203.799 94.492C203.503 94.272 203.129 94.162 202.677 94.162C202.213 94.162 201.829 94.276 201.525 94.504C201.221 94.732 200.995 95.042 200.847 95.434C200.703 95.826 200.631 96.266 200.631 96.754C200.631 97.246 200.705 97.69 200.853 98.086C201.005 98.478 201.231 98.788 201.531 99.016C201.831 99.244 202.207 99.358 202.659 99.358Z" fill="black"/>
</g>
<defs>
<filter id="filter0_d_2891_157" x="0" y="18" width="215" height="96" filterUnits="userSpaceOnUse" color-interpolation-filters="sRGB">
<feFlood flood-opacity="0" result="BackgroundImageFix"/>
<feColorMatrix in="SourceAlpha" type="matrix" values="0 0 0 0 0 0 0 0 0 0 0 0 0 0 0 0 0 0 127 0" result="hardAlpha"/>
<feOffset dy="1"/>
<feGaussianBlur stdDeviation="1.5"/>
<feComposite in2="hardAlpha" operator="out"/>
<feColorMatrix type="matrix" values="0 0 0 0 0 0 0 0 0 0 0 0 0 0 0 0 0 0 0.25 0"/>
<feBlend mode="normal" in2="BackgroundImageFix" result="effect1_dropShadow_2891_157"/>
<feBlend mode="normal" in="SourceGraphic" in2="effect1_dropShadow_2891_157" result="shape"/>
</filter>
</defs>
</svg>
