<svg width="139" height="16" viewBox="0 0 139 16" fill="none" xmlns="http://www.w3.org/2000/svg">
<path d="M0.88 15V0.999999H3.02L9.14 11.22H8.02L14.04 0.999999H16.18L16.2 15H13.74L13.72 4.86H14.24L9.12 13.4H7.96L2.76 4.86H3.36V15H0.88ZM27.6416 15.2C26.5482 15.2 25.5416 15.02 24.6216 14.66C23.7016 14.3 22.9016 13.8 22.2216 13.16C21.5416 12.5067 21.0149 11.7467 20.6416 10.88C20.2682 10 20.0816 9.04 20.0816 8C20.0816 6.96 20.2682 6.00667 20.6416 5.14C21.0149 4.26 21.5416 3.5 22.2216 2.86C22.9016 2.20667 23.7016 1.7 24.6216 1.34C25.5416 0.979999 26.5416 0.799999 27.6216 0.799999C28.7149 0.799999 29.7149 0.979999 30.6216 1.34C31.5416 1.7 32.3416 2.20667 33.0216 2.86C33.7016 3.5 34.2282 4.26 34.6016 5.14C34.9749 6.00667 35.1616 6.96 35.1616 8C35.1616 9.04 34.9749 10 34.6016 10.88C34.2282 11.76 33.7016 12.52 33.0216 13.16C32.3416 13.8 31.5416 14.3 30.6216 14.66C29.7149 15.02 28.7216 15.2 27.6416 15.2ZM27.6216 12.92C28.3282 12.92 28.9816 12.8 29.5816 12.56C30.1816 12.32 30.7016 11.98 31.1416 11.54C31.5816 11.0867 31.9216 10.5667 32.1616 9.98C32.4149 9.38 32.5416 8.72 32.5416 8C32.5416 7.28 32.4149 6.62667 32.1616 6.04C31.9216 5.44 31.5816 4.92 31.1416 4.48C30.7016 4.02667 30.1816 3.68 29.5816 3.44C28.9816 3.2 28.3282 3.08 27.6216 3.08C26.9149 3.08 26.2616 3.2 25.6616 3.44C25.0749 3.68 24.5549 4.02667 24.1016 4.48C23.6616 4.92 23.3149 5.44 23.0616 6.04C22.8216 6.62667 22.7016 7.28 22.7016 8C22.7016 8.70667 22.8216 9.36 23.0616 9.96C23.3149 10.56 23.6616 11.0867 24.1016 11.54C24.5416 11.98 25.0616 12.32 25.6616 12.56C26.2616 12.8 26.9149 12.92 27.6216 12.92ZM42.7278 15L36.6078 0.999999H39.4278L44.8878 13.66H43.2678L48.7878 0.999999H51.3878L45.2878 15H42.7278ZM56.3652 6.82H63.3252V8.96H56.3652V6.82ZM56.5652 12.82H64.4652V15H53.9652V0.999999H64.1852V3.18H56.5652V12.82ZM66.4836 15L72.7836 0.999999H75.3436L81.6636 15H78.9436L73.5236 2.38H74.5636L69.1636 15H66.4836ZM69.3836 11.76L70.0836 9.72H77.6436L78.3436 11.76H69.3836ZM84.5441 15V0.999999H91.1041C92.7841 0.999999 94.0641 1.33333 94.9441 2C95.8241 2.65333 96.2641 3.53333 96.2641 4.64C96.2641 5.38667 96.0907 6.02667 95.7441 6.56C95.3974 7.08 94.9307 7.48667 94.3441 7.78C93.7707 8.06 93.1441 8.2 92.4641 8.2L92.8241 7.48C93.6107 7.48 94.3174 7.62667 94.9441 7.92C95.5707 8.2 96.0641 8.61333 96.4241 9.16C96.7974 9.70667 96.9841 10.3867 96.9841 11.2C96.9841 12.4 96.5241 13.3333 95.6041 14C94.6841 14.6667 93.3174 15 91.5041 15H84.5441ZM87.1441 12.96H91.3441C92.3174 12.96 93.0641 12.8 93.5841 12.48C94.1041 12.16 94.3641 11.6467 94.3641 10.94C94.3641 10.2467 94.1041 9.74 93.5841 9.42C93.0641 9.08667 92.3174 8.92 91.3441 8.92H86.9441V6.9H90.8241C91.7307 6.9 92.4241 6.74 92.9041 6.42C93.3974 6.1 93.6441 5.62 93.6441 4.98C93.6441 4.32667 93.3974 3.84 92.9041 3.52C92.4241 3.2 91.7307 3.04 90.8241 3.04H87.1441V12.96ZM100.859 15V0.999999H103.459V12.8H110.779V15H100.859ZM116.332 6.82H123.292V8.96H116.332V6.82ZM116.532 12.82H124.432V15H113.932V0.999999H124.152V3.18H116.532V12.82ZM132.77 15.2C131.677 15.2 130.63 15.0467 129.63 14.74C128.63 14.42 127.837 14.0133 127.25 13.52L128.15 11.5C128.71 11.94 129.403 12.3067 130.23 12.6C131.057 12.8933 131.903 13.04 132.77 13.04C133.503 13.04 134.097 12.96 134.55 12.8C135.003 12.64 135.337 12.4267 135.55 12.16C135.763 11.88 135.87 11.5667 135.87 11.22C135.87 10.7933 135.717 10.4533 135.41 10.2C135.103 9.93333 134.703 9.72667 134.21 9.58C133.73 9.42 133.19 9.27333 132.59 9.14C132.003 9.00667 131.41 8.85333 130.81 8.68C130.223 8.49333 129.683 8.26 129.19 7.98C128.71 7.68667 128.317 7.3 128.01 6.82C127.703 6.34 127.55 5.72667 127.55 4.98C127.55 4.22 127.75 3.52667 128.15 2.9C128.563 2.26 129.183 1.75333 130.01 1.38C130.85 0.993332 131.91 0.799999 133.19 0.799999C134.03 0.799999 134.863 0.906666 135.69 1.12C136.517 1.33333 137.237 1.64 137.85 2.04L137.03 4.06C136.403 3.68667 135.757 3.41333 135.09 3.24C134.423 3.05333 133.783 2.96 133.17 2.96C132.45 2.96 131.863 3.04667 131.41 3.22C130.97 3.39333 130.643 3.62 130.43 3.9C130.23 4.18 130.13 4.5 130.13 4.86C130.13 5.28667 130.277 5.63333 130.57 5.9C130.877 6.15333 131.27 6.35333 131.75 6.5C132.243 6.64667 132.79 6.79333 133.39 6.94C133.99 7.07333 134.583 7.22667 135.17 7.4C135.77 7.57333 136.31 7.8 136.79 8.08C137.283 8.36 137.677 8.74 137.97 9.22C138.277 9.7 138.43 10.3067 138.43 11.04C138.43 11.7867 138.223 12.48 137.81 13.12C137.41 13.7467 136.79 14.2533 135.95 14.64C135.11 15.0133 134.05 15.2 132.77 15.2Z" fill="#711DF9"/>
</svg>
