<svg width="170" height="19" viewBox="0 0 170 19" fill="none" xmlns="http://www.w3.org/2000/svg">
<path d="M0.92183 17.8708L4.28183 1.07085H7.44983L12.2258 12.9748L10.5458 12.9508L19.8578 1.07085H23.1938L19.8578 17.8708H16.2098L18.4418 6.61485H19.1858L11.7698 16.0948H10.0418L6.08183 6.59085L6.80183 6.66285L4.56983 17.8708H0.92183ZM33.8757 18.1588C32.1797 18.1588 30.7157 17.8548 29.4837 17.2468C28.2677 16.6228 27.3317 15.7668 26.6757 14.6788C26.0197 13.5748 25.6917 12.3028 25.6917 10.8628C25.6917 9.42285 25.9397 8.09485 26.4357 6.87885C26.9317 5.64685 27.6357 4.58285 28.5477 3.68685C29.4757 2.77485 30.5717 2.06285 31.8357 1.55085C33.1157 1.03885 34.5317 0.782849 36.0837 0.782849C37.7797 0.782849 39.2357 1.09485 40.4517 1.71885C41.6837 2.32685 42.6277 3.18285 43.2837 4.28685C43.9397 5.37485 44.2677 6.63885 44.2677 8.07885C44.2677 9.51885 44.0197 10.8548 43.5237 12.0868C43.0277 13.3028 42.3157 14.3668 41.3877 15.2788C40.4757 16.1748 39.3797 16.8788 38.0997 17.3908C36.8357 17.9028 35.4277 18.1588 33.8757 18.1588ZM34.2117 14.8468C35.1557 14.8468 36.0037 14.6788 36.7557 14.3428C37.5237 13.9908 38.1717 13.5108 38.6997 12.9028C39.2277 12.2948 39.6277 11.5988 39.8997 10.8148C40.1877 10.0148 40.3317 9.17485 40.3317 8.29485C40.3317 7.46285 40.1557 6.73485 39.8037 6.11085C39.4517 5.47085 38.9317 4.97485 38.2437 4.62285C37.5717 4.27085 36.7397 4.09485 35.7477 4.09485C34.8037 4.09485 33.9557 4.27085 33.2037 4.62285C32.4517 4.95885 31.8037 5.43085 31.2597 6.03885C30.7317 6.64685 30.3237 7.35085 30.0357 8.15085C29.7637 8.93485 29.6277 9.76685 29.6277 10.6468C29.6277 11.4788 29.8037 12.2148 30.1557 12.8548C30.5237 13.4788 31.0437 13.9668 31.7157 14.3188C32.4037 14.6708 33.2357 14.8468 34.2117 14.8468ZM51.2346 17.8708L47.3466 1.07085H51.3546L54.7386 15.9748H52.2186L61.6746 1.07085H65.7066L55.0746 17.8708H51.2346ZM70.6613 7.83885H78.7493L78.1493 10.8628H70.0613L70.6613 7.83885ZM69.5573 14.7508H78.7253L78.0773 17.8708H65.0693L68.4293 1.07085H81.1253L80.4773 4.19085H71.6693L69.5573 14.7508ZM80.2829 17.8708L91.1309 1.07085H94.9949L99.1229 17.8708H95.2349L91.9709 2.99085H93.5069L84.4349 17.8708H80.2829ZM84.7709 14.2708L86.3549 11.3188H95.0189L95.4749 14.2708H84.7709ZM102.186 17.8708L105.546 1.07085H113.658C115.482 1.07085 116.874 1.39885 117.834 2.05485C118.81 2.71085 119.298 3.66285 119.298 4.91085C119.298 5.96685 119.018 6.85485 118.458 7.57485C117.914 8.29485 117.186 8.83885 116.274 9.20685C115.362 9.57485 114.37 9.75885 113.298 9.75885L113.922 8.79885C115.33 8.79885 116.45 9.12685 117.282 9.78285C118.13 10.4228 118.554 11.3508 118.554 12.5668C118.554 13.7508 118.226 14.7428 117.57 15.5428C116.93 16.3268 116.042 16.9108 114.906 17.2948C113.77 17.6788 112.466 17.8708 110.994 17.8708H102.186ZM106.65 14.9428H111.234C112.306 14.9428 113.146 14.7428 113.754 14.3428C114.378 13.9268 114.69 13.3188 114.69 12.5188C114.69 11.8948 114.458 11.4548 113.994 11.1988C113.546 10.9268 112.938 10.7908 112.17 10.7908H107.034L107.61 7.95885H111.978C112.65 7.95885 113.226 7.87085 113.706 7.69485C114.202 7.51885 114.578 7.25485 114.834 6.90285C115.09 6.53485 115.218 6.09485 115.218 5.58285C115.218 5.02285 115.002 4.62285 114.57 4.38285C114.138 4.12685 113.53 3.99885 112.746 3.99885H108.81L106.65 14.9428ZM121.857 17.8708L125.217 1.07085H129.129L126.393 14.7028H134.817L134.169 17.8708H121.857ZM143.254 7.83885H151.342L150.742 10.8628H142.654L143.254 7.83885ZM142.15 14.7508H151.318L150.67 17.8708H137.662L141.022 1.07085H153.718L153.07 4.19085H144.262L142.15 14.7508ZM160.939 18.1588C160.027 18.1588 159.139 18.0708 158.275 17.8948C157.427 17.7348 156.651 17.5108 155.947 17.2228C155.259 16.9348 154.675 16.6228 154.195 16.2868L155.779 13.2868C156.307 13.6548 156.867 13.9748 157.459 14.2468C158.067 14.5028 158.699 14.7028 159.355 14.8468C160.011 14.9748 160.667 15.0388 161.323 15.0388C162.043 15.0388 162.659 14.9588 163.171 14.7988C163.699 14.6388 164.099 14.4148 164.371 14.1268C164.659 13.8388 164.803 13.4868 164.803 13.0708C164.803 12.6868 164.651 12.3748 164.347 12.1348C164.043 11.8948 163.643 11.6948 163.147 11.5348C162.667 11.3588 162.131 11.1908 161.539 11.0308C160.947 10.8708 160.347 10.6868 159.739 10.4788C159.147 10.2548 158.603 9.98285 158.107 9.66285C157.627 9.32685 157.235 8.90285 156.931 8.39085C156.627 7.87885 156.475 7.23885 156.475 6.47085C156.475 5.31885 156.787 4.31885 157.411 3.47085C158.051 2.62285 158.947 1.96685 160.099 1.50285C161.251 1.02285 162.603 0.782849 164.155 0.782849C165.291 0.782849 166.363 0.910849 167.371 1.16685C168.379 1.40685 169.243 1.75885 169.963 2.22285L168.499 5.19885C167.859 4.76685 167.147 4.44685 166.363 4.23885C165.579 4.01485 164.771 3.90285 163.939 3.90285C163.187 3.90285 162.539 3.99085 161.995 4.16685C161.467 4.34285 161.059 4.59085 160.771 4.91085C160.499 5.21485 160.363 5.56685 160.363 5.96685C160.363 6.36685 160.507 6.69485 160.795 6.95085C161.099 7.19085 161.499 7.39885 161.995 7.57485C162.491 7.73485 163.035 7.89485 163.627 8.05485C164.219 8.21485 164.811 8.39885 165.403 8.60685C165.995 8.81485 166.539 9.07885 167.035 9.39885C167.531 9.71885 167.931 10.1268 168.235 10.6228C168.539 11.1028 168.691 11.7108 168.691 12.4468C168.691 13.5988 168.371 14.6068 167.731 15.4708C167.091 16.3188 166.187 16.9828 165.019 17.4628C163.867 17.9268 162.507 18.1588 160.939 18.1588Z" fill="white"/>
</svg>
