<svg width="275" height="250" viewBox="0 0 275 250" fill="none" xmlns="http://www.w3.org/2000/svg">
<path d="M174.007 30.9209C175.98 30.9762 177.856 31.7843 179.251 33.1795C180.646 34.5746 181.454 36.4509 181.51 38.4232C181.552 40.098 181.043 41.7405 180.061 43.0977L179.992 43.2016L174.544 50.6058C174.436 50.7598 174.291 50.8849 174.123 50.9702C173.955 51.0554 173.768 51.0982 173.58 51.0948C173.391 51.0914 173.207 51.0419 173.042 50.9506C172.877 50.8593 172.737 50.7291 172.634 50.5712L167.711 43.2535C166.732 41.8941 166.185 40.2712 166.142 38.5963C166.144 37.5728 166.35 36.56 166.748 35.6172C167.147 34.6745 167.729 33.8207 168.462 33.1059C169.194 32.3911 170.062 31.8296 171.014 31.4544C171.967 31.0792 172.984 30.8979 174.007 30.9209ZM173.829 43.1612C174.695 43.1612 175.542 42.9043 176.262 42.423C176.982 41.9417 177.544 41.2576 177.875 40.4572C178.207 39.6569 178.294 38.7761 178.125 37.9265C177.956 37.0768 177.538 36.2963 176.926 35.6837C176.313 35.0712 175.533 34.654 174.683 34.485C173.833 34.316 172.953 34.4027 172.152 34.7342C171.352 35.0658 170.668 35.6272 170.187 36.3475C169.705 37.0678 169.448 37.9147 169.448 38.781C169.448 39.3564 169.56 39.9264 169.78 40.4581C170 40.9899 170.323 41.4731 170.73 41.88C171.136 42.2869 171.62 42.6095 172.151 42.8293C172.683 43.0492 173.253 43.162 173.829 43.1612Z" fill="#E0E0E0"/>
<path d="M57.4444 15.3333C56.9943 12.0842 61.5822 9.41226 65.0275 9.13525C66.6722 9.00252 68.3805 9.25067 69.9386 8.7082C73.3089 7.554 74.6593 3.1738 77.9488 1.78299C80.413 0.744206 83.2466 1.66757 85.63 2.86794C88.0134 4.06831 90.3738 5.58031 93.04 5.75344C95.3484 5.89772 97.8761 5.03784 99.9017 6.17473C101.414 7.01729 102.21 8.76014 103.601 9.78738C104.992 10.8146 106.74 11.0051 108.431 11.0974C110.122 11.1897 111.894 11.207 113.417 11.9111C114.941 12.6152 116.228 14.2195 115.91 15.9046L57.4444 15.3333Z" fill="#EBEBEB"/>
<path d="M212.639 28.8896C212.286 26.3331 215.893 24.2324 218.6 24.0131C219.893 23.9093 221.237 24.1055 222.461 23.6784C225.11 22.7551 226.172 19.3271 228.757 18.2364C230.69 17.4284 232.918 18.1498 234.793 19.0905C236.669 20.0311 238.527 21.2257 240.622 21.3585C242.446 21.4739 244.419 20.7814 246.018 21.6874C247.207 22.3511 247.83 23.7246 248.904 24.5268C249.977 25.3289 251.391 25.5078 252.724 25.5598C254.057 25.6117 255.425 25.6463 256.637 26.2004C257.849 26.7544 258.847 28.0355 258.599 29.3398L212.639 28.8896Z" fill="#F5F5F5"/>
<path d="M8.68543 23.4475C8.68543 23.4475 9.02016 23.361 9.61457 23.2398C10.4548 23.0722 11.3173 23.0488 12.1653 23.1705C13.4189 23.3487 14.6001 23.8655 15.5818 24.6652C16.7789 25.6472 17.6237 26.9924 17.9883 28.4972V28.5433L18.1326 29.1204L18.3519 28.5837C18.9387 27.1535 19.9446 25.9343 21.2374 25.0865C22.2921 24.3952 23.5057 23.984 24.7635 23.8919C25.9346 23.83 27.1074 23.9785 28.2261 24.3305C27.9557 24.1579 27.6596 24.0293 27.3489 23.9496C26.5098 23.6858 25.6303 23.5743 24.7519 23.6207C23.4379 23.6783 22.1613 24.076 21.0469 24.7749C19.6795 25.6474 18.6152 26.9213 17.9998 28.4221H18.3634V28.376C17.9879 26.781 17.0876 25.3583 15.8069 24.3363C14.7719 23.5086 13.523 22.9922 12.2058 22.8474C11.3283 22.7421 10.4387 22.8067 9.58571 23.0378C9.26427 23.1215 8.95971 23.2602 8.68543 23.4475Z" fill="#E0E0E0"/>
<path d="M261.069 73.0843L240.409 185.244L197.432 193.035L158.928 168.26L117.746 178.203L75.0404 150.802L95.9488 44.4023L138.47 65.5993L175.15 57.6353L215.085 78.7802L261.069 73.0843Z" fill="white"/>
<path d="M197.368 193.34L240.651 185.492L240.686 185.296L261.415 72.7609L215.137 78.4973L175.185 57.3465L138.504 65.3278L95.7352 43.9751L95.6659 44.3444L74.7172 150.941L74.8845 151.045L117.694 178.509L117.809 178.48L158.876 168.565L197.368 193.34ZM240.16 184.995L197.49 192.734L158.98 167.948L158.864 167.977L117.798 177.891L75.3635 150.664L96.1392 44.8292L138.429 65.9049H138.527L175.11 57.9582L215.033 79.0975H215.108L260.699 73.4072L240.16 184.995Z" fill="#E0E0E0"/>
<path d="M256.631 76.6623L237.119 183.033L197.72 188.995L159.326 163.504L119.01 173.102L79.0627 148.961L97.8762 48.8518L137.789 69.2408L175.185 62.7657L216.02 82.693L234.286 79.9806L256.631 76.6623Z" fill="#EBEBEB"/>
<path d="M227.135 80.5463L227.02 120.545L89.3468 155.887L96.2027 160.411L226.125 126.645L227.251 184.528L235.625 183.259L234.286 79.9807L227.135 80.5463Z" fill="#FAFAFA"/>
<path d="M254.478 86.1787L233.801 90.8244L234.516 97.3976L253.74 92.4172L254.478 86.1787Z" fill="#FAFAFA"/>
<path d="M249.521 115.426L234.707 112.16L234.805 119.685L248.448 122.744L249.521 115.426Z" fill="#FAFAFA"/>
<path d="M244.062 145.17L235.146 145.949L235.197 150.254L243.358 149.988L244.062 145.17Z" fill="#FAFAFA"/>
<path d="M227.251 184.528L215.836 186.253L213.198 163.227L195.274 165.051L193.56 186.23L185.976 181.198L186.132 137.038L226.125 126.645L227.251 184.528Z" fill="#E0E0E0"/>
<path d="M181.556 138.227L181.775 161.952L181.931 178.509L185.976 181.198L186.392 135.278L181.556 138.227Z" fill="#FAFAFA"/>
<path d="M163.019 165.951L181.775 161.951L181.827 167.509L168.917 169.869L163.019 165.951Z" fill="#FAFAFA"/>
<path d="M206.019 77.8101L209.043 125.161L202.245 126.904L198.413 74.0994L206.019 77.8101Z" fill="#FAFAFA"/>
<path d="M185.607 131.175L184.453 72.0568L180.361 73.69L180.679 94.2579L138.152 106.573L128.047 65.7202L120.268 61.3689L132.716 107.843L142.353 144.091C142.353 144.091 147.969 142.786 147.772 141.863C147.576 140.94 140.085 114.029 140.085 114.029L181.337 100.652L182.081 134.643L185.607 131.175Z" fill="#FAFAFA"/>
<path d="M136.657 113.528L108.079 121.884L94.8001 65.2184L97.3105 52.73L112.067 114.347L135.561 107.133L136.657 113.528Z" fill="#FAFAFA"/>
<path d="M152.539 165.548L147.778 141.863L142.123 143.214L147.149 167.175L152.539 165.548Z" fill="#FAFAFA"/>
<path d="M93.6691 107.225L105.35 164.849L95.0137 158.333L84.8394 120.146L86.3053 110.163L93.6691 107.225Z" fill="#E0E0E0"/>
<path opacity="0.1" d="M216.02 82.6926L197.72 188.995L237.119 183.033L256.631 76.6619L216.02 82.6926Z" fill="black"/>
<path d="M189.826 69.9101L185.792 71.5202L86.1322 111.334L89.0524 95.8162L175.185 62.7656L189.826 69.9101Z" fill="#E0E0E0"/>
<path opacity="0.1" d="M175.185 62.7656L159.326 163.504L119.01 173.102L137.788 69.2407L175.185 62.7656Z" fill="black"/>
<path d="M18.8366 227.568H73.9497L70.8449 224.504H17.0187L18.8366 227.568Z" fill="#E0E0E0"/>
<path d="M13.9195 249.516C13.9195 249.596 69.8983 249.666 138.925 249.666C207.952 249.666 263.943 249.596 263.943 249.516C263.943 249.435 207.964 249.365 138.925 249.365C69.8867 249.365 13.9195 249.423 13.9195 249.516Z" fill="#263238"/>
<path d="M193.646 46.5322C193.646 46.5726 194.304 46.3071 195.528 46.0359C197.256 45.6568 199.038 45.5865 200.791 45.8281C203.393 46.1719 205.849 47.2329 207.883 48.8925C210.378 50.9216 212.138 53.7134 212.893 56.8392C212.893 56.8681 212.893 56.8969 212.893 56.9258L213.037 57.5029L213.256 56.9604C214.486 54.0019 216.585 51.4864 219.275 49.7466C221.466 48.3212 223.985 47.4808 226.593 47.3055C228.35 47.1805 230.116 47.3423 231.821 47.7845C233.028 48.1019 233.668 48.3616 233.68 48.3616C233.537 48.2739 233.386 48.2004 233.23 48.1423C232.78 47.934 232.318 47.7566 231.845 47.6114C230.128 47.1182 228.34 46.923 226.558 47.0343C223.89 47.1772 221.305 48.0104 219.056 49.4523C216.296 51.2265 214.147 53.8048 212.898 56.8392L213.262 56.8738V56.7815C212.49 53.5744 210.678 50.7132 208.108 48.6444C206.015 46.9636 203.491 45.9057 200.825 45.5915C199.043 45.3701 197.235 45.4797 195.493 45.9147C195.021 46.0305 194.559 46.1789 194.108 46.3591C193.948 46.4006 193.794 46.4587 193.646 46.5322Z" fill="#263238"/>
<path d="M136.865 26.0505C136.865 26.0505 137.235 25.9466 137.91 25.8024C138.86 25.6115 139.836 25.5841 140.795 25.7216C142.211 25.9162 143.546 26.4995 144.65 27.4067C146.006 28.5142 146.962 30.034 147.374 31.7349V31.7811L147.519 32.3582L147.738 31.8157C148.4 30.2019 149.537 28.8274 150.999 27.8741C152.192 27.0926 153.564 26.6279 154.986 26.5237C155.955 26.4452 156.929 26.5251 157.872 26.7603C158.535 26.9219 158.893 27.0662 158.905 27.0373C158.916 27.0085 158.824 26.9796 158.657 26.8988C158.416 26.7866 158.167 26.6921 157.912 26.6161C156.733 26.2553 155.489 26.1542 154.267 26.3195C153.044 26.4849 151.872 26.9129 150.831 27.574C149.295 28.5578 148.098 29.9903 147.403 31.6772H147.767V31.6253C147.333 29.8406 146.318 28.2509 144.881 27.1066C143.718 26.1804 142.319 25.5986 140.842 25.4272C139.854 25.3136 138.854 25.384 137.893 25.635C137.632 25.7023 137.378 25.7891 137.131 25.8947C136.946 25.9928 136.86 26.0332 136.865 26.0505Z" fill="#263238"/>
<path d="M175.427 5.83472C175.427 5.83472 175.785 6.25023 176.437 6.98892C177.352 8.02987 178.178 9.14565 178.907 10.3246C181.33 14.2179 182.601 18.7179 182.572 23.3036C182.575 23.3574 182.575 23.4113 182.572 23.4651H182.953C183.325 21.0031 184.128 18.6257 185.324 16.4418C186.96 13.4417 189.269 10.8618 192.071 8.90489C192.499 8.63759 192.913 8.34866 193.312 8.03924C193.188 8.08343 193.07 8.14151 192.959 8.21237C192.734 8.33933 192.382 8.50669 191.984 8.78947C190.817 9.53642 189.731 10.405 188.747 11.3807C185.439 14.621 183.272 18.8474 182.572 23.4247H182.953V23.2632C182.986 18.608 181.658 14.0445 179.132 10.1341C178.378 8.95564 177.51 7.85388 176.541 6.84464C176.206 6.4753 175.912 6.22714 175.727 6.04824C175.633 5.96978 175.532 5.89841 175.427 5.83472Z" fill="#263238"/>
<path d="M0.0750427 196.653H155.073V200.243H0.0750427V196.653Z" fill="#E0E0E0"/>
<path d="M153.509 200.311C153.509 200.311 153.509 200.248 153.509 200.109C153.509 199.971 153.509 199.751 153.509 199.474C153.509 198.897 153.509 198.037 153.509 196.872V196.82H153.463C144.321 196.751 114.179 196.704 78.4395 196.704L22.9686 196.751L6.16344 196.802L1.5928 196.837L6.16344 196.872L22.9686 196.924L78.4395 196.976C114.151 196.976 144.292 196.924 153.434 196.854L153.388 196.808C153.388 197.962 153.388 198.834 153.388 199.411C153.388 199.688 153.388 199.896 153.388 200.046C153.388 200.196 153.509 200.311 153.509 200.311Z" fill="#711DF9"/>
<path d="M135.053 196.907C134.83 198.031 134.83 199.188 135.053 200.312C135.276 199.188 135.276 198.031 135.053 196.907Z" fill="#711DF9"/>
<path d="M114.728 196.907C114.505 198.031 114.505 199.188 114.728 200.312C114.951 199.188 114.951 198.031 114.728 196.907Z" fill="#711DF9"/>
<path d="M94.4022 196.907C94.1791 198.031 94.1791 199.188 94.4022 200.312C94.6254 199.188 94.6254 198.031 94.4022 196.907Z" fill="#711DF9"/>
<path d="M74.0768 196.907C73.8537 198.031 73.8537 199.188 74.0768 200.312C74.2999 199.188 74.2999 198.031 74.0768 196.907Z" fill="#711DF9"/>
<path d="M53.7511 196.907C53.528 198.031 53.528 199.188 53.7511 200.312C53.9742 199.188 53.9742 198.031 53.7511 196.907Z" fill="#711DF9"/>
<path d="M33.4257 196.907C33.2025 198.031 33.2025 199.188 33.4257 200.312C33.6488 199.188 33.6488 198.031 33.4257 196.907Z" fill="#711DF9"/>
<path d="M13.1234 196.907C12.9003 198.031 12.9003 199.188 13.1234 200.312C13.3466 199.188 13.3466 198.031 13.1234 196.907Z" fill="#711DF9"/>
<path d="M86.6863 22.7898H127.759V196.48H86.6863V22.7898Z" fill="#711DF9"/>
<path d="M107.67 31.458H120.152V55.5116H107.67V31.458Z" fill="white"/>
<path d="M113.539 55.5173C113.631 55.5173 113.706 50.1272 113.706 43.4848C113.706 36.8424 113.631 31.458 113.539 31.458C113.447 31.458 113.377 36.8424 113.377 43.4848C113.377 50.1272 113.464 55.5173 113.539 55.5173Z" fill="#711DF9"/>
<path d="M107.67 39.8147C109.745 39.9818 111.827 40.0377 113.908 39.982C115.991 40.0377 118.075 39.9819 120.152 39.8147C118.075 39.6475 115.991 39.5916 113.908 39.6473C111.827 39.5917 109.745 39.6475 107.67 39.8147Z" fill="#711DF9"/>
<path d="M107.6 48.4191C109.695 48.5861 111.796 48.642 113.897 48.5865C115.995 48.6421 118.095 48.5862 120.187 48.4191C118.095 48.252 115.995 48.1962 113.897 48.2518C111.796 48.1962 109.695 48.2521 107.6 48.4191Z" fill="#711DF9"/>
<path d="M107.618 63.1987H120.101V87.2523H107.618V63.1987Z" fill="white"/>
<path d="M113.51 87.2579C113.602 87.2579 113.677 81.8736 113.677 75.2311C113.677 68.5887 113.602 63.2043 113.51 63.2043C113.418 63.2043 113.343 68.5887 113.343 75.2311C113.343 81.8736 113.418 87.2579 113.51 87.2579Z" fill="#711DF9"/>
<path d="M107.618 71.5544C109.695 71.7214 111.779 71.7773 113.862 71.7218C115.943 71.7774 118.026 71.7216 120.101 71.5544C118.026 71.3873 115.943 71.3314 113.862 71.387C111.779 71.3315 109.695 71.3874 107.618 71.5544Z" fill="#711DF9"/>
<path d="M107.554 80.1599C109.647 80.327 111.746 80.3829 113.845 80.3273C115.945 80.383 118.047 80.3271 120.141 80.1599C118.047 79.9927 115.945 79.9368 113.845 79.9925C111.746 79.9369 109.647 79.9928 107.554 80.1599Z" fill="#711DF9"/>
<path d="M107.618 94.6624H120.101V118.716H107.618V94.6624Z" fill="white"/>
<path d="M113.51 118.716C113.602 118.716 113.677 113.332 113.677 106.689C113.677 100.047 113.602 94.6624 113.51 94.6624C113.418 94.6624 113.343 100.047 113.343 106.689C113.343 113.332 113.418 118.716 113.51 118.716Z" fill="#711DF9"/>
<path d="M107.618 103.019C109.695 103.186 111.779 103.241 113.862 103.186C115.943 103.242 118.026 103.186 120.101 103.019C118.026 102.851 115.943 102.796 113.862 102.851C111.779 102.796 109.695 102.852 107.618 103.019Z" fill="#711DF9"/>
<path d="M107.554 111.624C109.647 111.791 111.746 111.846 113.845 111.791C115.945 111.847 118.047 111.791 120.141 111.624C118.047 111.456 115.945 111.4 113.845 111.456C111.746 111.401 109.647 111.456 107.554 111.624Z" fill="#711DF9"/>
<path d="M107.618 127.031H120.101V151.085H107.618V127.031Z" fill="white"/>
<path d="M113.51 151.091C113.602 151.091 113.677 145.706 113.677 139.064C113.677 132.421 113.602 127.031 113.51 127.031C113.418 127.031 113.343 132.416 113.343 139.064C113.343 145.712 113.418 151.091 113.51 151.091Z" fill="#711DF9"/>
<path d="M107.618 135.388C109.695 135.555 111.779 135.611 113.862 135.555C115.943 135.611 118.026 135.555 120.101 135.388C118.025 135.228 115.943 135.174 113.862 135.226C111.779 135.174 109.695 135.228 107.618 135.388Z" fill="#711DF9"/>
<path d="M107.554 143.993C109.647 144.16 111.746 144.216 113.845 144.16C115.945 144.216 118.047 144.16 120.141 143.993C118.047 143.826 115.945 143.77 113.845 143.826C111.746 143.77 109.647 143.826 107.554 143.993Z" fill="#711DF9"/>
<path d="M69.2176 22.7898H99.146V196.48H69.2176V22.7898Z" fill="#711DF9"/>
<g opacity="0.3">
<path d="M69.2176 22.7898H99.146V196.48H69.2176V22.7898Z" fill="black"/>
</g>
<path d="M78.1684 31.458H90.6511V55.5116H78.1684V31.458Z" fill="white"/>
<path d="M84.0548 55.5173C84.1471 55.5173 84.2222 50.1272 84.2222 43.4848C84.2222 36.8424 84.1471 31.458 84.0548 31.458C83.9625 31.458 83.8874 36.8424 83.8874 43.4848C83.8874 50.1272 83.9625 55.5173 84.0548 55.5173Z" fill="#711DF9"/>
<path d="M78.1684 39.8147C80.2434 39.9818 82.3259 40.0377 84.4069 39.982C86.4898 40.0377 88.5742 39.9819 90.6511 39.8147C88.5742 39.6475 86.4898 39.5916 84.4069 39.6473C82.3259 39.5917 80.2434 39.6475 78.1684 39.8147Z" fill="#711DF9"/>
<path d="M78.099 48.4191C80.1933 48.5861 82.2949 48.642 84.3952 48.5865C86.4934 48.6421 88.5932 48.5862 90.6855 48.4191C88.5932 48.252 86.4934 48.1962 84.3952 48.2518C82.2949 48.1962 80.1933 48.2521 78.099 48.4191Z" fill="#711DF9"/>
<path d="M78.1164 64.1045H90.5991V88.1581H78.1164V64.1045Z" fill="white"/>
<path d="M84.0084 88.1638C84.1008 88.1638 84.1758 82.7737 84.1758 76.1313C84.1758 69.4888 84.1008 64.1045 84.0084 64.1045C83.9161 64.1045 83.8411 69.4888 83.8411 76.1313C83.8411 82.7737 83.9161 88.1638 84.0084 88.1638Z" fill="#711DF9"/>
<path d="M78.1164 72.4614C80.1934 72.6284 82.2778 72.6843 84.3607 72.6287C86.4416 72.6844 88.5241 72.6285 90.5991 72.4614C88.5241 72.2942 86.4416 72.2384 84.3607 72.294C82.2778 72.2385 80.1934 72.2944 78.1164 72.4614Z" fill="#711DF9"/>
<path d="M78.0528 81.0657C80.1452 81.2328 82.245 81.2886 84.3432 81.233C86.4434 81.2887 88.5451 81.2329 90.6394 81.0657C88.5451 80.8985 86.4434 80.8426 84.3432 80.8983C82.245 80.8427 80.1452 80.8986 78.0528 81.0657Z" fill="#711DF9"/>
<path d="M78.1164 94.6624H90.5991V118.716H78.1164V94.6624Z" fill="white"/>
<path d="M84.0084 118.716C84.1008 118.716 84.1758 113.332 84.1758 106.689C84.1758 100.047 84.1008 94.6624 84.0084 94.6624C83.9161 94.6624 83.8411 100.047 83.8411 106.689C83.8411 113.332 83.9161 118.716 84.0084 118.716Z" fill="#711DF9"/>
<path d="M78.1164 103.019C80.1934 103.186 82.2778 103.241 84.3607 103.186C86.4416 103.242 88.5241 103.186 90.5991 103.019C88.5241 102.851 86.4416 102.796 84.3607 102.851C82.2778 102.796 80.1934 102.852 78.1164 103.019Z" fill="#711DF9"/>
<path d="M78.0528 111.624C80.1452 111.791 82.245 111.846 84.3432 111.791C86.4434 111.847 88.5451 111.791 90.6394 111.624C88.5451 111.456 86.4434 111.4 84.3432 111.456C82.245 111.401 80.1452 111.456 78.0528 111.624Z" fill="#711DF9"/>
<path d="M77.6086 127.557H90.0913V151.611H77.6086V127.557Z" fill="white"/>
<path d="M83.5008 151.611C83.5931 151.611 83.6624 146.226 83.6624 139.584C83.6624 132.941 83.5931 127.557 83.5008 127.557C83.4084 127.557 83.3334 132.941 83.3334 139.584C83.3334 146.226 83.4084 151.611 83.5008 151.611Z" fill="#711DF9"/>
<path d="M77.6086 135.913C79.6836 136.08 81.7661 136.136 83.8471 136.08C85.93 136.136 88.0144 136.08 90.0913 135.913C88.0144 135.746 85.93 135.69 83.8471 135.745C81.7661 135.69 79.6836 135.746 77.6086 135.913Z" fill="#711DF9"/>
<path d="M77.5452 144.518C79.6375 144.685 81.7373 144.741 83.8356 144.685C85.9339 144.741 88.0336 144.685 90.126 144.518C88.0336 144.351 85.9339 144.295 83.8356 144.35C81.7373 144.295 79.6375 144.351 77.5452 144.518Z" fill="#711DF9"/>
<path d="M107.618 160.169H120.101V184.222H107.618V160.169Z" fill="white"/>
<path d="M113.51 184.211C113.602 184.211 113.677 178.821 113.677 172.178C113.677 165.536 113.602 160.152 113.51 160.152C113.418 160.152 113.343 165.536 113.343 172.178C113.343 178.821 113.418 184.211 113.51 184.211Z" fill="#711DF9"/>
<path d="M107.618 168.526C109.695 168.693 111.779 168.748 113.862 168.693C115.943 168.749 118.026 168.693 120.101 168.526C118.026 168.358 115.943 168.303 113.862 168.358C111.779 168.303 109.695 168.359 107.618 168.526Z" fill="#711DF9"/>
<path d="M107.554 177.129C109.647 177.296 111.746 177.352 113.845 177.297C115.945 177.352 118.047 177.297 120.141 177.129C118.047 176.962 115.945 176.906 113.845 176.962C111.746 176.906 109.647 176.962 107.554 177.129Z" fill="#711DF9"/>
<path d="M78.1164 161.202H90.5991V185.255H78.1164V161.202Z" fill="white"/>
<path d="M84.0084 185.255C84.1008 185.255 84.1758 179.871 84.1758 173.229C84.1758 166.586 84.1008 161.202 84.0084 161.202C83.9161 161.202 83.8411 166.586 83.8411 173.229C83.8411 179.871 83.9161 185.255 84.0084 185.255Z" fill="#711DF9"/>
<path d="M78.1164 169.558C80.1934 169.725 82.2778 169.781 84.3607 169.725C86.4416 169.781 88.5241 169.725 90.5991 169.558C88.5241 169.391 86.4416 169.335 84.3607 169.391C82.2778 169.335 80.1934 169.391 78.1164 169.558Z" fill="#711DF9"/>
<path d="M78.0528 178.163C80.1452 178.33 82.245 178.386 84.3432 178.33C86.4434 178.386 88.5451 178.33 90.6394 178.163C88.5451 177.995 86.4434 177.94 84.3432 177.995C82.245 177.94 80.1452 177.995 78.0528 178.163Z" fill="#711DF9"/>
<path d="M48.7766 119.16H34.2222V98.1243H48.7766V119.16Z" fill="#606161"/>
<g opacity="0.3">
<path d="M48.7766 119.16H34.2222V98.1243H48.7766V119.16Z" fill="black"/>
</g>
<path d="M61.8711 119.16H47.3167V98.1243H61.8711V119.16Z" fill="#606161"/>
<path d="M58.3968 114.913C58.3968 114.913 58.3968 114.843 58.3968 114.699C58.3968 114.555 58.3968 114.318 58.3968 114.053C58.3968 113.476 58.3968 112.627 58.3968 111.583C58.3968 109.442 58.4256 106.435 58.4487 102.926V102.84H51.789L51.6851 102.949V106.302C51.6851 107.393 51.6851 108.443 51.6851 109.459C51.6851 111.479 51.6851 113.326 51.6851 114.924V115.005H51.789L56.6424 114.964H57.9524H58.2871C58.3622 114.964 58.3968 114.964 58.3968 114.964H58.2698H57.9178H56.5905L51.789 114.924L51.8698 114.999C51.8698 113.401 51.8698 111.537 51.8698 109.534C51.8698 108.518 51.8698 107.468 51.8698 106.377V103.024C51.9621 102.926 51.7428 103.145 51.7659 103.122H58.3968L58.2987 103.024C58.2987 106.487 58.3333 109.488 58.3448 111.617C58.3448 112.668 58.3448 113.51 58.3737 114.105C58.3737 114.382 58.3737 114.607 58.3737 114.774C58.3784 114.821 58.3861 114.867 58.3968 114.913Z" fill="#711DF9"/>
<path d="M57.0753 109.568C57.0753 109.568 56.9137 109.568 56.8329 109.736C56.8093 109.793 56.8001 109.854 56.8061 109.916C56.8122 109.977 56.8333 110.036 56.8675 110.088C56.9188 110.148 56.9874 110.192 57.0641 110.213C57.1409 110.234 57.2223 110.232 57.2974 110.205C57.3725 110.179 57.4379 110.13 57.4848 110.066C57.5317 110.002 57.558 109.925 57.5601 109.845C57.5535 109.783 57.5323 109.724 57.4982 109.671C57.4641 109.619 57.418 109.576 57.3638 109.545C57.1792 109.447 57.0522 109.545 57.0753 109.545C57.0984 109.545 57.1849 109.545 57.283 109.643C57.3129 109.664 57.3363 109.692 57.3504 109.726C57.3645 109.759 57.3688 109.796 57.3628 109.832C57.3567 109.868 57.3406 109.901 57.3162 109.928C57.2919 109.955 57.2603 109.974 57.2253 109.984C57.0464 110.053 56.9483 109.891 56.9772 109.753C57.006 109.614 57.0811 109.597 57.0753 109.568Z" fill="#711DF9"/>
<path d="M76.7025 196.613H16.3435L16.3435 115.259L76.7025 115.259V196.613Z" fill="#606161"/>
<path d="M40.5125 196.613L8.1371 196.653V115.265H40.5125V196.613Z" fill="#606161"/>
<g opacity="0.3">
<path d="M40.5125 196.613L8.1371 196.653V115.265H40.5125V196.613Z" fill="black"/>
</g>
<path d="M72.2704 170.441H61.2305V159.401H72.2704V170.441Z" fill="#EBEBEB"/>
<path d="M67.1744 171.549C67.2322 171.549 67.2783 168.693 67.2783 165.201C67.2783 161.71 67.2322 158.853 67.1744 158.853C67.1167 158.853 67.0706 161.704 67.0706 165.201C67.0706 168.698 67.1167 171.549 67.1744 171.549Z" fill="#711DF9"/>
<path d="M74.3423 163.1C74.3423 163.043 71.1336 162.996 67.1747 162.996C63.2158 162.996 60.0013 163.043 60.0013 163.1C60.0013 163.158 63.21 163.204 67.1747 163.204C71.1394 163.204 74.3423 163.158 74.3423 163.1Z" fill="#711DF9"/>
<path d="M56.5214 170.441H45.4814V159.401H56.5214V170.441Z" fill="#EBEBEB"/>
<path d="M51.4255 171.549C51.4832 171.549 51.5352 168.693 51.5352 165.201C51.5352 161.71 51.4832 158.853 51.4255 158.853C51.3678 158.853 51.3216 161.704 51.3216 165.201C51.3216 168.698 51.3678 171.549 51.4255 171.549Z" fill="#711DF9"/>
<path d="M58.5989 163.1C58.5989 163.043 55.3902 162.996 51.4313 162.996C47.4724 162.996 44.2579 163.043 44.2579 163.1C44.2579 163.158 47.4666 163.204 51.4313 163.204C55.396 163.204 58.5989 163.158 58.5989 163.1Z" fill="#711DF9"/>
<path d="M72.2704 153.001H61.2305V141.961H72.2704V153.001Z" fill="#EBEBEB"/>
<path d="M67.1744 154.109C67.2322 154.109 67.2783 151.253 67.2783 147.761C67.2783 144.27 67.2322 141.413 67.1744 141.413C67.1167 141.413 67.0706 144.264 67.0706 147.761C67.0706 151.258 67.1167 154.109 67.1744 154.109Z" fill="#711DF9"/>
<path d="M74.3423 145.66C74.3423 145.603 71.1336 145.556 67.1747 145.556C63.2158 145.556 60.0013 145.603 60.0013 145.66C60.0013 145.718 63.21 145.764 67.1747 145.764C71.1394 145.764 74.3423 145.718 74.3423 145.66Z" fill="#711DF9"/>
<path d="M56.5214 153.001H45.4814V141.961H56.5214V153.001Z" fill="#EBEBEB"/>
<path d="M51.4255 154.109C51.4832 154.109 51.5352 151.253 51.5352 147.761C51.5352 144.27 51.4832 141.413 51.4255 141.413C51.3678 141.413 51.3216 144.264 51.3216 147.761C51.3216 151.258 51.3678 154.109 51.4255 154.109Z" fill="#711DF9"/>
<path d="M58.5989 145.66C58.5989 145.603 55.3902 145.556 51.4313 145.556C47.4724 145.556 44.2579 145.603 44.2579 145.66C44.2579 145.718 47.4666 145.764 51.4313 145.764C55.396 145.764 58.5989 145.718 58.5989 145.66Z" fill="#711DF9"/>
<path d="M72.2704 135.515H61.2305V124.475H72.2704V135.515Z" fill="#EBEBEB"/>
<path d="M67.1744 136.629C67.2322 136.629 67.2783 133.772 67.2783 130.281C67.2783 126.789 67.2322 123.933 67.1744 123.933C67.1167 123.933 67.0706 126.783 67.0706 130.281C67.0706 133.778 67.1167 136.629 67.1744 136.629Z" fill="#711DF9"/>
<path d="M74.3423 128.18C74.3423 128.123 71.1336 128.076 67.1747 128.076C63.2158 128.076 60.0013 128.123 60.0013 128.18C60.0013 128.238 63.21 128.284 67.1747 128.284C71.1394 128.284 74.3423 128.232 74.3423 128.18Z" fill="#711DF9"/>
<path d="M56.5214 135.515H45.4814V124.475H56.5214V135.515Z" fill="#EBEBEB"/>
<path d="M51.4255 136.629C51.4832 136.629 51.5352 133.772 51.5352 130.281C51.5352 126.789 51.4832 123.933 51.4255 123.933C51.3678 123.933 51.3216 126.783 51.3216 130.281C51.3216 133.778 51.3678 136.629 51.4255 136.629Z" fill="#711DF9"/>
<path d="M58.5989 128.18C58.5989 128.123 55.3902 128.076 51.4313 128.076C47.4724 128.076 44.2579 128.123 44.2579 128.18C44.2579 128.238 47.4666 128.284 51.4313 128.284C55.396 128.284 58.5989 128.232 58.5989 128.18Z" fill="#711DF9"/>
<g opacity="0.7">
<path d="M29.4262 135.515H18.3862V124.475H29.4262V135.515Z" fill="white"/>
</g>
<path d="M23.9035 136.629C23.9612 136.629 24.0073 133.772 24.0073 130.281C24.0073 126.789 23.9612 123.933 23.9035 123.933C23.8457 123.933 23.7996 126.783 23.7996 130.281C23.7996 133.778 23.8457 136.629 23.9035 136.629Z" fill="#711DF9"/>
<path d="M31.4983 128.18C31.4983 128.123 28.2838 128.076 24.3249 128.076C20.366 128.076 17.1573 128.123 17.1573 128.18C17.1573 128.238 20.366 128.284 24.3249 128.284C28.2838 128.284 31.4983 128.232 31.4983 128.18Z" fill="#711DF9"/>
<g opacity="0.7">
<path d="M29.4262 153.168H18.3862V142.128H29.4262V153.168Z" fill="white"/>
</g>
<path d="M23.9035 154.282C23.9612 154.282 24.0073 151.426 24.0073 147.934C24.0073 144.443 23.9612 141.586 23.9035 141.586C23.8457 141.586 23.7996 144.437 23.7996 147.934C23.7996 151.432 23.8457 154.282 23.9035 154.282Z" fill="#711DF9"/>
<path d="M31.4983 145.833C31.4983 145.776 28.2838 145.729 24.3249 145.729C20.366 145.729 17.1573 145.776 17.1573 145.833C17.1573 145.891 20.366 145.937 24.3249 145.937C28.2838 145.937 31.4983 145.891 31.4983 145.833Z" fill="#711DF9"/>
<g opacity="0.7">
<path d="M29.4264 170.828H18.3865V159.788H29.4264V170.828Z" fill="white"/>
</g>
<path d="M23.9035 171.93C23.9612 171.93 24.0073 169.079 24.0073 165.582C24.0073 162.085 23.9612 159.234 23.9035 159.234C23.8457 159.234 23.7996 162.091 23.7996 165.582C23.7996 169.073 23.8457 171.93 23.9035 171.93Z" fill="#711DF9"/>
<path d="M31.4983 163.487C31.4983 163.429 28.2838 163.383 24.3249 163.383C20.366 163.383 17.1573 163.429 17.1573 163.487C17.1573 163.545 20.366 163.591 24.3249 163.591C28.2838 163.591 31.4983 163.545 31.4983 163.487Z" fill="#711DF9"/>
<path d="M64.2025 196.25C64.2025 196.25 64.2025 196.215 64.2025 196.151C64.2025 196.088 64.2025 195.978 64.2025 195.857C64.2025 195.584 64.2025 195.209 64.2025 194.732C64.2025 193.733 64.2025 192.308 64.2313 190.531C64.2313 186.935 64.2313 181.926 64.2717 176.184V176.086H52.7297V176.184C52.7297 181.955 52.7297 187.028 52.7643 190.657C52.7643 192.452 52.7643 193.895 52.7643 194.899C52.7643 195.39 52.7643 195.765 52.7643 196.053C52.7643 196.175 52.7643 196.273 52.7643 196.348C52.7643 196.423 52.7643 196.446 52.7643 196.446C52.7668 196.413 52.7668 196.38 52.7643 196.348C52.7643 196.273 52.7643 196.175 52.7643 196.053C52.7643 195.776 52.7643 195.401 52.7643 194.899C52.7643 193.895 52.7643 192.452 52.7643 190.657C52.7643 187.028 52.7643 181.972 52.799 176.184L52.7008 176.288H64.012L63.9082 176.184C63.9082 181.955 63.937 186.935 63.9486 190.531C63.9486 192.308 63.9485 193.733 63.9774 194.732C63.9774 195.213 63.9774 195.588 63.9774 195.857C63.9774 195.978 63.9774 196.076 63.9774 196.151C63.9774 196.227 64.2025 196.25 64.2025 196.25Z" fill="#711DF9"/>
<path d="M58.1661 186.606H54.311V177.378H58.1661V186.606Z" fill="#E0E0E0"/>
<path d="M54.2996 186.617H58.1777V177.384H54.2996V186.617ZM58.1604 186.617H54.3227V177.384H58.1373L58.1604 186.617Z" fill="#711DF9"/>
<path d="M62.7769 186.606H58.9219V177.378H62.7769V186.606Z" fill="#E0E0E0"/>
<path d="M58.9105 186.617H62.7886V177.384H58.9105V186.617ZM62.7713 186.617H58.9335V177.384H62.7539L62.7713 186.617Z" fill="#711DF9"/>
<path d="M62.8578 187.564C62.8578 187.593 63.0483 187.593 63.1349 187.812C63.1606 187.87 63.1739 187.933 63.1739 187.997C63.1739 188.061 63.1606 188.123 63.1349 188.182C63.0981 188.245 63.0435 188.296 62.9779 188.329C62.9122 188.362 62.8384 188.375 62.7655 188.366C62.6944 188.346 62.6305 188.306 62.5814 188.251C62.5323 188.196 62.5001 188.128 62.4885 188.055C62.4778 187.993 62.4839 187.929 62.5063 187.87C62.5286 187.811 62.5663 187.759 62.6155 187.72C62.8001 187.57 62.9733 187.604 62.9791 187.576C62.9848 187.547 62.8001 187.437 62.5289 187.604C62.4494 187.653 62.3855 187.724 62.3446 187.808C62.3037 187.891 62.2876 187.985 62.2981 188.078C62.2979 188.203 62.3424 188.325 62.4236 188.421C62.5047 188.517 62.6173 188.581 62.7412 188.602C62.8652 188.623 62.9925 188.599 63.1005 188.534C63.2085 188.47 63.2902 188.37 63.3311 188.251C63.3665 188.166 63.3813 188.075 63.3743 187.983C63.3673 187.892 63.3386 187.804 63.2907 187.726C63.2615 187.673 63.2211 187.626 63.1723 187.59C63.1234 187.555 63.0673 187.53 63.0079 187.518C62.8983 187.529 62.8578 187.547 62.8578 187.564Z" fill="#711DF9"/>
<path d="M74.7231 176.183C74.7258 176.141 74.7258 176.099 74.7231 176.057C74.7231 175.947 74.7231 175.82 74.7231 175.67C74.7231 175.289 74.7231 174.798 74.7231 174.198H74.6943H68.2538L68.2134 174.239V176.247H68.2538H72.8706H74.2153H72.8591H68.2423L68.2827 176.287V174.319C68.2019 174.406 68.2827 174.319 68.2423 174.366H74.6827V174.337C74.6827 174.914 74.6827 175.416 74.6827 175.791C74.6827 175.941 74.6827 176.074 74.6827 176.183C74.6827 176.293 74.7231 176.183 74.7231 176.183Z" fill="#711DF9"/>
<path d="M49.6654 172.092C49.6679 172.047 49.6679 172.003 49.6654 171.959C49.6654 171.849 49.6654 171.722 49.6654 171.572C49.6654 171.197 49.6654 170.707 49.6654 170.106V170.077H49.6365H43.1961C43.1961 170.077 43.2365 170.031 43.1557 170.118V172.138H43.1961H47.8129H49.1575H47.8071H43.1903L43.2307 172.184V170.204L43.1903 170.245H49.6308C49.6308 170.822 49.6308 171.324 49.6308 171.693C49.6308 171.849 49.6308 171.976 49.6308 172.086C49.6308 172.195 49.6654 172.092 49.6654 172.092Z" fill="#711DF9"/>
<path d="M45.6487 155.933C45.6487 155.933 45.6487 155.893 45.6487 155.806V155.419C45.6487 155.044 45.6487 154.554 45.6487 153.948H39.2083L39.1621 153.988V155.996H39.2025H43.8193H45.1639H43.8135H39.1967L39.2371 156.037C39.2371 155.725 39.2371 155.396 39.2371 155.067V154.069C39.1505 154.156 39.2371 154.069 39.1967 154.115H45.6371L45.6083 154.086C45.6083 154.663 45.6083 155.171 45.6083 155.541V155.933C45.6218 155.933 45.6352 155.933 45.6487 155.933Z" fill="#711DF9"/>
<path d="M68.8076 138.562V138.429C68.8076 138.32 68.8076 138.193 68.8076 138.043C68.8076 137.667 68.8076 137.177 68.8076 136.577H62.3614L62.321 136.617V138.62H62.3614H66.9782H68.3229H66.9724H62.3556L62.396 138.666C62.396 138.348 62.396 138.025 62.396 137.69V136.686L62.3499 136.727H68.7961H68.7672C68.7672 137.304 68.7672 137.806 68.7672 138.175V138.568C68.8019 138.51 68.8076 138.562 68.8076 138.562Z" fill="#711DF9"/>
<path d="M50.4734 120.014C50.476 119.972 50.476 119.93 50.4734 119.887C50.4734 119.778 50.4734 119.651 50.4734 119.501C50.4734 119.116 50.4734 118.625 50.4734 118.029H44.0329L43.9925 118.069V120.078H44.0329H48.6497H49.9944H48.6439H44.0271L44.0675 120.118V118.15C43.9867 118.237 44.0675 118.15 44.0271 118.196H50.4676V118.168C50.4676 118.745 50.4676 119.253 50.4676 119.622C50.4676 119.772 50.4676 119.905 50.4676 120.014C50.4676 120.124 50.4734 120.014 50.4734 120.014Z" fill="#711DF9"/>
<path d="M72.709 140.478C72.7116 140.436 72.7116 140.393 72.709 140.351V139.964C72.709 139.589 72.709 139.099 72.709 138.498V138.47H72.6801H66.2397C66.2397 138.47 66.28 138.429 66.1935 138.516V139.514C66.1935 139.849 66.1935 140.172 66.1935 140.484V140.524H66.2339H70.8507H72.1896H70.8392H66.2223L66.2627 140.564V138.597L66.2223 138.637H72.6628H72.6339C72.6339 139.214 72.6339 139.716 72.6339 140.086C72.6339 140.241 72.6339 140.368 72.6339 140.478C72.6589 140.479 72.6839 140.479 72.709 140.478Z" fill="#711DF9"/>
<path d="M42.8845 157.878C42.8845 157.878 42.8845 157.838 42.8845 157.751C42.8845 157.665 42.8845 157.514 42.8845 157.364C42.8845 156.984 42.8845 156.493 42.8845 155.893H36.4441L36.3979 155.933V156.932C36.3979 157.261 36.3979 157.584 36.3979 157.901V157.942H36.4383H41.0551H42.394H41.0436H36.4268L36.4672 157.982V155.933L36.4268 155.974H42.8672L42.8383 155.945C42.8383 156.537 42.8383 157.022 42.8383 157.399C42.8383 157.549 42.8383 157.676 42.8383 157.791C42.8383 157.907 42.8845 157.878 42.8845 157.878Z" fill="#711DF9"/>
<path d="M45.6487 121.999C45.6487 121.999 45.6487 121.959 45.6487 121.872V121.486C45.6487 121.105 45.6487 120.614 45.6487 120.014H39.2083L39.1621 120.055V122.063H39.2025H43.8193H45.1639H43.8135H39.1967L39.2371 122.103C39.2371 121.786 39.2371 121.463 39.2371 121.134V120.135L39.1967 120.176H45.6371L45.6083 120.147C45.6083 120.743 45.6083 121.228 45.6083 121.601V121.884C45.6429 121.947 45.6487 121.999 45.6487 121.999Z" fill="#711DF9"/>
<path d="M76.8122 178.169C76.8149 178.126 76.8149 178.084 76.8122 178.042C76.8122 177.932 76.8122 177.805 76.8122 177.655C76.8122 177.28 76.8122 176.789 76.8122 176.183H76.7834H70.3429L70.3025 176.224V178.232H70.3429H74.9597H76.3044H74.9482H70.3314L70.3718 178.272V177.303C70.3718 177.136 70.3718 176.968 70.3718 176.801V176.305L70.3256 176.351H76.7661V176.322C76.7661 176.899 76.7661 177.407 76.7661 177.776C76.7661 177.926 76.7661 178.059 76.7661 178.169H76.8122Z" fill="#711DF9"/>
<path d="M20.9717 45.8792H76.5869V84.5911H55.7882L48.6899 92.3069L41.6262 84.5911H20.9717V45.8792Z" fill="white"/>
<path d="M20.9718 45.8796C20.9718 45.8796 20.9718 46.1047 20.9718 46.5606C20.9718 47.0165 20.9718 47.7148 20.9718 48.5805C20.9718 50.3695 20.9718 52.9837 20.9429 56.3367C20.9429 63.0772 20.9083 72.761 20.8794 84.6146V84.73H21.0006H41.6551L41.5569 84.6839L48.6149 92.4055L48.7188 92.5209L48.8226 92.4055L55.9268 84.6897L55.8171 84.7358H76.7659V84.5858C76.7659 70.6834 76.7659 57.5428 76.7659 45.8739V45.7354H76.6043L36.3861 45.8046L25.0115 45.8392H22.0105H21.2026H20.9487H21.2141H21.999H25.0288L36.4323 45.8796L76.5639 45.9431L76.4312 45.8104C76.4312 57.4794 76.4312 70.6257 76.4312 84.5223L76.5812 84.3722H55.7132L55.6728 84.4184L48.5803 92.14H48.788L41.7243 84.4242L41.6839 84.3838H41.6204H20.966L21.0814 84.505C21.0814 72.709 21.0352 63.0484 21.0179 56.3251C21.0179 52.9606 21.0179 50.3348 20.9891 48.5401C20.9891 47.6513 20.9891 46.9703 20.9891 46.4971C20.9891 46.0239 20.9718 45.8796 20.9718 45.8796Z" fill="#263238"/>
<path d="M49.0014 21.7338C51.1602 21.782 53.2648 22.4194 55.0874 23.5773C56.9101 24.7352 58.3815 26.3694 59.3424 28.3031C60.3033 30.2369 60.7172 32.3966 60.5393 34.5486C60.3614 36.7006 59.5985 38.763 58.3331 40.5127L58.2177 40.6685L49.8209 52.0547C49.6496 52.287 49.425 52.4747 49.1661 52.602C48.9071 52.7294 48.6213 52.7926 48.3328 52.7864C48.0443 52.7801 47.7615 52.7047 47.5083 52.5663C47.255 52.4279 47.0387 52.2307 46.8777 51.9912L39.2946 40.7205C37.8634 38.5333 36.8765 36.2479 36.8765 33.5529C36.8791 31.9756 37.1968 30.4148 37.8109 28.9619C38.425 27.5091 39.3231 26.1936 40.4526 25.0927C41.5821 23.9917 42.9201 23.1275 44.3881 22.5507C45.8561 21.9739 47.4246 21.6962 49.0014 21.7338ZM48.7186 42.1863C50.4798 42.1863 52.2014 41.664 53.6658 40.6856C55.1301 39.7071 56.2715 38.3164 56.9454 36.6893C57.6194 35.0622 57.7958 33.2718 57.4522 31.5444C57.1086 29.8171 56.2605 28.2304 55.0152 26.9851C53.7698 25.7397 52.1832 24.8917 50.4558 24.5481C48.7285 24.2045 46.9381 24.3808 45.311 25.0548C43.6838 25.7288 42.2931 26.8701 41.3147 28.3345C40.3362 29.7988 39.8139 31.5205 39.8139 33.2816C39.8139 35.6433 40.7521 37.9082 42.4221 39.5782C44.092 41.2481 46.3569 42.1863 48.7186 42.1863Z" fill="#711DF9"/>
<g opacity="0.3">
<path d="M49.0014 21.7338C51.1602 21.782 53.2648 22.4194 55.0874 23.5773C56.9101 24.7352 58.3815 26.3694 59.3424 28.3031C60.3033 30.2369 60.7172 32.3966 60.5393 34.5486C60.3614 36.7006 59.5985 38.763 58.3331 40.5127L58.2177 40.6685L49.8209 52.0547C49.6496 52.287 49.425 52.4747 49.1661 52.602C48.9071 52.7294 48.6213 52.7926 48.3328 52.7864C48.0443 52.7801 47.7615 52.7047 47.5083 52.5663C47.255 52.4279 47.0387 52.2307 46.8777 51.9912L39.2946 40.7205C37.8634 38.5333 36.8765 36.2479 36.8765 33.5529C36.8791 31.9756 37.1968 30.4148 37.8109 28.9619C38.425 27.5091 39.3231 26.1936 40.4526 25.0927C41.5821 23.9917 42.9201 23.1275 44.3881 22.5507C45.8561 21.9739 47.4246 21.6962 49.0014 21.7338ZM48.7186 42.1863C50.4798 42.1863 52.2014 41.664 53.6658 40.6856C55.1301 39.7071 56.2715 38.3164 56.9454 36.6893C57.6194 35.0622 57.7958 33.2718 57.4522 31.5444C57.1086 29.8171 56.2605 28.2304 55.0152 26.9851C53.7698 25.7397 52.1832 24.8917 50.4558 24.5481C48.7285 24.2045 46.9381 24.3808 45.311 25.0548C43.6838 25.7288 42.2931 26.8701 41.3147 28.3345C40.3362 29.7988 39.8139 31.5205 39.8139 33.2816C39.8139 35.6433 40.7521 37.9082 42.4221 39.5782C44.092 41.2481 46.3569 42.1863 48.7186 42.1863Z" fill="black"/>
</g>
<path d="M49.7055 21.7336C51.8643 21.7817 53.9689 22.4192 55.7915 23.5771C57.6142 24.735 59.0856 26.3692 60.0465 28.3029C61.0074 30.2367 61.4213 32.3963 61.2434 34.5483C61.0655 36.7003 60.3026 38.7628 59.0372 40.5125L58.9218 40.6683L50.525 52.0545C50.3531 52.2868 50.128 52.4744 49.8686 52.6017C49.6091 52.729 49.323 52.7922 49.0341 52.786C48.7452 52.7797 48.462 52.7043 48.2082 52.566C47.9545 52.4277 47.7377 52.2305 47.576 51.991L39.9987 40.7202C38.5617 38.533 37.5806 36.2477 37.5806 33.5526C37.5832 31.9754 37.9009 30.4145 38.515 28.9617C39.1291 27.5089 40.0273 26.1934 41.1567 25.0924C42.2862 23.9915 43.6242 23.1272 45.0922 22.5504C46.5602 21.9736 48.1287 21.6959 49.7055 21.7336ZM49.4227 40.5817C50.7573 40.5829 52.0622 40.1882 53.1723 39.4476C54.2825 38.707 55.1481 37.6537 55.6596 36.4211C56.1711 35.1885 56.3055 33.8318 56.0459 32.5228C55.7862 31.2138 55.1442 30.0112 54.2009 29.0671C53.2576 28.123 52.0556 27.4799 50.7467 27.2192C49.4379 26.9584 48.0812 27.0916 46.8481 27.6021C45.6151 28.1125 44.5611 28.9772 43.8195 30.0868C43.078 31.1963 42.6822 32.5009 42.6822 33.8354C42.6822 35.6236 43.3922 37.3387 44.6561 38.6037C45.92 39.8687 47.6345 40.5802 49.4227 40.5817Z" fill="#711DF9"/>
<path d="M218.785 229.091H275L271.837 225.969H216.938L218.785 229.091Z" fill="#E0E0E0"/>
<path d="M171.566 163.216C171.213 163.044 170.877 162.839 170.562 162.604C169.956 162.2 169.131 161.634 168.254 160.994L167.798 160.671L167.965 160.63C167.48 161.479 167.047 162.223 166.724 162.748C166.563 163.044 166.369 163.321 166.147 163.573C166.251 163.258 166.393 162.955 166.568 162.673C166.851 162.125 167.267 161.363 167.723 160.515L167.792 160.399L167.896 160.474L168.357 160.798C169.258 161.438 170.089 162.027 170.666 162.465C170.992 162.682 171.294 162.934 171.566 163.216Z" fill="#711DF9"/>
<path d="M105.08 226.987C104.351 216.562 112.211 207.519 122.636 206.789C133.061 206.059 142.105 213.919 142.834 224.345C143.564 234.77 135.704 243.813 125.279 244.543C114.853 245.273 105.81 237.413 105.08 226.987Z" fill="#711DF9"/>
<path d="M143.652 225.317V225.369C143.674 230.343 141.732 235.125 138.248 238.675C134.764 242.225 130.02 244.256 125.046 244.328C120.073 244.399 115.272 242.505 111.688 239.056C108.103 235.608 106.025 230.884 105.904 225.912C105.904 225.912 105.904 225.877 105.904 225.866L143.652 225.317Z" fill="#711DF9"/>
<path d="M138.031 225.45C138.073 228.076 137.335 230.656 135.909 232.863C134.484 235.07 132.436 236.804 130.025 237.846C127.613 238.888 124.946 239.191 122.363 238.717C119.779 238.243 117.394 237.012 115.51 235.182C113.625 233.351 112.327 231.002 111.779 228.433C111.23 225.864 111.456 223.19 112.429 220.749C113.401 218.309 115.076 216.212 117.241 214.724C119.406 213.235 121.963 212.423 124.59 212.39C128.103 212.345 131.49 213.694 134.009 216.142C136.529 218.59 137.975 221.937 138.031 225.45Z" fill="#FAFAFA"/>
<path d="M124.59 212.39C128.103 212.345 131.49 213.694 134.009 216.142C136.529 218.59 137.975 221.937 138.031 225.45L111.531 225.83C111.486 222.318 112.835 218.931 115.283 216.412C117.731 213.892 121.078 212.446 124.59 212.39Z" fill="#E0E0E0"/>
<path d="M132.854 225.525C132.878 227.123 132.427 228.692 131.559 230.034C130.691 231.376 129.444 232.431 127.976 233.064C126.509 233.697 124.886 233.881 123.314 233.591C121.742 233.302 120.291 232.553 119.145 231.439C117.999 230.325 117.209 228.897 116.875 227.333C116.541 225.77 116.678 224.143 117.269 222.658C117.86 221.173 118.878 219.897 120.195 218.99C121.511 218.084 123.067 217.589 124.665 217.567C126.806 217.537 128.871 218.359 130.407 219.851C131.942 221.343 132.822 223.384 132.854 225.525Z" fill="#711DF9"/>
<path d="M133.737 197.962C133.737 197.962 114.41 192.116 106.412 213.111L146.855 225.64L133.737 197.962Z" fill="#727383"/>
<path d="M260.122 225.369C260.176 229.102 259.121 232.767 257.091 235.901C255.061 239.035 252.148 241.496 248.719 242.974C245.29 244.451 241.5 244.879 237.828 244.203C234.157 243.527 230.768 241.777 228.09 239.175C225.413 236.572 223.568 233.235 222.787 229.584C222.007 225.932 222.327 222.132 223.707 218.663C225.086 215.193 227.464 212.211 230.538 210.093C233.613 207.975 237.247 206.816 240.98 206.763C243.459 206.727 245.92 207.18 248.224 208.096C250.528 209.012 252.628 210.372 254.406 212.1C256.184 213.828 257.603 215.889 258.584 218.166C259.565 220.443 260.088 222.89 260.122 225.369Z" fill="#711DF9"/>
<path d="M260.122 225.317V225.369C260.144 230.343 258.202 235.125 254.718 238.675C251.234 242.225 246.49 244.256 241.517 244.328C236.543 244.399 231.743 242.505 228.158 239.056C224.574 235.608 222.495 230.884 222.374 225.912C222.374 225.912 222.374 225.877 222.374 225.866L260.122 225.317Z" fill="#711DF9"/>
<path d="M254.501 225.45C254.544 228.077 253.805 230.658 252.379 232.865C250.953 235.073 248.904 236.807 246.491 237.849C244.079 238.89 241.411 239.192 238.827 238.716C236.242 238.241 233.857 237.009 231.974 235.176C230.09 233.344 228.793 230.993 228.247 228.423C227.7 225.853 227.929 223.178 228.904 220.738C229.879 218.297 231.556 216.202 233.724 214.715C235.891 213.229 238.45 212.42 241.078 212.39C244.588 212.35 247.97 213.701 250.486 216.149C253.001 218.596 254.445 221.941 254.501 225.45Z" fill="#FAFAFA"/>
<path d="M241.078 212.39C244.59 212.345 247.977 213.694 250.497 216.142C253.016 218.59 254.462 221.937 254.519 225.45L228.018 225.83C227.973 222.318 229.323 218.931 231.771 216.412C234.219 213.892 237.566 212.446 241.078 212.39Z" fill="#E0E0E0"/>
<path d="M249.325 225.525C249.349 227.123 248.898 228.692 248.03 230.034C247.161 231.376 245.914 232.431 244.447 233.064C242.979 233.697 241.357 233.881 239.785 233.591C238.213 233.302 236.762 232.553 235.616 231.439C234.469 230.325 233.679 228.897 233.345 227.333C233.011 225.77 233.148 224.143 233.739 222.658C234.33 221.173 235.348 219.897 236.665 218.99C237.982 218.084 239.537 217.589 241.136 217.567C243.277 217.537 245.342 218.359 246.877 219.851C248.412 221.343 249.293 223.384 249.325 225.525Z" fill="#711DF9"/>
<path d="M214.399 218.063C214.531 218.115 224.342 216.528 224.342 216.528C224.873 217.222 225.55 217.792 226.324 218.198C227.099 218.604 227.953 218.835 228.826 218.877C233.068 219.079 237.223 219.269 240.818 219.454C242.422 219.527 243.931 220.231 245.017 221.413C246.104 222.594 246.679 224.158 246.618 225.761C246.553 227.29 245.916 228.738 244.833 229.819C243.75 230.899 242.301 231.534 240.772 231.596L219.87 232.415C216.407 232.554 211.859 230.465 209.713 227.799L214.399 218.063Z" fill="#727383"/>
<path d="M265.755 209.706C265.755 209.706 266.655 191.314 249.365 187.477V185.122H188.804V190.743C188.804 190.743 197.692 201.448 194.789 210.336C191.886 219.223 190.98 220.146 190.98 220.146H156.51C153.792 216.321 152.277 211.772 152.158 207.081C151.974 199.284 155.217 185.941 157.635 177.418C159.834 169.661 161.225 163.181 161.225 163.181L150.889 159.718C150.889 159.718 131.752 184.735 130.973 186.143C130.194 187.552 127.51 190.83 128.157 198.02C128.803 205.211 145.978 227.406 150.508 229.911C155.038 232.415 159.13 232.571 163.17 233.2C166.701 233.743 192.792 233.379 199.619 233.275C201.992 233.262 204.319 232.617 206.36 231.405C208.403 230.17 209.938 228.122 211.629 224.757L215.224 217.722L265.755 209.706Z" fill="#727383"/>
<path d="M261.121 208.448L268.75 220.377C268.969 220.711 269.074 221.105 269.051 221.503C269.028 221.901 268.878 222.281 268.622 222.587C268.367 222.893 268.02 223.109 267.632 223.202C267.245 223.296 266.837 223.262 266.47 223.107C265.521 222.688 264.655 222.101 263.914 221.376C260.422 218.051 254.201 209.308 254.201 209.308L261.121 208.448Z" fill="#727383"/>
<path d="M206.417 210.578C206.409 210.52 206.395 210.462 206.377 210.405C206.339 210.286 206.287 210.119 206.221 209.903C206.038 209.258 205.904 208.6 205.823 207.935C205.557 205.471 205.956 202.98 206.977 200.721C207.671 199.166 208.621 197.738 209.788 196.497C211.131 195.082 212.689 193.888 214.404 192.959C216.306 191.932 218.342 191.175 220.452 190.709C222.728 190.217 225.05 189.977 227.378 189.993C229.695 190.011 232.008 190.181 234.303 190.501C236.536 190.807 238.683 191.176 240.703 191.655C244.293 192.415 247.754 193.694 250.975 195.452C253.138 196.654 255.115 198.162 256.844 199.931C257.456 200.56 257.889 201.085 258.183 201.443L258.512 201.853C258.547 201.9 258.585 201.945 258.628 201.985C258.115 201.229 257.535 200.521 256.896 199.867C255.183 198.063 253.208 196.526 251.039 195.308C247.814 193.514 244.34 192.209 240.732 191.436C238.706 190.968 236.559 190.593 234.32 190.282C232.007 189.953 229.674 189.78 227.337 189.762C224.998 189.746 222.663 189.99 220.377 190.489C218.246 190.975 216.191 191.751 214.272 192.798C212.533 193.741 210.955 194.955 209.597 196.393C208.419 197.654 207.465 199.106 206.775 200.687C205.751 202.973 205.366 205.494 205.661 207.981C205.753 208.651 205.902 209.311 206.106 209.955L206.285 210.451C206.326 210.496 206.371 210.539 206.417 210.578Z" fill="#711DF9"/>
<path d="M209.915 206.452C209.943 206.452 209.816 206.158 209.684 205.632C209.513 204.874 209.492 204.09 209.62 203.324C209.797 202.197 210.176 201.112 210.74 200.121C211.061 199.528 211.436 198.966 211.859 198.442C212.31 197.878 212.819 197.364 213.377 196.907C214.459 196.02 215.675 195.309 216.978 194.8C218.047 194.389 219.155 194.087 220.285 193.9C221.049 193.772 221.82 193.683 222.593 193.634C222.879 193.632 223.165 193.611 223.448 193.571C223.373 193.561 223.297 193.561 223.222 193.571C223.078 193.571 222.865 193.571 222.588 193.571C221.815 193.583 221.044 193.646 220.279 193.761C219.132 193.928 218.006 194.216 216.921 194.621C215.589 195.129 214.347 195.848 213.244 196.751C212.678 197.225 212.166 197.759 211.715 198.344C211.279 198.885 210.893 199.464 210.561 200.075C209.993 201.094 209.619 202.209 209.459 203.364C209.347 204.145 209.398 204.941 209.609 205.702C209.662 205.901 209.736 206.094 209.828 206.279C209.852 206.339 209.881 206.397 209.915 206.452Z" fill="#F5F5F5"/>
<g opacity="0.4">
<path d="M221.768 190.333C218.507 190.933 215.404 192.196 212.65 194.044C209.881 195.885 207.746 198.535 206.539 201.633C205.332 204.743 205.511 208.864 206.787 211.444L202.505 211.796C201.062 206.994 202.632 201.096 206.094 197.333C208.077 195.141 210.495 193.386 213.193 192.181C215.892 190.976 218.813 190.346 221.768 190.333Z" fill="black"/>
</g>
<path d="M188.833 187.263C188.833 187.333 202.447 187.384 219.235 187.384C236.023 187.384 249.636 187.333 249.636 187.263C249.636 187.194 236.023 187.142 219.235 187.142C202.447 187.142 188.833 187.2 188.833 187.263Z" fill="#711DF9"/>
<path d="M188.804 185.123C188.19 184.34 187.81 183.4 187.708 182.41C187.615 180.887 188.285 178.982 189.941 178.982H210.855C211.661 178.982 212.459 179.141 213.204 179.45C213.949 179.758 214.625 180.211 215.195 180.781C215.765 181.351 216.216 182.028 216.524 182.773C216.832 183.518 216.991 184.316 216.99 185.123H188.804Z" fill="#727383"/>
<path d="M161.224 163.169L164.866 155.586C165.352 154.545 165.433 153.36 165.092 152.263C164.752 151.166 164.015 150.236 163.025 149.653L152.152 143.166C151.584 142.826 150.934 142.647 150.271 142.647H147.922L146.976 157.975L150.606 159.394L148.297 163.122L161.224 163.169Z" fill="#727383"/>
<path d="M147.888 143.202C147.888 143.202 144.165 144.056 143.698 149.792C143.23 155.529 146.976 157.295 146.976 157.295L147.888 143.202Z" fill="white"/>
<path d="M147.888 143.201C147.862 143.301 147.849 143.404 147.847 143.507L147.778 144.333C147.715 145.083 147.64 146.098 147.541 147.345C147.345 149.884 147.086 153.376 146.832 157.306L147.045 157.179C146.645 156.96 146.278 156.686 145.954 156.365C145.217 155.652 144.656 154.776 144.315 153.809C143.993 152.906 143.82 151.956 143.802 150.998C143.742 149.364 144.056 147.737 144.719 146.243C145.184 145.244 145.908 144.387 146.814 143.761C147.154 143.537 147.513 143.343 147.888 143.184C147.781 143.191 147.676 143.214 147.576 143.253C147.288 143.356 147.012 143.487 146.751 143.646C145.791 144.25 145.021 145.112 144.529 146.133C143.819 147.65 143.475 149.312 143.525 150.986C143.535 151.97 143.709 152.945 144.038 153.872C144.4 154.885 144.993 155.8 145.77 156.544C146.113 156.885 146.501 157.176 146.924 157.41L147.126 157.513V157.283C147.38 153.283 147.576 149.723 147.703 147.189C147.761 145.96 147.813 144.956 147.847 144.211L147.882 143.421C147.89 143.348 147.892 143.275 147.888 143.201Z" fill="#711DF9"/>
<path d="M161.282 152.799C161.282 152.799 171.191 157.496 172.403 158.241C173.24 158.778 173.961 159.712 173.303 161.363C172.178 164.168 167.532 161.53 167.532 161.53L158.299 156.914C158.299 156.914 154.755 155.234 156.065 153.145C157.554 150.825 161.282 152.799 161.282 152.799Z" fill="#711DF9"/>
<path d="M162.534 146.647C160.912 146.647 159.597 144.329 159.597 141.47C159.597 138.611 160.912 136.294 162.534 136.294C164.157 136.294 165.472 138.611 165.472 141.47C165.472 144.329 164.157 146.647 162.534 146.647Z" fill="#711DF9"/>
<path d="M162.056 145.031L160.44 150.623C160.145 150.475 159.91 150.23 159.773 149.93C159.637 149.63 159.607 149.292 159.69 148.972C160.094 147.056 160.324 145.694 160.769 144.015C160.821 143.848 162.056 145.031 162.056 145.031Z" fill="#711DF9"/>
<g opacity="0.3">
<path d="M193.992 212.724C194.154 212.263 194.316 211.795 194.471 211.311C194.627 210.826 194.783 210.393 194.904 209.943C195.093 209.252 195.228 208.548 195.308 207.836C198.032 218.923 193.877 226.731 186.732 227.279C176.304 228.081 163.585 228.664 158.454 227.314C149.077 224.855 145.637 217.035 144.818 215.772C143.998 214.508 136.536 200.848 141.107 187.724C145.677 174.601 153.641 160.658 153.647 160.658L161.236 163.192C161.236 163.192 159.845 169.673 157.647 177.429C155.228 185.953 151.985 199.295 152.17 207.092C152.289 211.783 153.804 216.332 156.521 220.158H190.98C190.98 220.158 191.719 219.419 193.992 212.748" fill="black"/>
</g>
<path d="M267.134 206.821L266.892 204.19L203.988 211.438C203.147 211.538 202.335 211.808 201.602 212.232C200.869 212.656 200.23 213.225 199.725 213.905C199.22 214.585 198.859 215.361 198.664 216.185C198.469 217.009 198.445 217.864 198.592 218.698L198.875 220.291L263.977 210.826C264.916 210.69 265.767 210.198 266.354 209.453C266.942 208.708 267.221 207.766 267.134 206.821Z" fill="#727383"/>
<g opacity="0.3">
<path d="M267.134 206.821L266.892 204.19L203.988 211.438C203.147 211.538 202.335 211.808 201.602 212.232C200.869 212.656 200.23 213.225 199.725 213.905C199.22 214.585 198.859 215.361 198.664 216.185C198.469 217.009 198.445 217.864 198.592 218.698L198.875 220.291L263.977 210.826C264.916 210.69 265.767 210.198 266.354 209.453C266.942 208.708 267.221 207.766 267.134 206.821Z" fill="black"/>
</g>
<g opacity="0.3">
<path d="M144.806 224.423C144.806 224.423 130.956 209.193 128.099 197.212C126.664 197.205 125.23 197.311 123.811 197.53C123.811 197.53 132.006 219.794 144.806 224.423Z" fill="black"/>
</g>
<path d="M128.301 191.845C128.263 191.971 128.238 192.1 128.226 192.231C128.191 192.485 128.116 192.855 128.064 193.345C127.938 194.722 127.974 196.109 128.174 197.477C128.494 199.509 129.111 201.482 130.003 203.335C131.099 205.586 132.323 207.773 133.668 209.885C136.082 213.745 138.793 217.411 141.776 220.85C142.902 222.183 143.831 223.245 144.483 223.972L145.227 224.809C145.311 224.911 145.404 225.006 145.504 225.091C145.435 224.981 145.356 224.876 145.268 224.78L144.552 223.914L141.903 220.74C138.968 217.283 136.285 213.618 133.876 209.775C132.535 207.668 131.308 205.492 130.2 203.254C129.311 201.428 128.685 199.485 128.341 197.483C128.125 196.127 128.065 194.75 128.163 193.38C128.191 192.895 128.255 192.52 128.272 192.266C128.294 192.127 128.303 191.986 128.301 191.845Z" fill="#711DF9"/>
<path d="M152.245 224.313C153.777 223.037 155.203 221.64 156.51 220.135C155.719 220.742 154.978 221.412 154.294 222.138C153.553 222.806 152.867 223.533 152.245 224.313Z" fill="#711DF9"/>
<path d="M193.346 223.846C193.125 223.133 192.781 222.465 192.33 221.872C191.942 221.237 191.45 220.671 190.876 220.198C190.818 220.244 191.453 221.006 192.128 222.005C192.803 223.003 193.282 223.874 193.346 223.846Z" fill="#711DF9"/>
<path d="M219.956 232.64C219.2 231.949 218.562 231.138 218.069 230.24C217.551 229.258 217.235 228.183 217.14 227.077C216.999 225.73 217.234 224.369 217.819 223.147C218.403 221.925 219.315 220.888 220.452 220.152C221.37 219.528 222.405 219.096 223.494 218.882C224.502 218.698 225.534 218.685 226.547 218.842C226.547 218.842 226.477 218.813 226.339 218.778C226.15 218.726 225.957 218.687 225.762 218.663C225.006 218.559 224.238 218.576 223.488 218.715C222.37 218.913 221.305 219.339 220.36 219.967C219.176 220.717 218.227 221.786 217.624 223.051C217.02 224.316 216.787 225.725 216.949 227.118C217.056 228.249 217.396 229.345 217.948 230.338C218.313 231.007 218.78 231.614 219.333 232.138C219.523 232.329 219.702 232.444 219.806 232.537C219.852 232.577 219.902 232.612 219.956 232.64Z" fill="#711DF9"/>
<path d="M242.931 227.816C243.087 227.088 243.162 226.345 243.156 225.6C243.232 224.857 243.232 224.109 243.156 223.366C242.999 224.097 242.924 224.842 242.931 225.588C242.851 226.329 242.851 227.076 242.931 227.816Z" fill="#711DF9"/>
<path d="M241.263 227.822C241.474 227.099 241.61 226.357 241.667 225.606C241.799 224.865 241.855 224.113 241.834 223.361C241.619 224.082 241.483 224.826 241.43 225.577C241.291 226.317 241.235 227.07 241.263 227.822Z" fill="#711DF9"/>
<path d="M215.316 185.122C215.316 185.186 222.963 185.244 232.398 185.244C241.834 185.244 249.486 185.186 249.486 185.122C249.486 185.059 241.834 185.001 232.398 185.001C222.963 185.001 215.316 185.053 215.316 185.122Z" fill="#711DF9"/>
<path d="M255.367 238.458C255.442 238.398 255.509 238.331 255.569 238.256C255.69 238.117 255.886 237.915 256.106 237.633C256.753 236.85 257.332 236.014 257.837 235.134C259.506 232.216 260.378 228.911 260.365 225.55C260.352 222.188 259.454 218.89 257.762 215.986C257.258 215.108 256.678 214.276 256.031 213.498C255.811 213.215 255.609 213.019 255.488 212.881C255.426 212.806 255.356 212.739 255.28 212.679C255.329 212.761 255.385 212.838 255.448 212.91C255.563 213.06 255.748 213.267 255.956 213.556C256.57 214.349 257.121 215.188 257.606 216.066C259.238 218.96 260.103 222.224 260.117 225.546C260.131 228.869 259.294 232.139 257.687 235.047C257.206 235.929 256.66 236.774 256.054 237.575C255.852 237.869 255.667 238.071 255.557 238.227C255.485 238.296 255.421 238.373 255.367 238.458Z" fill="#727383"/>
<path d="M190.87 230.956C190.87 230.956 190.339 243.3 190.328 243.894L187.708 245.879L181.423 244.316L182 230.673L190.87 230.956Z" fill="#FFBE9D"/>
<path d="M173.557 122.345L166.984 125.86L155.99 117.844L152.793 123.361C152.793 123.361 159.487 129.819 161.865 132.017C164.243 134.216 165.801 135.388 167.538 135.047C169.275 134.707 178.947 129.334 178.947 129.334C178.947 129.334 176.131 122.461 173.557 122.345Z" fill="#FFBE9D"/>
<path d="M166.949 128.307C166.949 128.307 166.909 128.347 166.886 128.416V128.474H167.03V128.422V128.249C167.07 127.919 167.091 127.588 167.094 127.256C167.148 126.782 167.107 126.301 166.972 125.842C166.811 126.293 166.75 126.774 166.794 127.25C166.794 127.637 166.794 127.989 166.822 128.249V128.422V128.474C167.123 128.474 166.909 128.474 166.972 128.474V128.41C166.99 128.347 166.967 128.307 166.949 128.307Z" fill="#EB996E"/>
<path d="M154.622 124.861C154.403 124.93 152.354 122.72 152.354 122.72C152.354 122.72 148.517 122.651 147.599 122.143C146.682 121.635 145.291 119.742 145.291 119.742L147.143 114.098C148.857 114.21 150.562 114.422 152.251 114.733C153.474 115.073 156.4 118.138 156.4 118.138L157.658 120.094C157.658 120.094 158.05 123.805 154.622 124.861Z" fill="#FFBE9D"/>
<path d="M148.136 122.46C147.665 122.427 147.197 122.367 146.733 122.282C145.81 122.126 144.858 122.045 144.887 121.127C144.884 120.975 144.914 120.825 144.975 120.685C145.036 120.546 145.126 120.421 145.239 120.319C145.239 120.319 144.558 120.037 144.564 119.523C144.565 119.374 144.602 119.227 144.671 119.094C144.74 118.962 144.84 118.848 144.962 118.761C144.962 118.761 144.021 118.328 143.992 117.567C143.989 117.285 144.063 117.008 144.208 116.767C144.353 116.525 144.562 116.328 144.812 116.199C144.812 116.199 141.926 115.374 141.695 115.281C140.876 114.947 139.312 114.202 139.964 113.59C140.201 113.365 140.293 113.117 141.944 113.319C143.444 113.498 145.804 114.052 145.804 114.052C145.804 114.052 147.824 114.15 148.886 114.26C150.202 114.38 151.505 114.614 152.781 114.958C154.143 115.587 155.332 117.376 155.332 117.376L152.337 122.72L148.136 122.46Z" fill="#FFBE9D"/>
<path d="M145.464 120.296C145.734 120.26 146.006 120.244 146.278 120.25H147.161C147.335 120.237 147.511 120.237 147.686 120.25C147.886 120.276 148.072 120.365 148.217 120.504C148.296 120.575 148.354 120.667 148.385 120.768C148.415 120.87 148.417 120.979 148.39 121.081C148.331 121.262 148.205 121.413 148.038 121.503C147.901 121.587 147.756 121.657 147.605 121.71L147.224 121.855C146.982 121.941 146.791 121.999 146.647 122.034C146.503 122.068 146.434 122.085 146.434 122.074C146.434 122.062 146.722 121.959 147.184 121.774C147.455 121.672 147.717 121.548 147.969 121.405C148.108 121.326 148.213 121.199 148.263 121.047C148.282 120.967 148.278 120.883 148.253 120.804C148.228 120.726 148.181 120.656 148.119 120.602C147.993 120.483 147.834 120.404 147.663 120.377C147.494 120.363 147.324 120.363 147.155 120.377H146.272C146.001 120.372 145.731 120.345 145.464 120.296Z" fill="#EB996E"/>
<path d="M148.615 116.355C148.315 116.227 148.05 116.029 147.842 115.778C147.599 115.561 147.414 115.287 147.305 114.981C147.334 114.981 147.57 115.316 147.934 115.691C148.297 116.066 148.638 116.326 148.615 116.355Z" fill="#EB996E"/>
<path d="M151.05 115.022C150.286 115.206 149.59 115.607 149.048 116.176C148.511 116.744 148.064 117.39 147.72 118.092C147.432 118.669 147.184 119.333 147.501 119.87C147.695 120.132 147.978 120.315 148.297 120.383C148.616 120.451 148.949 120.4 149.232 120.239C149.786 119.905 150.222 119.407 150.479 118.814C150.733 118.222 151.059 117.664 151.448 117.151" fill="#FFBE9D"/>
<path d="M151.408 117.145C151.408 117.145 151.304 117.278 151.137 117.543C150.925 117.918 150.733 118.303 150.56 118.698C150.429 118.976 150.275 119.242 150.098 119.494C149.896 119.79 149.632 120.038 149.325 120.221C148.975 120.42 148.563 120.48 148.17 120.388C147.954 120.34 147.755 120.234 147.593 120.083C147.437 119.926 147.335 119.724 147.299 119.505C147.258 119.077 147.345 118.645 147.547 118.265C147.721 117.916 147.913 117.577 148.124 117.249C148.47 116.688 148.907 116.189 149.417 115.772C149.762 115.492 150.152 115.273 150.571 115.125C150.685 115.084 150.803 115.053 150.923 115.033C151.004 115.033 151.044 115.033 151.044 115.033C151.044 115.033 150.877 115.079 150.588 115.189C150.183 115.353 149.805 115.579 149.469 115.858C148.974 116.277 148.551 116.774 148.217 117.33C148.017 117.655 147.834 117.99 147.668 118.334C147.478 118.687 147.396 119.089 147.432 119.488C147.461 119.683 147.55 119.865 147.686 120.008C147.826 120.14 147.999 120.234 148.188 120.279C148.551 120.37 148.935 120.318 149.261 120.135C149.555 119.96 149.808 119.726 150.006 119.448C150.182 119.203 150.338 118.944 150.473 118.674C150.663 118.277 150.877 117.891 151.114 117.52C151.2 117.393 151.281 117.301 151.333 117.237C151.385 117.174 151.408 117.139 151.408 117.145Z" fill="#EB996E"/>
<path d="M145.55 120.296C146.734 120.297 147.917 120.359 149.094 120.481C149.43 120.543 149.777 120.513 150.098 120.395C150.346 120.273 150.438 119.65 150.502 119.385L146.162 118.709" fill="#FFBE9D"/>
<path d="M146.162 118.71C146.275 118.709 146.387 118.718 146.497 118.738L147.42 118.865L150.514 119.321H150.577V119.391C150.531 119.587 150.491 119.806 150.421 120.02C150.394 120.109 150.355 120.194 150.306 120.273C150.282 120.314 150.253 120.351 150.219 120.383C150.182 120.417 150.139 120.444 150.092 120.464C149.929 120.528 149.754 120.559 149.579 120.556C149.238 120.556 148.927 120.51 148.627 120.487C148.049 120.435 147.472 120.389 147.034 120.36C146.595 120.331 146.214 120.32 145.955 120.308C145.824 120.318 145.693 120.318 145.562 120.308C145.692 120.286 145.823 120.277 145.955 120.279C146.214 120.279 146.584 120.279 147.04 120.279C147.495 120.279 148.038 120.331 148.638 120.377C148.938 120.377 149.256 120.441 149.573 120.435C149.733 120.439 149.892 120.409 150.04 120.348C150.179 120.302 150.242 120.141 150.3 119.985C150.358 119.829 150.404 119.569 150.45 119.367L150.502 119.442C149.279 119.252 148.194 119.073 147.42 118.94L146.503 118.779C146.388 118.765 146.274 118.742 146.162 118.71Z" fill="#EB996E"/>
<path d="M144.898 118.467L149.417 119.333C149.734 119.412 150.062 119.438 150.387 119.408C150.548 119.391 150.704 119.336 150.838 119.245C150.973 119.154 151.084 119.032 151.16 118.888C151.226 118.676 151.221 118.448 151.145 118.24C151.069 118.031 150.926 117.853 150.739 117.734C150.352 117.504 149.922 117.359 149.475 117.307C148.101 117.037 146.751 116.661 145.435 116.182" fill="#FFBE9D"/>
<path d="M145.447 116.164C145.492 116.171 145.537 116.182 145.579 116.199L145.955 116.32C146.278 116.418 146.745 116.568 147.328 116.724C147.911 116.88 148.615 117.059 149.4 117.215C149.824 117.27 150.236 117.391 150.623 117.572C150.831 117.681 151.005 117.845 151.125 118.046C151.259 118.254 151.312 118.505 151.275 118.75C151.247 118.871 151.194 118.986 151.118 119.085C151.042 119.185 150.947 119.267 150.837 119.327C150.632 119.439 150.401 119.496 150.167 119.494C149.746 119.463 149.327 119.4 148.915 119.304L146.82 118.888L145.412 118.6L145.031 118.513L144.898 118.473C144.944 118.466 144.991 118.466 145.037 118.473L145.424 118.536L146.837 118.784L148.938 119.177C149.342 119.269 149.753 119.329 150.167 119.356C150.379 119.359 150.588 119.307 150.773 119.206C150.867 119.155 150.949 119.085 151.014 119.001C151.078 118.916 151.124 118.819 151.148 118.715C151.18 118.502 151.133 118.284 151.016 118.103C150.906 117.924 150.751 117.776 150.566 117.676C150.19 117.499 149.789 117.38 149.377 117.324C148.592 117.163 147.888 116.978 147.305 116.811C146.722 116.643 146.255 116.476 145.937 116.361L145.574 116.216L145.447 116.164Z" fill="#EB996E"/>
<path d="M153.936 119.575C153.936 119.575 153.872 119.708 153.699 119.864C153.467 120.057 153.195 120.197 152.903 120.273C152.611 120.353 152.305 120.364 152.008 120.308C151.783 120.262 151.656 120.198 151.662 120.181C152.062 120.245 152.471 120.235 152.868 120.152C153.258 120.031 153.621 119.835 153.936 119.575Z" fill="#EB996E"/>
<path d="M178.388 151.546C178.388 151.546 167.423 153.572 166.661 153.78C165.899 153.988 162.766 155.465 162.621 156.411C162.537 157.656 162.537 158.906 162.621 160.151C162.621 160.151 163.198 160.607 163.533 159.695C163.765 158.808 163.864 157.893 163.827 156.977L165.559 156.307L164.612 157.993L164.456 161.94C164.456 161.94 165.668 161.83 165.905 160.884C166.054 160.229 166.131 159.559 166.136 158.887L167.405 157.814L166.453 159.101L166.136 161.94C166.136 161.94 167.059 162.24 167.354 161.611C167.564 160.791 167.669 159.947 167.665 159.101L171.243 157.848L173.609 159.17L176.177 157.762C176.537 157.563 176.848 157.288 177.089 156.956C177.331 156.624 177.496 156.243 177.574 155.84L178.388 151.546Z" fill="#FFBE9D"/>
<path d="M200.283 97.0679L199.919 116.199C199.891 117.704 199.293 119.142 198.247 120.225C197.201 121.307 195.784 121.953 194.281 122.033C193.468 122.075 192.654 121.95 191.891 121.665C191.128 121.38 190.432 120.942 189.845 120.377C189.258 119.812 188.793 119.133 188.479 118.382C188.165 117.631 188.009 116.823 188.019 116.008C188.019 114.185 188.077 112.696 188.077 112.696C188.077 112.696 183.426 112.217 183.126 107.606C182.958 104.94 183.126 98.8685 183.258 94.217C183.309 92.6949 183.931 91.2476 185 90.1632C186.069 89.0788 187.508 88.4369 189.029 88.3652L191.817 88.2209C192.957 88.2326 194.084 88.4722 195.131 88.9258C196.178 89.3793 197.124 90.0375 197.913 90.8618C198.701 91.686 199.317 92.6597 199.724 93.7255C200.131 94.7913 200.321 95.9277 200.283 97.0679Z" fill="#FFBE9D"/>
<path d="M188.077 112.65C190.208 112.532 192.26 111.807 193.992 110.561C193.992 110.561 192.682 114.023 188.054 113.816L188.077 112.65Z" fill="#EB996E"/>
<path d="M184.355 98.5511C184.436 98.6377 184.932 98.2395 185.63 98.2049C186.328 98.1702 186.877 98.4992 186.946 98.4069C187.015 98.3145 186.894 98.2164 186.657 98.0606C186.338 97.8668 185.968 97.7743 185.596 97.7951C185.226 97.8129 184.872 97.9484 184.586 98.1818C184.378 98.3549 184.309 98.5165 184.355 98.5511Z" fill="#711DF9"/>
<path d="M191.182 100.069C191.188 100.241 191.261 100.405 191.387 100.523C191.512 100.642 191.679 100.707 191.851 100.704C191.935 100.705 192.019 100.69 192.097 100.659C192.176 100.629 192.247 100.583 192.308 100.524C192.368 100.466 192.417 100.396 192.45 100.319C192.484 100.242 192.502 100.159 192.503 100.075C192.497 99.9023 192.424 99.7391 192.299 99.6203C192.173 99.5016 192.007 99.4368 191.834 99.4399C191.75 99.4376 191.666 99.4522 191.587 99.4827C191.508 99.5132 191.437 99.5591 191.376 99.6176C191.315 99.6762 191.267 99.7463 191.233 99.8238C191.2 99.9013 191.183 99.9846 191.182 100.069Z" fill="#711DF9"/>
<path d="M184.724 100.069C184.73 100.241 184.804 100.405 184.929 100.523C185.054 100.642 185.221 100.707 185.394 100.704C185.478 100.706 185.562 100.692 185.64 100.661C185.719 100.631 185.791 100.585 185.852 100.526C185.912 100.468 185.961 100.397 185.994 100.32C186.027 100.242 186.045 100.159 186.046 100.075C186.04 99.9023 185.966 99.7391 185.841 99.6203C185.716 99.5016 185.549 99.4368 185.376 99.4399C185.292 99.4376 185.208 99.4522 185.129 99.4827C185.051 99.5132 184.979 99.5591 184.918 99.6176C184.857 99.6762 184.809 99.7463 184.776 99.8238C184.742 99.9013 184.725 99.9846 184.724 100.069Z" fill="#711DF9"/>
<path d="M191.205 98.2974C191.291 98.3782 191.782 97.98 192.48 97.9453C193.179 97.9107 193.727 98.2396 193.802 98.1473C193.877 98.055 193.744 97.9569 193.507 97.8068C193.191 97.6075 192.819 97.5127 192.446 97.5356C192.076 97.5533 191.722 97.6888 191.436 97.9222C191.228 98.1011 191.164 98.257 191.205 98.2974Z" fill="#711DF9"/>
<path d="M188.966 103.941C188.589 103.844 188.201 103.793 187.812 103.791C187.633 103.791 187.454 103.757 187.419 103.635C187.397 103.449 187.429 103.261 187.512 103.093L187.985 101.685C188.421 100.49 188.76 99.263 189 98.0144C188.469 99.1703 188.031 100.367 187.69 101.592C187.535 102.089 187.39 102.556 187.246 103.006C187.144 103.231 187.125 103.485 187.194 103.722C187.223 103.785 187.266 103.841 187.32 103.885C187.375 103.929 187.438 103.96 187.506 103.976C187.607 103.989 187.71 103.989 187.812 103.976C188.196 104.012 188.584 104 188.966 103.941Z" fill="#711DF9"/>
<path d="M191.084 104.322C190.963 104.322 191.003 105.095 190.374 105.673C189.745 106.25 188.92 106.209 188.92 106.319C188.92 106.429 189.11 106.457 189.456 106.452C189.908 106.433 190.338 106.258 190.674 105.955C190.995 105.654 191.189 105.241 191.217 104.801C191.228 104.501 191.136 104.316 191.084 104.322Z" fill="#711DF9"/>
<path d="M191.119 95.7229C191.199 95.9076 191.898 95.7806 192.74 95.8383C193.583 95.896 194.258 96.0865 194.362 95.9076C194.408 95.8268 194.281 95.6479 193.998 95.4747C193.626 95.2619 193.209 95.1393 192.781 95.1169C192.352 95.0875 191.923 95.1607 191.528 95.3305C191.228 95.469 191.084 95.6306 191.119 95.7229Z" fill="#711DF9"/>
<path d="M184.568 95.9885C184.701 96.1443 185.18 95.9481 185.769 95.9134C186.357 95.8788 186.859 95.9654 186.963 95.7865C187.009 95.7057 186.923 95.5499 186.698 95.4056C186.397 95.2376 186.053 95.1633 185.709 95.1921C185.366 95.2209 185.039 95.3515 184.77 95.5672C184.568 95.7403 184.522 95.9134 184.568 95.9885Z" fill="#711DF9"/>
<path d="M198.904 100.588C198.979 100.548 202.026 99.4859 202.089 102.643C202.153 105.799 198.95 105.217 198.95 105.147C198.95 105.078 198.904 100.588 198.904 100.588Z" fill="#FFBE9D"/>
<path d="M199.902 103.907C199.902 103.907 199.954 103.947 200.052 103.987C200.184 104.038 200.33 104.038 200.462 103.987C200.657 103.85 200.814 103.664 200.915 103.447C201.016 103.23 201.059 102.991 201.039 102.752C201.04 102.482 200.983 102.214 200.871 101.968C200.839 101.869 200.783 101.78 200.709 101.707C200.635 101.635 200.544 101.582 200.444 101.552C200.382 101.537 200.315 101.544 200.258 101.573C200.2 101.601 200.153 101.649 200.127 101.708C200.087 101.8 200.127 101.864 200.087 101.869C200.046 101.875 200.017 101.818 200.04 101.685C200.058 101.606 200.101 101.536 200.162 101.483C200.249 101.417 200.358 101.386 200.467 101.396C200.596 101.422 200.716 101.479 200.816 101.563C200.917 101.647 200.995 101.754 201.044 101.875C201.187 102.145 201.258 102.447 201.252 102.752C201.274 103.034 201.212 103.315 201.074 103.561C200.937 103.808 200.73 104.008 200.479 104.137C200.394 104.162 200.304 104.168 200.217 104.155C200.129 104.142 200.046 104.11 199.971 104.062C199.908 103.993 199.89 103.912 199.902 103.907Z" fill="#EB996E"/>
<path d="M200.652 100.386C200.351 100.384 200.055 100.462 199.795 100.613C199.535 100.765 199.321 100.983 199.175 101.246C198.996 101.708 198.973 102.222 198.794 102.683C198.725 102.921 198.578 103.129 198.378 103.274C198.177 103.42 197.933 103.494 197.686 103.485C197.519 103.443 197.367 103.357 197.244 103.236C197.122 103.115 197.033 102.965 196.988 102.799C196.903 102.467 196.881 102.122 196.924 101.783C197.039 100.3 197.27 98.8224 197.253 97.3335C197.297 95.8365 196.895 94.3603 196.099 93.0918C195.694 92.4655 195.127 91.9601 194.459 91.6289C193.791 91.2978 193.045 91.1532 192.301 91.2105C191.326 91.3374 190.455 91.8972 189.485 92.0876C188.913 92.1896 188.325 92.1611 187.766 92.0042C187.206 91.8473 186.689 91.5661 186.253 91.1816C186.138 91.0835 185.63 90.7834 185.63 90.7834C185.626 90.432 185.724 90.087 185.913 89.7908C187.754 87.9037 191.211 87.2227 193.796 87.7363C195.11 87.9868 196.354 88.5209 197.44 89.3014C198.527 90.0818 199.43 91.0898 200.087 92.255C201.31 94.5923 201.154 97.9395 200.664 100.386" fill="#711DF9"/>
<path d="M187.056 90.2753C188.787 90.3388 192.14 90.9852 193.519 92.0586C193.681 92.1855 193.86 92.3933 193.75 92.5722C193.64 92.7511 193.479 92.7107 193.323 92.7049C191.722 92.7867 190.132 93.0283 188.579 93.4263C187.591 93.7755 186.545 93.9341 185.497 93.8938C184.974 93.8651 184.467 93.7011 184.026 93.4179C183.585 93.1346 183.225 92.7418 182.981 92.2779L182.537 92.4452C183.042 91.7281 183.723 91.1522 184.514 90.7724C185.305 90.3925 186.18 90.2214 187.056 90.2753Z" fill="#711DF9"/>
<path d="M183.437 92.3994C184.379 91.5137 185.585 90.9622 186.871 90.8297C190.865 90.4662 197.42 91.6665 200.895 98.5283C201.273 97.3407 201.509 96.1126 201.599 94.8694C201.599 93.9288 201.022 88.3367 195.251 86.6053C195.239 86.6053 186.548 83.3332 183.437 92.3994Z" fill="#727383"/>
<g opacity="0.3">
<path d="M183.437 92.3994C184.438 91.3302 185.818 90.6944 187.281 90.6277C190.859 90.4546 197.622 92.059 200.895 98.5283C201.273 97.3407 201.509 96.1126 201.599 94.8694C201.599 93.9288 201.022 88.3367 195.251 86.6053C195.239 86.6053 186.548 83.3332 183.437 92.3994Z" fill="black"/>
</g>
<path d="M200.352 97.553C198.621 94.6675 196.024 92.6765 193.225 90.9452C190.426 89.2139 185.815 87.523 182.635 86.6919C181.694 86.3883 180.698 86.2899 179.715 86.4034C179.225 86.4673 178.764 86.668 178.383 86.9824C178.002 87.2968 177.718 87.7122 177.562 88.1809C177.262 89.3812 179.398 91.2164 180.402 91.9378C181.331 92.5569 182.294 93.1233 183.287 93.6345C183.287 93.6345 183.403 91.4877 186.958 91.0202C191.799 90.3854 200.502 97.6742 200.352 97.553Z" fill="#727383"/>
<path d="M193.756 88.694C192.701 88.1978 191.599 87.8111 190.466 87.5398C189.321 87.3629 188.161 87.2991 187.004 87.3493C187.329 87.2309 187.673 87.1685 188.019 87.1647C188.857 87.0977 189.699 87.1443 190.524 87.3032C191.346 87.464 192.142 87.7358 192.89 88.1111C193.208 88.2581 193.5 88.4549 193.756 88.694Z" fill="white"/>
<path d="M181.342 243.548L181.308 244.09C181.308 244.09 171.497 247.362 171.272 249.099L190.293 249.826L190.409 243.75C188.965 244.344 187.415 244.633 185.854 244.598C184.294 244.563 182.758 244.206 181.342 243.548Z" fill="#727383"/>
<g opacity="0.6">
<path d="M190.293 249.826L190.322 248.366L172.097 248.199C172.097 248.199 171.232 248.522 171.289 249.099L190.293 249.826Z" fill="white"/>
</g>
<path d="M181.238 244.136C181.238 244.223 181.694 244.281 182.133 244.587C182.571 244.893 182.791 245.273 182.883 245.245C182.975 245.216 182.883 244.667 182.306 244.333C181.729 243.998 181.221 244.056 181.238 244.136Z" fill="#711DF9"/>
<path d="M179.195 244.852C179.167 244.938 179.559 245.1 179.853 245.492C180.148 245.885 180.211 246.283 180.303 246.283C180.396 246.283 180.488 245.781 180.113 245.302C179.738 244.823 179.201 244.765 179.195 244.852Z" fill="#711DF9"/>
<path d="M177.92 247.114C178.007 247.114 178.163 246.693 177.955 246.197C177.747 245.701 177.32 245.493 177.28 245.562C177.239 245.631 177.487 245.908 177.655 246.318C177.822 246.728 177.828 247.114 177.92 247.114Z" fill="#711DF9"/>
<path d="M179.819 201.067L183.039 190.333L187.327 176.667L187.09 169.632L194.269 164.687C198.961 164.767 212.633 163.959 212.633 163.959C212.633 163.959 212.281 171.092 211.576 176.229C211.434 177.248 211.056 178.22 210.474 179.068L204.178 188.25L193.352 208.448C193.352 208.448 192.63 215.662 192.33 221.895C191.995 228.878 190.87 241.516 190.87 241.516L179.732 241.782L179.034 213.804C178.751 209.602 178.439 205.049 179.819 201.067Z" fill="#711DF9"/>
<path d="M172.922 200.727C171.641 201.766 170.493 215.887 172.605 214.86L170.095 217.232L163.377 216.078L162.448 201.241L172.922 200.727Z" fill="#FFBE9D"/>
<path d="M191.909 158.524C191.909 158.524 164.081 166.095 161.196 172.086C160.033 174.047 159.49 176.314 159.638 178.589C159.805 182.629 162.102 211.675 162.102 211.675L172.611 210.982L173.621 200.265L173.794 184.043L173.061 182.196C173.865 182.382 174.702 182.372 175.502 182.168C176.697 181.815 194.829 176.327 194.829 176.327L201.91 165.166L191.909 158.524Z" fill="#711DF9"/>
<path d="M163.216 215.264V215.841C163.216 215.841 153.359 220.244 153.359 222.143L173.217 221.312L172.674 214.716C171.23 215.481 169.637 215.926 168.005 216.02C166.373 216.115 164.739 215.857 163.216 215.264Z" fill="#727383"/>
<g opacity="0.6">
<path d="M173.199 221.312L173.072 219.725L154.08 221.104C154.08 221.104 153.214 221.525 153.341 222.143L173.199 221.312Z" fill="white"/>
</g>
<path d="M163.169 215.916C163.169 216.015 163.666 216.038 164.156 216.326C164.647 216.615 164.918 217.019 165.005 216.973C165.091 216.926 164.924 216.395 164.324 216.038C163.723 215.68 163.141 215.824 163.169 215.916Z" fill="#711DF9"/>
<path d="M161.121 216.862C161.121 216.961 161.525 217.105 161.877 217.503C162.229 217.901 162.333 218.328 162.454 218.323C162.575 218.317 162.586 217.745 162.148 217.278C161.709 216.811 161.115 216.77 161.121 216.862Z" fill="#711DF9"/>
<path d="M160.042 219.414C160.128 219.414 160.243 218.94 159.972 218.421C159.701 217.902 159.239 217.705 159.199 217.786C159.159 217.867 159.453 218.144 159.672 218.571C159.891 218.998 159.943 219.414 160.042 219.414Z" fill="#711DF9"/>
<path d="M168.617 176.806C168.95 176.96 169.258 177.164 169.529 177.412C170.217 177.97 170.835 178.61 171.37 179.316C171.905 180.028 172.351 180.803 172.697 181.624C172.864 181.953 172.977 182.305 173.032 182.669C172.503 181.557 171.881 180.491 171.174 179.483C170.399 178.52 169.544 177.624 168.617 176.806Z" fill="#727383"/>
<path d="M170.874 174.601C171.133 174.918 171.347 175.27 171.509 175.646C172.388 177.416 172.889 179.35 172.98 181.325C173.016 181.731 172.999 182.14 172.928 182.542C172.86 182.144 172.819 181.74 172.807 181.336C172.717 180.363 172.551 179.398 172.311 178.451C172.068 177.51 171.752 176.589 171.364 175.698C171.179 175.342 171.015 174.976 170.874 174.601Z" fill="#727383"/>
<path d="M189.514 170.481C189.439 170.481 188.181 173.944 186.709 178.214C185.238 182.485 184.107 186.017 184.187 186.045C184.268 186.074 185.52 182.612 186.992 178.312C188.464 174.013 189.595 170.51 189.514 170.481Z" fill="#727383"/>
<path d="M185.272 119.413L180.731 117.59L168.883 124.025L173.719 135.093L184.147 129.917L185.272 119.413Z" fill="#727383"/>
<path d="M180.731 117.59L187.933 114.866C187.933 114.866 189.508 118.196 192.954 117.174C196.399 116.153 200.196 113.083 200.196 113.083C200.196 113.083 206.746 115.679 208.743 116.863C210.74 118.046 211.819 148.742 211.819 148.742L212.361 160.618L212.685 162.857C212.822 163.929 212.894 165.009 212.898 166.089C200.693 168.83 188.625 165.928 182.156 162.338C182.156 162.338 181.302 161.669 181.671 160.139C182.041 158.61 182.825 158.345 182.825 158.345L182.664 144.921L181.464 131.192L180.731 117.59Z" fill="#727383"/>
<path d="M174.285 152.309L190.49 145.603L200.531 123.367L209.465 127.118C209.465 127.118 199.873 151.229 196.151 153.232C192.429 155.234 177.078 156.158 177.078 156.158L174.285 152.309Z" fill="#FFBE9D"/>
<path d="M208.76 116.863C208.76 116.863 212.136 118.554 212.131 125.017C212.131 130.632 210.474 139.583 210.474 139.583L194.569 134.049L199.486 122.622C200.641 119.898 203.203 114.889 208.76 116.863Z" fill="#727383"/>
<path d="M208.639 138.948C208.554 138.903 208.465 138.865 208.374 138.833L207.595 138.533L204.669 137.471L194.598 133.91L194.685 134.095C195.187 132.583 195.735 130.967 196.335 129.322C197.282 126.731 198.269 124.301 199.279 122.137C199.725 121.107 200.268 120.122 200.9 119.194C201.435 118.383 202.178 117.731 203.053 117.307C204.345 116.721 205.766 116.481 207.179 116.609C207.56 116.652 207.931 116.754 208.281 116.909C208.395 116.983 208.515 117.049 208.639 117.105C208.639 117.105 208.639 117.076 208.558 117.036C208.482 116.967 208.399 116.907 208.31 116.857C207.963 116.671 207.586 116.548 207.196 116.493C205.756 116.316 204.295 116.529 202.966 117.111C202.049 117.541 201.266 118.211 200.698 119.05C200.046 119.983 199.488 120.979 199.03 122.022C197.997 124.186 197.005 126.639 196.053 129.218C195.475 130.869 194.898 132.485 194.414 134.002L194.367 134.141L194.5 134.187L204.605 137.65L207.56 138.631L208.356 138.885C208.447 138.918 208.542 138.94 208.639 138.948Z" fill="#711DF9"/>
<path d="M183.553 158.818C183.799 159.049 184.064 159.261 184.343 159.452C184.603 159.649 184.92 159.885 185.318 160.128C185.717 160.37 186.149 160.676 186.663 160.947C187.177 161.218 187.737 161.524 188.366 161.824C188.995 162.124 189.664 162.401 190.385 162.684C191.962 163.258 193.583 163.7 195.233 164.006C196.887 164.281 198.56 164.416 200.237 164.41C201.01 164.41 201.749 164.375 202.429 164.289C203.064 164.241 203.696 164.16 204.322 164.046C204.899 163.965 205.413 163.833 205.869 163.735C206.325 163.636 206.706 163.527 207.023 163.429C207.352 163.347 207.672 163.237 207.981 163.1C207.648 163.147 207.318 163.218 206.994 163.313C206.677 163.394 206.296 163.492 205.84 163.567C205.384 163.642 204.876 163.769 204.299 163.833C203.722 163.896 203.093 164.006 202.412 164.04C201.731 164.075 201.01 164.115 200.242 164.133C198.583 164.125 196.927 163.982 195.291 163.706C193.657 163.408 192.049 162.98 190.484 162.425C189.774 162.142 189.087 161.894 188.475 161.599C187.863 161.305 187.286 161.022 186.744 160.762C186.201 160.503 185.786 160.22 185.388 159.983C185.044 159.791 184.711 159.581 184.389 159.354C184.125 159.154 183.845 158.974 183.553 158.818Z" fill="#711DF9"/>
<path d="M183.483 130.557H187.933V132.664H183.483V130.557Z" fill="white"/>
<path d="M180.961 124.019C180.875 124.019 181.042 127.274 181.325 131.267C181.608 135.261 181.902 138.504 181.989 138.499C182.075 138.493 181.908 135.244 181.625 131.25C181.342 127.257 181.059 124.013 180.961 124.019Z" fill="#711DF9"/>
<path d="M219.235 138.949H261.271V148.13H219.235V138.949Z" fill="#711DF9"/>
<path d="M216.401 148.228H264.075V184.995H216.401V148.228Z" fill="#711DF9"/>
<path d="M228.347 184.741C228.399 184.741 228.445 176.546 228.445 166.436C228.445 156.325 228.399 148.13 228.347 148.13C228.295 148.13 228.255 156.325 228.255 166.436C228.255 176.546 228.295 184.741 228.347 184.741Z" fill="#711DF9"/>
<path d="M218.063 176.633H224.1V182.67H218.063V176.633Z" fill="#F5F5F5"/>
<path opacity="0.3" d="M244.148 148.228H249.561V156.076H244.148V148.228Z" fill="white"/>
<path opacity="0.3" d="M244.119 177.152H249.532V185.001H244.119V177.152Z" fill="white"/>
<path opacity="0.3" d="M216.401 148.13H228.347V185.099H216.401V148.13Z" fill="black"/>
<path d="M216.563 148.228C216.563 148.315 227.181 148.378 240.276 148.378C253.37 148.378 263.995 148.315 263.995 148.228C263.995 148.142 253.376 148.078 240.276 148.078C227.176 148.078 216.563 148.147 216.563 148.228Z" fill="#711DF9"/>
<path opacity="0.3" d="M219.235 138.949H231.002V148.067H219.235V138.949Z" fill="black"/>
<path d="M231.094 148.009C231.243 146.534 231.293 145.052 231.244 143.571C231.293 142.09 231.243 140.607 231.094 139.133C230.942 140.607 230.892 142.09 230.944 143.571C230.892 145.052 230.942 146.535 231.094 148.009Z" fill="#711DF9"/>
<path d="M243.011 138.949H248.927V141.73H243.011V138.949Z" fill="white"/>
<path d="M240.645 139.127C240.653 139.083 240.653 139.038 240.645 138.994L240.599 138.596C240.558 138.255 240.483 137.747 240.345 137.095C239.973 135.252 239.267 133.491 238.262 131.901C237.917 131.377 237.531 130.881 237.107 130.418C236.677 129.887 236.163 129.431 235.584 129.068C235.256 128.871 234.874 128.782 234.493 128.814C234.292 128.848 234.103 128.932 233.943 129.058C233.783 129.184 233.656 129.348 233.576 129.535C233.324 130.282 233.306 131.087 233.524 131.844C233.95 133.457 234.829 134.915 236.057 136.045C237.368 137.224 238.808 138.25 240.351 139.104L240.564 139.231L240.651 139.283L240.732 139.225C242.157 138.213 243.508 137.098 244.771 135.889C245.956 134.756 246.933 133.424 247.657 131.953C247.841 131.605 247.979 131.235 248.067 130.851C248.161 130.466 248.126 130.061 247.968 129.697C247.89 129.51 247.768 129.346 247.612 129.217C247.457 129.088 247.272 129 247.074 128.958C246.691 128.919 246.307 129.022 245.995 129.247C245.711 129.447 245.452 129.679 245.221 129.939C244.991 130.182 244.777 130.43 244.569 130.672C244.174 131.143 243.804 131.634 243.461 132.144C242.414 133.677 241.61 135.363 241.078 137.142C240.938 137.624 240.824 138.113 240.737 138.607L240.68 138.994C240.677 139.038 240.677 139.083 240.68 139.127C240.68 139.127 240.68 139.086 240.72 139L240.807 138.619C240.882 138.284 241.003 137.794 241.199 137.176C241.763 135.432 242.577 133.78 243.617 132.271C243.961 131.771 244.331 131.289 244.725 130.828C244.933 130.586 245.146 130.343 245.377 130.112C245.597 129.867 245.845 129.648 246.116 129.46C246.374 129.273 246.693 129.186 247.01 129.218C247.165 129.25 247.31 129.319 247.432 129.419C247.553 129.52 247.649 129.649 247.709 129.795C248.003 130.418 247.709 131.174 247.391 131.838C246.675 133.292 245.71 134.611 244.54 135.733C243.289 136.929 241.953 138.033 240.541 139.034H240.709L240.495 138.907C238.972 138.064 237.549 137.052 236.253 135.889C235.061 134.806 234.204 133.404 233.783 131.849C233.566 131.148 233.566 130.398 233.783 129.697C233.847 129.547 233.948 129.415 234.076 129.314C234.204 129.214 234.355 129.147 234.516 129.12C234.841 129.093 235.167 129.169 235.445 129.339C236.003 129.687 236.501 130.122 236.923 130.626C237.344 131.079 237.73 131.563 238.077 132.075C239.087 133.632 239.815 135.355 240.23 137.165C240.38 137.805 240.472 138.319 240.535 138.648L240.605 139.034L240.645 139.127Z" fill="#711DF9"/>
<path d="M216.263 164.485C216.263 164.566 226.951 164.635 240.126 164.635C253.301 164.635 263.989 164.566 263.989 164.485C263.989 164.404 253.307 164.335 240.126 164.335C226.945 164.335 216.263 164.398 216.263 164.485Z" fill="#711DF9"/>
<path d="M240.553 185.589C240.634 185.589 240.703 175.075 240.703 162.107C240.703 149.14 240.634 138.619 240.553 138.619C240.472 138.619 240.403 149.134 240.403 162.107C240.403 175.08 240.466 185.589 240.553 185.589Z" fill="#711DF9"/>
</svg>
