<svg width="515" height="384" viewBox="0 0 515 384" fill="none" xmlns="http://www.w3.org/2000/svg">
<path d="M514.425 336.846H0V337.103H514.425V336.846Z" fill="#EBEBEB"/>
<path d="M462.88 353.4H428.804V353.657H462.88V353.4Z" fill="#EBEBEB"/>
<path d="M340.776 356.198H331.835V356.455H340.776V356.198Z" fill="#EBEBEB"/>
<path d="M427.775 343.852H408.032V344.109H427.775V343.852Z" fill="#EBEBEB"/>
<path d="M98.4094 345.581H53.9734V345.838H98.4094V345.581Z" fill="#EBEBEB"/>
<path d="M114.089 345.581H107.576V345.838H114.089V345.581Z" fill="#EBEBEB"/>
<path d="M231.646 349.922H135.263V350.18H231.646V349.922Z" fill="#EBEBEB"/>
<path d="M243.838 290.959H45.1769C43.6207 290.956 42.129 290.336 41.0295 289.235C39.93 288.133 39.3125 286.64 39.3125 285.084V5.82329C39.326 4.27593 39.9496 2.79639 41.0476 1.70606C42.1456 0.615724 43.6295 0.00265072 45.1769 0H243.838C245.396 0 246.89 0.618944 247.992 1.72067C249.093 2.8224 249.712 4.31666 249.712 5.87473V285.084C249.712 286.642 249.093 288.136 247.992 289.238C246.89 290.34 245.396 290.959 243.838 290.959ZM45.1769 0.205771C43.6889 0.208496 42.2627 0.801541 41.2114 1.85474C40.1601 2.90793 39.5697 4.33521 39.5697 5.82329V285.084C39.5697 286.572 40.1601 287.999 41.2114 289.053C42.2627 290.106 43.6889 290.699 45.1769 290.702H243.838C245.327 290.699 246.754 290.106 247.807 289.053C248.86 288 249.452 286.573 249.455 285.084V5.82329C249.452 4.33427 248.86 2.90701 247.807 1.85411C246.754 0.801207 245.327 0.208491 243.838 0.205771H45.1769Z" fill="#EBEBEB"/>
<path d="M466.388 290.959H267.717C266.16 290.956 264.667 290.336 263.566 289.235C262.465 288.134 261.845 286.641 261.842 285.084V5.82329C261.859 4.27499 262.484 2.79547 263.584 1.70541C264.684 0.615364 266.169 0.00262181 267.717 0H466.388C467.934 0.00535465 469.415 0.619624 470.511 1.70967C471.607 2.79971 472.229 4.2777 472.242 5.82329V285.084C472.242 286.639 471.626 288.13 470.529 289.231C469.432 290.332 467.943 290.953 466.388 290.959ZM267.717 0.205771C266.228 0.208491 264.801 0.801207 263.748 1.85411C262.695 2.90701 262.102 4.33427 262.099 5.82329V285.084C262.102 286.573 262.695 288 263.748 289.053C264.801 290.106 266.228 290.699 267.717 290.702H466.388C467.877 290.699 469.304 290.106 470.357 289.053C471.41 288 472.003 286.573 472.006 285.084V5.82329C472.003 4.33427 471.41 2.90701 470.357 1.85411C469.304 0.801207 467.877 0.208491 466.388 0.205771H267.717Z" fill="#EBEBEB"/>
<path d="M226.697 52.9138H234.578C234.866 52.9164 235.142 53.0322 235.346 53.2362C235.55 53.4401 235.666 53.7159 235.669 54.0043V337.01H247.439V54.0043C247.441 53.7159 247.557 53.4401 247.761 53.2362C247.965 53.0322 248.241 52.9164 248.529 52.9138H256.348C256.564 52.914 256.775 52.8501 256.955 52.7303C257.134 52.6105 257.274 52.4401 257.357 52.2407C257.44 52.0413 257.461 51.8218 257.419 51.6102C257.377 51.3985 257.273 51.2041 257.12 51.0515L242.294 36.2361C242.198 36.1283 242.08 36.0421 241.948 35.9831C241.816 35.9241 241.673 35.8936 241.528 35.8936C241.383 35.8936 241.24 35.9241 241.108 35.9831C240.976 36.0421 240.858 36.1283 240.761 36.2361L225.936 51.0515C225.784 51.2035 225.68 51.3969 225.637 51.6076C225.595 51.8184 225.615 52.037 225.697 52.2359C225.778 52.4349 225.917 52.6054 226.094 52.726C226.272 52.8466 226.482 52.9119 226.697 52.9138Z" fill="#EBEBEB"/>
<path d="M287.409 156.21H295.28C295.424 156.209 295.566 156.236 295.699 156.291C295.832 156.345 295.953 156.425 296.054 156.527C296.156 156.628 296.236 156.749 296.29 156.882C296.345 157.015 296.372 157.157 296.371 157.301V337.01H308.202V157.301C308.201 157.158 308.228 157.017 308.282 156.884C308.335 156.752 308.415 156.632 308.515 156.53C308.616 156.429 308.735 156.349 308.867 156.294C308.999 156.239 309.14 156.21 309.283 156.21H317.112C317.327 156.209 317.537 156.143 317.715 156.023C317.893 155.902 318.031 155.732 318.112 155.533C318.194 155.334 318.215 155.115 318.172 154.904C318.13 154.694 318.026 154.5 317.874 154.348L303.058 139.533C302.958 139.43 302.838 139.349 302.705 139.293C302.573 139.237 302.43 139.208 302.287 139.208C302.143 139.208 302.001 139.237 301.868 139.293C301.736 139.349 301.615 139.43 301.515 139.533L286.638 154.328C286.478 154.479 286.367 154.675 286.321 154.89C286.274 155.106 286.294 155.33 286.378 155.534C286.461 155.737 286.605 155.911 286.789 156.032C286.973 156.153 287.189 156.215 287.409 156.21Z" fill="#EBEBEB"/>
<path d="M150.459 215.483H158.289C158.576 215.483 158.852 215.596 159.056 215.798C159.26 216.001 159.376 216.275 159.379 216.563V337.01H171.201V216.563C171.203 216.275 171.319 216.001 171.524 215.798C171.728 215.596 172.004 215.483 172.291 215.483H180.11C180.326 215.483 180.537 215.419 180.717 215.299C180.896 215.179 181.036 215.009 181.119 214.81C181.202 214.61 181.223 214.391 181.181 214.179C181.139 213.967 181.035 213.773 180.882 213.62L166.056 198.795C165.96 198.687 165.842 198.601 165.71 198.542C165.578 198.483 165.435 198.452 165.29 198.452C165.145 198.452 165.002 198.483 164.87 198.542C164.738 198.601 164.62 198.687 164.523 198.795L149.687 213.62C149.535 213.773 149.431 213.967 149.388 214.179C149.346 214.391 149.368 214.61 149.451 214.81C149.533 215.009 149.673 215.179 149.853 215.299C150.032 215.419 150.243 215.483 150.459 215.483Z" fill="#EBEBEB"/>
<path d="M116.157 76.2481V65.7538L110.756 65.2497C110.031 61.7916 108.663 58.5005 106.723 55.5476L110.19 51.3602L102.772 43.9422L98.5845 47.4094C95.6361 45.47 92.3478 44.1051 88.8927 43.3866L88.3783 37.9749H77.884L77.3799 43.3866C73.9236 44.1016 70.6347 45.4667 67.6881 47.4094L63.4904 43.9422L56.0724 51.3602L59.5396 55.5579C57.6184 58.5113 56.2679 61.7986 55.558 65.2497L50.1565 65.7538V76.2481L55.558 76.7522C56.2673 80.197 57.618 83.4777 59.5396 86.4234L56.0724 90.6417L63.4904 98.0597L67.6881 94.5925C70.6369 96.531 73.925 97.8958 77.3799 98.6153L77.884 104.017H88.3783L88.8927 98.6153C92.3464 97.892 95.6338 96.5275 98.5845 94.5925L102.772 98.0597L110.19 90.6417L106.723 86.4234C108.665 83.4752 110.033 80.1871 110.756 76.7316L116.157 76.2481ZM83.1311 85.2094C80.3214 85.2094 77.5748 84.3763 75.2384 82.8155C72.9021 81.2547 71.081 79.0363 70.0053 76.4406C68.9296 73.845 68.6476 70.9887 69.195 68.2328C69.7424 65.4769 71.0946 62.9452 73.0806 60.9577C75.0667 58.9702 77.5974 57.6162 80.3529 57.0668C83.1084 56.5174 85.9649 56.7973 88.5613 57.8711C91.1578 58.9449 93.3775 60.7645 94.94 63.0997C96.5025 65.4349 97.3375 68.1809 97.3396 70.9907C97.3409 72.8574 96.9744 74.7061 96.261 76.4311C95.5475 78.1562 94.5012 79.7237 93.1817 81.0442C91.8621 82.3646 90.2954 83.4122 88.5708 84.1268C86.8463 84.8415 84.9979 85.2094 83.1311 85.2094Z" fill="#E0E0E0"/>
<path d="M158.68 105.869V97.6379L154.451 97.2469C153.882 94.5377 152.81 91.9589 151.292 89.6437L154.009 86.3617L148.154 80.5487L144.872 83.2648C142.561 81.747 139.985 80.6757 137.279 80.1063L136.878 75.8777H128.647L128.246 80.1063C125.54 80.6736 122.964 81.7451 120.653 83.2648L117.361 80.5487L111.548 86.3617L114.274 89.6437C112.748 91.9544 111.676 94.5348 111.116 97.2469L106.877 97.6379V105.869L111.116 106.26C111.676 108.972 112.748 111.552 114.274 113.863L111.548 117.145L117.361 122.958L120.653 120.242C122.964 121.761 125.54 122.833 128.246 123.4L128.647 127.629H136.878L137.279 123.4C139.985 122.831 142.561 121.759 144.872 120.242L148.154 122.958L153.967 117.145L151.251 113.863C152.769 111.548 153.84 108.969 154.41 106.26L158.68 105.869ZM132.804 112.885C130.602 112.885 128.45 112.233 126.619 111.009C124.789 109.786 123.362 108.048 122.519 106.013C121.677 103.979 121.456 101.741 121.886 99.5815C122.315 97.4221 123.375 95.4385 124.932 93.8816C126.489 92.3248 128.473 91.2645 130.632 90.835C132.792 90.4055 135.03 90.6259 137.064 91.4685C139.098 92.3111 140.837 93.7379 142.06 95.5686C143.283 97.3993 143.936 99.5515 143.936 101.753C143.936 104.706 142.763 107.537 140.676 109.625C138.588 111.713 135.756 112.885 132.804 112.885Z" fill="#E0E0E0"/>
<path d="M113.07 130.242V123.328L109.511 122.999C109.036 120.725 108.135 118.56 106.856 116.62L109.14 113.863L104.264 108.976L101.496 111.26C99.5559 109.981 97.3916 109.08 95.117 108.605L94.7878 105.046H87.8842L87.5447 108.605C85.2707 109.082 83.1068 109.983 81.1658 111.26L78.4085 108.976L73.5215 113.863L75.8055 116.62C74.5267 118.56 73.626 120.725 73.1511 122.999L69.6016 123.328V130.242L73.1511 130.571C73.6279 132.845 74.5284 135.009 75.8055 136.95L73.5215 139.708L78.4085 144.595L81.1658 142.311C83.1068 143.588 85.2707 144.488 87.5447 144.965L87.8842 148.515H94.7878L95.117 144.965C97.3916 144.49 99.5559 143.589 101.496 142.311L104.264 144.595L109.14 139.708L106.856 136.95C108.133 135.009 109.034 132.845 109.511 130.571L113.07 130.242ZM91.3309 136.138C89.4812 136.138 87.673 135.589 86.135 134.561C84.5971 133.534 83.3984 132.073 82.6905 130.364C81.9827 128.655 81.7975 126.775 82.1583 124.961C82.5192 123.147 83.4099 121.48 84.7178 120.172C86.0258 118.864 87.6922 117.974 89.5063 117.613C91.3205 117.252 93.2009 117.437 94.9098 118.145C96.6187 118.853 98.0794 120.051 99.107 121.589C100.135 123.127 100.683 124.936 100.683 126.785C100.684 128.014 100.444 129.231 99.974 130.366C99.5045 131.501 98.8157 132.533 97.9469 133.401C97.0782 134.27 96.0467 134.959 94.9114 135.428C93.7762 135.898 92.5594 136.139 91.3309 136.138Z" fill="#E0E0E0"/>
<path d="M394.821 221.203V231.687L400.233 232.201C400.953 235.656 402.317 238.944 404.256 241.893L400.789 246.08L408.207 253.509L412.404 250.031C415.35 251.977 418.639 253.346 422.096 254.064L422.6 259.466H433.146L433.65 254.064C437.107 253.346 440.396 251.977 443.342 250.031L447.54 253.509L454.958 246.08L451.49 241.893C453.429 238.944 454.794 235.656 455.513 232.201L460.915 231.687V221.203L455.513 220.688C454.794 217.234 453.429 213.945 451.49 210.997L454.958 206.809L447.54 199.381L443.342 202.858C440.394 200.916 437.106 199.548 433.65 198.825L433.146 193.424H422.652L422.148 198.825C418.692 199.548 415.404 200.916 412.456 202.858L408.258 199.381L400.789 206.799L404.256 210.986C402.308 213.935 400.94 217.228 400.223 220.688L394.821 221.203ZM427.847 212.242C430.656 212.25 433.399 213.09 435.73 214.656C438.061 216.222 439.876 218.444 440.945 221.041C442.014 223.638 442.289 226.494 441.737 229.247C441.184 232 439.827 234.528 437.839 236.511C435.85 238.494 433.318 239.843 430.563 240.388C427.808 240.933 424.953 240.649 422.359 239.573C419.766 238.496 417.549 236.675 415.99 234.339C414.43 232.004 413.598 229.258 413.598 226.45C413.598 224.581 413.967 222.73 414.683 221.003C415.4 219.277 416.45 217.708 417.774 216.388C419.098 215.069 420.669 214.023 422.397 213.311C424.126 212.6 425.978 212.236 427.847 212.242Z" fill="#E0E0E0"/>
<path d="M352.299 191.582V199.813L356.527 200.214C357.092 202.928 358.164 205.511 359.686 207.828L357.011 211.079L362.824 216.892L366.106 214.176C368.421 215.694 371 216.765 373.709 217.334L374.1 221.563H382.331L382.732 217.334C385.439 216.767 388.015 215.695 390.325 214.176L393.617 216.892L399.43 211.079L396.653 207.828C398.181 205.522 399.253 202.944 399.811 200.235L404.05 199.834V191.603L399.811 191.201C399.253 188.492 398.181 185.915 396.653 183.609L399.379 180.327L393.566 174.503L390.274 177.23C387.965 175.706 385.389 174.634 382.681 174.071L382.28 169.832H374.049L373.658 174.071C370.947 174.636 368.367 175.707 366.055 177.23L362.773 174.503L357.011 180.306L359.727 183.588C358.207 185.898 357.136 188.474 356.569 191.181L352.299 191.582ZM378.174 184.565C380.377 184.565 382.529 185.219 384.36 186.442C386.191 187.666 387.618 189.405 388.46 191.44C389.302 193.475 389.522 195.713 389.092 197.873C388.662 200.033 387.6 202.016 386.042 203.573C384.484 205.129 382.5 206.189 380.34 206.617C378.18 207.045 375.941 206.824 373.907 205.979C371.873 205.135 370.135 203.707 368.913 201.875C367.691 200.043 367.04 197.889 367.042 195.687C367.045 192.737 368.219 189.908 370.306 187.822C372.394 185.737 375.224 184.565 378.174 184.565Z" fill="#E0E0E0"/>
<path d="M397.908 167.208V174.112L401.468 174.452C401.945 176.726 402.845 178.889 404.122 180.83L401.838 183.588L406.725 188.475L409.483 186.222C411.421 187.501 413.586 188.399 415.861 188.866L416.191 192.426H423.104L423.434 188.866C425.709 188.397 427.873 187.5 429.813 186.222L432.57 188.506L437.457 183.619L435.204 180.83C436.481 178.889 437.381 176.726 437.858 174.452L441.408 174.112V167.208L437.858 166.869C437.38 164.599 436.48 162.438 435.204 160.5L437.488 157.743L432.601 152.856L429.843 155.15C427.905 153.869 425.74 152.968 423.465 152.496L423.135 148.936H416.221L415.892 152.496C413.616 152.966 411.451 153.867 409.513 155.15L406.756 152.856L401.869 157.743L404.153 160.5C402.876 162.441 401.975 164.605 401.499 166.879L397.908 167.208ZM419.648 161.313C421.497 161.313 423.305 161.862 424.843 162.889C426.381 163.917 427.58 165.378 428.288 167.086C428.996 168.795 429.181 170.676 428.82 172.49C428.459 174.304 427.569 175.97 426.261 177.278C424.953 178.586 423.286 179.477 421.472 179.838C419.658 180.199 417.778 180.014 416.069 179.306C414.36 178.598 412.899 177.399 411.871 175.861C410.844 174.323 410.295 172.515 410.295 170.665C410.295 168.185 411.281 165.806 413.035 164.052C414.788 162.298 417.167 161.313 419.648 161.313Z" fill="#E0E0E0"/>
<path d="M224.289 271.338H241.482C242.1 271.346 242.692 271.594 243.132 272.03C243.571 272.466 243.824 273.055 243.838 273.674V336.969H269.816V273.674C269.819 273.043 270.072 272.438 270.519 271.993C270.966 271.547 271.572 271.297 272.203 271.297H289.385C289.863 271.3 290.331 271.16 290.729 270.895C291.127 270.63 291.437 270.252 291.619 269.809C291.8 269.367 291.845 268.88 291.748 268.412C291.65 267.944 291.415 267.515 291.072 267.182L258.519 234.629C258.298 234.405 258.035 234.227 257.744 234.105C257.454 233.983 257.142 233.921 256.827 233.921C256.512 233.921 256.2 233.983 255.91 234.105C255.619 234.227 255.356 234.405 255.134 234.629L222.561 267.182C222.206 267.517 221.961 267.953 221.859 268.43C221.758 268.908 221.804 269.405 221.991 269.856C222.179 270.307 222.499 270.691 222.91 270.955C223.32 271.22 223.801 271.354 224.289 271.338Z" fill="#E0E0E0"/>
<path d="M63.6858 218.219H80.8676C81.181 218.218 81.4917 218.278 81.7818 218.397C82.0719 218.516 82.3358 218.69 82.5584 218.911C82.781 219.132 82.958 219.394 83.0792 219.683C83.2004 219.972 83.2634 220.282 83.2648 220.596V337.01H109.254V220.596C109.256 219.966 109.508 219.363 109.953 218.918C110.398 218.473 111.001 218.222 111.63 218.219H128.812C129.291 218.224 129.761 218.086 130.16 217.822C130.56 217.557 130.871 217.179 131.054 216.736C131.237 216.293 131.283 215.806 131.186 215.336C131.089 214.867 130.853 214.438 130.51 214.104L97.9465 181.561C97.7247 181.338 97.4609 181.161 97.1705 181.04C96.88 180.92 96.5686 180.857 96.254 180.857C95.9395 180.857 95.628 180.92 95.3375 181.04C95.0471 181.161 94.7834 181.338 94.5616 181.561L61.9882 214.124C61.6568 214.461 61.4321 214.889 61.342 215.353C61.2519 215.817 61.3004 216.297 61.4814 216.734C61.6624 217.17 61.968 217.544 62.36 217.808C62.752 218.072 63.2131 218.215 63.6858 218.219Z" fill="#E0E0E0"/>
<path d="M318.018 291.792H329.798C330.014 291.791 330.227 291.832 330.427 291.914C330.627 291.995 330.808 292.116 330.961 292.268C331.114 292.42 331.236 292.601 331.319 292.8C331.401 292.999 331.444 293.212 331.444 293.428V337.01H349.264V293.428C349.264 292.994 349.436 292.578 349.743 292.271C350.05 291.965 350.466 291.792 350.9 291.792H362.68C363.005 291.792 363.323 291.695 363.593 291.514C363.863 291.333 364.074 291.076 364.198 290.776C364.323 290.475 364.355 290.145 364.292 289.826C364.229 289.507 364.072 289.214 363.843 288.983L341.517 266.657C341.364 266.504 341.183 266.382 340.984 266.298C340.784 266.215 340.57 266.172 340.354 266.172C340.138 266.172 339.924 266.215 339.724 266.298C339.525 266.382 339.343 266.504 339.191 266.657L316.886 288.983C316.658 289.212 316.502 289.502 316.438 289.818C316.374 290.134 316.403 290.462 316.524 290.762C316.645 291.061 316.85 291.318 317.116 291.501C317.382 291.685 317.695 291.786 318.018 291.792Z" fill="#E0E0E0"/>
<path d="M257.213 383.308C367.384 383.308 456.696 378.094 456.696 371.662C456.696 365.229 367.384 360.015 257.213 360.015C147.041 360.015 57.7288 365.229 57.7288 371.662C57.7288 378.094 147.041 383.308 257.213 383.308Z" fill="#F5F5F5"/>
<path d="M295.157 341.146L305.311 354.202L308.964 353.647L298.243 341.146H295.157Z" fill="#263238"/>
<path opacity="0.3" d="M295.157 341.146L305.311 354.202L308.964 353.647L298.243 341.146H295.157Z" fill="black"/>
<path d="M298.243 328.8L308.398 341.856L312.05 341.3L301.33 328.8H298.243Z" fill="#263238"/>
<path opacity="0.3" d="M298.243 328.8L308.398 341.856L312.05 341.3L301.33 328.8H298.243Z" fill="black"/>
<path d="M327.463 322.112H371.364L361.065 349.305H317.164L327.463 322.112Z" fill="#263238"/>
<path opacity="0.3" d="M327.463 322.112H371.364L361.065 349.305H317.164L327.463 322.112Z" fill="black"/>
<path d="M293.387 342.514H363.133V339.006H293.387V342.514Z" fill="#263238"/>
<path opacity="0.2" d="M336.362 342.514H363.133V339.006H336.362V342.514Z" fill="black"/>
<path d="M297.503 332.226H367.248V328.717H297.503V332.226Z" fill="#263238"/>
<path opacity="0.2" d="M340.478 332.226H367.248V328.717H340.478V332.226Z" fill="black"/>
<path d="M371.292 322.297L373.73 325.127L364.47 349.377H360.849L371.292 322.297Z" fill="#263238"/>
<path d="M275.794 336.516L271.082 337.689C271.264 336.414 271.806 335.217 272.644 334.238C273.482 333.26 274.582 332.54 275.814 332.164C277.288 331.825 278.835 332.028 280.171 332.737C281.507 333.445 282.543 334.612 283.088 336.022C283.494 336.998 283.604 338.071 283.407 339.109L311.824 356.209C315.147 353.41 319.088 355.519 320.713 357.793L316.022 358.945C315.497 359.079 315.046 359.414 314.766 359.879C314.487 360.343 314.402 360.898 314.53 361.425C314.596 361.687 314.713 361.934 314.875 362.15C315.036 362.367 315.239 362.55 315.471 362.689C315.703 362.827 315.96 362.919 316.228 362.958C316.495 362.997 316.768 362.983 317.03 362.917L321.742 361.744C321.56 363.018 321.018 364.214 320.18 365.191C319.341 366.168 318.242 366.885 317.009 367.258C315.541 367.627 313.99 367.457 312.636 366.779C311.283 366.101 310.217 364.961 309.633 363.565C309.205 362.658 309.062 361.643 309.221 360.653L280.814 343.554C278.006 345.467 273.613 344.078 272.008 341.805L276.761 340.549C277.027 340.486 277.278 340.37 277.499 340.208C277.719 340.046 277.906 339.842 278.047 339.607C278.187 339.372 278.28 339.112 278.319 338.841C278.358 338.57 278.342 338.294 278.273 338.029C278.144 337.5 277.811 337.044 277.346 336.76C276.881 336.477 276.323 336.389 275.794 336.516Z" fill="#263238"/>
<path opacity="0.6" d="M275.794 336.516L271.082 337.689C271.264 336.414 271.806 335.217 272.644 334.238C273.482 333.26 274.582 332.54 275.814 332.164C277.288 331.825 278.835 332.028 280.171 332.737C281.507 333.445 282.543 334.612 283.088 336.022C283.494 336.998 283.604 338.071 283.407 339.109L311.824 356.209C315.147 353.41 319.088 355.519 320.713 357.793L316.022 358.945C315.497 359.079 315.046 359.414 314.766 359.879C314.487 360.343 314.402 360.898 314.53 361.425C314.596 361.687 314.713 361.934 314.875 362.15C315.036 362.367 315.239 362.55 315.471 362.689C315.703 362.827 315.96 362.919 316.228 362.958C316.495 362.997 316.768 362.983 317.03 362.917L321.742 361.744C321.56 363.018 321.018 364.214 320.18 365.191C319.341 366.168 318.242 366.885 317.009 367.258C315.541 367.627 313.99 367.457 312.636 366.779C311.283 366.101 310.217 364.961 309.633 363.565C309.205 362.658 309.062 361.643 309.221 360.653L280.814 343.554C278.006 345.467 273.613 344.078 272.008 341.805L276.761 340.549C277.027 340.486 277.278 340.37 277.499 340.208C277.719 340.046 277.906 339.842 278.047 339.607C278.187 339.372 278.28 339.112 278.319 338.841C278.358 338.57 278.342 338.294 278.273 338.029C278.144 337.5 277.811 337.044 277.346 336.76C276.881 336.477 276.323 336.389 275.794 336.516Z" fill="white"/>
<path d="M285.136 371.477H361.065V349.305H285.136V371.477Z" fill="#263238"/>
<path opacity="0.2" d="M331.207 371.477H361.065V349.305H331.207V371.477Z" fill="black"/>
<path d="M387.733 365.859L391.159 362.423C391.67 363.611 391.829 364.922 391.618 366.199C391.406 367.475 390.833 368.664 389.965 369.625C388.879 370.68 387.449 371.309 385.936 371.394C384.424 371.479 382.932 371.015 381.734 370.088C380.887 369.456 380.238 368.596 379.862 367.608L346.712 367.66C345.303 371.775 340.848 372.012 338.276 370.9L341.702 367.495C342.082 367.11 342.295 366.59 342.295 366.049C342.295 365.508 342.082 364.989 341.702 364.604C341.511 364.413 341.284 364.261 341.034 364.157C340.784 364.054 340.516 364 340.246 364C339.976 364 339.708 364.054 339.458 364.157C339.208 364.261 338.981 364.413 338.79 364.604L335.405 368.02C334.897 366.83 334.74 365.519 334.953 364.242C335.166 362.966 335.741 361.778 336.609 360.818C337.675 359.74 339.093 359.082 340.604 358.963C342.115 358.844 343.618 359.272 344.84 360.169C345.679 360.724 346.328 361.52 346.702 362.454H379.862C381.271 359.367 385.726 358.338 388.299 359.367L384.79 362.896C384.594 363.088 384.438 363.316 384.332 363.569C384.226 363.822 384.171 364.093 384.171 364.367C384.171 364.641 384.226 364.913 384.332 365.165C384.438 365.418 384.594 365.647 384.79 365.838C384.98 366.036 385.208 366.193 385.46 366.301C385.712 366.409 385.983 366.466 386.257 366.468C386.531 366.47 386.803 366.417 387.056 366.312C387.31 366.208 387.54 366.054 387.733 365.859Z" fill="#263238"/>
<path opacity="0.6" d="M387.733 365.859L391.159 362.423C391.67 363.611 391.829 364.922 391.618 366.199C391.406 367.475 390.833 368.664 389.965 369.625C388.879 370.68 387.449 371.309 385.936 371.394C384.424 371.479 382.932 371.015 381.734 370.088C380.887 369.456 380.238 368.596 379.862 367.608L346.712 367.66C345.303 371.775 340.848 372.012 338.276 370.9L341.702 367.495C342.082 367.11 342.295 366.59 342.295 366.049C342.295 365.508 342.082 364.989 341.702 364.604C341.511 364.413 341.284 364.261 341.034 364.157C340.784 364.054 340.516 364 340.246 364C339.976 364 339.708 364.054 339.458 364.157C339.208 364.261 338.981 364.413 338.79 364.604L335.405 368.02C334.897 366.83 334.74 365.519 334.953 364.242C335.166 362.966 335.741 361.778 336.609 360.818C337.675 359.74 339.093 359.082 340.604 358.963C342.115 358.844 343.618 359.272 344.84 360.169C345.679 360.724 346.328 361.52 346.702 362.454H379.862C381.271 359.367 385.726 358.338 388.299 359.367L384.79 362.896C384.594 363.088 384.438 363.316 384.332 363.569C384.226 363.822 384.171 364.093 384.171 364.367C384.171 364.641 384.226 364.913 384.332 365.165C384.438 365.418 384.594 365.647 384.79 365.838C384.98 366.036 385.208 366.193 385.46 366.301C385.712 366.409 385.983 366.466 386.257 366.468C386.531 366.47 386.803 366.417 387.056 366.312C387.31 366.208 387.54 366.054 387.733 365.859Z" fill="white"/>
<path d="M140.726 293.881L147.126 286.124C147.647 285.484 148.305 284.967 149.05 284.611C149.795 284.255 150.61 284.069 151.436 284.066H157.352C157.692 284.066 158.025 284.159 158.315 284.336C158.606 284.512 158.842 284.765 158.998 285.067C159.154 285.368 159.224 285.707 159.201 286.046C159.177 286.385 159.061 286.711 158.865 286.988L154.749 292.811L140.726 293.881Z" fill="#7158CD"/>
<path opacity="0.3" d="M140.726 293.881L147.126 286.124C147.647 285.484 148.305 284.967 149.05 284.611C149.795 284.255 150.61 284.069 151.436 284.066H157.352C157.692 284.066 158.025 284.159 158.315 284.336C158.606 284.512 158.842 284.765 158.998 285.067C159.154 285.368 159.224 285.707 159.201 286.046C159.177 286.385 159.061 286.711 158.865 286.988L154.749 292.811L140.726 293.881Z" fill="black"/>
<path d="M73.1614 292.842L65.9595 269.189H134.748L140.726 293.881L73.1614 292.842Z" fill="#7158CD"/>
<path d="M65.9595 269.189L68.4802 265.927C69.1308 265.084 69.9664 264.402 70.9226 263.933C71.8787 263.463 72.9298 263.22 73.9948 263.221H132.773C133.155 263.222 133.533 263.307 133.878 263.471C134.224 263.634 134.53 263.871 134.773 264.166C135.017 264.461 135.192 264.805 135.288 265.175C135.383 265.546 135.396 265.932 135.325 266.308L134.748 269.148L65.9595 269.189Z" fill="#7158CD"/>
<path opacity="0.3" d="M73.1614 292.842L65.9595 269.189H134.748L140.726 293.881L73.1614 292.842Z" fill="black"/>
<path opacity="0.2" d="M65.9595 269.189L68.4802 265.927C69.1308 265.084 69.9664 264.402 70.9226 263.933C71.8787 263.463 72.9298 263.22 73.9948 263.221H132.773C133.155 263.222 133.533 263.307 133.878 263.471C134.224 263.634 134.53 263.871 134.773 264.166C135.017 264.461 135.192 264.805 135.288 265.175C135.383 265.546 135.396 265.932 135.325 266.308L134.748 269.148L65.9595 269.189Z" fill="black"/>
<path d="M102.109 232.898L104.904 233.509C105.079 233.547 105.233 233.654 105.33 233.805C105.427 233.957 105.46 234.141 105.422 234.317L104.669 237.765L100.548 236.865L101.301 233.417C101.32 233.33 101.356 233.247 101.407 233.174C101.458 233.101 101.523 233.038 101.598 232.99C101.673 232.942 101.757 232.909 101.844 232.893C101.932 232.878 102.022 232.879 102.109 232.898Z" fill="#7158CD"/>
<path d="M109.954 234.622L112.748 235.233C112.835 235.252 112.918 235.288 112.991 235.339C113.064 235.39 113.127 235.455 113.175 235.53C113.223 235.605 113.256 235.689 113.272 235.777C113.287 235.864 113.286 235.954 113.267 236.041L112.513 239.489L108.402 238.59L109.145 235.193C109.164 235.106 109.2 235.023 109.251 234.95C109.302 234.877 109.367 234.815 109.442 234.766C109.517 234.718 109.601 234.685 109.688 234.67C109.776 234.654 109.866 234.656 109.953 234.675L109.954 234.622Z" fill="#7158CD"/>
<path d="M117.897 236.371L120.692 236.981C120.868 237.02 121.021 237.126 121.118 237.278C121.216 237.43 121.249 237.614 121.21 237.79L120.457 241.237L116.346 240.339L117.099 236.892C117.137 236.717 117.242 236.565 117.392 236.468C117.541 236.37 117.723 236.336 117.897 236.371Z" fill="#7158CD"/>
<path d="M125.79 238.067L128.584 238.678C128.672 238.697 128.754 238.733 128.827 238.783C128.9 238.834 128.963 238.899 129.011 238.974C129.059 239.049 129.092 239.133 129.108 239.221C129.124 239.309 129.122 239.399 129.103 239.486L128.35 242.934L124.239 242.036L124.994 238.578C125.034 238.406 125.14 238.257 125.289 238.161C125.437 238.066 125.617 238.032 125.79 238.067Z" fill="#7158CD"/>
<path d="M133.678 239.794L136.473 240.404C136.649 240.443 136.802 240.549 136.899 240.701C136.997 240.853 137.03 241.037 136.991 241.212L136.238 244.66L132.127 243.762L132.876 240.335C132.892 240.246 132.926 240.162 132.976 240.087C133.025 240.011 133.089 239.947 133.164 239.896C133.238 239.846 133.322 239.811 133.411 239.793C133.499 239.776 133.59 239.776 133.678 239.794Z" fill="#7158CD"/>
<path d="M141.564 241.52L144.359 242.13C144.446 242.149 144.528 242.185 144.602 242.236C144.675 242.287 144.737 242.352 144.785 242.427C144.834 242.502 144.867 242.586 144.882 242.673C144.898 242.761 144.896 242.851 144.877 242.938L144.124 246.386L140.013 245.488L140.766 242.04C140.804 241.866 140.909 241.714 141.059 241.616C141.208 241.519 141.39 241.484 141.564 241.52Z" fill="#7158CD"/>
<path d="M131.789 299.518L128.994 298.907C128.907 298.888 128.825 298.852 128.751 298.801C128.678 298.751 128.616 298.686 128.568 298.611C128.519 298.536 128.487 298.452 128.471 298.364C128.455 298.276 128.457 298.186 128.476 298.099L129.229 294.651L133.34 295.549L132.587 298.997C132.549 299.171 132.444 299.323 132.294 299.421C132.145 299.518 131.963 299.553 131.789 299.518Z" fill="#7158CD"/>
<path d="M123.946 297.79L121.152 297.179C120.976 297.141 120.822 297.034 120.725 296.882C120.628 296.731 120.595 296.547 120.633 296.371L121.387 292.923L125.498 293.822L124.744 297.269C124.706 297.444 124.601 297.596 124.452 297.693C124.302 297.791 124.121 297.825 123.946 297.79Z" fill="#7158CD"/>
<path d="M116.051 296.061L113.257 295.45C113.17 295.431 113.087 295.395 113.014 295.344C112.941 295.293 112.878 295.228 112.83 295.153C112.782 295.078 112.749 294.994 112.733 294.907C112.718 294.819 112.719 294.729 112.738 294.642L113.492 291.194L117.613 292.095L116.859 295.542C116.84 295.63 116.804 295.712 116.753 295.785C116.702 295.858 116.638 295.921 116.563 295.969C116.487 296.017 116.404 296.05 116.316 296.066C116.228 296.082 116.138 296.08 116.051 296.061Z" fill="#7158CD"/>
<path d="M108.164 294.342L105.37 293.731C105.194 293.692 105.041 293.586 104.943 293.434C104.846 293.282 104.813 293.098 104.852 292.922L105.605 289.475L109.716 290.373L108.963 293.821C108.925 293.995 108.82 294.147 108.67 294.245C108.521 294.342 108.339 294.377 108.164 294.342Z" fill="#7158CD"/>
<path d="M100.215 292.627L97.4207 292.016C97.2447 291.978 97.0913 291.871 96.994 291.72C96.8968 291.568 96.8637 291.384 96.9022 291.208L97.6551 287.76L101.776 288.66L101.023 292.108C100.985 292.284 100.878 292.438 100.727 292.535C100.575 292.632 100.391 292.665 100.215 292.627Z" fill="#7158CD"/>
<path d="M92.3207 290.896L89.5264 290.286C89.3504 290.247 89.197 290.14 89.0997 289.989C89.0025 289.837 88.9695 289.653 89.0079 289.477L89.7609 286.03L93.882 286.93L93.129 290.377C93.0906 290.553 92.9839 290.707 92.8323 290.804C92.6807 290.901 92.4967 290.934 92.3207 290.896Z" fill="#7158CD"/>
<g opacity="0.4">
<path d="M102.109 232.899L104.904 233.509C105.079 233.547 105.233 233.654 105.33 233.806C105.427 233.957 105.46 234.141 105.422 234.317L104.669 237.765L100.548 236.865L101.301 233.417C101.32 233.33 101.356 233.247 101.407 233.174C101.458 233.101 101.523 233.039 101.598 232.99C101.673 232.942 101.757 232.909 101.844 232.894C101.932 232.878 102.022 232.88 102.109 232.899Z" fill="white"/>
<path d="M109.954 234.623L112.748 235.233C112.835 235.252 112.918 235.288 112.991 235.339C113.064 235.39 113.127 235.455 113.175 235.53C113.223 235.605 113.256 235.689 113.271 235.777C113.287 235.865 113.286 235.955 113.266 236.042L112.513 239.489L108.402 238.591L109.145 235.193C109.164 235.106 109.2 235.024 109.251 234.951C109.301 234.877 109.366 234.815 109.441 234.767C109.516 234.719 109.6 234.686 109.688 234.67C109.776 234.654 109.866 234.656 109.953 234.675L109.954 234.623Z" fill="white"/>
<path d="M117.897 236.371L120.692 236.981C120.868 237.02 121.021 237.127 121.118 237.278C121.216 237.43 121.249 237.614 121.21 237.79L120.457 241.237L116.346 240.34L117.099 236.892C117.137 236.718 117.242 236.565 117.392 236.468C117.541 236.371 117.723 236.336 117.897 236.371Z" fill="white"/>
<path d="M125.79 238.067L128.584 238.678C128.672 238.697 128.754 238.733 128.827 238.784C128.9 238.835 128.963 238.9 129.011 238.975C129.059 239.05 129.092 239.133 129.108 239.221C129.124 239.309 129.122 239.399 129.103 239.486L128.35 242.934L124.239 242.036L124.994 238.578C125.034 238.406 125.14 238.257 125.289 238.161C125.437 238.066 125.617 238.032 125.79 238.067Z" fill="white"/>
<path d="M133.678 239.794L136.473 240.404C136.649 240.443 136.802 240.55 136.899 240.701C136.997 240.853 137.03 241.037 136.991 241.213L136.238 244.66L132.127 243.763L132.876 240.335C132.892 240.246 132.926 240.162 132.976 240.087C133.025 240.011 133.089 239.947 133.164 239.896C133.238 239.846 133.322 239.811 133.411 239.794C133.499 239.776 133.59 239.776 133.678 239.794Z" fill="white"/>
<path d="M141.564 241.52L144.359 242.13C144.446 242.149 144.528 242.185 144.601 242.236C144.675 242.287 144.737 242.352 144.785 242.427C144.833 242.502 144.866 242.586 144.882 242.674C144.898 242.761 144.896 242.851 144.877 242.938L144.124 246.386L140.013 245.488L140.766 242.041C140.804 241.866 140.909 241.714 141.058 241.617C141.208 241.519 141.389 241.484 141.564 241.52Z" fill="white"/>
<path d="M131.789 299.518L128.994 298.908C128.907 298.889 128.825 298.853 128.751 298.802C128.678 298.751 128.616 298.686 128.568 298.611C128.519 298.536 128.487 298.452 128.471 298.364C128.455 298.276 128.457 298.186 128.476 298.099L129.229 294.652L133.34 295.55L132.587 298.997C132.549 299.171 132.444 299.324 132.294 299.421C132.145 299.519 131.963 299.553 131.789 299.518Z" fill="white"/>
<path d="M123.946 297.79L121.152 297.18C120.976 297.141 120.822 297.034 120.725 296.883C120.628 296.731 120.595 296.547 120.633 296.371L121.387 292.924L125.498 293.822L124.744 297.27C124.706 297.444 124.601 297.596 124.452 297.694C124.302 297.791 124.121 297.826 123.946 297.79Z" fill="white"/>
<path d="M116.051 296.061L113.257 295.45C113.17 295.431 113.087 295.395 113.014 295.344C112.941 295.293 112.878 295.228 112.83 295.153C112.782 295.078 112.749 294.995 112.733 294.907C112.718 294.819 112.719 294.729 112.738 294.642L113.492 291.194L117.613 292.095L116.859 295.543C116.84 295.63 116.804 295.712 116.753 295.785C116.702 295.859 116.638 295.921 116.563 295.969C116.487 296.017 116.404 296.05 116.316 296.066C116.228 296.082 116.138 296.08 116.051 296.061Z" fill="white"/>
<path d="M108.164 294.342L105.37 293.731C105.194 293.693 105.04 293.586 104.943 293.434C104.846 293.283 104.813 293.099 104.851 292.923L105.605 289.475L109.716 290.374L108.962 293.821C108.924 293.995 108.819 294.148 108.67 294.245C108.521 294.343 108.339 294.377 108.164 294.342Z" fill="white"/>
<path d="M100.215 292.627L97.4204 292.017C97.2445 291.978 97.091 291.871 96.9938 291.72C96.8965 291.568 96.8635 291.384 96.9019 291.208L97.6549 287.761L101.776 288.661L101.023 292.108C100.985 292.284 100.878 292.438 100.726 292.535C100.575 292.632 100.391 292.665 100.215 292.627Z" fill="white"/>
<path d="M92.3205 290.896L89.5261 290.286C89.3502 290.247 89.1967 290.141 89.0995 289.989C89.0022 289.837 88.9692 289.653 89.0076 289.478L89.7606 286.03L93.8818 286.93L93.1288 290.378C93.0903 290.554 92.9836 290.707 92.832 290.804C92.6804 290.901 92.4964 290.935 92.3205 290.896Z" fill="white"/>
</g>
<path d="M149.799 246.158L97.842 234.81C95.8658 234.379 93.9138 235.631 93.4822 237.607L83.6978 282.407C83.2662 284.383 84.5184 286.335 86.4947 286.767L138.451 298.114C140.428 298.546 142.379 297.294 142.811 295.317L152.595 250.518C153.027 248.541 151.775 246.589 149.799 246.158Z" fill="#263238"/>
<path opacity="0.4" d="M91.4956 287.862L86.4748 286.772C86.0045 286.669 85.559 286.475 85.1637 286.2C84.7685 285.926 84.4313 285.576 84.1714 285.17C83.9115 284.765 83.734 284.313 83.649 283.839C83.5641 283.365 83.5734 282.879 83.6763 282.409L93.4607 237.665C93.5619 237.194 93.7552 236.747 94.0296 236.351C94.304 235.955 94.654 235.618 95.0595 235.358C95.465 235.097 95.9179 234.92 96.3922 234.836C96.8665 234.751 97.3527 234.762 97.823 234.866L102.844 235.957C101.904 235.747 100.92 235.917 100.105 236.43C99.2898 236.942 98.7101 237.756 98.4918 238.693L88.6971 283.5C88.5927 283.97 88.5824 284.456 88.6668 284.931C88.7511 285.405 88.9284 285.858 89.1886 286.263C89.4487 286.669 89.7864 287.019 90.1824 287.293C90.5783 287.568 91.0246 287.761 91.4956 287.862Z" fill="black"/>
<path d="M120.118 256.853L112.752 275.372L108.863 274.528L109.891 254.661L112.854 255.309L111.754 270.845L117.217 256.184L120.118 256.853Z" fill="#7158CD"/>
<path d="M119.871 269.272L118.235 268.911L118.451 267.883C118.853 267.984 119.274 267.982 119.675 267.878C120.076 267.773 120.444 267.57 120.746 267.286L121.775 267.512L119.717 277.039L118.277 276.731L119.871 269.272Z" fill="#7158CD"/>
<path d="M121.631 275.99L123.081 276.308L122.762 277.739L121.322 277.42L121.631 275.99Z" fill="#7158CD"/>
<path d="M124.728 275.876L124.789 275.598L126.209 275.763L126.137 276.072C125.973 276.833 126.23 277.214 126.765 277.327C126.882 277.357 127.004 277.362 127.123 277.339C127.242 277.317 127.355 277.269 127.453 277.198C127.552 277.128 127.633 277.036 127.692 276.93C127.751 276.824 127.785 276.707 127.794 276.586L128.277 274.384C128.323 274.279 128.343 274.164 128.337 274.05C128.331 273.935 128.298 273.823 128.241 273.723C128.184 273.624 128.105 273.538 128.009 273.475C127.914 273.411 127.805 273.37 127.691 273.355C127.569 273.324 127.443 273.318 127.319 273.339C127.195 273.36 127.077 273.407 126.973 273.477C126.869 273.547 126.781 273.639 126.715 273.746C126.649 273.852 126.606 273.972 126.59 274.096V274.261L125.201 273.952L126.394 268.51L130.51 269.405L130.211 270.773L127.475 270.176L126.96 272.543C127.16 272.353 127.404 272.218 127.671 272.149C127.937 272.081 128.217 272.082 128.483 272.152C128.729 272.2 128.962 272.3 129.166 272.446C129.371 272.592 129.541 272.78 129.666 272.998C129.791 273.215 129.867 273.457 129.891 273.707C129.914 273.957 129.883 274.209 129.8 274.446L129.275 276.843C129.208 277.142 129.082 277.424 128.905 277.674C128.729 277.924 128.504 278.137 128.245 278.3C127.987 278.464 127.698 278.574 127.396 278.626C127.095 278.678 126.786 278.67 126.487 278.603C126.188 278.535 125.906 278.409 125.656 278.233C125.406 278.056 125.193 277.832 125.03 277.573C124.866 277.314 124.756 277.025 124.704 276.724C124.652 276.422 124.66 276.113 124.728 275.814V275.876Z" fill="#7158CD"/>
<path d="M82.1388 280.716L82.7491 277.921C82.7875 277.745 82.8943 277.592 83.0459 277.495C83.1974 277.397 83.3814 277.364 83.5574 277.403L87.0151 278.158L86.1151 282.279L82.6674 281.526C82.5791 281.508 82.4953 281.473 82.4208 281.422C82.3463 281.372 82.2826 281.307 82.2334 281.232C82.1842 281.156 82.1505 281.072 82.1343 280.983C82.118 280.895 82.1196 280.804 82.1388 280.716Z" fill="#7158CD"/>
<path d="M83.8623 272.875L84.4731 270.081C84.5115 269.905 84.6183 269.751 84.7699 269.654C84.9215 269.557 85.1055 269.524 85.2814 269.562L88.729 270.316L87.8304 274.427L84.3829 273.673C84.2069 273.635 84.0535 273.528 83.9562 273.376C83.859 273.225 83.826 273.041 83.8645 272.865L83.8623 272.875Z" fill="#7158CD"/>
<path d="M85.5864 264.975L86.1972 262.18C86.2162 262.093 86.2522 262.011 86.3032 261.938C86.3541 261.864 86.4189 261.802 86.494 261.754C86.5691 261.706 86.6529 261.673 86.7407 261.657C86.8284 261.641 86.9185 261.643 87.0056 261.662L90.4531 262.416L89.5523 266.537L86.1048 265.783C86.0177 265.764 85.9352 265.728 85.862 265.677C85.7888 265.626 85.7263 265.561 85.6782 265.486C85.63 265.411 85.5972 265.327 85.5814 265.239C85.5657 265.152 85.5674 265.062 85.5864 264.975Z" fill="#7158CD"/>
<path d="M87.3082 257.094L87.9189 254.3C87.938 254.213 87.974 254.13 88.0249 254.057C88.0758 253.984 88.1407 253.921 88.2158 253.873C88.2908 253.825 88.3746 253.792 88.4624 253.776C88.5502 253.761 88.6402 253.762 88.7273 253.781L92.195 254.539L91.2964 258.65L87.8488 257.897C87.7603 257.88 87.6759 257.846 87.6007 257.797C87.5254 257.747 87.4607 257.683 87.4104 257.609C87.3601 257.534 87.3251 257.45 87.3076 257.361C87.29 257.273 87.2902 257.182 87.3082 257.094Z" fill="#7158CD"/>
<path d="M89.0384 249.149L89.6487 246.354C89.6872 246.178 89.7939 246.025 89.9455 245.928C90.0971 245.83 90.2811 245.797 90.457 245.836L93.9047 246.589L93.0046 250.71L89.557 249.957C89.381 249.918 89.2275 249.812 89.1303 249.66C89.033 249.509 89 249.325 89.0384 249.149Z" fill="#7158CD"/>
<path d="M90.7518 241.247L91.3621 238.453C91.4005 238.277 91.5073 238.123 91.6589 238.026C91.8104 237.929 91.9945 237.896 92.1704 237.934L95.6181 238.687L94.718 242.809L91.2703 242.056C91.0944 242.017 90.9409 241.91 90.8437 241.759C90.7464 241.607 90.7134 241.423 90.7518 241.247Z" fill="#7158CD"/>
<g opacity="0.4">
<path d="M82.1388 280.715L82.7491 277.921C82.7875 277.745 82.8943 277.591 83.0459 277.494C83.1974 277.397 83.3814 277.364 83.5574 277.402L87.0151 278.158L86.1151 282.279L82.6674 281.526C82.5791 281.508 82.4953 281.473 82.4208 281.422C82.3463 281.371 82.2826 281.307 82.2334 281.231C82.1842 281.156 82.1505 281.071 82.1343 280.983C82.118 280.894 82.1196 280.803 82.1388 280.715Z" fill="white"/>
<path d="M83.8623 272.875L84.4731 270.08C84.5115 269.904 84.6183 269.751 84.7699 269.654C84.9215 269.556 85.1055 269.523 85.2814 269.562L88.729 270.315L87.8304 274.426L84.3829 273.673C84.2069 273.634 84.0535 273.528 83.9562 273.376C83.859 273.224 83.826 273.04 83.8645 272.864L83.8623 272.875Z" fill="white"/>
<path d="M85.5864 264.974L86.1972 262.18C86.2162 262.093 86.2522 262.01 86.3032 261.937C86.3541 261.864 86.4189 261.802 86.494 261.753C86.5691 261.705 86.6529 261.672 86.7407 261.657C86.8284 261.641 86.9185 261.643 87.0056 261.662L90.4531 262.415L89.5523 266.536L86.1048 265.783C86.0177 265.764 85.9352 265.728 85.862 265.677C85.7888 265.626 85.7263 265.561 85.6782 265.486C85.63 265.411 85.5972 265.327 85.5814 265.239C85.5657 265.151 85.5674 265.061 85.5864 264.974Z" fill="white"/>
<path d="M87.3082 257.094L87.9189 254.3C87.938 254.213 87.974 254.13 88.0249 254.057C88.0758 253.984 88.1407 253.921 88.2158 253.873C88.2908 253.825 88.3746 253.792 88.4624 253.776C88.5502 253.761 88.6402 253.762 88.7273 253.781L92.195 254.539L91.2964 258.65L87.8488 257.897C87.7603 257.88 87.6759 257.846 87.6007 257.797C87.5254 257.747 87.4607 257.683 87.4104 257.609C87.3601 257.534 87.3251 257.45 87.3076 257.361C87.29 257.273 87.2902 257.182 87.3082 257.094Z" fill="white"/>
<path d="M89.0384 249.148L89.6487 246.354C89.6872 246.178 89.7939 246.025 89.9455 245.927C90.0971 245.83 90.2811 245.797 90.457 245.836L93.9047 246.588L93.0046 250.71L89.557 249.957C89.381 249.918 89.2275 249.811 89.1303 249.66C89.033 249.508 89 249.324 89.0384 249.148Z" fill="white"/>
<path d="M90.7518 241.247L91.3621 238.452C91.4005 238.276 91.5073 238.123 91.6589 238.026C91.8104 237.929 91.9945 237.895 92.1704 237.934L95.6181 238.687L94.718 242.808L91.2703 242.055C91.0944 242.017 90.9409 241.91 90.8437 241.758C90.7464 241.607 90.7134 241.423 90.7518 241.247Z" fill="white"/>
</g>
<path d="M154.77 292.842H73.1616V371.477H154.77V292.842Z" fill="#7158CD"/>
<path opacity="0.2" d="M86.8556 292.842H73.1616V371.477H86.8556V292.842Z" fill="black"/>
<path d="M86.8556 292.842L79.3759 283.675C78.8271 283.008 78.1377 282.47 77.3569 282.1C76.5761 281.73 75.7232 281.537 74.8592 281.535H68.8404C68.4081 281.534 67.9842 281.655 67.6181 281.885C67.252 282.115 66.9587 282.444 66.7723 282.834C66.5859 283.224 66.514 283.659 66.565 284.088C66.6161 284.518 66.7879 284.924 67.0605 285.259L73.1616 292.842H86.8556Z" fill="#7158CD"/>
<path d="M281.627 150.017C276.267 152.671 265.073 157.373 254.558 156.622C251.982 156.464 249.445 155.909 247.037 154.976C243.591 153.608 241.399 150.13 240.093 145.521C235.329 128.864 241.996 97.4221 241.996 97.4221C251.688 99.0065 261.05 136.796 264.713 138.864C268.376 140.932 283.963 140.212 283.963 140.212L284.477 144.832C284.594 145.884 284.383 146.947 283.873 147.875C283.362 148.803 282.578 149.551 281.627 150.017Z" fill="#7158CD"/>
<path opacity="0.3" d="M254.558 156.622C251.981 156.464 249.444 155.909 247.037 154.976C243.591 153.608 241.399 150.13 240.093 145.521C240.463 143.031 240.905 141.272 240.905 141.272L258.725 136.128C258.725 136.128 259.466 149.019 254.558 156.622Z" fill="black"/>
<path d="M240.586 363.576L249.198 364.481L250.813 345.91L242.212 345.005L240.586 363.576Z" fill="#B97964"/>
<path d="M197.632 362.937H205.976L206.665 343.615H198.311L197.632 362.937Z" fill="#B97964"/>
<path d="M207.139 361.98H197.004C196.838 361.98 196.677 362.036 196.546 362.139C196.416 362.241 196.323 362.385 196.284 362.546L194.648 369.975C194.614 370.133 194.611 370.296 194.64 370.455C194.668 370.615 194.729 370.767 194.817 370.903C194.905 371.038 195.019 371.156 195.152 371.247C195.286 371.338 195.436 371.403 195.595 371.436C195.684 371.446 195.773 371.446 195.862 371.436C199.144 371.384 201.531 371.178 205.647 371.178C208.188 371.178 215.832 371.446 219.341 371.446C222.849 371.446 223.291 367.989 221.861 367.67C215.431 366.26 210.595 364.326 208.538 362.474C208.149 362.141 207.65 361.965 207.139 361.98Z" fill="#263238"/>
<path d="M207.704 363.184C207.667 363.174 207.633 363.153 207.607 363.124C207.582 363.095 207.565 363.058 207.56 363.02C207.55 362.981 207.553 362.94 207.57 362.904C207.587 362.869 207.617 362.84 207.653 362.824C207.951 362.629 210.647 360.982 211.573 361.456C211.676 361.507 211.762 361.587 211.822 361.685C211.882 361.783 211.913 361.896 211.912 362.011C211.934 362.204 211.906 362.4 211.832 362.579C211.759 362.759 211.641 362.918 211.491 363.04C211.022 363.358 210.46 363.507 209.896 363.462C209.157 363.452 208.422 363.358 207.704 363.184ZM208.281 362.906C209.255 363.231 210.315 363.18 211.254 362.762C211.352 362.674 211.426 362.563 211.471 362.44C211.516 362.316 211.53 362.183 211.511 362.052C211.511 361.888 211.439 361.816 211.388 361.816C211.309 361.772 211.219 361.754 211.13 361.764C210.121 361.947 209.154 362.317 208.281 362.855V362.906Z" fill="#7158CD"/>
<path d="M207.653 363.185C207.624 363.166 207.6 363.14 207.584 363.109C207.568 363.078 207.56 363.044 207.56 363.01C207.56 362.886 207.766 360.489 208.733 359.707C208.846 359.604 208.98 359.528 209.126 359.483C209.272 359.439 209.426 359.427 209.577 359.45C209.728 359.449 209.874 359.502 209.99 359.597C210.107 359.693 210.186 359.827 210.215 359.975C210.379 360.849 208.713 362.691 207.859 363.154H207.756C207.726 363.175 207.69 363.185 207.653 363.185ZM208.99 359.944C208.391 360.686 208.032 361.595 207.962 362.547C208.826 361.898 209.886 360.489 209.772 359.975C209.772 359.923 209.772 359.769 209.495 359.769H209.392C209.243 359.776 209.101 359.834 208.99 359.933V359.944Z" fill="#7158CD"/>
<path d="M250.114 361.713H239.98C239.813 361.714 239.652 361.772 239.523 361.876C239.394 361.981 239.305 362.127 239.27 362.289L237.623 369.718C237.589 369.875 237.586 370.038 237.615 370.197C237.644 370.355 237.704 370.506 237.792 370.641C237.881 370.777 237.995 370.893 238.128 370.983C238.262 371.074 238.412 371.137 238.57 371.168H238.838C242.12 371.117 244.506 370.911 248.622 370.911C251.163 370.911 258.818 371.179 262.316 371.179C265.814 371.179 266.277 367.722 264.837 367.403C258.406 366.003 253.519 364.059 251.462 362.207C251.086 361.886 250.608 361.711 250.114 361.713Z" fill="#263238"/>
<path d="M250.679 362.865C250.642 362.855 250.608 362.834 250.582 362.805C250.557 362.776 250.54 362.739 250.535 362.701C250.531 362.663 250.538 362.624 250.554 362.59C250.57 362.555 250.596 362.526 250.628 362.505C250.926 362.32 253.622 360.663 254.548 361.137C254.653 361.185 254.741 361.264 254.802 361.363C254.862 361.462 254.892 361.576 254.887 361.692C254.908 361.884 254.881 362.079 254.81 362.258C254.738 362.437 254.623 362.596 254.476 362.721C254.005 363.042 253.439 363.191 252.871 363.143C252.132 363.133 251.397 363.039 250.679 362.865ZM251.256 362.587C252.23 362.912 253.291 362.861 254.229 362.443C254.327 362.355 254.402 362.244 254.448 362.121C254.495 361.997 254.511 361.864 254.497 361.733C254.497 361.569 254.425 361.497 254.363 361.497C254.288 361.454 254.202 361.436 254.116 361.445C253.099 361.643 252.129 362.03 251.256 362.587Z" fill="#7158CD"/>
<path d="M250.628 362.906C250.598 362.888 250.574 362.862 250.558 362.832C250.542 362.801 250.534 362.766 250.535 362.732C250.535 362.618 250.751 360.211 251.719 359.429C251.83 359.328 251.963 359.252 252.107 359.208C252.251 359.163 252.403 359.151 252.552 359.172C252.703 359.171 252.849 359.224 252.965 359.319C253.082 359.415 253.161 359.548 253.19 359.696C253.354 360.571 251.688 362.413 250.834 362.876H250.741C250.707 362.897 250.668 362.907 250.628 362.906ZM251.965 359.666C251.365 360.412 251.007 361.324 250.937 362.279C251.801 361.631 252.861 360.221 252.758 359.696C252.758 359.645 252.758 359.491 252.47 359.491H252.377C252.224 359.501 252.079 359.562 251.965 359.666Z" fill="#7158CD"/>
<path opacity="0.2" d="M242.212 345.005L250.813 345.91L249.98 355.489L241.368 354.584L242.212 345.005Z" fill="black"/>
<path opacity="0.2" d="M198.311 343.626H206.665L206.305 353.596H197.951L198.311 343.626Z" fill="black"/>
<path d="M201.758 174.123H245.998C250.206 197.108 263.386 278.459 253.931 350.941L238.94 349.079C238.94 349.079 240.329 252.861 227.088 217.283C225.565 236.317 223.765 256.575 222.191 267.357C218.384 293.891 210.133 351.867 210.133 351.867H194.875C194.875 351.867 197.961 296.371 199.443 270.3C201.017 241.986 201.655 179.936 201.758 174.123Z" fill="#263238"/>
<path opacity="0.2" d="M227.139 217.283C229.317 223.52 230.968 229.928 232.078 236.44C233.323 219.495 228.364 201.531 228.364 201.531L227.139 217.283Z" fill="black"/>
<path d="M255.68 354.439L237.13 351.671L237.696 346.537L256.997 349.068L255.68 354.439Z" fill="#7158CD"/>
<path opacity="0.6" d="M255.68 354.439L237.13 351.671L237.696 346.537L256.997 349.068L255.68 354.439Z" fill="white"/>
<path d="M211.974 351.99H193.969V346.61L212.653 346.26L211.974 351.99Z" fill="#7158CD"/>
<path opacity="0.6" d="M211.974 351.99H193.969V346.61L212.653 346.26L211.974 351.99Z" fill="white"/>
<path d="M200.821 190.688V195.472L249.867 193.075V188.753L200.821 190.688Z" fill="#7158CD"/>
<path d="M279.642 143.011C279.642 143.011 279.364 145.295 283.026 147.291H287.708C288.647 147.859 289.702 148.211 290.794 148.32C292.019 148.268 297.883 143.937 298.943 143.001C300.002 142.064 297.111 131.591 297.111 131.591L279.642 143.011Z" fill="#B97964"/>
<path d="M241.996 97.4222C241.996 97.4222 213.826 96.0538 192.848 101.352C192.848 101.352 199.628 162.055 199.669 189.998C199.668 190.287 199.724 190.572 199.837 190.838C199.949 191.104 200.114 191.344 200.322 191.545C200.529 191.745 200.776 191.9 201.046 192.002C201.315 192.105 201.603 192.151 201.891 192.138L249.219 190.492C249.5 190.481 249.776 190.415 250.032 190.298C250.287 190.181 250.517 190.014 250.708 189.807C250.899 189.601 251.048 189.359 251.145 189.095C251.243 188.831 251.287 188.551 251.276 188.27C250.854 176.736 248.519 121.857 241.996 97.4222Z" fill="#7158CD"/>
<path opacity="0.2" d="M251.276 188.28C251.287 188.561 251.243 188.841 251.145 189.105C251.048 189.369 250.899 189.611 250.708 189.817C250.517 190.024 250.287 190.191 250.031 190.308C249.776 190.425 249.5 190.491 249.219 190.502L201.891 192.148C201.603 192.161 201.315 192.115 201.046 192.012C200.776 191.91 200.529 191.755 200.322 191.555C200.114 191.354 199.949 191.114 199.837 190.848C199.724 190.582 199.667 190.297 199.669 190.008C199.669 184.329 199.371 177.281 198.918 169.668C198.702 166.231 198.465 162.682 198.198 159.081C197.899 154.863 197.56 150.583 197.169 146.364C196.366 136.734 195.492 127.403 194.731 119.758C193.64 108.842 192.807 101.362 192.807 101.362C213.785 96.0638 241.955 97.4322 241.955 97.4322C248.519 121.857 250.854 176.736 251.276 188.28Z" fill="black"/>
<path d="M208.857 98.5126C212.972 102.206 222.88 100.838 222.88 100.838C222.88 100.838 229.053 99.1299 227.788 97.1956C224.125 96.5886 222.355 94.8807 221.614 92.6893C221.217 91.3348 221.092 89.9153 221.244 88.5121C221.306 87.7405 221.419 86.9483 221.553 86.1767L209.206 77.061C210.914 83.0798 212.838 94.1502 208.857 98.5126Z" fill="#B97964"/>
<path opacity="0.2" d="M212.098 82.8533C212.592 90.2404 218.662 92.2775 221.625 92.6891C221.228 91.3346 221.102 89.9151 221.254 88.5119L212.098 82.8533Z" fill="black"/>
<path d="M233.343 59.5092C233.343 59.5092 235.092 71.0014 228.991 75.4255C222.89 79.8496 222.89 58.4495 222.89 58.4495L233.343 59.5092Z" fill="#263238"/>
<path d="M211.275 84.5612C212.553 86.4562 214.418 87.8786 216.584 88.6092C218.75 89.3399 221.096 89.3382 223.261 88.6045C226.079 87.7131 228.452 85.7817 229.897 83.2031C230.1 82.8457 230.286 82.4783 230.452 82.1022C233.446 75.0752 234.403 62.7907 226.975 58.1814C225.339 57.1568 223.468 56.5675 221.541 56.4696C219.613 56.3718 217.692 56.7685 215.961 57.6222C214.23 58.4759 212.746 59.7582 211.65 61.3471C210.555 62.936 209.883 64.7788 209.7 66.7003C208.774 74.9208 207.828 79.705 211.275 84.5612Z" fill="#B97964"/>
<path d="M221.666 71.0937C221.512 71.7419 221.81 72.3489 222.242 72.4209C222.674 72.4929 223.127 72.0196 223.271 71.392C223.415 70.7644 223.117 70.1266 222.685 70.0545C222.252 69.9825 221.789 70.4249 221.666 71.0937Z" fill="#263238"/>
<path d="M229.166 72.3696C229.002 73.0281 229.31 73.6351 229.742 73.7071C230.175 73.7791 230.617 73.2956 230.771 72.6783C230.926 72.0609 230.617 71.4128 230.185 71.3407C229.753 71.2687 229.269 71.742 229.166 72.3696Z" fill="#263238"/>
<path d="M226.728 72.2974C227.176 74.4446 227.913 76.5212 228.919 78.4705C228.408 78.7151 227.85 78.8463 227.284 78.8552C226.717 78.8641 226.156 78.7504 225.637 78.5219L226.728 72.2974Z" fill="#A24E3F"/>
<path d="M219.752 68.2645C219.82 68.2905 219.894 68.2965 219.965 68.282C220.036 68.2674 220.101 68.2328 220.154 68.1822C220.507 67.8351 220.937 67.5745 221.408 67.421C221.879 67.2675 222.379 67.2252 222.87 67.2974C222.919 67.3113 222.971 67.3151 223.021 67.3085C223.072 67.302 223.121 67.2852 223.165 67.2593C223.21 67.2333 223.248 67.1987 223.279 67.1576C223.309 67.1164 223.331 67.0695 223.343 67.0196C223.357 66.9689 223.36 66.916 223.353 66.8639C223.346 66.8119 223.329 66.7618 223.302 66.7166C223.275 66.6715 223.239 66.6323 223.197 66.6012C223.154 66.5702 223.106 66.548 223.055 66.5361C222.442 66.4226 221.81 66.4567 221.212 66.6356C220.615 66.8145 220.069 67.133 219.619 67.5649C219.582 67.6013 219.553 67.6445 219.533 67.6922C219.513 67.7399 219.503 67.7911 219.503 67.8427C219.503 67.8944 219.513 67.9455 219.533 67.9932C219.553 68.0409 219.582 68.0841 219.619 68.1205C219.651 68.1786 219.697 68.228 219.752 68.2645Z" fill="#263238"/>
<path d="M223.97 81.8139C222.997 81.793 222.042 81.5392 221.187 81.0738C220.331 80.6084 219.599 79.945 219.053 79.1389C219.026 79.0896 219.02 79.032 219.036 78.9783C219.051 78.9246 219.087 78.8789 219.135 78.8508C219.18 78.8234 219.234 78.8144 219.286 78.8259C219.338 78.8374 219.383 78.8685 219.413 78.9126C219.931 79.6493 220.613 80.2552 221.406 80.6821C222.199 81.1089 223.081 81.345 223.981 81.3715C224.035 81.3715 224.088 81.3932 224.126 81.4318C224.165 81.4704 224.187 81.5227 224.187 81.5773C224.187 81.6319 224.165 81.6842 224.126 81.7228C224.088 81.7614 224.035 81.7831 223.981 81.7831L223.97 81.8139Z" fill="#263238"/>
<path d="M232.829 70.3426C232.902 70.3685 232.982 70.3685 233.055 70.3426C233.155 70.3139 233.239 70.2469 233.289 70.1562C233.339 70.0655 233.351 69.9587 233.323 69.8591C233.159 69.2538 232.854 68.6962 232.431 68.2328C232.009 67.7693 231.482 67.4133 230.895 67.1944C230.795 67.165 230.688 67.1754 230.596 67.2234C230.504 67.2713 230.434 67.3531 230.401 67.4516C230.375 67.5511 230.388 67.6568 230.438 67.7467C230.488 67.8367 230.57 67.9042 230.668 67.9351C231.128 68.1208 231.538 68.4107 231.867 68.7821C232.196 69.1535 232.433 69.5961 232.561 70.0751C232.579 70.1392 232.613 70.1975 232.66 70.2445C232.707 70.2914 232.765 70.3252 232.829 70.3426Z" fill="#263238"/>
<path d="M217.406 57.6161V61.2891C216.759 61.5025 216.216 61.9534 215.888 62.551C215.56 63.1485 215.47 63.8483 215.637 64.5094C216.429 67.6988 214.124 72.2052 211.521 73.769C211.521 73.769 211.614 72.4418 210.493 72.6167C209.371 72.7916 208.816 79.6952 210.585 83.2344C210.585 83.2344 207.663 79.8701 206.696 72.4418C205.791 65.5691 206.254 59.9927 207.941 57.5852L217.406 57.6161Z" fill="#263238"/>
<path d="M204.988 72.771C205.581 74.7681 206.938 76.4505 208.764 77.4522C211.192 78.7589 213.013 76.732 212.88 74.1188C212.705 71.8038 211.264 68.2543 208.579 68.0588C205.894 67.8633 204.299 70.312 204.988 72.771Z" fill="#B97964"/>
<path d="M217.406 61.2374C217.406 61.2374 219.783 63.5935 222.098 61.865C222.098 61.865 224.722 64.0461 226.851 62.5029C227.19 63.0604 227.638 63.5437 228.169 63.9238C228.699 64.3039 229.301 64.573 229.938 64.7149C230.183 64.7537 230.435 64.737 230.673 64.6661C230.911 64.5951 231.131 64.4718 231.315 64.3051C231.5 64.1384 231.644 63.9325 231.739 63.7026C231.834 63.4726 231.876 63.2244 231.862 62.9761C231.862 62.9761 234.897 64.7149 235.977 63.9021C237.057 63.0893 235.36 59.7867 235.36 59.7867C235.36 59.7867 236.79 59.0254 235.874 56.4018C234.959 53.7782 230.73 54.3441 230.73 54.3441C230.73 54.3441 230.895 51.9057 227.942 49.3645C227.632 49.0133 227.242 48.7434 226.804 48.5786C226.366 48.4137 225.894 48.3588 225.43 48.4187C224.966 48.4786 224.523 48.6515 224.141 48.9223C223.76 49.193 223.45 49.5533 223.24 49.9715C223.24 49.9715 220.38 46.103 216.83 46.6174C213.281 47.1318 213.744 49.5599 213.744 49.5599C213.744 49.5599 209.628 47.0187 207.838 49.5599C206.048 52.1012 207.838 53.3255 207.838 53.3255C207.838 53.3255 203.723 54.6939 203.97 57.4409C204.217 60.188 206.264 59.8073 206.264 59.8073C206.264 59.8073 205.091 61.1345 207.735 62.256C210.379 63.3774 212.88 60.6201 212.88 60.6201C212.739 60.8464 212.649 61.1009 212.618 61.3655C212.586 61.6302 212.613 61.8986 212.696 62.1517C212.78 62.4049 212.918 62.6367 213.1 62.8307C213.283 63.0247 213.506 63.1762 213.754 63.2745C215.637 64.4577 217.406 61.2374 217.406 61.2374Z" fill="#263238"/>
<path d="M222.89 100.828C222.89 100.828 208.486 91.0639 203.949 90.5392C199.412 90.0145 200.194 95.6834 200.194 95.6834C200.194 95.6834 196.665 95.6834 198.023 100.025C199.381 104.367 218.888 106.764 226.09 104.614C233.292 102.464 237.582 98.4408 236.379 94.6134C235.175 90.7861 231.852 94.0681 231.852 94.0681C231.852 94.0681 229.917 90.4775 227.129 91.3108C224.341 92.1442 222.89 100.828 222.89 100.828Z" fill="#7158CD"/>
<path d="M221.779 127.979C221.679 127.978 221.581 127.948 221.497 127.894C221.413 127.839 221.347 127.761 221.306 127.67C219.701 123.966 220.37 120.108 221.018 116.353C221.738 112.237 222.407 108.441 220.318 104.84C220.276 104.782 220.246 104.715 220.231 104.645C220.216 104.574 220.216 104.502 220.231 104.431C220.246 104.361 220.275 104.294 220.317 104.236C220.359 104.178 220.413 104.129 220.476 104.093C220.538 104.056 220.607 104.034 220.678 104.026C220.75 104.018 220.822 104.025 220.891 104.047C220.96 104.069 221.023 104.105 221.076 104.153C221.13 104.201 221.173 104.26 221.203 104.326C223.487 108.256 222.746 112.453 222.036 116.528C221.378 120.273 220.761 123.812 222.252 127.228C222.305 127.353 222.306 127.495 222.256 127.621C222.206 127.748 222.109 127.85 221.985 127.907C221.92 127.94 221.851 127.964 221.779 127.979Z" fill="white"/>
<path d="M231.81 125.839C231.746 125.848 231.68 125.848 231.615 125.839C231.49 125.786 231.39 125.687 231.336 125.562C231.282 125.438 231.279 125.297 231.327 125.17C231.327 125.108 233.827 118.801 232.181 112.659C231.355 109.188 229.539 106.032 226.954 103.574C226.848 103.488 226.78 103.364 226.765 103.228C226.751 103.092 226.791 102.955 226.877 102.849C226.963 102.743 227.088 102.675 227.224 102.66C227.36 102.646 227.496 102.686 227.602 102.772C230.365 105.36 232.301 108.707 233.168 112.392C234.907 118.873 232.397 125.283 232.284 125.551C232.243 125.64 232.176 125.716 232.091 125.767C232.007 125.819 231.909 125.843 231.81 125.839Z" fill="white"/>
<path d="M248.549 94.0991L251.34 93.4737C251.516 93.4344 251.7 93.4664 251.852 93.5628C252.004 93.6592 252.112 93.8121 252.151 93.9879L252.923 97.4314L248.817 98.3515L248.045 94.908C248.006 94.734 248.037 94.5516 248.132 94.4003C248.226 94.2489 248.376 94.1408 248.549 94.0991Z" fill="#7158CD"/>
<path d="M256.379 92.3376L259.17 91.7122C259.345 91.6729 259.529 91.7049 259.682 91.8013C259.834 91.8977 259.941 92.0506 259.981 92.2264L260.752 95.6699L256.686 96.581L255.906 93.0973C255.879 92.9349 255.912 92.7683 255.999 92.6285C256.086 92.4888 256.221 92.3854 256.379 92.3376Z" fill="#7158CD"/>
<path d="M264.258 90.575L267.049 89.9496C267.136 89.9301 267.226 89.9279 267.314 89.9432C267.402 89.9585 267.486 89.9909 267.561 90.0386C267.636 90.0864 267.702 90.1485 267.753 90.2214C267.804 90.2944 267.841 90.3767 267.86 90.4637L268.632 93.9073L264.526 94.8274L263.754 91.3838C263.715 91.2098 263.746 91.0274 263.84 90.8761C263.935 90.7248 264.085 90.6166 264.258 90.575Z" fill="#7158CD"/>
<path d="M272.15 88.8098L274.941 88.1844C275.028 88.1649 275.118 88.1628 275.206 88.1781C275.294 88.1933 275.378 88.2258 275.453 88.2735C275.528 88.3213 275.594 88.3834 275.645 88.4563C275.696 88.5292 275.733 88.6116 275.752 88.6986L276.515 92.102L272.409 93.0221L271.637 89.5785C271.61 89.4093 271.647 89.236 271.743 89.0934C271.838 88.9508 271.983 88.8495 272.15 88.8098Z" fill="#7158CD"/>
<path d="M280.029 87.0369L282.82 86.4115C282.996 86.3721 283.18 86.4042 283.332 86.5006C283.484 86.597 283.592 86.7499 283.631 86.9256L284.403 90.3692L280.297 91.2893L279.525 87.8457C279.506 87.7587 279.504 87.6687 279.519 87.5809C279.534 87.493 279.567 87.409 279.614 87.3337C279.662 87.2584 279.724 87.1932 279.797 87.1419C279.87 87.0906 279.952 87.0541 280.039 87.0346L280.029 87.0369Z" fill="#7158CD"/>
<path d="M287.919 85.2739L290.67 84.6575C290.846 84.6181 291.03 84.6502 291.182 84.7466C291.334 84.843 291.442 84.9959 291.481 85.1716L292.253 88.6152L288.177 89.5285L287.405 86.085C287.366 85.9092 287.398 85.7251 287.494 85.573C287.591 85.4208 287.743 85.3133 287.919 85.2739Z" fill="#7158CD"/>
<path d="M303.558 141.923L300.767 142.548C300.592 142.588 300.407 142.556 300.255 142.459C300.103 142.363 299.996 142.21 299.956 142.034L299.185 138.591L303.291 137.671L304.062 141.114C304.102 141.29 304.07 141.474 303.973 141.626C303.877 141.778 303.724 141.886 303.548 141.925L303.558 141.923Z" fill="#7158CD"/>
<path d="M295.676 143.69L292.855 144.322C292.679 144.361 292.495 144.329 292.343 144.233C292.191 144.136 292.083 143.984 292.044 143.808L291.281 140.404L295.387 139.484L296.152 142.898C296.187 143.065 296.158 143.24 296.07 143.387C295.981 143.534 295.841 143.642 295.676 143.69Z" fill="#7158CD"/>
<path d="M287.796 145.466L285.005 146.091C284.829 146.13 284.645 146.098 284.493 146.002C284.341 145.905 284.233 145.753 284.194 145.577L283.422 142.133L287.528 141.213L288.3 144.657C288.339 144.832 288.307 145.017 288.211 145.169C288.114 145.321 287.961 145.428 287.786 145.468L287.796 145.466Z" fill="#7158CD"/>
<path d="M279.913 147.232L277.122 147.857C276.946 147.897 276.762 147.865 276.61 147.768C276.458 147.672 276.35 147.519 276.311 147.343L275.539 143.899L279.646 142.979L280.426 146.463C280.466 146.639 280.434 146.823 280.337 146.975C280.241 147.127 280.088 147.235 279.912 147.274L279.913 147.232Z" fill="#7158CD"/>
<path d="M272.031 148.996L269.22 149.626C269.044 149.665 268.86 149.633 268.707 149.537C268.555 149.44 268.448 149.287 268.408 149.112L267.637 145.668L271.743 144.748L272.515 148.192C272.553 148.362 272.524 148.541 272.434 148.691C272.344 148.841 272.199 148.95 272.031 148.996Z" fill="#7158CD"/>
<path d="M264.148 150.762L261.357 151.387C261.181 151.427 260.997 151.395 260.845 151.298C260.693 151.202 260.585 151.049 260.546 150.873L259.774 147.43L263.88 146.51L264.652 149.953C264.691 150.127 264.66 150.309 264.566 150.461C264.471 150.612 264.321 150.72 264.148 150.762Z" fill="#7158CD"/>
<g opacity="0.4">
<path d="M248.549 94.0991L251.34 93.4737C251.516 93.4344 251.7 93.4664 251.852 93.5628C252.004 93.6592 252.112 93.8121 252.151 93.9879L252.923 97.4314L248.817 98.3515L248.045 94.908C248.006 94.734 248.037 94.5516 248.132 94.4003C248.226 94.2489 248.376 94.1408 248.549 94.0991Z" fill="black"/>
<path d="M256.379 92.3371L259.17 91.7117C259.345 91.6724 259.529 91.7044 259.682 91.8008C259.834 91.8972 259.941 92.0501 259.981 92.2259L260.752 95.6694L256.686 96.5805L255.906 93.0968C255.879 92.9344 255.912 92.7678 255.999 92.628C256.086 92.4883 256.221 92.3849 256.379 92.3371Z" fill="black"/>
<path d="M264.258 90.575L267.049 89.9496C267.136 89.9301 267.226 89.9279 267.314 89.9432C267.402 89.9585 267.486 89.9909 267.561 90.0386C267.636 90.0864 267.702 90.1485 267.753 90.2214C267.804 90.2944 267.841 90.3767 267.86 90.4637L268.632 93.9073L264.526 94.8274L263.754 91.3838C263.715 91.2098 263.746 91.0274 263.84 90.8761C263.935 90.7248 264.085 90.6166 264.258 90.575Z" fill="black"/>
<path d="M272.15 88.8093L274.941 88.1839C275.028 88.1644 275.118 88.1623 275.206 88.1776C275.294 88.1929 275.378 88.2253 275.453 88.273C275.528 88.3208 275.593 88.3829 275.645 88.4558C275.696 88.5287 275.732 88.6111 275.752 88.6981L276.515 92.1015L272.408 93.0216L271.637 89.578C271.61 89.4088 271.647 89.2355 271.742 89.0929C271.838 88.9503 271.983 88.849 272.15 88.8093Z" fill="black"/>
<path d="M280.029 87.0369L282.82 86.4115C282.996 86.3721 283.18 86.4042 283.332 86.5006C283.484 86.597 283.592 86.7499 283.631 86.9256L284.403 90.3692L280.297 91.2893L279.525 87.8457C279.506 87.7587 279.504 87.6687 279.519 87.5809C279.534 87.493 279.567 87.409 279.614 87.3337C279.662 87.2584 279.724 87.1932 279.797 87.1419C279.87 87.0906 279.952 87.0541 280.039 87.0346L280.029 87.0369Z" fill="black"/>
<path d="M287.919 85.2739L290.67 84.6575C290.846 84.6181 291.03 84.6502 291.182 84.7466C291.334 84.843 291.442 84.9959 291.481 85.1716L292.253 88.6152L288.177 89.5285L287.405 86.085C287.366 85.9092 287.398 85.7251 287.494 85.573C287.591 85.4208 287.743 85.3133 287.919 85.2739Z" fill="black"/>
<path d="M303.558 141.923L300.767 142.548C300.592 142.588 300.407 142.556 300.255 142.459C300.103 142.363 299.996 142.21 299.956 142.034L299.185 138.591L303.291 137.671L304.062 141.114C304.102 141.29 304.07 141.474 303.973 141.626C303.877 141.778 303.724 141.886 303.548 141.925L303.558 141.923Z" fill="black"/>
<path d="M295.676 143.689L292.855 144.321C292.679 144.361 292.495 144.329 292.343 144.232C292.191 144.136 292.083 143.983 292.044 143.807L291.281 140.404L295.387 139.484L296.152 142.897C296.187 143.065 296.158 143.24 296.07 143.387C295.981 143.534 295.841 143.642 295.676 143.689Z" fill="black"/>
<path d="M287.796 145.466L285.005 146.091C284.829 146.13 284.645 146.098 284.493 146.002C284.341 145.905 284.233 145.753 284.194 145.577L283.422 142.133L287.528 141.213L288.3 144.657C288.339 144.832 288.307 145.017 288.211 145.169C288.114 145.321 287.961 145.428 287.786 145.468L287.796 145.466Z" fill="black"/>
<path d="M279.913 147.232L277.122 147.857C276.946 147.897 276.762 147.865 276.61 147.768C276.458 147.672 276.35 147.519 276.311 147.343L275.539 143.899L279.646 142.979L280.426 146.463C280.466 146.639 280.434 146.823 280.337 146.975C280.241 147.127 280.088 147.235 279.912 147.274L279.913 147.232Z" fill="black"/>
<path d="M272.03 148.996L269.219 149.626C269.044 149.665 268.859 149.633 268.707 149.537C268.555 149.44 268.448 149.287 268.408 149.112L267.637 145.668L271.743 144.748L272.514 148.192C272.553 148.362 272.524 148.541 272.434 148.691C272.344 148.841 272.199 148.95 272.03 148.996Z" fill="black"/>
<path d="M264.148 150.762L261.357 151.387C261.181 151.427 260.997 151.395 260.845 151.298C260.693 151.202 260.585 151.049 260.546 150.873L259.774 147.43L263.88 146.51L264.652 149.953C264.691 150.127 264.66 150.309 264.566 150.461C264.471 150.612 264.321 150.72 264.148 150.762Z" fill="black"/>
</g>
<path d="M297.323 86.0154L245.429 97.6437C243.455 98.086 242.214 100.045 242.656 102.019L252.682 146.765C253.125 148.739 255.083 149.98 257.057 149.538L308.952 137.91C310.926 137.468 312.167 135.509 311.725 133.535L301.698 88.7886C301.256 86.8147 299.297 85.5731 297.323 86.0154Z" fill="#263238"/>
<path opacity="0.4" d="M262.09 148.391L257.069 149.523C256.599 149.628 256.114 149.639 255.64 149.556C255.166 149.473 254.713 149.298 254.307 149.04C253.901 148.782 253.55 148.446 253.273 148.053C252.997 147.659 252.801 147.215 252.696 146.745L242.665 102C242.56 101.531 242.549 101.045 242.632 100.572C242.715 100.098 242.89 99.6448 243.148 99.2387C243.406 98.8327 243.741 98.4814 244.135 98.205C244.529 97.9286 244.973 97.7325 245.443 97.6278L250.463 96.4961C249.514 96.7098 248.689 97.2914 248.168 98.1131C247.647 98.9348 247.474 99.9295 247.686 100.879L257.717 145.624C257.821 146.093 258.018 146.537 258.294 146.93C258.571 147.324 258.922 147.658 259.328 147.915C259.735 148.173 260.188 148.347 260.662 148.429C261.135 148.51 261.621 148.498 262.09 148.391Z" fill="black"/>
<path d="M274.96 108.205L276.071 128.072L272.193 128.936L264.723 110.499L267.676 109.83L273.242 124.388L272.059 108.853L274.96 108.205Z" fill="white"/>
<path d="M281.535 125.623L284.395 124.985L284.704 126.343L280.125 127.372L279.847 126.117L281.205 122.29C281.633 121.398 281.784 120.398 281.638 119.419C281.483 118.75 281.092 118.452 280.526 118.576C279.961 118.699 279.745 119.141 279.889 119.81L280.022 120.366L278.633 120.674L278.53 120.232C278.413 119.923 278.366 119.591 278.391 119.262C278.417 118.932 278.515 118.612 278.678 118.324C278.841 118.037 279.065 117.788 279.335 117.597C279.604 117.406 279.913 117.276 280.238 117.217C280.546 117.123 280.871 117.098 281.19 117.143C281.508 117.188 281.813 117.302 282.083 117.478C282.353 117.653 282.581 117.886 282.751 118.159C282.921 118.432 283.029 118.74 283.068 119.059C283.275 120.314 283.096 121.602 282.553 122.753L281.535 125.623Z" fill="white"/>
<path d="M285.712 124.614L287.152 124.295L287.471 125.726L286.031 126.044L285.712 124.614Z" fill="white"/>
<path d="M288.51 123.226L287.348 118.02C287.28 117.717 287.273 117.403 287.327 117.097C287.38 116.791 287.494 116.498 287.66 116.236C287.827 115.974 288.044 115.747 288.298 115.568C288.553 115.39 288.84 115.263 289.143 115.196C289.446 115.128 289.76 115.121 290.066 115.175C290.372 115.228 290.665 115.342 290.927 115.509C291.189 115.675 291.416 115.892 291.594 116.146C291.773 116.401 291.9 116.688 291.967 116.991L293.13 122.135C293.266 122.748 293.154 123.39 292.817 123.919C292.48 124.449 291.947 124.823 291.334 124.96C290.722 125.096 290.08 124.983 289.55 124.647C289.021 124.31 288.647 123.777 288.51 123.164V123.226ZM291.689 122.506L290.527 117.361C290.511 117.238 290.47 117.119 290.405 117.012C290.341 116.905 290.255 116.813 290.153 116.741C290.051 116.67 289.935 116.62 289.812 116.596C289.69 116.572 289.564 116.574 289.442 116.601C289.321 116.628 289.206 116.681 289.106 116.755C289.006 116.829 288.922 116.924 288.861 117.032C288.799 117.14 288.761 117.261 288.748 117.385C288.736 117.509 288.749 117.634 288.788 117.752L289.951 122.897C289.966 123.02 290.008 123.139 290.072 123.246C290.137 123.353 290.223 123.445 290.325 123.517C290.427 123.588 290.543 123.638 290.665 123.662C290.787 123.686 290.913 123.684 291.035 123.657C291.157 123.63 291.271 123.577 291.371 123.503C291.472 123.429 291.555 123.335 291.617 123.226C291.678 123.118 291.717 122.998 291.729 122.874C291.742 122.75 291.728 122.624 291.689 122.506Z" fill="white"/>
<path d="M250.616 145.895L249.99 143.104C249.951 142.928 249.983 142.744 250.079 142.592C250.176 142.44 250.329 142.332 250.504 142.293L253.918 141.528L254.838 145.634L251.425 146.399C251.251 146.438 251.068 146.407 250.917 146.313C250.766 146.219 250.657 146.068 250.616 145.895Z" fill="#7158CD"/>
<path d="M248.845 138.008L248.22 135.217C248.181 135.041 248.213 134.857 248.309 134.705C248.406 134.552 248.558 134.445 248.734 134.405L252.178 133.634L253.1 137.75L249.657 138.522C249.481 138.561 249.297 138.529 249.144 138.433C248.992 138.336 248.885 138.183 248.845 138.008Z" fill="#7158CD"/>
<path d="M247.088 130.12L246.462 127.329C246.423 127.153 246.455 126.969 246.551 126.817C246.648 126.665 246.801 126.557 246.976 126.518L250.42 125.746L251.34 129.852L247.897 130.624C247.722 130.663 247.54 130.632 247.389 130.537C247.237 130.443 247.129 130.293 247.088 130.12Z" fill="#7158CD"/>
<path d="M245.36 122.233L244.734 119.442C244.695 119.266 244.727 119.082 244.823 118.93C244.92 118.778 245.073 118.67 245.248 118.631L248.602 117.879L249.522 121.985L246.078 122.757C245.915 122.771 245.753 122.725 245.621 122.629C245.489 122.533 245.396 122.392 245.36 122.233Z" fill="#7158CD"/>
<path d="M243.551 114.365L242.926 111.574C242.886 111.398 242.919 111.214 243.015 111.062C243.111 110.909 243.264 110.802 243.44 110.762L246.884 109.991L247.804 114.097L244.4 114.86C244.312 114.885 244.219 114.892 244.128 114.881C244.037 114.87 243.949 114.84 243.87 114.794C243.79 114.748 243.721 114.686 243.666 114.612C243.612 114.538 243.573 114.454 243.551 114.365Z" fill="#7158CD"/>
<path d="M241.781 106.469L241.156 103.678C241.116 103.502 241.149 103.318 241.245 103.166C241.341 103.014 241.494 102.906 241.67 102.867L245.114 102.095L246.034 106.201L242.59 106.973C242.416 107.012 242.234 106.981 242.082 106.887C241.931 106.792 241.823 106.642 241.781 106.469Z" fill="#7158CD"/>
<g opacity="0.4">
<path d="M250.616 145.895L249.99 143.104C249.951 142.928 249.983 142.744 250.079 142.592C250.176 142.44 250.329 142.332 250.504 142.293L253.918 141.528L254.838 145.634L251.425 146.399C251.251 146.438 251.068 146.407 250.917 146.313C250.766 146.218 250.657 146.068 250.616 145.895Z" fill="black"/>
<path d="M248.845 138.007L248.22 135.216C248.181 135.041 248.213 134.856 248.309 134.704C248.406 134.552 248.558 134.445 248.734 134.405L252.178 133.634L253.1 137.75L249.657 138.521C249.481 138.561 249.297 138.529 249.144 138.432C248.992 138.336 248.885 138.183 248.845 138.007Z" fill="black"/>
<path d="M247.088 130.119L246.462 127.328C246.423 127.153 246.455 126.968 246.551 126.816C246.648 126.664 246.801 126.557 246.976 126.517L250.42 125.746L251.34 129.852L247.897 130.623C247.722 130.663 247.54 130.631 247.389 130.537C247.237 130.443 247.129 130.293 247.088 130.119Z" fill="black"/>
<path d="M245.36 122.232L244.734 119.441C244.695 119.266 244.727 119.082 244.823 118.929C244.92 118.777 245.073 118.67 245.248 118.63L248.602 117.879L249.522 121.985L246.078 122.757C245.915 122.77 245.753 122.725 245.621 122.629C245.489 122.532 245.396 122.392 245.36 122.232Z" fill="black"/>
<path d="M243.551 114.364L242.926 111.573C242.886 111.397 242.919 111.213 243.015 111.061C243.111 110.909 243.264 110.801 243.44 110.762L246.884 109.99L247.804 114.096L244.4 114.859C244.312 114.884 244.219 114.892 244.128 114.88C244.037 114.869 243.949 114.839 243.87 114.793C243.79 114.747 243.721 114.685 243.666 114.611C243.612 114.537 243.573 114.453 243.551 114.364Z" fill="black"/>
<path d="M241.781 106.468L241.156 103.677C241.116 103.502 241.149 103.317 241.245 103.165C241.341 103.013 241.494 102.906 241.67 102.866L245.114 102.095L246.034 106.201L242.59 106.972C242.416 107.011 242.234 106.98 242.082 106.886C241.931 106.792 241.823 106.642 241.781 106.468Z" fill="black"/>
</g>
<path d="M217.406 161.807L219.464 162.908C219.464 162.908 217.252 178.783 212.077 182.24L209.958 179.802C209.958 179.802 217.304 170.265 217.406 161.807Z" fill="#7158CD"/>
<path d="M243.498 160.501L240.906 161.838C240.906 161.838 245.71 177.189 248.807 180.646L250.566 178.207C250.566 178.207 244.671 168.402 243.498 160.501Z" fill="#7158CD"/>
<path opacity="0.2" d="M217.149 152.393C217.149 152.393 210.513 165.851 198.918 169.657C198.702 166.221 198.465 162.672 198.198 159.071C197.899 154.852 197.56 150.572 197.169 146.354L217.149 152.393Z" fill="black"/>
<path d="M226.09 141.982L239.465 137.485C239.465 137.485 251.472 126.785 254.116 126.837C256.76 126.888 259.003 133.607 260.217 136.158C261.431 138.71 248.899 143.864 247.027 144.945C245.154 146.025 242.572 144.945 242.572 144.945L228.909 150.912L226.09 141.982Z" fill="#B97964"/>
<path d="M192.848 101.352C180.388 103.009 186.839 149.955 194.905 159.174C201.614 166.88 226.09 155.562 234.002 151.632C234.686 151.285 235.223 150.703 235.516 149.994C235.809 149.284 235.837 148.493 235.597 147.764L233.292 140.85C233.03 140.09 232.492 139.457 231.785 139.076C231.078 138.695 230.253 138.593 229.475 138.792C222.839 140.49 206.84 144.276 204.885 142.002C202.426 139.132 199.175 125.026 199.741 116.065C200.307 107.104 192.848 101.352 192.848 101.352Z" fill="#7158CD"/>
<path d="M231.286 138.864L235.576 149.605L239.414 147.28L235.699 137.825L231.286 138.864Z" fill="#7158CD"/>
<path opacity="0.3" d="M231.286 138.864L235.576 149.605L239.414 147.28L235.699 137.825L231.286 138.864Z" fill="black"/>
<path d="M438.722 14.4039V310.713C438.722 311.287 438.608 311.855 438.387 312.385C438.165 312.914 437.841 313.395 437.432 313.798C437.023 314.201 436.538 314.518 436.006 314.732C435.473 314.946 434.903 315.052 434.329 315.044H296.463C295.953 315.053 295.445 314.959 294.972 314.768C294.498 314.577 294.068 314.293 293.706 313.933C293.327 313.559 293.027 313.111 292.826 312.618C292.624 312.124 292.525 311.595 292.533 311.063V14.013C292.514 13.5532 292.585 13.0941 292.744 12.6622C292.903 12.2304 293.146 11.8342 293.459 11.4966C293.772 11.159 294.148 10.8866 294.567 10.6952C294.985 10.5037 295.437 10.397 295.897 10.3811H335.055C335.603 10.391 336.135 10.5636 336.583 10.8769C337.032 11.1902 337.378 11.6301 337.576 12.1404L339.191 16.1324C339.392 16.6389 339.739 17.0744 340.188 17.3838C340.637 17.6933 341.167 17.8629 341.712 17.8711H389.625C390.168 17.8695 390.697 17.7061 391.146 17.4018C391.595 17.0976 391.944 16.6664 392.146 16.1632L393.761 12.1507C393.959 11.6392 394.304 11.198 394.753 10.8829C395.202 10.5678 395.734 10.3932 396.282 10.3811H434.874C435.917 10.4081 436.906 10.8461 437.627 11.5997C438.348 12.3533 438.742 13.3613 438.722 14.4039Z" fill="#DFCDF9"/>
<path d="M444.895 14.4039V310.713C444.895 311.287 444.781 311.855 444.56 312.385C444.338 312.914 444.014 313.395 443.605 313.798C443.196 314.201 442.711 314.518 442.179 314.732C441.646 314.946 441.076 315.052 440.502 315.044H302.636C302.126 315.053 301.618 314.959 301.145 314.768C300.671 314.577 300.241 314.293 299.879 313.933C299.5 313.559 299.201 313.111 298.999 312.618C298.797 312.124 298.698 311.595 298.706 311.063V14.013C298.687 13.5532 298.759 13.0941 298.918 12.6622C299.076 12.2304 299.319 11.8342 299.632 11.4966C299.945 11.159 300.321 10.8866 300.74 10.6952C301.158 10.5037 301.61 10.397 302.07 10.3811H341.228C341.776 10.391 342.308 10.5636 342.757 10.8769C343.205 11.1902 343.551 11.6301 343.749 12.1404L345.364 16.1324C345.566 16.6389 345.912 17.0744 346.361 17.3838C346.81 17.6933 347.34 17.8629 347.885 17.8711H395.799C396.341 17.8695 396.871 17.7061 397.32 17.4018C397.769 17.0976 398.117 16.6664 398.319 16.1632L399.935 12.1507C400.132 11.6392 400.477 11.198 400.926 10.8829C401.375 10.5678 401.907 10.3932 402.455 10.3811H441.047C442.09 10.4081 443.079 10.8461 443.8 11.5997C444.521 12.3533 444.915 13.3613 444.895 14.4039Z" fill="#DFCDF9"/>
<path opacity="0.4" d="M444.895 14.4039V310.713C444.895 311.287 444.781 311.855 444.56 312.385C444.338 312.914 444.014 313.395 443.605 313.798C443.196 314.201 442.711 314.518 442.179 314.732C441.646 314.946 441.076 315.052 440.502 315.044H302.636C302.126 315.053 301.618 314.959 301.145 314.768C300.671 314.577 300.241 314.293 299.879 313.933C299.5 313.559 299.201 313.111 298.999 312.618C298.797 312.124 298.698 311.595 298.706 311.063V14.013C298.687 13.5532 298.759 13.0941 298.918 12.6622C299.076 12.2304 299.319 11.8342 299.632 11.4966C299.945 11.159 300.321 10.8866 300.74 10.6952C301.158 10.5037 301.61 10.397 302.07 10.3811H341.228C341.776 10.391 342.308 10.5636 342.757 10.8769C343.205 11.1902 343.551 11.6301 343.749 12.1404L345.364 16.1324C345.566 16.6389 345.912 17.0744 346.361 17.3838C346.81 17.6933 347.34 17.8629 347.885 17.8711H395.799C396.341 17.8695 396.871 17.7061 397.32 17.4018C397.769 17.0976 398.117 16.6664 398.319 16.1632L399.935 12.1507C400.132 11.6392 400.477 11.198 400.926 10.8829C401.375 10.5678 401.907 10.3932 402.455 10.3811H441.047C442.09 10.4081 443.079 10.8461 443.8 11.5997C444.521 12.3533 444.915 13.3613 444.895 14.4039Z" fill="#7158CD"/>
<path opacity="0.6" d="M316.865 22.3052H318.902V19.589H316.865V22.3052Z" fill="#7158CD"/>
<path opacity="0.6" d="M313.552 22.3052H315.589V18.6836H313.552V22.3052Z" fill="#7158CD"/>
<path opacity="0.6" d="M310.229 22.3157H312.266V17.7887H310.229V22.3157Z" fill="#7158CD"/>
<path opacity="0.6" d="M306.916 22.3157H308.953V16.8833H306.916V22.3157Z" fill="#7158CD"/>
<path opacity="0.6" d="M426.222 18.6013H425.018V21.3175H426.222V18.6013Z" fill="#7158CD"/>
<path opacity="0.6" d="M427.055 22.3157H436.675V17.6138H427.055V22.3157Z" fill="#7158CD"/>
<path d="M325.436 236.265H418.156C419.544 236.265 420.876 236.817 421.859 237.799C422.841 238.781 423.392 240.113 423.392 241.502C423.392 242.891 422.841 244.223 421.859 245.205C420.876 246.187 419.544 246.739 418.156 246.739H325.436C324.047 246.739 322.715 246.187 321.733 245.205C320.75 244.223 320.199 242.891 320.199 241.502C320.199 240.113 320.75 238.781 321.733 237.799C322.715 236.817 324.047 236.265 325.436 236.265Z" fill="#DFCDF9"/>
<path opacity="0.3" d="M325.436 236.265H418.156C419.544 236.265 420.876 236.817 421.859 237.799C422.841 238.781 423.392 240.113 423.392 241.502C423.392 242.891 422.841 244.223 421.859 245.205C420.876 246.187 419.544 246.739 418.156 246.739H325.436C324.047 246.739 322.715 246.187 321.733 245.205C320.75 244.223 320.199 242.891 320.199 241.502C320.199 240.113 320.75 238.781 321.733 237.799C322.715 236.817 324.047 236.265 325.436 236.265Z" fill="black"/>
<path d="M355.406 237.201C355.988 237.172 356.569 237.262 357.115 237.465C357.661 237.668 358.16 237.98 358.582 238.382C359.004 238.784 359.339 239.267 359.569 239.802C359.798 240.338 359.917 240.914 359.917 241.496C359.917 242.079 359.798 242.655 359.569 243.191C359.339 243.726 359.004 244.209 358.582 244.611C358.16 245.013 357.661 245.324 357.115 245.527C356.569 245.73 355.988 245.82 355.406 245.792H325.435C324.854 245.82 324.272 245.73 323.726 245.527C323.18 245.324 322.681 245.013 322.259 244.611C321.838 244.209 321.502 243.726 321.272 243.191C321.043 242.655 320.925 242.079 320.925 241.496C320.925 240.914 321.043 240.338 321.272 239.802C321.502 239.267 321.838 238.784 322.259 238.382C322.681 237.98 323.18 237.668 323.726 237.465C324.272 237.262 324.854 237.172 325.435 237.201H355.406Z" fill="#DFCDF9"/>
<path d="M347.072 80.4764C346.648 80.4823 346.227 80.4024 345.835 80.2415C345.442 80.0806 345.086 79.842 344.788 79.5401C344.483 79.2443 344.243 78.8888 344.082 78.4958C343.921 78.1028 343.842 77.6807 343.852 77.2561V66.803H345.848V77.2355C345.845 77.3887 345.873 77.5409 345.932 77.6826C345.99 77.8242 346.077 77.9522 346.187 78.0586C346.297 78.1677 346.427 78.254 346.57 78.3123C346.713 78.3706 346.866 78.3997 347.021 78.3981C347.174 78.4007 347.326 78.3719 347.467 78.3135C347.609 78.2552 347.737 78.1684 347.844 78.0586C347.954 77.9522 348.041 77.8242 348.1 77.6826C348.158 77.5409 348.187 77.3887 348.183 77.2355V66.803H350.313V77.2561C350.323 77.6832 350.243 78.1077 350.081 78.5026C349.918 78.8975 349.674 79.2543 349.367 79.5504C349.065 79.8503 348.707 80.0867 348.313 80.2458C347.919 80.4048 347.497 80.4832 347.072 80.4764Z" fill="#DFCDF9"/>
<path d="M355.344 66.8027C355.782 66.7815 356.22 66.8541 356.628 67.0155C357.036 67.177 357.405 67.4236 357.71 67.7389C358.27 68.3691 358.565 69.191 358.534 70.0332V72.0189C358.541 72.4448 358.462 72.8677 358.301 73.2621C358.14 73.6564 357.9 74.0141 357.597 74.3133C357.306 74.6161 356.956 74.8563 356.568 75.019C356.181 75.1818 355.764 75.2637 355.344 75.2598H354.161V80.3526H352.103V66.8027H355.344ZM356.558 70.0641C356.569 69.9078 356.546 69.7511 356.491 69.6043C356.437 69.4574 356.352 69.3237 356.242 69.212C356.132 69.1003 356 69.013 355.854 68.956C355.708 68.8989 355.552 68.8733 355.396 68.8809H354.161V73.2124H355.396C355.55 73.2149 355.702 73.1851 355.844 73.1248C355.986 73.0646 356.114 72.9752 356.219 72.8626C356.328 72.7558 356.415 72.6277 356.474 72.4862C356.532 72.3446 356.561 72.1926 356.558 72.0395V70.0641Z" fill="#DFCDF9"/>
<path d="M363.184 80.497C362.759 80.4983 362.338 80.4158 361.945 80.254C361.551 80.0923 361.194 79.8545 360.893 79.5544C360.592 79.2543 360.353 78.8977 360.19 78.5051C360.027 78.1124 359.943 77.6915 359.943 77.2664V69.8895C359.943 69.4653 360.027 69.0452 360.189 68.6532C360.351 68.2613 360.589 67.9051 360.889 67.6052C361.189 67.3052 361.545 67.0672 361.937 66.9048C362.329 66.7425 362.749 66.6589 363.174 66.6589C363.598 66.6589 364.018 66.7425 364.41 66.9048C364.802 67.0672 365.158 67.3052 365.458 67.6052C365.758 67.9051 365.996 68.2613 366.158 68.6532C366.321 69.0452 366.404 69.4653 366.404 69.8895V71.4328H364.295V69.8484C364.299 69.6926 364.27 69.5378 364.21 69.3941C364.149 69.2505 364.059 69.1212 363.945 69.015C363.781 68.8529 363.572 68.743 363.345 68.6991C363.118 68.6552 362.884 68.6792 362.67 68.7683C362.457 68.8573 362.275 69.0073 362.147 69.1994C362.018 69.3916 361.95 69.6173 361.949 69.8484V77.2458C361.946 77.399 361.975 77.5512 362.033 77.6928C362.092 77.8345 362.179 77.9625 362.289 78.0689C362.397 78.1795 362.527 78.2666 362.67 78.325C362.814 78.3834 362.968 78.4118 363.122 78.4084C363.429 78.4117 363.725 78.2933 363.945 78.0792C364.059 77.9729 364.149 77.8437 364.21 77.7C364.27 77.5564 364.299 77.4016 364.295 77.2458V74.5914H363.184V72.5337H366.425V77.2561C366.434 77.6832 366.355 78.1077 366.192 78.5026C366.029 78.8975 365.786 79.2543 365.478 79.5504C365.18 79.8559 364.823 80.0974 364.429 80.2602C364.034 80.4229 363.611 80.5035 363.184 80.497Z" fill="#DFCDF9"/>
<path d="M371.415 66.803C371.875 66.7619 372.338 66.8248 372.771 66.9868C373.204 67.1488 373.595 67.406 373.915 67.7392C374.419 68.3934 374.668 69.2091 374.614 70.0336V72.0192C374.622 72.4792 374.528 72.935 374.339 73.3546C374.151 73.7742 373.872 74.1473 373.524 74.4473L375.036 80.3529H372.835L371.6 75.2601H370.242V80.3529H368.184V66.803H371.415ZM372.629 70.0644C372.648 69.9039 372.629 69.7411 372.573 69.5894C372.517 69.4376 372.427 69.301 372.309 69.1908C372.19 69.0806 372.048 68.9998 371.892 68.9549C371.737 68.9101 371.573 68.9025 371.415 68.9327H370.19V73.2641H371.415C371.569 73.268 371.722 73.2387 371.864 73.1784C372.006 73.1181 372.133 73.028 372.238 72.9143C372.348 72.8076 372.434 72.6795 372.493 72.5379C372.551 72.3964 372.58 72.2444 372.577 72.0913L372.629 70.0644Z" fill="#DFCDF9"/>
<path d="M379.265 77.2153L378.771 80.3018H376.652L378.946 66.7827H381.755L384.018 80.3018H381.878L381.395 77.2153H379.265ZM380.294 69.9001L379.543 75.2296H381.055L380.294 69.9001Z" fill="#DFCDF9"/>
<path d="M392.146 77.0809C392.151 77.5074 392.07 77.9306 391.908 78.3249C391.745 78.7192 391.504 79.0765 391.2 79.3752C390.907 79.6793 390.555 79.9203 390.166 80.0831C389.777 80.2459 389.358 80.3271 388.936 80.3218H385.736V66.7924H388.905C389.329 66.7856 389.749 66.8662 390.141 67.029C390.532 67.1919 390.885 67.4335 391.179 67.7389C391.479 68.038 391.717 68.3941 391.878 68.7864C392.039 69.1786 392.119 69.5991 392.115 70.023L392.146 77.0809ZM387.773 78.3052H388.998C389.152 78.3091 389.305 78.2798 389.447 78.2195C389.589 78.1592 389.717 78.0691 389.821 77.9554C389.929 77.8473 390.014 77.7189 390.073 77.5777C390.131 77.4364 390.161 77.2851 390.16 77.1323V70.0538C390.162 69.8998 390.133 69.747 390.075 69.6042C390.017 69.4614 389.932 69.3313 389.824 69.2215C389.716 69.1116 389.588 69.0241 389.446 68.9639C389.304 68.9037 389.152 68.872 388.998 68.8707H387.773V78.3052Z" fill="#DFCDF9"/>
<path d="M393.936 80.3224V66.793H399.739V68.8507H395.973V72.5442H398.72V74.6019H395.973V78.2955H399.739V80.3532L393.936 80.3224Z" fill="#DFCDF9"/>
<g opacity="0.1">
<path d="M364.46 17.8707L322.38 175.521L321.907 177.291L321.146 180.131L320.672 181.9L298.696 264.208V164.616L339.85 10.3704H341.198C341.745 10.3803 342.277 10.5529 342.726 10.8662C343.175 11.1795 343.52 11.6193 343.719 12.1297L345.334 16.1216C345.535 16.6281 345.882 17.0636 346.331 17.3731C346.779 17.6826 347.31 17.8521 347.855 17.8604L364.46 17.8707Z" fill="#7158CD"/>
<path d="M444.895 98.3882V198.022L418.639 296.349L418.001 298.736L413.68 314.961H387.084L391.405 298.747L392.105 296.133L395.582 283.108L396.272 280.505L397.671 275.299L398.36 272.696L399.749 267.48L400.438 264.877L422.322 182.919V182.908L423.341 179.122V179.112L444.895 98.3882Z" fill="#7158CD"/>
<path d="M378.874 17.8704L337.051 174.544L336.804 175.48L334.51 184.061L334.263 184.997L299.868 313.85C299.489 313.475 299.19 313.028 298.989 312.535C298.787 312.041 298.687 311.512 298.696 310.98V295.825L328.285 184.997L328.532 184.061L330.816 175.48L331.073 174.544L372.896 17.8704H378.874Z" fill="#7158CD"/>
</g>
<path d="M416.941 155.685C416.95 166.061 413.386 176.122 406.848 184.179C400.311 192.236 391.199 197.796 381.045 199.926C374.937 201.191 368.634 201.191 362.526 199.926C354.173 198.18 346.485 194.103 340.354 188.167C334.224 182.231 329.9 174.68 327.885 166.387C325.87 158.095 326.246 149.402 328.97 141.314C331.693 133.227 336.652 126.077 343.272 120.692C349.893 115.308 357.903 111.91 366.376 110.891C374.848 109.873 383.436 111.276 391.144 114.938C398.851 118.601 405.364 124.372 409.926 131.583C414.488 138.795 416.913 147.152 416.921 155.685H416.941Z" fill="#DFCDF9"/>
<path opacity="0.6" d="M394.975 151.93H382.732C382.282 151.93 381.85 152.109 381.532 152.427C381.213 152.745 381.035 153.177 381.035 153.628V199.926C374.926 201.191 368.623 201.191 362.515 199.926V153.628C362.515 153.404 362.471 153.182 362.385 152.975C362.299 152.769 362.173 152.581 362.014 152.423C361.856 152.266 361.667 152.141 361.46 152.056C361.253 151.971 361.031 151.929 360.807 151.93H348.605C348.268 151.928 347.94 151.827 347.66 151.64C347.381 151.452 347.163 151.186 347.035 150.875C346.906 150.563 346.872 150.221 346.937 149.891C347.003 149.561 347.164 149.257 347.401 149.018L370.592 125.838C370.749 125.68 370.937 125.554 371.144 125.468C371.35 125.382 371.572 125.338 371.795 125.338C372.019 125.338 372.241 125.382 372.447 125.468C372.654 125.554 372.841 125.68 372.999 125.838L396.179 149.018C396.416 149.257 396.578 149.561 396.643 149.891C396.708 150.221 396.675 150.563 396.546 150.875C396.417 151.186 396.2 151.452 395.92 151.64C395.641 151.827 395.312 151.928 394.975 151.93Z" fill="#7158CD"/>
</svg>
