<svg width="212" height="101" viewBox="0 0 212 101" fill="none" xmlns="http://www.w3.org/2000/svg">
<g filter="url(#filter0_d_4201_888)">
<rect x="3" y="2" width="206" height="95" rx="10" fill="white" fill-opacity="0.8" shape-rendering="crispEdges"/>
<rect x="8" y="12.5" width="24" height="24" rx="12" fill="#DFC8FD"/>
<path d="M24.3475 20.3828L13.3801 21.7979C13.2941 21.809 13.2132 21.8447 13.1472 21.9008C13.0811 21.9568 13.0326 22.0308 13.0076 22.1138C12.9845 22.1942 12.9842 22.2795 13.0069 22.3601C13.0295 22.4407 13.0742 22.5134 13.1359 22.57L17.2639 25.9173L18.5272 30.6109C18.55 30.6775 18.5881 30.7379 18.6384 30.7871C18.6887 30.8364 18.7498 30.8732 18.8169 30.8945C18.884 30.9159 18.9551 30.9212 19.0245 30.91C19.094 30.8989 19.1598 30.8716 19.2168 30.8303C19.2749 30.7907 19.3229 30.7379 19.3569 30.6763L24.7949 21.0474C24.8349 20.975 24.8541 20.8929 24.8504 20.8101C24.8468 20.7274 24.8203 20.6473 24.7741 20.5786C24.7278 20.5099 24.6635 20.4552 24.5883 20.4207C24.513 20.3862 24.4297 20.3731 24.3475 20.3828Z" fill="#8D4AFA"/>
<path d="M46.599 31V19.561H42.18V18.04H52.62V19.561H48.201V31H46.599ZM53.2465 31V21.28H54.6775V23.629L54.4435 23.323C54.5575 23.023 54.7045 22.747 54.8845 22.495C55.0705 22.243 55.2775 22.036 55.5055 21.874C55.7575 21.67 56.0425 21.514 56.3605 21.406C56.6785 21.298 57.0025 21.235 57.3325 21.217C57.6625 21.193 57.9715 21.214 58.2595 21.28V22.783C57.9235 22.693 57.5545 22.669 57.1525 22.711C56.7505 22.753 56.3785 22.9 56.0365 23.152C55.7245 23.374 55.4815 23.644 55.3075 23.962C55.1395 24.28 55.0225 24.625 54.9565 24.997C54.8905 25.363 54.8575 25.738 54.8575 26.122V31H53.2465ZM62.4979 31.27C61.7719 31.27 61.1629 31.138 60.6709 30.874C60.1849 30.604 59.8159 30.25 59.5639 29.812C59.3179 29.374 59.1949 28.894 59.1949 28.372C59.1949 27.862 59.2909 27.421 59.4829 27.049C59.6809 26.671 59.9569 26.359 60.3109 26.113C60.6649 25.861 61.0879 25.663 61.5799 25.519C62.0419 25.393 62.5579 25.285 63.1279 25.195C63.7039 25.099 64.2859 25.012 64.8739 24.934C65.4619 24.856 66.0109 24.781 66.5209 24.709L65.9449 25.042C65.9629 24.178 65.7889 23.539 65.4229 23.125C65.0629 22.711 64.4389 22.504 63.5509 22.504C62.9629 22.504 62.4469 22.639 62.0029 22.909C61.5649 23.173 61.2559 23.605 61.0759 24.205L59.5549 23.746C59.7889 22.894 60.2419 22.225 60.9139 21.739C61.5859 21.253 62.4709 21.01 63.5689 21.01C64.4509 21.01 65.2069 21.169 65.8369 21.487C66.4729 21.799 66.9289 22.273 67.2049 22.909C67.3429 23.209 67.4299 23.536 67.4659 23.89C67.5019 24.238 67.5199 24.604 67.5199 24.988V31H66.0979V28.669L66.4309 28.885C66.0649 29.671 65.5519 30.265 64.8919 30.667C64.2379 31.069 63.4399 31.27 62.4979 31.27ZM62.7409 29.929C63.3169 29.929 63.8149 29.827 64.2349 29.623C64.6609 29.413 65.0029 29.14 65.2609 28.804C65.5189 28.462 65.6869 28.09 65.7649 27.688C65.8549 27.388 65.9029 27.055 65.9089 26.689C65.9209 26.317 65.9269 26.032 65.9269 25.834L66.4849 26.077C65.9629 26.149 65.4499 26.218 64.9459 26.284C64.4419 26.35 63.9649 26.422 63.5149 26.5C63.0649 26.572 62.6599 26.659 62.2999 26.761C62.0359 26.845 61.7869 26.953 61.5529 27.085C61.3249 27.217 61.1389 27.388 60.9949 27.598C60.8569 27.802 60.7879 28.057 60.7879 28.363C60.7879 28.627 60.8539 28.879 60.9859 29.119C61.1239 29.359 61.3339 29.554 61.6159 29.704C61.9039 29.854 62.2789 29.929 62.7409 29.929ZM74.0449 31.27C73.0609 31.27 72.2239 31.051 71.5339 30.613C70.8499 30.169 70.3279 29.56 69.9679 28.786C69.6079 28.012 69.4219 27.13 69.4099 26.14C69.4219 25.126 69.6109 24.235 69.9769 23.467C70.3489 22.693 70.8799 22.09 71.5699 21.658C72.2599 21.226 73.0909 21.01 74.0629 21.01C75.0889 21.01 75.9709 21.262 76.7089 21.766C77.4529 22.27 77.9509 22.96 78.2029 23.836L76.6189 24.313C76.4149 23.749 76.0819 23.311 75.6199 22.999C75.1639 22.687 74.6389 22.531 74.0449 22.531C73.3789 22.531 72.8299 22.687 72.3979 22.999C71.9659 23.305 71.6449 23.731 71.4349 24.277C71.2249 24.817 71.1169 25.438 71.1109 26.14C71.1229 27.22 71.3719 28.093 71.8579 28.759C72.3499 29.419 73.0789 29.749 74.0449 29.749C74.6809 29.749 75.2089 29.605 75.6289 29.317C76.0489 29.023 76.3669 28.6 76.5829 28.048L78.2029 28.471C77.8669 29.377 77.3419 30.07 76.6279 30.55C75.9139 31.03 75.0529 31.27 74.0449 31.27ZM80.1208 31L80.1298 18.04H81.7498V25.96L85.8268 21.28H87.9058L83.6128 26.14L88.4098 31H86.1688L81.7498 26.32V31H80.1208ZM93.0891 31V18.04H97.0851C97.2171 18.04 97.4481 18.043 97.7781 18.049C98.1081 18.055 98.4231 18.079 98.7231 18.121C99.7251 18.253 100.562 18.619 101.234 19.219C101.912 19.813 102.422 20.569 102.764 21.487C103.106 22.405 103.277 23.416 103.277 24.52C103.277 25.624 103.106 26.635 102.764 27.553C102.422 28.471 101.912 29.23 101.234 29.83C100.562 30.424 99.7251 30.787 98.7231 30.919C98.4231 30.955 98.1051 30.979 97.7691 30.991C97.4391 30.997 97.2111 31 97.0851 31H93.0891ZM94.7361 29.47H97.0851C97.3131 29.47 97.5681 29.464 97.8501 29.452C98.1321 29.434 98.3781 29.407 98.5881 29.371C99.2961 29.239 99.8691 28.942 100.307 28.48C100.745 28.018 101.066 27.442 101.27 26.752C101.474 26.062 101.576 25.318 101.576 24.52C101.576 23.704 101.471 22.951 101.261 22.261C101.057 21.571 100.736 20.998 100.298 20.542C99.8601 20.086 99.2901 19.795 98.5881 19.669C98.3781 19.627 98.1291 19.6 97.8411 19.588C97.5531 19.576 97.3011 19.57 97.0851 19.57H94.7361V29.47ZM109.643 31.27C108.689 31.27 107.855 31.06 107.141 30.64C106.433 30.214 105.881 29.623 105.485 28.867C105.089 28.105 104.891 27.217 104.891 26.203C104.891 25.141 105.086 24.223 105.476 23.449C105.866 22.669 106.409 22.069 107.105 21.649C107.807 21.223 108.629 21.01 109.571 21.01C110.549 21.01 111.38 21.235 112.064 21.685C112.754 22.135 113.27 22.777 113.612 23.611C113.96 24.445 114.11 25.438 114.062 26.59H112.442V26.014C112.424 24.82 112.181 23.929 111.713 23.341C111.245 22.747 110.549 22.45 109.625 22.45C108.635 22.45 107.882 22.768 107.366 23.404C106.85 24.04 106.592 24.952 106.592 26.14C106.592 27.286 106.85 28.174 107.366 28.804C107.882 29.434 108.617 29.749 109.571 29.749C110.213 29.749 110.771 29.602 111.245 29.308C111.719 29.014 112.091 28.591 112.361 28.039L113.9 28.57C113.522 29.428 112.952 30.094 112.19 30.568C111.434 31.036 110.585 31.27 109.643 31.27ZM106.052 26.59V25.303H113.234V26.59H106.052ZM116.336 31V17.77H117.938V31H116.336ZM120.908 19.561V17.905H122.51V19.561H120.908ZM120.908 31V21.28H122.51V31H120.908ZM127.929 31L124.401 21.28H126.021L128.748 28.957L131.466 21.28H133.095L129.567 31H127.929ZM138.673 31.27C137.719 31.27 136.885 31.06 136.171 30.64C135.463 30.214 134.911 29.623 134.515 28.867C134.119 28.105 133.921 27.217 133.921 26.203C133.921 25.141 134.116 24.223 134.506 23.449C134.896 22.669 135.439 22.069 136.135 21.649C136.837 21.223 137.659 21.01 138.601 21.01C139.579 21.01 140.41 21.235 141.094 21.685C141.784 22.135 142.3 22.777 142.642 23.611C142.99 24.445 143.14 25.438 143.092 26.59H141.472V26.014C141.454 24.82 141.211 23.929 140.743 23.341C140.275 22.747 139.579 22.45 138.655 22.45C137.665 22.45 136.912 22.768 136.396 23.404C135.88 24.04 135.622 24.952 135.622 26.14C135.622 27.286 135.88 28.174 136.396 28.804C136.912 29.434 137.647 29.749 138.601 29.749C139.243 29.749 139.801 29.602 140.275 29.308C140.749 29.014 141.121 28.591 141.391 28.039L142.93 28.57C142.552 29.428 141.982 30.094 141.22 30.568C140.464 31.036 139.615 31.27 138.673 31.27ZM135.082 26.59V25.303H142.264V26.59H135.082ZM145.186 31V21.28H146.617V23.629L146.383 23.323C146.497 23.023 146.644 22.747 146.824 22.495C147.01 22.243 147.217 22.036 147.445 21.874C147.697 21.67 147.982 21.514 148.3 21.406C148.618 21.298 148.942 21.235 149.272 21.217C149.602 21.193 149.911 21.214 150.199 21.28V22.783C149.863 22.693 149.494 22.669 149.092 22.711C148.69 22.753 148.318 22.9 147.976 23.152C147.664 23.374 147.421 23.644 147.247 23.962C147.079 24.28 146.962 24.625 146.896 24.997C146.83 25.363 146.797 25.738 146.797 26.122V31H145.186ZM153.165 35.32L155.046 30.208L155.073 31.72L150.825 21.28H152.508L155.838 29.677H155.262L158.385 21.28H160.014L154.722 35.32H153.165Z" fill="black"/>
<path fill-rule="evenodd" clip-rule="evenodd" d="M12.843 47.973C12.9408 47.9852 13.0352 48.0166 13.1209 48.0652C13.2066 48.1139 13.2818 48.179 13.3423 48.2568C13.4028 48.3346 13.4474 48.4235 13.4735 48.5185C13.4996 48.6135 13.5068 48.7128 13.4945 48.8105L13.3185 50.2175H15.3065L15.506 48.6245C15.5307 48.4272 15.6327 48.2477 15.7897 48.1255C15.9468 48.0034 16.1459 47.9486 16.3433 47.9733C16.5406 47.998 16.7201 48.1 16.8423 48.257C16.9644 48.4141 17.0192 48.6132 16.9945 48.8105L16.8185 50.2175H18C18.1989 50.2175 18.3897 50.2966 18.5303 50.4372C18.671 50.5779 18.75 50.7686 18.75 50.9675C18.75 51.1665 18.671 51.3572 18.5303 51.4979C18.3897 51.6385 18.1989 51.7175 18 51.7175H16.631L16.381 53.7175H17.75C17.9489 53.7175 18.1397 53.7966 18.2803 53.9372C18.421 54.0779 18.5 54.2686 18.5 54.4675C18.5 54.6665 18.421 54.8572 18.2803 54.9979C18.1397 55.1385 17.9489 55.2175 17.75 55.2175H16.1935L15.9945 56.8105C15.9698 57.0079 15.8678 57.1874 15.7108 57.3096C15.5537 57.4317 15.3546 57.4865 15.1573 57.4618C14.9599 57.4371 14.7804 57.3351 14.6582 57.1781C14.5361 57.021 14.4813 56.8219 14.506 56.6245L14.6815 55.2175H12.6935L12.4945 56.8105C12.4823 56.9083 12.4509 57.0027 12.4023 57.0883C12.3536 57.1739 12.2885 57.2491 12.2108 57.3096C12.133 57.37 12.0441 57.4146 11.9491 57.4407C11.8542 57.4669 11.755 57.474 11.6573 57.4618C11.5595 57.4496 11.4651 57.4182 11.3795 57.3696C11.2939 57.3209 11.2187 57.2558 11.1582 57.1781C11.0978 57.1003 11.0532 57.0114 11.0271 56.9164C11.0009 56.8215 10.9938 56.7223 11.006 56.6245L11.1815 55.2175H10.25C10.0511 55.2175 9.86032 55.1385 9.71967 54.9979C9.57902 54.8572 9.5 54.6665 9.5 54.4675C9.5 54.2686 9.57902 54.0779 9.71967 53.9372C9.86032 53.7966 10.0511 53.7175 10.25 53.7175H11.369L11.619 51.7175H10.5C10.3011 51.7175 10.1103 51.6385 9.96967 51.4979C9.82902 51.3572 9.75 51.1665 9.75 50.9675C9.75 50.7686 9.82902 50.5779 9.96967 50.4372C10.1103 50.2966 10.3011 50.2175 10.5 50.2175H11.8065L12.006 48.6245C12.0181 48.5268 12.0494 48.4323 12.098 48.3466C12.1466 48.2609 12.2117 48.1857 12.2894 48.1251C12.3671 48.0646 12.456 48.0199 12.551 47.9938C12.646 47.9676 12.7452 47.9609 12.843 47.973ZM14.87 53.7175L15.12 51.7175H13.1315L12.8815 53.7175H14.87Z" fill="black"/>
<path d="M20.6 56.994L20.606 56.19L24.512 52.662C24.848 52.358 25.07 52.07 25.178 51.798C25.29 51.522 25.346 51.234 25.346 50.934C25.346 50.578 25.262 50.256 25.094 49.968C24.926 49.68 24.7 49.452 24.416 49.284C24.132 49.112 23.814 49.026 23.462 49.026C23.094 49.026 22.766 49.114 22.478 49.29C22.19 49.466 21.962 49.698 21.794 49.986C21.63 50.274 21.55 50.588 21.554 50.928H20.654C20.654 50.404 20.778 49.934 21.026 49.518C21.274 49.102 21.61 48.776 22.034 48.54C22.458 48.3 22.938 48.18 23.474 48.18C23.998 48.18 24.468 48.304 24.884 48.552C25.304 48.796 25.634 49.128 25.874 49.548C26.118 49.964 26.24 50.428 26.24 50.94C26.24 51.3 26.196 51.618 26.108 51.894C26.024 52.166 25.89 52.42 25.706 52.656C25.526 52.888 25.296 53.128 25.016 53.376L21.548 56.508L21.41 56.148H26.24V56.994H20.6ZM30.5638 57.18C30.0318 57.18 29.5518 57.056 29.1237 56.808C28.6997 56.56 28.3637 56.224 28.1157 55.8C27.8677 55.372 27.7437 54.892 27.7437 54.36V51C27.7437 50.468 27.8677 49.99 28.1157 49.566C28.3637 49.138 28.6997 48.8 29.1237 48.552C29.5518 48.304 30.0318 48.18 30.5638 48.18C31.0958 48.18 31.5738 48.304 31.9978 48.552C32.4258 48.8 32.7638 49.138 33.0117 49.566C33.2598 49.99 33.3838 50.468 33.3838 51V54.36C33.3838 54.892 33.2598 55.372 33.0117 55.8C32.7638 56.224 32.4258 56.56 31.9978 56.808C31.5738 57.056 31.0958 57.18 30.5638 57.18ZM30.5638 56.328C30.9198 56.328 31.2438 56.242 31.5358 56.07C31.8278 55.894 32.0598 55.66 32.2318 55.368C32.4038 55.076 32.4898 54.754 32.4898 54.402V50.958C32.4898 50.602 32.4038 50.278 32.2318 49.986C32.0598 49.694 31.8278 49.462 31.5358 49.29C31.2438 49.114 30.9198 49.026 30.5638 49.026C30.2078 49.026 29.8838 49.114 29.5918 49.29C29.2998 49.462 29.0678 49.694 28.8958 49.986C28.7237 50.278 28.6377 50.602 28.6377 50.958V54.402C28.6377 54.754 28.7237 55.076 28.8958 55.368C29.0678 55.66 29.2998 55.894 29.5918 56.07C29.8838 56.242 30.2078 56.328 30.5638 56.328ZM34.888 56.994L34.894 56.19L38.8 52.662C39.136 52.358 39.358 52.07 39.466 51.798C39.578 51.522 39.634 51.234 39.634 50.934C39.634 50.578 39.55 50.256 39.382 49.968C39.214 49.68 38.988 49.452 38.704 49.284C38.42 49.112 38.102 49.026 37.75 49.026C37.382 49.026 37.054 49.114 36.766 49.29C36.478 49.466 36.25 49.698 36.082 49.986C35.918 50.274 35.838 50.588 35.842 50.928H34.942C34.942 50.404 35.066 49.934 35.314 49.518C35.562 49.102 35.898 48.776 36.322 48.54C36.746 48.3 37.226 48.18 37.762 48.18C38.286 48.18 38.756 48.304 39.172 48.552C39.592 48.796 39.922 49.128 40.162 49.548C40.406 49.964 40.528 50.428 40.528 50.94C40.528 51.3 40.484 51.618 40.396 51.894C40.312 52.166 40.178 52.42 39.994 52.656C39.814 52.888 39.584 53.128 39.304 53.376L35.836 56.508L35.698 56.148H40.528V56.994H34.888ZM41.7917 56.994L41.7977 56.19L45.7037 52.662C46.0397 52.358 46.2617 52.07 46.3697 51.798C46.4817 51.522 46.5377 51.234 46.5377 50.934C46.5377 50.578 46.4537 50.256 46.2857 49.968C46.1177 49.68 45.8917 49.452 45.6077 49.284C45.3237 49.112 45.0057 49.026 44.6537 49.026C44.2857 49.026 43.9577 49.114 43.6697 49.29C43.3817 49.466 43.1537 49.698 42.9857 49.986C42.8217 50.274 42.7417 50.588 42.7457 50.928H41.8457C41.8457 50.404 41.9697 49.934 42.2177 49.518C42.4657 49.102 42.8017 48.776 43.2257 48.54C43.6497 48.3 44.1297 48.18 44.6657 48.18C45.1897 48.18 45.6597 48.304 46.0757 48.552C46.4957 48.796 46.8257 49.128 47.0657 49.548C47.3097 49.964 47.4317 50.428 47.4317 50.94C47.4317 51.3 47.3877 51.618 47.2997 51.894C47.2157 52.166 47.0817 52.42 46.8977 52.656C46.7177 52.888 46.4877 53.128 46.2077 53.376L42.7397 56.508L42.6017 56.148H47.4317V56.994H41.7917ZM48.9355 57V48.36H51.5575C51.6495 48.36 51.8055 48.362 52.0255 48.366C52.2495 48.37 52.4635 48.386 52.6675 48.414C53.3235 48.506 53.8715 48.75 54.3115 49.146C54.7515 49.542 55.0815 50.046 55.3015 50.658C55.5215 51.27 55.6315 51.944 55.6315 52.68C55.6315 53.416 55.5215 54.09 55.3015 54.702C55.0815 55.314 54.7515 55.818 54.3115 56.214C53.8715 56.61 53.3235 56.854 52.6675 56.946C52.4675 56.97 52.2535 56.986 52.0255 56.994C51.7975 56.998 51.6415 57 51.5575 57H48.9355ZM49.8475 56.154H51.5575C51.7215 56.154 51.8975 56.15 52.0855 56.142C52.2775 56.13 52.4415 56.11 52.5775 56.082C53.0815 55.994 53.4875 55.79 53.7955 55.47C54.1075 55.15 54.3355 54.75 54.4795 54.27C54.6235 53.786 54.6955 53.256 54.6955 52.68C54.6955 52.1 54.6235 51.568 54.4795 51.084C54.3355 50.6 54.1075 50.2 53.7955 49.884C53.4835 49.568 53.0775 49.366 52.5775 49.278C52.4415 49.25 52.2755 49.232 52.0795 49.224C51.8875 49.212 51.7135 49.206 51.5575 49.206H49.8475V56.154ZM58.564 57V49.344L56.938 50.322V49.332L58.564 48.36H59.458V57H58.564ZM64.6138 57.18C64.0818 57.18 63.6018 57.056 63.1738 56.808C62.7498 56.56 62.4138 56.224 62.1658 55.8C61.9178 55.372 61.7938 54.892 61.7938 54.36V51C61.7938 50.468 61.9178 49.99 62.1658 49.566C62.4138 49.138 62.7498 48.8 63.1738 48.552C63.6018 48.304 64.0818 48.18 64.6138 48.18C65.1458 48.18 65.6238 48.304 66.0478 48.552C66.4758 48.8 66.8138 49.138 67.0618 49.566C67.3098 49.99 67.4338 50.468 67.4338 51V54.36C67.4338 54.892 67.3098 55.372 67.0618 55.8C66.8138 56.224 66.4758 56.56 66.0478 56.808C65.6238 57.056 65.1458 57.18 64.6138 57.18ZM64.6138 56.328C64.9698 56.328 65.2938 56.242 65.5858 56.07C65.8778 55.894 66.1098 55.66 66.2818 55.368C66.4538 55.076 66.5398 54.754 66.5398 54.402V50.958C66.5398 50.602 66.4538 50.278 66.2818 49.986C66.1098 49.694 65.8778 49.462 65.5858 49.29C65.2938 49.114 64.9698 49.026 64.6138 49.026C64.2578 49.026 63.9338 49.114 63.6418 49.29C63.3498 49.462 63.1178 49.694 62.9458 49.986C62.7738 50.278 62.6878 50.602 62.6878 50.958V54.402C62.6878 54.754 62.7738 55.076 62.9458 55.368C63.1178 55.66 63.3498 55.894 63.6418 56.07C63.9338 56.242 64.2578 56.328 64.6138 56.328ZM71.374 57L68.398 48.36H69.316L71.95 55.998L74.602 48.36H75.52L72.544 57H71.374ZM76.2402 57V56.814L80.9622 49.206H76.3602V48.36H82.4082V48.564L77.7102 56.16H82.3662V57H76.2402ZM90.6973 57.174L88.3933 54.882L88.9933 54.282L91.2853 56.574L90.6973 57.174ZM87.4093 57.18C86.5493 57.18 85.8233 56.99 85.2313 56.61C84.6393 56.226 84.1913 55.696 83.8873 55.02C83.5833 54.344 83.4313 53.564 83.4313 52.68C83.4313 51.796 83.5833 51.016 83.8873 50.34C84.1913 49.664 84.6393 49.136 85.2313 48.756C85.8233 48.372 86.5493 48.18 87.4093 48.18C88.2733 48.18 88.9993 48.372 89.5873 48.756C90.1793 49.136 90.6273 49.664 90.9313 50.34C91.2393 51.016 91.3933 51.796 91.3933 52.68C91.3933 53.564 91.2393 54.344 90.9313 55.02C90.6273 55.696 90.1793 56.226 89.5873 56.61C88.9993 56.99 88.2733 57.18 87.4093 57.18ZM87.4093 56.334C88.0853 56.334 88.6493 56.18 89.1013 55.872C89.5533 55.564 89.8913 55.136 90.1153 54.588C90.3433 54.036 90.4573 53.4 90.4573 52.68C90.4573 51.96 90.3433 51.326 90.1153 50.778C89.8913 50.23 89.5533 49.802 89.1013 49.494C88.6493 49.186 88.0853 49.03 87.4093 49.026C86.7333 49.026 86.1713 49.18 85.7233 49.488C85.2753 49.796 84.9373 50.226 84.7093 50.778C84.4853 51.326 84.3713 51.96 84.3673 52.68C84.3633 53.4 84.4733 54.034 84.6973 54.582C84.9253 55.126 85.2653 55.554 85.7173 55.866C86.1693 56.174 86.7333 56.33 87.4093 56.334ZM94.1608 57V49.344L92.5348 50.322V49.332L94.1608 48.36H95.0548V57H94.1608ZM100.211 57.18C99.6786 57.18 99.1986 57.056 98.7706 56.808C98.3466 56.56 98.0106 56.224 97.7626 55.8C97.5146 55.372 97.3906 54.892 97.3906 54.36V51C97.3906 50.468 97.5146 49.99 97.7626 49.566C98.0106 49.138 98.3466 48.8 98.7706 48.552C99.1986 48.304 99.6786 48.18 100.211 48.18C100.743 48.18 101.221 48.304 101.645 48.552C102.073 48.8 102.411 49.138 102.659 49.566C102.907 49.99 103.031 50.468 103.031 51V54.36C103.031 54.892 102.907 55.372 102.659 55.8C102.411 56.224 102.073 56.56 101.645 56.808C101.221 57.056 100.743 57.18 100.211 57.18ZM100.211 56.328C100.567 56.328 100.891 56.242 101.183 56.07C101.475 55.894 101.707 55.66 101.879 55.368C102.051 55.076 102.137 54.754 102.137 54.402V50.958C102.137 50.602 102.051 50.278 101.879 49.986C101.707 49.694 101.475 49.462 101.183 49.29C100.891 49.114 100.567 49.026 100.211 49.026C99.8546 49.026 99.5306 49.114 99.2386 49.29C98.9466 49.462 98.7146 49.694 98.5426 49.986C98.3706 50.278 98.2846 50.602 98.2846 50.958V54.402C98.2846 54.754 98.3706 55.076 98.5426 55.368C98.7146 55.66 98.9466 55.894 99.2386 56.07C99.5306 56.242 99.8546 56.328 100.211 56.328ZM104.055 57L107.049 52.626L104.133 48.36H105.201L107.571 51.888L109.941 48.36H111.015L108.099 52.626L111.087 57H110.019L107.571 53.37L105.129 57H104.055ZM115.484 57.18C114.824 57.18 114.24 57.044 113.732 56.772C113.228 56.5 112.832 56.116 112.544 55.62C112.256 55.124 112.112 54.544 112.112 53.88V48.366L113 48.36V53.766C113 54.214 113.076 54.602 113.228 54.93C113.38 55.254 113.578 55.522 113.822 55.734C114.07 55.942 114.34 56.096 114.632 56.196C114.924 56.296 115.208 56.346 115.484 56.346C115.764 56.346 116.05 56.296 116.342 56.196C116.634 56.096 116.902 55.942 117.146 55.734C117.39 55.522 117.588 55.254 117.74 54.93C117.892 54.602 117.968 54.214 117.968 53.766V48.36H118.856V53.88C118.856 54.544 118.712 55.124 118.424 55.62C118.136 56.112 117.738 56.496 117.23 56.772C116.726 57.044 116.144 57.18 115.484 57.18Z" fill="black"/>
<path d="M8.96 82V73.36H9.842V81.154H13.946V82H8.96ZM16.8829 82.18C16.3949 82.18 15.9849 82.092 15.6529 81.916C15.3249 81.74 15.0789 81.506 14.9149 81.214C14.7509 80.922 14.6689 80.604 14.6689 80.26C14.6689 79.908 14.7389 79.608 14.8789 79.36C15.0229 79.108 15.2169 78.902 15.4609 78.742C15.7089 78.582 15.9949 78.46 16.3189 78.376C16.6469 78.296 17.0089 78.226 17.4049 78.166C17.8049 78.102 18.1949 78.048 18.5749 78.004C18.9589 77.956 19.2949 77.91 19.5829 77.866L19.2709 78.058C19.2829 77.418 19.1589 76.944 18.8989 76.636C18.6389 76.328 18.1869 76.174 17.5429 76.174C17.0989 76.174 16.7229 76.274 16.4149 76.474C16.1109 76.674 15.8969 76.99 15.7729 77.422L14.9149 77.17C15.0629 76.59 15.3609 76.14 15.8089 75.82C16.2569 75.5 16.8389 75.34 17.5549 75.34C18.1469 75.34 18.6489 75.452 19.0609 75.676C19.4769 75.896 19.7709 76.216 19.9429 76.636C20.0229 76.824 20.0749 77.034 20.0989 77.266C20.1229 77.498 20.1349 77.734 20.1349 77.974V82H19.3489V80.374L19.5769 80.47C19.3569 81.026 19.0149 81.45 18.5509 81.742C18.0869 82.034 17.5309 82.18 16.8829 82.18ZM16.9849 81.418C17.3969 81.418 17.7569 81.344 18.0649 81.196C18.3729 81.048 18.6209 80.846 18.8089 80.59C18.9969 80.33 19.1189 80.038 19.1749 79.714C19.2229 79.506 19.2489 79.278 19.2529 79.03C19.2569 78.778 19.2589 78.59 19.2589 78.466L19.5949 78.64C19.2949 78.68 18.9689 78.72 18.6169 78.76C18.2689 78.8 17.9249 78.846 17.5849 78.898C17.2489 78.95 16.9449 79.012 16.6729 79.084C16.4889 79.136 16.3109 79.21 16.1389 79.306C15.9669 79.398 15.8249 79.522 15.7129 79.678C15.6049 79.834 15.5509 80.028 15.5509 80.26C15.5509 80.448 15.5969 80.63 15.6889 80.806C15.7849 80.982 15.9369 81.128 16.1449 81.244C16.3569 81.36 16.6369 81.418 16.9849 81.418ZM24.1749 82.174C23.4149 82.174 22.7889 82.01 22.2969 81.682C21.8089 81.354 21.5089 80.898 21.3969 80.314L22.2969 80.164C22.3929 80.532 22.6109 80.826 22.9509 81.046C23.2949 81.262 23.7189 81.37 24.2229 81.37C24.7149 81.37 25.1029 81.268 25.3869 81.064C25.6709 80.856 25.8129 80.574 25.8129 80.218C25.8129 80.018 25.7669 79.856 25.6749 79.732C25.5869 79.604 25.4049 79.486 25.1289 79.378C24.8529 79.27 24.4409 79.142 23.8929 78.994C23.3049 78.834 22.8449 78.674 22.5129 78.514C22.1809 78.354 21.9449 78.17 21.8049 77.962C21.6649 77.75 21.5949 77.492 21.5949 77.188C21.5949 76.82 21.6989 76.498 21.9069 76.222C22.1149 75.942 22.4029 75.726 22.7709 75.574C23.1389 75.418 23.5669 75.34 24.0549 75.34C24.5429 75.34 24.9789 75.42 25.3629 75.58C25.7509 75.736 26.0629 75.956 26.2989 76.24C26.5349 76.524 26.6749 76.854 26.7189 77.23L25.8189 77.392C25.7589 77.012 25.5689 76.712 25.2489 76.492C24.9329 76.268 24.5309 76.152 24.0429 76.144C23.5829 76.132 23.2089 76.22 22.9209 76.408C22.6329 76.592 22.4889 76.838 22.4889 77.146C22.4889 77.318 22.5409 77.466 22.6449 77.59C22.7489 77.71 22.9369 77.824 23.2089 77.932C23.4849 78.04 23.8769 78.158 24.3849 78.286C24.9809 78.438 25.4489 78.598 25.7889 78.766C26.1289 78.934 26.3709 79.132 26.5149 79.36C26.6589 79.588 26.7309 79.87 26.7309 80.206C26.7309 80.818 26.5029 81.3 26.0469 81.652C25.5949 82 24.9709 82.174 24.1749 82.174ZM31.6496 82C31.2856 82.076 30.9256 82.106 30.5696 82.09C30.2176 82.074 29.9016 81.998 29.6216 81.862C29.3456 81.726 29.1356 81.514 28.9916 81.226C28.8756 80.986 28.8116 80.744 28.7996 80.5C28.7916 80.252 28.7876 79.97 28.7876 79.654V73.72H29.6636V79.618C29.6636 79.89 29.6656 80.118 29.6696 80.302C29.6776 80.482 29.7196 80.642 29.7956 80.782C29.9396 81.05 30.1676 81.21 30.4796 81.262C30.7956 81.314 31.1856 81.302 31.6496 81.226V82ZM27.4016 76.276V75.52H31.6496V76.276H27.4016ZM35.5686 82V73.18H36.4506V82H35.5686ZM41.0154 82.18C40.3714 82.18 39.8214 82.034 39.3654 81.742C38.9094 81.45 38.5594 81.046 38.3154 80.53C38.0714 80.014 37.9494 79.422 37.9494 78.754C37.9494 78.074 38.0734 77.478 38.3214 76.966C38.5694 76.454 38.9214 76.056 39.3774 75.772C39.8374 75.484 40.3834 75.34 41.0154 75.34C41.6634 75.34 42.2154 75.486 42.6714 75.778C43.1314 76.066 43.4814 76.468 43.7214 76.984C43.9654 77.496 44.0874 78.086 44.0874 78.754C44.0874 79.434 43.9654 80.032 43.7214 80.548C43.4774 81.06 43.1254 81.46 42.6654 81.748C42.2054 82.036 41.6554 82.18 41.0154 82.18ZM41.0154 81.334C41.7354 81.334 42.2714 81.096 42.6234 80.62C42.9754 80.14 43.1514 79.518 43.1514 78.754C43.1514 77.97 42.9734 77.346 42.6174 76.882C42.2654 76.418 41.7314 76.186 41.0154 76.186C40.5314 76.186 40.1314 76.296 39.8154 76.516C39.5034 76.732 39.2694 77.034 39.1134 77.422C38.9614 77.806 38.8854 78.25 38.8854 78.754C38.8854 79.534 39.0654 80.16 39.4254 80.632C39.7854 81.1 40.3154 81.334 41.0154 81.334ZM48.1589 82.18C47.5069 82.18 46.9549 82.034 46.5029 81.742C46.0509 81.45 45.7069 81.048 45.4709 80.536C45.2389 80.02 45.1189 79.428 45.1109 78.76C45.1189 78.08 45.2429 77.484 45.4829 76.972C45.7229 76.456 46.0689 76.056 46.5209 75.772C46.9729 75.484 47.5209 75.34 48.1649 75.34C48.8209 75.34 49.3909 75.5 49.8749 75.82C50.3629 76.14 50.6969 76.578 50.8769 77.134L50.0129 77.41C49.8609 77.022 49.6189 76.722 49.2869 76.51C48.9589 76.294 48.5829 76.186 48.1589 76.186C47.6829 76.186 47.2889 76.296 46.9769 76.516C46.6649 76.732 46.4329 77.034 46.2809 77.422C46.1289 77.81 46.0509 78.256 46.0469 78.76C46.0549 79.536 46.2349 80.16 46.5869 80.632C46.9389 81.1 47.4629 81.334 48.1589 81.334C48.5989 81.334 48.9729 81.234 49.2809 81.034C49.5929 80.83 49.8289 80.534 49.9889 80.146L50.8769 80.41C50.6369 80.986 50.2849 81.426 49.8209 81.73C49.3569 82.03 48.8029 82.18 48.1589 82.18ZM53.9943 82.18C53.5063 82.18 53.0963 82.092 52.7643 81.916C52.4363 81.74 52.1903 81.506 52.0263 81.214C51.8623 80.922 51.7803 80.604 51.7803 80.26C51.7803 79.908 51.8503 79.608 51.9903 79.36C52.1343 79.108 52.3283 78.902 52.5723 78.742C52.8203 78.582 53.1063 78.46 53.4303 78.376C53.7583 78.296 54.1203 78.226 54.5163 78.166C54.9163 78.102 55.3063 78.048 55.6863 78.004C56.0703 77.956 56.4063 77.91 56.6943 77.866L56.3823 78.058C56.3943 77.418 56.2703 76.944 56.0103 76.636C55.7503 76.328 55.2983 76.174 54.6543 76.174C54.2103 76.174 53.8343 76.274 53.5263 76.474C53.2223 76.674 53.0083 76.99 52.8843 77.422L52.0263 77.17C52.1743 76.59 52.4723 76.14 52.9203 75.82C53.3683 75.5 53.9503 75.34 54.6663 75.34C55.2583 75.34 55.7603 75.452 56.1723 75.676C56.5883 75.896 56.8823 76.216 57.0543 76.636C57.1343 76.824 57.1863 77.034 57.2103 77.266C57.2343 77.498 57.2463 77.734 57.2463 77.974V82H56.4603V80.374L56.6883 80.47C56.4683 81.026 56.1263 81.45 55.6623 81.742C55.1983 82.034 54.6423 82.18 53.9943 82.18ZM54.0963 81.418C54.5083 81.418 54.8683 81.344 55.1763 81.196C55.4843 81.048 55.7323 80.846 55.9203 80.59C56.1083 80.33 56.2303 80.038 56.2863 79.714C56.3343 79.506 56.3603 79.278 56.3643 79.03C56.3683 78.778 56.3703 78.59 56.3703 78.466L56.7063 78.64C56.4063 78.68 56.0803 78.72 55.7283 78.76C55.3803 78.8 55.0363 78.846 54.6963 78.898C54.3603 78.95 54.0563 79.012 53.7843 79.084C53.6003 79.136 53.4223 79.21 53.2503 79.306C53.0783 79.398 52.9363 79.522 52.8243 79.678C52.7163 79.834 52.6623 80.028 52.6623 80.26C52.6623 80.448 52.7083 80.63 52.8003 80.806C52.8963 80.982 53.0483 81.128 53.2563 81.244C53.4683 81.36 53.7483 81.418 54.0963 81.418ZM62.3963 82C62.0323 82.076 61.6723 82.106 61.3163 82.09C60.9643 82.074 60.6483 81.998 60.3683 81.862C60.0923 81.726 59.8823 81.514 59.7383 81.226C59.6223 80.986 59.5583 80.744 59.5463 80.5C59.5383 80.252 59.5343 79.97 59.5343 79.654V73.72H60.4103V79.618C60.4103 79.89 60.4123 80.118 60.4163 80.302C60.4243 80.482 60.4663 80.642 60.5423 80.782C60.6863 81.05 60.9143 81.21 61.2263 81.262C61.5423 81.314 61.9323 81.302 62.3963 81.226V82ZM58.1483 76.276V75.52H62.3963V76.276H58.1483ZM63.853 74.29V73.3H64.735V74.29H63.853ZM63.853 82V75.52H64.735V82H63.853ZM69.2997 82.18C68.6557 82.18 68.1057 82.034 67.6497 81.742C67.1937 81.45 66.8437 81.046 66.5997 80.53C66.3557 80.014 66.2337 79.422 66.2337 78.754C66.2337 78.074 66.3577 77.478 66.6057 76.966C66.8537 76.454 67.2057 76.056 67.6617 75.772C68.1217 75.484 68.6678 75.34 69.2997 75.34C69.9477 75.34 70.4998 75.486 70.9558 75.778C71.4158 76.066 71.7658 76.468 72.0058 76.984C72.2498 77.496 72.3718 78.086 72.3718 78.754C72.3718 79.434 72.2498 80.032 72.0058 80.548C71.7618 81.06 71.4098 81.46 70.9498 81.748C70.4898 82.036 69.9398 82.18 69.2997 82.18ZM69.2997 81.334C70.0197 81.334 70.5558 81.096 70.9078 80.62C71.2598 80.14 71.4358 79.518 71.4358 78.754C71.4358 77.97 71.2578 77.346 70.9018 76.882C70.5498 76.418 70.0158 76.186 69.2997 76.186C68.8158 76.186 68.4158 76.296 68.0998 76.516C67.7878 76.732 67.5537 77.034 67.3977 77.422C67.2457 77.806 67.1697 78.25 67.1697 78.754C67.1697 79.534 67.3497 80.16 67.7097 80.632C68.0697 81.1 68.5997 81.334 69.2997 81.334ZM78.4353 82V78.694C78.4353 78.334 78.4013 78.004 78.3333 77.704C78.2653 77.4 78.1553 77.136 78.0033 76.912C77.8553 76.684 77.6613 76.508 77.4213 76.384C77.1853 76.26 76.8973 76.198 76.5573 76.198C76.2453 76.198 75.9693 76.252 75.7293 76.36C75.4933 76.468 75.2933 76.624 75.1293 76.828C74.9693 77.028 74.8473 77.272 74.7633 77.56C74.6793 77.848 74.6373 78.176 74.6373 78.544L74.0133 78.406C74.0133 77.742 74.1293 77.184 74.3613 76.732C74.5933 76.28 74.9133 75.938 75.3213 75.706C75.7293 75.474 76.1973 75.358 76.7253 75.358C77.1133 75.358 77.4513 75.418 77.7393 75.538C78.0313 75.658 78.2773 75.82 78.4773 76.024C78.6813 76.228 78.8453 76.462 78.9693 76.726C79.0933 76.986 79.1833 77.264 79.2393 77.56C79.2953 77.852 79.3233 78.144 79.3233 78.436V82H78.4353ZM73.7493 82V75.52H74.5473V77.116H74.6373V82H73.7493ZM81.4203 81.04V80.014H82.4463V81.04H81.4203ZM81.4263 77.506V76.48H82.4523V77.506H81.4263Z" fill="black"/>
<path d="M94.96 82V73.36H95.842V82H94.96ZM97.6948 82L97.7008 73.36H98.5888V78.64L101.481 75.52H102.657L99.6208 78.76L103.053 82H101.769L98.5888 78.88V82H97.6948ZM106.339 82.18C105.707 82.18 105.159 82.04 104.695 81.76C104.235 81.48 103.877 81.086 103.621 80.578C103.365 80.07 103.237 79.474 103.237 78.79C103.237 78.082 103.363 77.47 103.615 76.954C103.867 76.438 104.221 76.04 104.677 75.76C105.137 75.48 105.679 75.34 106.303 75.34C106.943 75.34 107.489 75.488 107.941 75.784C108.393 76.076 108.735 76.496 108.967 77.044C109.199 77.592 109.305 78.246 109.285 79.006H108.385V78.694C108.369 77.854 108.187 77.22 107.839 76.792C107.495 76.364 106.991 76.15 106.327 76.15C105.631 76.15 105.097 76.376 104.725 76.828C104.357 77.28 104.173 77.924 104.173 78.76C104.173 79.576 104.357 80.21 104.725 80.662C105.097 81.11 105.623 81.334 106.303 81.334C106.767 81.334 107.171 81.228 107.515 81.016C107.863 80.8 108.137 80.49 108.337 80.086L109.159 80.404C108.903 80.968 108.525 81.406 108.025 81.718C107.529 82.026 106.967 82.18 106.339 82.18ZM103.861 79.006V78.268H108.811V79.006H103.861ZM109.716 84.88V84.028H110.082C110.374 84.028 110.606 83.952 110.778 83.8C110.954 83.652 111.042 83.402 111.042 83.05V75.52H111.918V83.272C111.918 83.812 111.788 84.214 111.528 84.478C111.272 84.746 110.878 84.88 110.346 84.88H109.716ZM111.042 74.29V73.3H111.918V74.29H111.042ZM115.602 82.18C115.114 82.18 114.704 82.092 114.372 81.916C114.044 81.74 113.798 81.506 113.634 81.214C113.47 80.922 113.388 80.604 113.388 80.26C113.388 79.908 113.458 79.608 113.598 79.36C113.742 79.108 113.936 78.902 114.18 78.742C114.428 78.582 114.714 78.46 115.038 78.376C115.366 78.296 115.728 78.226 116.124 78.166C116.524 78.102 116.914 78.048 117.294 78.004C117.678 77.956 118.014 77.91 118.302 77.866L117.99 78.058C118.002 77.418 117.878 76.944 117.618 76.636C117.358 76.328 116.906 76.174 116.262 76.174C115.818 76.174 115.442 76.274 115.134 76.474C114.83 76.674 114.616 76.99 114.492 77.422L113.634 77.17C113.782 76.59 114.08 76.14 114.528 75.82C114.976 75.5 115.558 75.34 116.274 75.34C116.866 75.34 117.368 75.452 117.78 75.676C118.196 75.896 118.49 76.216 118.662 76.636C118.742 76.824 118.794 77.034 118.818 77.266C118.842 77.498 118.854 77.734 118.854 77.974V82H118.068V80.374L118.296 80.47C118.076 81.026 117.734 81.45 117.27 81.742C116.806 82.034 116.25 82.18 115.602 82.18ZM115.704 81.418C116.116 81.418 116.476 81.344 116.784 81.196C117.092 81.048 117.34 80.846 117.528 80.59C117.716 80.33 117.838 80.038 117.894 79.714C117.942 79.506 117.968 79.278 117.972 79.03C117.976 78.778 117.978 78.59 117.978 78.466L118.314 78.64C118.014 78.68 117.688 78.72 117.336 78.76C116.988 78.8 116.644 78.846 116.304 78.898C115.968 78.95 115.664 79.012 115.392 79.084C115.208 79.136 115.03 79.21 114.858 79.306C114.686 79.398 114.544 79.522 114.432 79.678C114.324 79.834 114.27 80.028 114.27 80.26C114.27 80.448 114.316 80.63 114.408 80.806C114.504 80.982 114.656 81.128 114.864 81.244C115.076 81.36 115.356 81.418 115.704 81.418ZM120.356 83.254L120.41 82.816C120.57 82.828 120.686 82.796 120.758 82.72C120.83 82.644 120.874 82.542 120.89 82.414C120.906 82.286 120.91 82.148 120.902 82H120.356V80.734H121.382V82.24C121.382 82.608 121.288 82.884 121.1 83.068C120.916 83.252 120.668 83.314 120.356 83.254ZM126.306 82V73.36H127.188V81.154H131.292V82H126.306ZM134.229 82.18C133.741 82.18 133.331 82.092 132.999 81.916C132.671 81.74 132.425 81.506 132.261 81.214C132.097 80.922 132.015 80.604 132.015 80.26C132.015 79.908 132.085 79.608 132.225 79.36C132.369 79.108 132.563 78.902 132.807 78.742C133.055 78.582 133.341 78.46 133.665 78.376C133.993 78.296 134.355 78.226 134.751 78.166C135.151 78.102 135.541 78.048 135.921 78.004C136.305 77.956 136.641 77.91 136.929 77.866L136.617 78.058C136.629 77.418 136.505 76.944 136.245 76.636C135.985 76.328 135.533 76.174 134.889 76.174C134.445 76.174 134.069 76.274 133.761 76.474C133.457 76.674 133.243 76.99 133.119 77.422L132.261 77.17C132.409 76.59 132.707 76.14 133.155 75.82C133.603 75.5 134.185 75.34 134.901 75.34C135.493 75.34 135.995 75.452 136.407 75.676C136.823 75.896 137.117 76.216 137.289 76.636C137.369 76.824 137.421 77.034 137.445 77.266C137.469 77.498 137.481 77.734 137.481 77.974V82H136.695V80.374L136.923 80.47C136.703 81.026 136.361 81.45 135.897 81.742C135.433 82.034 134.877 82.18 134.229 82.18ZM134.331 81.418C134.743 81.418 135.103 81.344 135.411 81.196C135.719 81.048 135.967 80.846 136.155 80.59C136.343 80.33 136.465 80.038 136.521 79.714C136.569 79.506 136.595 79.278 136.599 79.03C136.603 78.778 136.605 78.59 136.605 78.466L136.941 78.64C136.641 78.68 136.315 78.72 135.963 78.76C135.615 78.8 135.271 78.846 134.931 78.898C134.595 78.95 134.291 79.012 134.019 79.084C133.835 79.136 133.657 79.21 133.485 79.306C133.313 79.398 133.171 79.522 133.059 79.678C132.951 79.834 132.897 80.028 132.897 80.26C132.897 80.448 132.943 80.63 133.035 80.806C133.131 80.982 133.283 81.128 133.491 81.244C133.703 81.36 133.983 81.418 134.331 81.418ZM141.677 85.06C141.345 85.06 141.017 85.01 140.693 84.91C140.373 84.814 140.077 84.66 139.805 84.448C139.533 84.24 139.305 83.968 139.121 83.632L139.919 83.188C140.099 83.548 140.351 83.806 140.675 83.962C141.003 84.122 141.337 84.202 141.677 84.202C142.145 84.202 142.523 84.114 142.811 83.938C143.103 83.766 143.315 83.51 143.447 83.17C143.579 82.83 143.643 82.406 143.639 81.898V80.17H143.741V75.52H144.527V81.91C144.527 82.094 144.521 82.27 144.509 82.438C144.501 82.61 144.483 82.778 144.455 82.942C144.379 83.426 144.221 83.824 143.981 84.136C143.745 84.448 143.433 84.68 143.045 84.832C142.661 84.984 142.205 85.06 141.677 85.06ZM141.617 82.18C141.013 82.18 140.497 82.03 140.069 81.73C139.641 81.426 139.313 81.016 139.085 80.5C138.857 79.984 138.743 79.402 138.743 78.754C138.743 78.11 138.855 77.53 139.079 77.014C139.307 76.498 139.633 76.09 140.057 75.79C140.481 75.49 140.989 75.34 141.581 75.34C142.189 75.34 142.701 75.488 143.117 75.784C143.533 76.08 143.847 76.486 144.059 77.002C144.275 77.514 144.383 78.098 144.383 78.754C144.383 79.398 144.277 79.98 144.065 80.5C143.853 81.016 143.541 81.426 143.129 81.73C142.717 82.03 142.213 82.18 141.617 82.18ZM141.707 81.358C142.167 81.358 142.547 81.246 142.847 81.022C143.147 80.798 143.371 80.49 143.519 80.098C143.667 79.702 143.741 79.254 143.741 78.754C143.741 78.246 143.667 77.798 143.519 77.41C143.371 77.018 143.147 76.712 142.847 76.492C142.551 76.272 142.177 76.162 141.725 76.162C141.261 76.162 140.877 76.276 140.573 76.504C140.269 76.732 140.043 77.042 139.895 77.434C139.751 77.826 139.679 78.266 139.679 78.754C139.679 79.246 139.753 79.69 139.901 80.086C140.053 80.478 140.279 80.788 140.579 81.016C140.879 81.244 141.255 81.358 141.707 81.358ZM148.97 82.18C148.326 82.18 147.776 82.034 147.32 81.742C146.864 81.45 146.514 81.046 146.27 80.53C146.026 80.014 145.904 79.422 145.904 78.754C145.904 78.074 146.028 77.478 146.276 76.966C146.524 76.454 146.876 76.056 147.332 75.772C147.792 75.484 148.338 75.34 148.97 75.34C149.618 75.34 150.17 75.486 150.626 75.778C151.086 76.066 151.436 76.468 151.676 76.984C151.92 77.496 152.042 78.086 152.042 78.754C152.042 79.434 151.92 80.032 151.676 80.548C151.432 81.06 151.08 81.46 150.62 81.748C150.16 82.036 149.61 82.18 148.97 82.18ZM148.97 81.334C149.69 81.334 150.226 81.096 150.578 80.62C150.93 80.14 151.106 79.518 151.106 78.754C151.106 77.97 150.928 77.346 150.572 76.882C150.22 76.418 149.686 76.186 148.97 76.186C148.486 76.186 148.086 76.296 147.77 76.516C147.458 76.732 147.224 77.034 147.068 77.422C146.916 77.806 146.84 78.25 146.84 78.754C146.84 79.534 147.02 80.16 147.38 80.632C147.74 81.1 148.27 81.334 148.97 81.334ZM155.785 82.174C155.025 82.174 154.399 82.01 153.907 81.682C153.419 81.354 153.119 80.898 153.007 80.314L153.907 80.164C154.003 80.532 154.221 80.826 154.561 81.046C154.905 81.262 155.329 81.37 155.833 81.37C156.325 81.37 156.713 81.268 156.997 81.064C157.281 80.856 157.423 80.574 157.423 80.218C157.423 80.018 157.377 79.856 157.285 79.732C157.197 79.604 157.015 79.486 156.739 79.378C156.463 79.27 156.051 79.142 155.503 78.994C154.915 78.834 154.455 78.674 154.123 78.514C153.791 78.354 153.555 78.17 153.415 77.962C153.275 77.75 153.205 77.492 153.205 77.188C153.205 76.82 153.309 76.498 153.517 76.222C153.725 75.942 154.013 75.726 154.381 75.574C154.749 75.418 155.177 75.34 155.665 75.34C156.153 75.34 156.589 75.42 156.973 75.58C157.361 75.736 157.673 75.956 157.909 76.24C158.145 76.524 158.285 76.854 158.329 77.23L157.429 77.392C157.369 77.012 157.179 76.712 156.859 76.492C156.543 76.268 156.141 76.152 155.653 76.144C155.193 76.132 154.819 76.22 154.531 76.408C154.243 76.592 154.099 76.838 154.099 77.146C154.099 77.318 154.151 77.466 154.255 77.59C154.359 77.71 154.547 77.824 154.819 77.932C155.095 78.04 155.487 78.158 155.995 78.286C156.591 78.438 157.059 78.598 157.399 78.766C157.739 78.934 157.981 79.132 158.125 79.36C158.269 79.588 158.341 79.87 158.341 80.206C158.341 80.818 158.113 81.3 157.657 81.652C157.205 82 156.581 82.174 155.785 82.174ZM159.612 83.254L159.666 82.816C159.826 82.828 159.942 82.796 160.014 82.72C160.086 82.644 160.13 82.542 160.146 82.414C160.162 82.286 160.166 82.148 160.158 82H159.612V80.734H160.638V82.24C160.638 82.608 160.544 82.884 160.356 83.068C160.172 83.252 159.924 83.314 159.612 83.254ZM165.442 82V73.36H166.33L171.088 80.44V73.36H171.976V82H171.088L166.33 74.914V82H165.442ZM173.837 74.29V73.3H174.719V74.29H173.837ZM173.837 82V75.52H174.719V82H173.837ZM179.151 85.06C178.819 85.06 178.491 85.01 178.167 84.91C177.847 84.814 177.551 84.66 177.279 84.448C177.007 84.24 176.779 83.968 176.595 83.632L177.393 83.188C177.573 83.548 177.825 83.806 178.149 83.962C178.477 84.122 178.811 84.202 179.151 84.202C179.619 84.202 179.997 84.114 180.285 83.938C180.577 83.766 180.789 83.51 180.921 83.17C181.053 82.83 181.117 82.406 181.113 81.898V80.17H181.215V75.52H182.001V81.91C182.001 82.094 181.995 82.27 181.983 82.438C181.975 82.61 181.957 82.778 181.929 82.942C181.853 83.426 181.695 83.824 181.455 84.136C181.219 84.448 180.907 84.68 180.519 84.832C180.135 84.984 179.679 85.06 179.151 85.06ZM179.091 82.18C178.487 82.18 177.971 82.03 177.543 81.73C177.115 81.426 176.787 81.016 176.559 80.5C176.331 79.984 176.217 79.402 176.217 78.754C176.217 78.11 176.329 77.53 176.553 77.014C176.781 76.498 177.107 76.09 177.531 75.79C177.955 75.49 178.463 75.34 179.055 75.34C179.663 75.34 180.175 75.488 180.591 75.784C181.007 76.08 181.321 76.486 181.533 77.002C181.749 77.514 181.857 78.098 181.857 78.754C181.857 79.398 181.751 79.98 181.539 80.5C181.327 81.016 181.015 81.426 180.603 81.73C180.191 82.03 179.687 82.18 179.091 82.18ZM179.181 81.358C179.641 81.358 180.021 81.246 180.321 81.022C180.621 80.798 180.845 80.49 180.993 80.098C181.141 79.702 181.215 79.254 181.215 78.754C181.215 78.246 181.141 77.798 180.993 77.41C180.845 77.018 180.621 76.712 180.321 76.492C180.025 76.272 179.651 76.162 179.199 76.162C178.735 76.162 178.351 76.276 178.047 76.504C177.743 76.732 177.517 77.042 177.369 77.434C177.225 77.826 177.153 78.266 177.153 78.754C177.153 79.246 177.227 79.69 177.375 80.086C177.527 80.478 177.753 80.788 178.053 81.016C178.353 81.244 178.729 81.358 179.181 81.358ZM186.481 82.18C185.849 82.18 185.301 82.04 184.837 81.76C184.377 81.48 184.019 81.086 183.763 80.578C183.507 80.07 183.379 79.474 183.379 78.79C183.379 78.082 183.505 77.47 183.757 76.954C184.009 76.438 184.363 76.04 184.819 75.76C185.279 75.48 185.821 75.34 186.445 75.34C187.085 75.34 187.631 75.488 188.083 75.784C188.535 76.076 188.877 76.496 189.109 77.044C189.341 77.592 189.447 78.246 189.427 79.006H188.527V78.694C188.511 77.854 188.329 77.22 187.981 76.792C187.637 76.364 187.133 76.15 186.469 76.15C185.773 76.15 185.239 76.376 184.867 76.828C184.499 77.28 184.315 77.924 184.315 78.76C184.315 79.576 184.499 80.21 184.867 80.662C185.239 81.11 185.765 81.334 186.445 81.334C186.909 81.334 187.313 81.228 187.657 81.016C188.005 80.8 188.279 80.49 188.479 80.086L189.301 80.404C189.045 80.968 188.667 81.406 188.167 81.718C187.671 82.026 187.109 82.18 186.481 82.18ZM184.003 79.006V78.268H188.953V79.006H184.003ZM190.818 82V75.52H191.61V77.08L191.454 76.876C191.526 76.684 191.62 76.508 191.736 76.348C191.852 76.184 191.978 76.05 192.114 75.946C192.282 75.798 192.478 75.686 192.702 75.61C192.926 75.53 193.152 75.484 193.38 75.472C193.608 75.456 193.816 75.472 194.004 75.52V76.348C193.768 76.288 193.51 76.274 193.23 76.306C192.95 76.338 192.692 76.45 192.456 76.642C192.24 76.81 192.078 77.012 191.97 77.248C191.862 77.48 191.79 77.728 191.754 77.992C191.718 78.252 191.7 78.51 191.7 78.766V82H190.818ZM195.323 74.29V73.3H196.205V74.29H195.323ZM195.323 82V75.52H196.205V82H195.323ZM199.917 82.18C199.429 82.18 199.019 82.092 198.687 81.916C198.359 81.74 198.113 81.506 197.949 81.214C197.785 80.922 197.703 80.604 197.703 80.26C197.703 79.908 197.773 79.608 197.913 79.36C198.057 79.108 198.251 78.902 198.495 78.742C198.743 78.582 199.029 78.46 199.353 78.376C199.681 78.296 200.043 78.226 200.439 78.166C200.839 78.102 201.229 78.048 201.609 78.004C201.993 77.956 202.329 77.91 202.617 77.866L202.305 78.058C202.317 77.418 202.193 76.944 201.933 76.636C201.673 76.328 201.221 76.174 200.577 76.174C200.133 76.174 199.757 76.274 199.449 76.474C199.145 76.674 198.931 76.99 198.807 77.422L197.949 77.17C198.097 76.59 198.395 76.14 198.843 75.82C199.291 75.5 199.873 75.34 200.589 75.34C201.181 75.34 201.683 75.452 202.095 75.676C202.511 75.896 202.805 76.216 202.977 76.636C203.057 76.824 203.109 77.034 203.133 77.266C203.157 77.498 203.169 77.734 203.169 77.974V82H202.383V80.374L202.611 80.47C202.391 81.026 202.049 81.45 201.585 81.742C201.121 82.034 200.565 82.18 199.917 82.18ZM200.019 81.418C200.431 81.418 200.791 81.344 201.099 81.196C201.407 81.048 201.655 80.846 201.843 80.59C202.031 80.33 202.153 80.038 202.209 79.714C202.257 79.506 202.283 79.278 202.287 79.03C202.291 78.778 202.293 78.59 202.293 78.466L202.629 78.64C202.329 78.68 202.003 78.72 201.651 78.76C201.303 78.8 200.959 78.846 200.619 78.898C200.283 78.95 199.979 79.012 199.707 79.084C199.523 79.136 199.345 79.21 199.173 79.306C199.001 79.398 198.859 79.522 198.747 79.678C198.639 79.834 198.585 80.028 198.585 80.26C198.585 80.448 198.631 80.63 198.723 80.806C198.819 80.982 198.971 81.128 199.179 81.244C199.391 81.36 199.671 81.418 200.019 81.418Z" fill="black"/>
<path d="M8 67.5H204V66.5H8V67.5Z" fill="#727383" mask="url(#path-7-inside-1_4201_888)"/>
<path d="M8 67.5H204V66.5H8V67.5Z" fill="#727383" mask="url(#path-7-inside-1_4201_888)"/>
<path d="M8 67.5H204V66.5H8V67.5Z" fill="#727383" mask="url(#path-7-inside-1_4201_888)"/>
<path d="M8 67.5H204V66.5H8V67.5Z" fill="#D0D1E1" mask="url(#path-7-inside-1_4201_888)"/>
</g>
<defs>
<filter id="filter0_d_4201_888" x="0" y="0" width="212" height="101" filterUnits="userSpaceOnUse" color-interpolation-filters="sRGB">
<feFlood flood-opacity="0" result="BackgroundImageFix"/>
<feColorMatrix in="SourceAlpha" type="matrix" values="0 0 0 0 0 0 0 0 0 0 0 0 0 0 0 0 0 0 127 0" result="hardAlpha"/>
<feOffset dy="1"/>
<feGaussianBlur stdDeviation="1.5"/>
<feComposite in2="hardAlpha" operator="out"/>
<feColorMatrix type="matrix" values="0 0 0 0 0 0 0 0 0 0 0 0 0 0 0 0 0 0 0.25 0"/>
<feBlend mode="normal" in2="BackgroundImageFix" result="effect1_dropShadow_4201_888"/>
<feBlend mode="normal" in="SourceGraphic" in2="effect1_dropShadow_4201_888" result="shape"/>
</filter>
</defs>
</svg>
